<?xml version="1.0" encoding="utf-8" standalone="no"?>
<!DOCTYPE svg PUBLIC "-//W3C//DTD SVG 1.1//EN"
  "http://www.w3.org/Graphics/SVG/1.1/DTD/svg11.dtd">
<!-- Created with matplotlib (https://matplotlib.org/) -->
<svg height="345.42825pt" version="1.1" viewBox="0 0 571.227813 345.42825" width="571.227813pt" xmlns="http://www.w3.org/2000/svg" xmlns:xlink="http://www.w3.org/1999/xlink">
 <defs>
  <style type="text/css">
*{stroke-linecap:butt;stroke-linejoin:round;}
  </style>
 </defs>
 <g id="figure_1">
  <g id="patch_1">
   <path d="M 0 345.42825 
L 571.227813 345.42825 
L 571.227813 -0 
L 0 -0 
z
" style="fill:#ffffff;"/>
  </g>
  <g id="axes_1">
   <g id="patch_2">
    <path d="M 53.60625 307.872 
L 410.72625 307.872 
L 410.72625 41.76 
L 53.60625 41.76 
z
" style="fill:#ffffff;"/>
   </g>
   <g id="matplotlib.axis_1">
    <g id="xtick_1">
     <g id="line2d_1">
      <path clip-path="url(#p2c2c987b5a)" d="M 69.838977 307.872 
L 69.838977 41.76 
" style="fill:none;stroke:#b0b0b0;stroke-linecap:square;stroke-width:0.8;"/>
     </g>
     <g id="line2d_2">
      <defs>
       <path d="M 0 0 
L 0 3.5 
" id="m72aea734e5" style="stroke:#000000;stroke-width:0.8;"/>
      </defs>
      <g>
       <use style="stroke:#000000;stroke-width:0.8;" x="69.838977" xlink:href="#m72aea734e5" y="307.872"/>
      </g>
     </g>
     <g id="text_1">
      <!-- 0 -->
      <defs>
       <path d="M 31.78125 66.40625 
Q 24.171875 66.40625 20.328125 58.90625 
Q 16.5 51.421875 16.5 36.375 
Q 16.5 21.390625 20.328125 13.890625 
Q 24.171875 6.390625 31.78125 6.390625 
Q 39.453125 6.390625 43.28125 13.890625 
Q 47.125 21.390625 47.125 36.375 
Q 47.125 51.421875 43.28125 58.90625 
Q 39.453125 66.40625 31.78125 66.40625 
z
M 31.78125 74.21875 
Q 44.046875 74.21875 50.515625 64.515625 
Q 56.984375 54.828125 56.984375 36.375 
Q 56.984375 17.96875 50.515625 8.265625 
Q 44.046875 -1.421875 31.78125 -1.421875 
Q 19.53125 -1.421875 13.0625 8.265625 
Q 6.59375 17.96875 6.59375 36.375 
Q 6.59375 54.828125 13.0625 64.515625 
Q 19.53125 74.21875 31.78125 74.21875 
z
" id="DejaVuSans-48"/>
      </defs>
      <g transform="translate(66.657727 322.470438)scale(0.1 -0.1)">
       <use xlink:href="#DejaVuSans-48"/>
      </g>
     </g>
    </g>
    <g id="xtick_2">
     <g id="line2d_3">
      <path clip-path="url(#p2c2c987b5a)" d="M 136.095007 307.872 
L 136.095007 41.76 
" style="fill:none;stroke:#b0b0b0;stroke-linecap:square;stroke-width:0.8;"/>
     </g>
     <g id="line2d_4">
      <g>
       <use style="stroke:#000000;stroke-width:0.8;" x="136.095007" xlink:href="#m72aea734e5" y="307.872"/>
      </g>
     </g>
     <g id="text_2">
      <!-- 10 -->
      <defs>
       <path d="M 12.40625 8.296875 
L 28.515625 8.296875 
L 28.515625 63.921875 
L 10.984375 60.40625 
L 10.984375 69.390625 
L 28.421875 72.90625 
L 38.28125 72.90625 
L 38.28125 8.296875 
L 54.390625 8.296875 
L 54.390625 0 
L 12.40625 0 
z
" id="DejaVuSans-49"/>
      </defs>
      <g transform="translate(129.732507 322.470438)scale(0.1 -0.1)">
       <use xlink:href="#DejaVuSans-49"/>
       <use x="63.623047" xlink:href="#DejaVuSans-48"/>
      </g>
     </g>
    </g>
    <g id="xtick_3">
     <g id="line2d_5">
      <path clip-path="url(#p2c2c987b5a)" d="M 202.351037 307.872 
L 202.351037 41.76 
" style="fill:none;stroke:#b0b0b0;stroke-linecap:square;stroke-width:0.8;"/>
     </g>
     <g id="line2d_6">
      <g>
       <use style="stroke:#000000;stroke-width:0.8;" x="202.351037" xlink:href="#m72aea734e5" y="307.872"/>
      </g>
     </g>
     <g id="text_3">
      <!-- 20 -->
      <defs>
       <path d="M 19.1875 8.296875 
L 53.609375 8.296875 
L 53.609375 0 
L 7.328125 0 
L 7.328125 8.296875 
Q 12.9375 14.109375 22.625 23.890625 
Q 32.328125 33.6875 34.8125 36.53125 
Q 39.546875 41.84375 41.421875 45.53125 
Q 43.3125 49.21875 43.3125 52.78125 
Q 43.3125 58.59375 39.234375 62.25 
Q 35.15625 65.921875 28.609375 65.921875 
Q 23.96875 65.921875 18.8125 64.3125 
Q 13.671875 62.703125 7.8125 59.421875 
L 7.8125 69.390625 
Q 13.765625 71.78125 18.9375 73 
Q 24.125 74.21875 28.421875 74.21875 
Q 39.75 74.21875 46.484375 68.546875 
Q 53.21875 62.890625 53.21875 53.421875 
Q 53.21875 48.921875 51.53125 44.890625 
Q 49.859375 40.875 45.40625 35.40625 
Q 44.1875 33.984375 37.640625 27.21875 
Q 31.109375 20.453125 19.1875 8.296875 
z
" id="DejaVuSans-50"/>
      </defs>
      <g transform="translate(195.988537 322.470438)scale(0.1 -0.1)">
       <use xlink:href="#DejaVuSans-50"/>
       <use x="63.623047" xlink:href="#DejaVuSans-48"/>
      </g>
     </g>
    </g>
    <g id="xtick_4">
     <g id="line2d_7">
      <path clip-path="url(#p2c2c987b5a)" d="M 268.607066 307.872 
L 268.607066 41.76 
" style="fill:none;stroke:#b0b0b0;stroke-linecap:square;stroke-width:0.8;"/>
     </g>
     <g id="line2d_8">
      <g>
       <use style="stroke:#000000;stroke-width:0.8;" x="268.607066" xlink:href="#m72aea734e5" y="307.872"/>
      </g>
     </g>
     <g id="text_4">
      <!-- 30 -->
      <defs>
       <path d="M 40.578125 39.3125 
Q 47.65625 37.796875 51.625 33 
Q 55.609375 28.21875 55.609375 21.1875 
Q 55.609375 10.40625 48.1875 4.484375 
Q 40.765625 -1.421875 27.09375 -1.421875 
Q 22.515625 -1.421875 17.65625 -0.515625 
Q 12.796875 0.390625 7.625 2.203125 
L 7.625 11.71875 
Q 11.71875 9.328125 16.59375 8.109375 
Q 21.484375 6.890625 26.8125 6.890625 
Q 36.078125 6.890625 40.9375 10.546875 
Q 45.796875 14.203125 45.796875 21.1875 
Q 45.796875 27.640625 41.28125 31.265625 
Q 36.765625 34.90625 28.71875 34.90625 
L 20.21875 34.90625 
L 20.21875 43.015625 
L 29.109375 43.015625 
Q 36.375 43.015625 40.234375 45.921875 
Q 44.09375 48.828125 44.09375 54.296875 
Q 44.09375 59.90625 40.109375 62.90625 
Q 36.140625 65.921875 28.71875 65.921875 
Q 24.65625 65.921875 20.015625 65.03125 
Q 15.375 64.15625 9.8125 62.3125 
L 9.8125 71.09375 
Q 15.4375 72.65625 20.34375 73.4375 
Q 25.25 74.21875 29.59375 74.21875 
Q 40.828125 74.21875 47.359375 69.109375 
Q 53.90625 64.015625 53.90625 55.328125 
Q 53.90625 49.265625 50.4375 45.09375 
Q 46.96875 40.921875 40.578125 39.3125 
z
" id="DejaVuSans-51"/>
      </defs>
      <g transform="translate(262.244566 322.470438)scale(0.1 -0.1)">
       <use xlink:href="#DejaVuSans-51"/>
       <use x="63.623047" xlink:href="#DejaVuSans-48"/>
      </g>
     </g>
    </g>
    <g id="xtick_5">
     <g id="line2d_9">
      <path clip-path="url(#p2c2c987b5a)" d="M 334.863096 307.872 
L 334.863096 41.76 
" style="fill:none;stroke:#b0b0b0;stroke-linecap:square;stroke-width:0.8;"/>
     </g>
     <g id="line2d_10">
      <g>
       <use style="stroke:#000000;stroke-width:0.8;" x="334.863096" xlink:href="#m72aea734e5" y="307.872"/>
      </g>
     </g>
     <g id="text_5">
      <!-- 40 -->
      <defs>
       <path d="M 37.796875 64.3125 
L 12.890625 25.390625 
L 37.796875 25.390625 
z
M 35.203125 72.90625 
L 47.609375 72.90625 
L 47.609375 25.390625 
L 58.015625 25.390625 
L 58.015625 17.1875 
L 47.609375 17.1875 
L 47.609375 0 
L 37.796875 0 
L 37.796875 17.1875 
L 4.890625 17.1875 
L 4.890625 26.703125 
z
" id="DejaVuSans-52"/>
      </defs>
      <g transform="translate(328.500596 322.470438)scale(0.1 -0.1)">
       <use xlink:href="#DejaVuSans-52"/>
       <use x="63.623047" xlink:href="#DejaVuSans-48"/>
      </g>
     </g>
    </g>
    <g id="xtick_6">
     <g id="line2d_11">
      <path clip-path="url(#p2c2c987b5a)" d="M 401.119126 307.872 
L 401.119126 41.76 
" style="fill:none;stroke:#b0b0b0;stroke-linecap:square;stroke-width:0.8;"/>
     </g>
     <g id="line2d_12">
      <g>
       <use style="stroke:#000000;stroke-width:0.8;" x="401.119126" xlink:href="#m72aea734e5" y="307.872"/>
      </g>
     </g>
     <g id="text_6">
      <!-- 50 -->
      <defs>
       <path d="M 10.796875 72.90625 
L 49.515625 72.90625 
L 49.515625 64.59375 
L 19.828125 64.59375 
L 19.828125 46.734375 
Q 21.96875 47.46875 24.109375 47.828125 
Q 26.265625 48.1875 28.421875 48.1875 
Q 40.625 48.1875 47.75 41.5 
Q 54.890625 34.8125 54.890625 23.390625 
Q 54.890625 11.625 47.5625 5.09375 
Q 40.234375 -1.421875 26.90625 -1.421875 
Q 22.3125 -1.421875 17.546875 -0.640625 
Q 12.796875 0.140625 7.71875 1.703125 
L 7.71875 11.625 
Q 12.109375 9.234375 16.796875 8.0625 
Q 21.484375 6.890625 26.703125 6.890625 
Q 35.15625 6.890625 40.078125 11.328125 
Q 45.015625 15.765625 45.015625 23.390625 
Q 45.015625 31 40.078125 35.4375 
Q 35.15625 39.890625 26.703125 39.890625 
Q 22.75 39.890625 18.8125 39.015625 
Q 14.890625 38.140625 10.796875 36.28125 
z
" id="DejaVuSans-53"/>
      </defs>
      <g transform="translate(394.756626 322.470438)scale(0.1 -0.1)">
       <use xlink:href="#DejaVuSans-53"/>
       <use x="63.623047" xlink:href="#DejaVuSans-48"/>
      </g>
     </g>
    </g>
    <g id="text_7">
     <!-- Epoch Num -->
     <defs>
      <path d="M 9.8125 72.90625 
L 55.90625 72.90625 
L 55.90625 64.59375 
L 19.671875 64.59375 
L 19.671875 43.015625 
L 54.390625 43.015625 
L 54.390625 34.71875 
L 19.671875 34.71875 
L 19.671875 8.296875 
L 56.78125 8.296875 
L 56.78125 0 
L 9.8125 0 
z
" id="DejaVuSans-69"/>
      <path d="M 18.109375 8.203125 
L 18.109375 -20.796875 
L 9.078125 -20.796875 
L 9.078125 54.6875 
L 18.109375 54.6875 
L 18.109375 46.390625 
Q 20.953125 51.265625 25.265625 53.625 
Q 29.59375 56 35.59375 56 
Q 45.5625 56 51.78125 48.09375 
Q 58.015625 40.1875 58.015625 27.296875 
Q 58.015625 14.40625 51.78125 6.484375 
Q 45.5625 -1.421875 35.59375 -1.421875 
Q 29.59375 -1.421875 25.265625 0.953125 
Q 20.953125 3.328125 18.109375 8.203125 
z
M 48.6875 27.296875 
Q 48.6875 37.203125 44.609375 42.84375 
Q 40.53125 48.484375 33.40625 48.484375 
Q 26.265625 48.484375 22.1875 42.84375 
Q 18.109375 37.203125 18.109375 27.296875 
Q 18.109375 17.390625 22.1875 11.75 
Q 26.265625 6.109375 33.40625 6.109375 
Q 40.53125 6.109375 44.609375 11.75 
Q 48.6875 17.390625 48.6875 27.296875 
z
" id="DejaVuSans-112"/>
      <path d="M 30.609375 48.390625 
Q 23.390625 48.390625 19.1875 42.75 
Q 14.984375 37.109375 14.984375 27.296875 
Q 14.984375 17.484375 19.15625 11.84375 
Q 23.34375 6.203125 30.609375 6.203125 
Q 37.796875 6.203125 41.984375 11.859375 
Q 46.1875 17.53125 46.1875 27.296875 
Q 46.1875 37.015625 41.984375 42.703125 
Q 37.796875 48.390625 30.609375 48.390625 
z
M 30.609375 56 
Q 42.328125 56 49.015625 48.375 
Q 55.71875 40.765625 55.71875 27.296875 
Q 55.71875 13.875 49.015625 6.21875 
Q 42.328125 -1.421875 30.609375 -1.421875 
Q 18.84375 -1.421875 12.171875 6.21875 
Q 5.515625 13.875 5.515625 27.296875 
Q 5.515625 40.765625 12.171875 48.375 
Q 18.84375 56 30.609375 56 
z
" id="DejaVuSans-111"/>
      <path d="M 48.78125 52.59375 
L 48.78125 44.1875 
Q 44.96875 46.296875 41.140625 47.34375 
Q 37.3125 48.390625 33.40625 48.390625 
Q 24.65625 48.390625 19.8125 42.84375 
Q 14.984375 37.3125 14.984375 27.296875 
Q 14.984375 17.28125 19.8125 11.734375 
Q 24.65625 6.203125 33.40625 6.203125 
Q 37.3125 6.203125 41.140625 7.25 
Q 44.96875 8.296875 48.78125 10.40625 
L 48.78125 2.09375 
Q 45.015625 0.34375 40.984375 -0.53125 
Q 36.96875 -1.421875 32.421875 -1.421875 
Q 20.0625 -1.421875 12.78125 6.34375 
Q 5.515625 14.109375 5.515625 27.296875 
Q 5.515625 40.671875 12.859375 48.328125 
Q 20.21875 56 33.015625 56 
Q 37.15625 56 41.109375 55.140625 
Q 45.0625 54.296875 48.78125 52.59375 
z
" id="DejaVuSans-99"/>
      <path d="M 54.890625 33.015625 
L 54.890625 0 
L 45.90625 0 
L 45.90625 32.71875 
Q 45.90625 40.484375 42.875 44.328125 
Q 39.84375 48.1875 33.796875 48.1875 
Q 26.515625 48.1875 22.3125 43.546875 
Q 18.109375 38.921875 18.109375 30.90625 
L 18.109375 0 
L 9.078125 0 
L 9.078125 75.984375 
L 18.109375 75.984375 
L 18.109375 46.1875 
Q 21.34375 51.125 25.703125 53.5625 
Q 30.078125 56 35.796875 56 
Q 45.21875 56 50.046875 50.171875 
Q 54.890625 44.34375 54.890625 33.015625 
z
" id="DejaVuSans-104"/>
      <path id="DejaVuSans-32"/>
      <path d="M 9.8125 72.90625 
L 23.09375 72.90625 
L 55.421875 11.921875 
L 55.421875 72.90625 
L 64.984375 72.90625 
L 64.984375 0 
L 51.703125 0 
L 19.390625 60.984375 
L 19.390625 0 
L 9.8125 0 
z
" id="DejaVuSans-78"/>
      <path d="M 8.5 21.578125 
L 8.5 54.6875 
L 17.484375 54.6875 
L 17.484375 21.921875 
Q 17.484375 14.15625 20.5 10.265625 
Q 23.53125 6.390625 29.59375 6.390625 
Q 36.859375 6.390625 41.078125 11.03125 
Q 45.3125 15.671875 45.3125 23.6875 
L 45.3125 54.6875 
L 54.296875 54.6875 
L 54.296875 0 
L 45.3125 0 
L 45.3125 8.40625 
Q 42.046875 3.421875 37.71875 1 
Q 33.40625 -1.421875 27.6875 -1.421875 
Q 18.265625 -1.421875 13.375 4.4375 
Q 8.5 10.296875 8.5 21.578125 
z
M 31.109375 56 
z
" id="DejaVuSans-117"/>
      <path d="M 52 44.1875 
Q 55.375 50.25 60.0625 53.125 
Q 64.75 56 71.09375 56 
Q 79.640625 56 84.28125 50.015625 
Q 88.921875 44.046875 88.921875 33.015625 
L 88.921875 0 
L 79.890625 0 
L 79.890625 32.71875 
Q 79.890625 40.578125 77.09375 44.375 
Q 74.3125 48.1875 68.609375 48.1875 
Q 61.625 48.1875 57.5625 43.546875 
Q 53.515625 38.921875 53.515625 30.90625 
L 53.515625 0 
L 44.484375 0 
L 44.484375 32.71875 
Q 44.484375 40.625 41.703125 44.40625 
Q 38.921875 48.1875 33.109375 48.1875 
Q 26.21875 48.1875 22.15625 43.53125 
Q 18.109375 38.875 18.109375 30.90625 
L 18.109375 0 
L 9.078125 0 
L 9.078125 54.6875 
L 18.109375 54.6875 
L 18.109375 46.1875 
Q 21.1875 51.21875 25.484375 53.609375 
Q 29.78125 56 35.6875 56 
Q 41.65625 56 45.828125 52.96875 
Q 50 49.953125 52 44.1875 
z
" id="DejaVuSans-109"/>
     </defs>
     <g transform="translate(203.486563 336.148562)scale(0.1 -0.1)">
      <use xlink:href="#DejaVuSans-69"/>
      <use x="63.183594" xlink:href="#DejaVuSans-112"/>
      <use x="126.660156" xlink:href="#DejaVuSans-111"/>
      <use x="187.841797" xlink:href="#DejaVuSans-99"/>
      <use x="242.822266" xlink:href="#DejaVuSans-104"/>
      <use x="306.201172" xlink:href="#DejaVuSans-32"/>
      <use x="337.988281" xlink:href="#DejaVuSans-78"/>
      <use x="412.792969" xlink:href="#DejaVuSans-117"/>
      <use x="476.171875" xlink:href="#DejaVuSans-109"/>
     </g>
    </g>
   </g>
   <g id="matplotlib.axis_2">
    <g id="ytick_1">
     <g id="line2d_13">
      <path clip-path="url(#p2c2c987b5a)" d="M 53.60625 299.923285 
L 410.72625 299.923285 
" style="fill:none;stroke:#b0b0b0;stroke-linecap:square;stroke-width:0.8;"/>
     </g>
     <g id="line2d_14">
      <defs>
       <path d="M 0 0 
L -3.5 0 
" id="mb7376cf0db" style="stroke:#000000;stroke-width:0.8;"/>
      </defs>
      <g>
       <use style="stroke:#000000;stroke-width:0.8;" x="53.60625" xlink:href="#mb7376cf0db" y="299.923285"/>
      </g>
     </g>
     <g id="text_8">
      <!-- 0 -->
      <g transform="translate(40.24375 303.722504)scale(0.1 -0.1)">
       <use xlink:href="#DejaVuSans-48"/>
      </g>
     </g>
    </g>
    <g id="ytick_2">
     <g id="line2d_15">
      <path clip-path="url(#p2c2c987b5a)" d="M 53.60625 245.507959 
L 410.72625 245.507959 
" style="fill:none;stroke:#b0b0b0;stroke-linecap:square;stroke-width:0.8;"/>
     </g>
     <g id="line2d_16">
      <g>
       <use style="stroke:#000000;stroke-width:0.8;" x="53.60625" xlink:href="#mb7376cf0db" y="245.507959"/>
      </g>
     </g>
     <g id="text_9">
      <!-- 500 -->
      <g transform="translate(27.51875 249.307178)scale(0.1 -0.1)">
       <use xlink:href="#DejaVuSans-53"/>
       <use x="63.623047" xlink:href="#DejaVuSans-48"/>
       <use x="127.246094" xlink:href="#DejaVuSans-48"/>
      </g>
     </g>
    </g>
    <g id="ytick_3">
     <g id="line2d_17">
      <path clip-path="url(#p2c2c987b5a)" d="M 53.60625 191.092633 
L 410.72625 191.092633 
" style="fill:none;stroke:#b0b0b0;stroke-linecap:square;stroke-width:0.8;"/>
     </g>
     <g id="line2d_18">
      <g>
       <use style="stroke:#000000;stroke-width:0.8;" x="53.60625" xlink:href="#mb7376cf0db" y="191.092633"/>
      </g>
     </g>
     <g id="text_10">
      <!-- 1000 -->
      <g transform="translate(21.15625 194.891852)scale(0.1 -0.1)">
       <use xlink:href="#DejaVuSans-49"/>
       <use x="63.623047" xlink:href="#DejaVuSans-48"/>
       <use x="127.246094" xlink:href="#DejaVuSans-48"/>
       <use x="190.869141" xlink:href="#DejaVuSans-48"/>
      </g>
     </g>
    </g>
    <g id="ytick_4">
     <g id="line2d_19">
      <path clip-path="url(#p2c2c987b5a)" d="M 53.60625 136.677308 
L 410.72625 136.677308 
" style="fill:none;stroke:#b0b0b0;stroke-linecap:square;stroke-width:0.8;"/>
     </g>
     <g id="line2d_20">
      <g>
       <use style="stroke:#000000;stroke-width:0.8;" x="53.60625" xlink:href="#mb7376cf0db" y="136.677308"/>
      </g>
     </g>
     <g id="text_11">
      <!-- 1500 -->
      <g transform="translate(21.15625 140.476526)scale(0.1 -0.1)">
       <use xlink:href="#DejaVuSans-49"/>
       <use x="63.623047" xlink:href="#DejaVuSans-53"/>
       <use x="127.246094" xlink:href="#DejaVuSans-48"/>
       <use x="190.869141" xlink:href="#DejaVuSans-48"/>
      </g>
     </g>
    </g>
    <g id="ytick_5">
     <g id="line2d_21">
      <path clip-path="url(#p2c2c987b5a)" d="M 53.60625 82.261982 
L 410.72625 82.261982 
" style="fill:none;stroke:#b0b0b0;stroke-linecap:square;stroke-width:0.8;"/>
     </g>
     <g id="line2d_22">
      <g>
       <use style="stroke:#000000;stroke-width:0.8;" x="53.60625" xlink:href="#mb7376cf0db" y="82.261982"/>
      </g>
     </g>
     <g id="text_12">
      <!-- 2000 -->
      <g transform="translate(21.15625 86.061201)scale(0.1 -0.1)">
       <use xlink:href="#DejaVuSans-50"/>
       <use x="63.623047" xlink:href="#DejaVuSans-48"/>
       <use x="127.246094" xlink:href="#DejaVuSans-48"/>
       <use x="190.869141" xlink:href="#DejaVuSans-48"/>
      </g>
     </g>
    </g>
    <g id="text_13">
     <!-- Elapsed_time -->
     <defs>
      <path d="M 9.421875 75.984375 
L 18.40625 75.984375 
L 18.40625 0 
L 9.421875 0 
z
" id="DejaVuSans-108"/>
      <path d="M 34.28125 27.484375 
Q 23.390625 27.484375 19.1875 25 
Q 14.984375 22.515625 14.984375 16.5 
Q 14.984375 11.71875 18.140625 8.90625 
Q 21.296875 6.109375 26.703125 6.109375 
Q 34.1875 6.109375 38.703125 11.40625 
Q 43.21875 16.703125 43.21875 25.484375 
L 43.21875 27.484375 
z
M 52.203125 31.203125 
L 52.203125 0 
L 43.21875 0 
L 43.21875 8.296875 
Q 40.140625 3.328125 35.546875 0.953125 
Q 30.953125 -1.421875 24.3125 -1.421875 
Q 15.921875 -1.421875 10.953125 3.296875 
Q 6 8.015625 6 15.921875 
Q 6 25.140625 12.171875 29.828125 
Q 18.359375 34.515625 30.609375 34.515625 
L 43.21875 34.515625 
L 43.21875 35.40625 
Q 43.21875 41.609375 39.140625 45 
Q 35.0625 48.390625 27.6875 48.390625 
Q 23 48.390625 18.546875 47.265625 
Q 14.109375 46.140625 10.015625 43.890625 
L 10.015625 52.203125 
Q 14.9375 54.109375 19.578125 55.046875 
Q 24.21875 56 28.609375 56 
Q 40.484375 56 46.34375 49.84375 
Q 52.203125 43.703125 52.203125 31.203125 
z
" id="DejaVuSans-97"/>
      <path d="M 44.28125 53.078125 
L 44.28125 44.578125 
Q 40.484375 46.53125 36.375 47.5 
Q 32.28125 48.484375 27.875 48.484375 
Q 21.1875 48.484375 17.84375 46.4375 
Q 14.5 44.390625 14.5 40.28125 
Q 14.5 37.15625 16.890625 35.375 
Q 19.28125 33.59375 26.515625 31.984375 
L 29.59375 31.296875 
Q 39.15625 29.25 43.1875 25.515625 
Q 47.21875 21.78125 47.21875 15.09375 
Q 47.21875 7.46875 41.1875 3.015625 
Q 35.15625 -1.421875 24.609375 -1.421875 
Q 20.21875 -1.421875 15.453125 -0.5625 
Q 10.6875 0.296875 5.421875 2 
L 5.421875 11.28125 
Q 10.40625 8.6875 15.234375 7.390625 
Q 20.0625 6.109375 24.8125 6.109375 
Q 31.15625 6.109375 34.5625 8.28125 
Q 37.984375 10.453125 37.984375 14.40625 
Q 37.984375 18.0625 35.515625 20.015625 
Q 33.0625 21.96875 24.703125 23.78125 
L 21.578125 24.515625 
Q 13.234375 26.265625 9.515625 29.90625 
Q 5.8125 33.546875 5.8125 39.890625 
Q 5.8125 47.609375 11.28125 51.796875 
Q 16.75 56 26.8125 56 
Q 31.78125 56 36.171875 55.265625 
Q 40.578125 54.546875 44.28125 53.078125 
z
" id="DejaVuSans-115"/>
      <path d="M 56.203125 29.59375 
L 56.203125 25.203125 
L 14.890625 25.203125 
Q 15.484375 15.921875 20.484375 11.0625 
Q 25.484375 6.203125 34.421875 6.203125 
Q 39.59375 6.203125 44.453125 7.46875 
Q 49.3125 8.734375 54.109375 11.28125 
L 54.109375 2.78125 
Q 49.265625 0.734375 44.1875 -0.34375 
Q 39.109375 -1.421875 33.890625 -1.421875 
Q 20.796875 -1.421875 13.15625 6.1875 
Q 5.515625 13.8125 5.515625 26.8125 
Q 5.515625 40.234375 12.765625 48.109375 
Q 20.015625 56 32.328125 56 
Q 43.359375 56 49.78125 48.890625 
Q 56.203125 41.796875 56.203125 29.59375 
z
M 47.21875 32.234375 
Q 47.125 39.59375 43.09375 43.984375 
Q 39.0625 48.390625 32.421875 48.390625 
Q 24.90625 48.390625 20.390625 44.140625 
Q 15.875 39.890625 15.1875 32.171875 
z
" id="DejaVuSans-101"/>
      <path d="M 45.40625 46.390625 
L 45.40625 75.984375 
L 54.390625 75.984375 
L 54.390625 0 
L 45.40625 0 
L 45.40625 8.203125 
Q 42.578125 3.328125 38.25 0.953125 
Q 33.9375 -1.421875 27.875 -1.421875 
Q 17.96875 -1.421875 11.734375 6.484375 
Q 5.515625 14.40625 5.515625 27.296875 
Q 5.515625 40.1875 11.734375 48.09375 
Q 17.96875 56 27.875 56 
Q 33.9375 56 38.25 53.625 
Q 42.578125 51.265625 45.40625 46.390625 
z
M 14.796875 27.296875 
Q 14.796875 17.390625 18.875 11.75 
Q 22.953125 6.109375 30.078125 6.109375 
Q 37.203125 6.109375 41.296875 11.75 
Q 45.40625 17.390625 45.40625 27.296875 
Q 45.40625 37.203125 41.296875 42.84375 
Q 37.203125 48.484375 30.078125 48.484375 
Q 22.953125 48.484375 18.875 42.84375 
Q 14.796875 37.203125 14.796875 27.296875 
z
" id="DejaVuSans-100"/>
      <path d="M 50.984375 -16.609375 
L 50.984375 -23.578125 
L -0.984375 -23.578125 
L -0.984375 -16.609375 
z
" id="DejaVuSans-95"/>
      <path d="M 18.3125 70.21875 
L 18.3125 54.6875 
L 36.8125 54.6875 
L 36.8125 47.703125 
L 18.3125 47.703125 
L 18.3125 18.015625 
Q 18.3125 11.328125 20.140625 9.421875 
Q 21.96875 7.515625 27.59375 7.515625 
L 36.8125 7.515625 
L 36.8125 0 
L 27.59375 0 
Q 17.1875 0 13.234375 3.875 
Q 9.28125 7.765625 9.28125 18.015625 
L 9.28125 47.703125 
L 2.6875 47.703125 
L 2.6875 54.6875 
L 9.28125 54.6875 
L 9.28125 70.21875 
z
" id="DejaVuSans-116"/>
      <path d="M 9.421875 54.6875 
L 18.40625 54.6875 
L 18.40625 0 
L 9.421875 0 
z
M 9.421875 75.984375 
L 18.40625 75.984375 
L 18.40625 64.59375 
L 9.421875 64.59375 
z
" id="DejaVuSans-105"/>
     </defs>
     <g transform="translate(14.798437 208.254281)rotate(-90)scale(0.1 -0.1)">
      <use xlink:href="#DejaVuSans-69"/>
      <use x="63.183594" xlink:href="#DejaVuSans-108"/>
      <use x="90.966797" xlink:href="#DejaVuSans-97"/>
      <use x="152.246094" xlink:href="#DejaVuSans-112"/>
      <use x="215.722656" xlink:href="#DejaVuSans-115"/>
      <use x="267.822266" xlink:href="#DejaVuSans-101"/>
      <use x="329.345703" xlink:href="#DejaVuSans-100"/>
      <use x="392.822266" xlink:href="#DejaVuSans-95"/>
      <use x="442.822266" xlink:href="#DejaVuSans-116"/>
      <use x="482.03125" xlink:href="#DejaVuSans-105"/>
      <use x="509.814453" xlink:href="#DejaVuSans-109"/>
      <use x="607.226562" xlink:href="#DejaVuSans-101"/>
     </g>
    </g>
   </g>
   <g id="line2d_23">
    <path clip-path="url(#p2c2c987b5a)" d="M 69.838977 294.798499 
L 76.46458 289.893757 
L 83.090183 284.981445 
L 89.715786 280.068768 
L 96.341389 275.129968 
L 102.966992 270.209794 
L 109.592595 265.250704 
L 116.218198 260.330173 
L 122.843801 255.38839 
L 129.469404 250.424006 
L 136.095007 245.492204 
L 142.72061 240.592599 
L 149.346213 235.647085 
L 155.971816 230.739454 
L 162.597419 225.853967 
L 169.223022 220.956784 
L 175.848625 215.982385 
L 182.474228 211.056105 
L 189.099831 206.185397 
L 195.725434 201.251474 
L 202.351037 196.34087 
L 208.97664 191.42596 
L 215.602243 186.532066 
L 222.227846 181.607962 
L 228.853449 176.705277 
L 235.479051 171.782596 
L 242.104654 166.823547 
L 248.730257 161.932303 
L 255.35586 157.003852 
L 261.981463 152.051866 
L 268.607066 147.117465 
L 275.232669 142.170357 
L 281.858272 137.290234 
L 288.483875 132.416359 
L 295.109478 127.547631 
L 301.735081 122.636211 
L 308.360684 117.757735 
L 314.986287 112.857067 
L 321.61189 107.945804 
L 328.237493 103.041377 
L 334.863096 98.111947 
L 341.488699 93.221014 
L 348.114302 88.282444 
L 354.739905 83.351043 
L 361.365508 78.424086 
L 367.991111 73.527878 
L 374.616714 68.640069 
L 381.242317 63.663147 
L 387.86792 58.75389 
L 394.493523 53.856 
" style="fill:none;stroke:#1f77b4;stroke-linecap:square;stroke-width:1.5;"/>
    <defs>
     <path d="M -3 3 
L 3 -3 
M -3 -3 
L 3 3 
" id="m1bc6d6508d" style="stroke:#1f77b4;"/>
    </defs>
    <g clip-path="url(#p2c2c987b5a)">
     <use style="fill:#1f77b4;stroke:#1f77b4;" x="69.838977" xlink:href="#m1bc6d6508d" y="294.798499"/>
     <use style="fill:#1f77b4;stroke:#1f77b4;" x="76.46458" xlink:href="#m1bc6d6508d" y="289.893757"/>
     <use style="fill:#1f77b4;stroke:#1f77b4;" x="83.090183" xlink:href="#m1bc6d6508d" y="284.981445"/>
     <use style="fill:#1f77b4;stroke:#1f77b4;" x="89.715786" xlink:href="#m1bc6d6508d" y="280.068768"/>
     <use style="fill:#1f77b4;stroke:#1f77b4;" x="96.341389" xlink:href="#m1bc6d6508d" y="275.129968"/>
     <use style="fill:#1f77b4;stroke:#1f77b4;" x="102.966992" xlink:href="#m1bc6d6508d" y="270.209794"/>
     <use style="fill:#1f77b4;stroke:#1f77b4;" x="109.592595" xlink:href="#m1bc6d6508d" y="265.250704"/>
     <use style="fill:#1f77b4;stroke:#1f77b4;" x="116.218198" xlink:href="#m1bc6d6508d" y="260.330173"/>
     <use style="fill:#1f77b4;stroke:#1f77b4;" x="122.843801" xlink:href="#m1bc6d6508d" y="255.38839"/>
     <use style="fill:#1f77b4;stroke:#1f77b4;" x="129.469404" xlink:href="#m1bc6d6508d" y="250.424006"/>
     <use style="fill:#1f77b4;stroke:#1f77b4;" x="136.095007" xlink:href="#m1bc6d6508d" y="245.492204"/>
     <use style="fill:#1f77b4;stroke:#1f77b4;" x="142.72061" xlink:href="#m1bc6d6508d" y="240.592599"/>
     <use style="fill:#1f77b4;stroke:#1f77b4;" x="149.346213" xlink:href="#m1bc6d6508d" y="235.647085"/>
     <use style="fill:#1f77b4;stroke:#1f77b4;" x="155.971816" xlink:href="#m1bc6d6508d" y="230.739454"/>
     <use style="fill:#1f77b4;stroke:#1f77b4;" x="162.597419" xlink:href="#m1bc6d6508d" y="225.853967"/>
     <use style="fill:#1f77b4;stroke:#1f77b4;" x="169.223022" xlink:href="#m1bc6d6508d" y="220.956784"/>
     <use style="fill:#1f77b4;stroke:#1f77b4;" x="175.848625" xlink:href="#m1bc6d6508d" y="215.982385"/>
     <use style="fill:#1f77b4;stroke:#1f77b4;" x="182.474228" xlink:href="#m1bc6d6508d" y="211.056105"/>
     <use style="fill:#1f77b4;stroke:#1f77b4;" x="189.099831" xlink:href="#m1bc6d6508d" y="206.185397"/>
     <use style="fill:#1f77b4;stroke:#1f77b4;" x="195.725434" xlink:href="#m1bc6d6508d" y="201.251474"/>
     <use style="fill:#1f77b4;stroke:#1f77b4;" x="202.351037" xlink:href="#m1bc6d6508d" y="196.34087"/>
     <use style="fill:#1f77b4;stroke:#1f77b4;" x="208.97664" xlink:href="#m1bc6d6508d" y="191.42596"/>
     <use style="fill:#1f77b4;stroke:#1f77b4;" x="215.602243" xlink:href="#m1bc6d6508d" y="186.532066"/>
     <use style="fill:#1f77b4;stroke:#1f77b4;" x="222.227846" xlink:href="#m1bc6d6508d" y="181.607962"/>
     <use style="fill:#1f77b4;stroke:#1f77b4;" x="228.853449" xlink:href="#m1bc6d6508d" y="176.705277"/>
     <use style="fill:#1f77b4;stroke:#1f77b4;" x="235.479051" xlink:href="#m1bc6d6508d" y="171.782596"/>
     <use style="fill:#1f77b4;stroke:#1f77b4;" x="242.104654" xlink:href="#m1bc6d6508d" y="166.823547"/>
     <use style="fill:#1f77b4;stroke:#1f77b4;" x="248.730257" xlink:href="#m1bc6d6508d" y="161.932303"/>
     <use style="fill:#1f77b4;stroke:#1f77b4;" x="255.35586" xlink:href="#m1bc6d6508d" y="157.003852"/>
     <use style="fill:#1f77b4;stroke:#1f77b4;" x="261.981463" xlink:href="#m1bc6d6508d" y="152.051866"/>
     <use style="fill:#1f77b4;stroke:#1f77b4;" x="268.607066" xlink:href="#m1bc6d6508d" y="147.117465"/>
     <use style="fill:#1f77b4;stroke:#1f77b4;" x="275.232669" xlink:href="#m1bc6d6508d" y="142.170357"/>
     <use style="fill:#1f77b4;stroke:#1f77b4;" x="281.858272" xlink:href="#m1bc6d6508d" y="137.290234"/>
     <use style="fill:#1f77b4;stroke:#1f77b4;" x="288.483875" xlink:href="#m1bc6d6508d" y="132.416359"/>
     <use style="fill:#1f77b4;stroke:#1f77b4;" x="295.109478" xlink:href="#m1bc6d6508d" y="127.547631"/>
     <use style="fill:#1f77b4;stroke:#1f77b4;" x="301.735081" xlink:href="#m1bc6d6508d" y="122.636211"/>
     <use style="fill:#1f77b4;stroke:#1f77b4;" x="308.360684" xlink:href="#m1bc6d6508d" y="117.757735"/>
     <use style="fill:#1f77b4;stroke:#1f77b4;" x="314.986287" xlink:href="#m1bc6d6508d" y="112.857067"/>
     <use style="fill:#1f77b4;stroke:#1f77b4;" x="321.61189" xlink:href="#m1bc6d6508d" y="107.945804"/>
     <use style="fill:#1f77b4;stroke:#1f77b4;" x="328.237493" xlink:href="#m1bc6d6508d" y="103.041377"/>
     <use style="fill:#1f77b4;stroke:#1f77b4;" x="334.863096" xlink:href="#m1bc6d6508d" y="98.111947"/>
     <use style="fill:#1f77b4;stroke:#1f77b4;" x="341.488699" xlink:href="#m1bc6d6508d" y="93.221014"/>
     <use style="fill:#1f77b4;stroke:#1f77b4;" x="348.114302" xlink:href="#m1bc6d6508d" y="88.282444"/>
     <use style="fill:#1f77b4;stroke:#1f77b4;" x="354.739905" xlink:href="#m1bc6d6508d" y="83.351043"/>
     <use style="fill:#1f77b4;stroke:#1f77b4;" x="361.365508" xlink:href="#m1bc6d6508d" y="78.424086"/>
     <use style="fill:#1f77b4;stroke:#1f77b4;" x="367.991111" xlink:href="#m1bc6d6508d" y="73.527878"/>
     <use style="fill:#1f77b4;stroke:#1f77b4;" x="374.616714" xlink:href="#m1bc6d6508d" y="68.640069"/>
     <use style="fill:#1f77b4;stroke:#1f77b4;" x="381.242317" xlink:href="#m1bc6d6508d" y="63.663147"/>
     <use style="fill:#1f77b4;stroke:#1f77b4;" x="387.86792" xlink:href="#m1bc6d6508d" y="58.75389"/>
     <use style="fill:#1f77b4;stroke:#1f77b4;" x="394.493523" xlink:href="#m1bc6d6508d" y="53.856"/>
    </g>
   </g>
   <g id="line2d_24">
    <path clip-path="url(#p2c2c987b5a)" d="M 69.838977 295.232126 
L 76.46458 290.765177 
L 83.090183 286.062812 
L 89.715786 281.376601 
L 96.341389 276.959058 
L 102.966992 272.543629 
L 109.592595 268.124647 
L 116.218198 263.652911 
L 122.843801 259.224245 
L 129.469404 254.777525 
L 136.095007 250.331399 
L 142.72061 245.871405 
L 149.346213 241.392185 
L 155.971816 236.926454 
L 162.597419 232.489689 
L 169.223022 228.019195 
L 175.848625 223.576374 
L 182.474228 219.13462 
L 189.099831 214.691213 
L 195.725434 210.213752 
L 202.351037 205.707789 
L 208.97664 201.231125 
L 215.602243 196.737568 
L 222.227846 192.269147 
L 228.853449 187.885977 
L 235.479051 183.392505 
L 242.104654 178.957567 
L 248.730257 174.518538 
L 255.35586 170.048368 
L 261.981463 165.596558 
L 268.607066 161.150541 
L 275.232669 156.698088 
L 281.858272 152.246437 
L 288.483875 147.809387 
L 295.109478 143.355531 
L 301.735081 138.877729 
L 308.360684 134.418443 
L 314.986287 129.994238 
L 321.61189 125.523662 
L 328.237493 121.080425 
L 334.863096 116.661285 
L 341.488699 112.202225 
L 348.114302 107.739712 
L 354.739905 103.283332 
L 361.365508 98.760418 
L 367.991111 94.289696 
L 374.616714 89.85406 
L 381.242317 85.356986 
L 387.86792 80.909126 
L 394.493523 76.440085 
" style="fill:none;stroke:#ff7f0e;stroke-linecap:square;stroke-width:1.5;"/>
    <defs>
     <path d="M -3 3 
L 3 -3 
M -3 -3 
L 3 3 
" id="m9f0246e72d" style="stroke:#ff7f0e;"/>
    </defs>
    <g clip-path="url(#p2c2c987b5a)">
     <use style="fill:#ff7f0e;stroke:#ff7f0e;" x="69.838977" xlink:href="#m9f0246e72d" y="295.232126"/>
     <use style="fill:#ff7f0e;stroke:#ff7f0e;" x="76.46458" xlink:href="#m9f0246e72d" y="290.765177"/>
     <use style="fill:#ff7f0e;stroke:#ff7f0e;" x="83.090183" xlink:href="#m9f0246e72d" y="286.062812"/>
     <use style="fill:#ff7f0e;stroke:#ff7f0e;" x="89.715786" xlink:href="#m9f0246e72d" y="281.376601"/>
     <use style="fill:#ff7f0e;stroke:#ff7f0e;" x="96.341389" xlink:href="#m9f0246e72d" y="276.959058"/>
     <use style="fill:#ff7f0e;stroke:#ff7f0e;" x="102.966992" xlink:href="#m9f0246e72d" y="272.543629"/>
     <use style="fill:#ff7f0e;stroke:#ff7f0e;" x="109.592595" xlink:href="#m9f0246e72d" y="268.124647"/>
     <use style="fill:#ff7f0e;stroke:#ff7f0e;" x="116.218198" xlink:href="#m9f0246e72d" y="263.652911"/>
     <use style="fill:#ff7f0e;stroke:#ff7f0e;" x="122.843801" xlink:href="#m9f0246e72d" y="259.224245"/>
     <use style="fill:#ff7f0e;stroke:#ff7f0e;" x="129.469404" xlink:href="#m9f0246e72d" y="254.777525"/>
     <use style="fill:#ff7f0e;stroke:#ff7f0e;" x="136.095007" xlink:href="#m9f0246e72d" y="250.331399"/>
     <use style="fill:#ff7f0e;stroke:#ff7f0e;" x="142.72061" xlink:href="#m9f0246e72d" y="245.871405"/>
     <use style="fill:#ff7f0e;stroke:#ff7f0e;" x="149.346213" xlink:href="#m9f0246e72d" y="241.392185"/>
     <use style="fill:#ff7f0e;stroke:#ff7f0e;" x="155.971816" xlink:href="#m9f0246e72d" y="236.926454"/>
     <use style="fill:#ff7f0e;stroke:#ff7f0e;" x="162.597419" xlink:href="#m9f0246e72d" y="232.489689"/>
     <use style="fill:#ff7f0e;stroke:#ff7f0e;" x="169.223022" xlink:href="#m9f0246e72d" y="228.019195"/>
     <use style="fill:#ff7f0e;stroke:#ff7f0e;" x="175.848625" xlink:href="#m9f0246e72d" y="223.576374"/>
     <use style="fill:#ff7f0e;stroke:#ff7f0e;" x="182.474228" xlink:href="#m9f0246e72d" y="219.13462"/>
     <use style="fill:#ff7f0e;stroke:#ff7f0e;" x="189.099831" xlink:href="#m9f0246e72d" y="214.691213"/>
     <use style="fill:#ff7f0e;stroke:#ff7f0e;" x="195.725434" xlink:href="#m9f0246e72d" y="210.213752"/>
     <use style="fill:#ff7f0e;stroke:#ff7f0e;" x="202.351037" xlink:href="#m9f0246e72d" y="205.707789"/>
     <use style="fill:#ff7f0e;stroke:#ff7f0e;" x="208.97664" xlink:href="#m9f0246e72d" y="201.231125"/>
     <use style="fill:#ff7f0e;stroke:#ff7f0e;" x="215.602243" xlink:href="#m9f0246e72d" y="196.737568"/>
     <use style="fill:#ff7f0e;stroke:#ff7f0e;" x="222.227846" xlink:href="#m9f0246e72d" y="192.269147"/>
     <use style="fill:#ff7f0e;stroke:#ff7f0e;" x="228.853449" xlink:href="#m9f0246e72d" y="187.885977"/>
     <use style="fill:#ff7f0e;stroke:#ff7f0e;" x="235.479051" xlink:href="#m9f0246e72d" y="183.392505"/>
     <use style="fill:#ff7f0e;stroke:#ff7f0e;" x="242.104654" xlink:href="#m9f0246e72d" y="178.957567"/>
     <use style="fill:#ff7f0e;stroke:#ff7f0e;" x="248.730257" xlink:href="#m9f0246e72d" y="174.518538"/>
     <use style="fill:#ff7f0e;stroke:#ff7f0e;" x="255.35586" xlink:href="#m9f0246e72d" y="170.048368"/>
     <use style="fill:#ff7f0e;stroke:#ff7f0e;" x="261.981463" xlink:href="#m9f0246e72d" y="165.596558"/>
     <use style="fill:#ff7f0e;stroke:#ff7f0e;" x="268.607066" xlink:href="#m9f0246e72d" y="161.150541"/>
     <use style="fill:#ff7f0e;stroke:#ff7f0e;" x="275.232669" xlink:href="#m9f0246e72d" y="156.698088"/>
     <use style="fill:#ff7f0e;stroke:#ff7f0e;" x="281.858272" xlink:href="#m9f0246e72d" y="152.246437"/>
     <use style="fill:#ff7f0e;stroke:#ff7f0e;" x="288.483875" xlink:href="#m9f0246e72d" y="147.809387"/>
     <use style="fill:#ff7f0e;stroke:#ff7f0e;" x="295.109478" xlink:href="#m9f0246e72d" y="143.355531"/>
     <use style="fill:#ff7f0e;stroke:#ff7f0e;" x="301.735081" xlink:href="#m9f0246e72d" y="138.877729"/>
     <use style="fill:#ff7f0e;stroke:#ff7f0e;" x="308.360684" xlink:href="#m9f0246e72d" y="134.418443"/>
     <use style="fill:#ff7f0e;stroke:#ff7f0e;" x="314.986287" xlink:href="#m9f0246e72d" y="129.994238"/>
     <use style="fill:#ff7f0e;stroke:#ff7f0e;" x="321.61189" xlink:href="#m9f0246e72d" y="125.523662"/>
     <use style="fill:#ff7f0e;stroke:#ff7f0e;" x="328.237493" xlink:href="#m9f0246e72d" y="121.080425"/>
     <use style="fill:#ff7f0e;stroke:#ff7f0e;" x="334.863096" xlink:href="#m9f0246e72d" y="116.661285"/>
     <use style="fill:#ff7f0e;stroke:#ff7f0e;" x="341.488699" xlink:href="#m9f0246e72d" y="112.202225"/>
     <use style="fill:#ff7f0e;stroke:#ff7f0e;" x="348.114302" xlink:href="#m9f0246e72d" y="107.739712"/>
     <use style="fill:#ff7f0e;stroke:#ff7f0e;" x="354.739905" xlink:href="#m9f0246e72d" y="103.283332"/>
     <use style="fill:#ff7f0e;stroke:#ff7f0e;" x="361.365508" xlink:href="#m9f0246e72d" y="98.760418"/>
     <use style="fill:#ff7f0e;stroke:#ff7f0e;" x="367.991111" xlink:href="#m9f0246e72d" y="94.289696"/>
     <use style="fill:#ff7f0e;stroke:#ff7f0e;" x="374.616714" xlink:href="#m9f0246e72d" y="89.85406"/>
     <use style="fill:#ff7f0e;stroke:#ff7f0e;" x="381.242317" xlink:href="#m9f0246e72d" y="85.356986"/>
     <use style="fill:#ff7f0e;stroke:#ff7f0e;" x="387.86792" xlink:href="#m9f0246e72d" y="80.909126"/>
     <use style="fill:#ff7f0e;stroke:#ff7f0e;" x="394.493523" xlink:href="#m9f0246e72d" y="76.440085"/>
    </g>
   </g>
   <g id="line2d_25">
    <path clip-path="url(#p2c2c987b5a)" d="M 69.838977 295.488283 
L 76.46458 291.231322 
L 83.090183 287.014109 
L 89.715786 282.743024 
L 96.341389 278.514921 
L 102.966992 274.33165 
L 109.592595 270.084088 
L 116.218198 265.889953 
L 122.843801 261.663861 
L 129.469404 257.459492 
L 136.095007 253.27283 
L 142.72061 249.057429 
L 149.346213 244.856195 
L 155.971816 240.626704 
L 162.597419 236.395143 
L 169.223022 232.160349 
L 175.848625 227.966396 
L 182.474228 223.766673 
L 189.099831 219.526568 
L 195.725434 215.343653 
L 202.351037 211.089598 
L 208.97664 206.88695 
L 215.602243 202.724984 
L 222.227846 198.492923 
L 228.853449 194.237287 
L 235.479051 189.979259 
L 242.104654 185.794595 
L 248.730257 181.597276 
L 255.35586 177.389051 
L 261.981463 173.17821 
L 268.607066 168.960187 
L 275.232669 164.709577 
L 281.858272 160.513392 
L 288.483875 156.306744 
L 295.109478 152.093162 
L 301.735081 147.919201 
L 308.360684 143.678346 
L 314.986287 139.41102 
L 321.61189 135.20776 
L 328.237493 131.031252 
L 334.863096 126.821121 
L 341.488699 122.612368 
L 348.114302 118.400218 
L 354.739905 114.186543 
L 361.365508 109.982736 
L 367.991111 105.774832 
L 374.616714 101.557963 
L 381.242317 97.326145 
L 387.86792 93.14996 
L 394.493523 88.907355 
" style="fill:none;stroke:#2ca02c;stroke-linecap:square;stroke-width:1.5;"/>
    <defs>
     <path d="M -3 3 
L 3 -3 
M -3 -3 
L 3 3 
" id="mda94e55f8e" style="stroke:#2ca02c;"/>
    </defs>
    <g clip-path="url(#p2c2c987b5a)">
     <use style="fill:#2ca02c;stroke:#2ca02c;" x="69.838977" xlink:href="#mda94e55f8e" y="295.488283"/>
     <use style="fill:#2ca02c;stroke:#2ca02c;" x="76.46458" xlink:href="#mda94e55f8e" y="291.231322"/>
     <use style="fill:#2ca02c;stroke:#2ca02c;" x="83.090183" xlink:href="#mda94e55f8e" y="287.014109"/>
     <use style="fill:#2ca02c;stroke:#2ca02c;" x="89.715786" xlink:href="#mda94e55f8e" y="282.743024"/>
     <use style="fill:#2ca02c;stroke:#2ca02c;" x="96.341389" xlink:href="#mda94e55f8e" y="278.514921"/>
     <use style="fill:#2ca02c;stroke:#2ca02c;" x="102.966992" xlink:href="#mda94e55f8e" y="274.33165"/>
     <use style="fill:#2ca02c;stroke:#2ca02c;" x="109.592595" xlink:href="#mda94e55f8e" y="270.084088"/>
     <use style="fill:#2ca02c;stroke:#2ca02c;" x="116.218198" xlink:href="#mda94e55f8e" y="265.889953"/>
     <use style="fill:#2ca02c;stroke:#2ca02c;" x="122.843801" xlink:href="#mda94e55f8e" y="261.663861"/>
     <use style="fill:#2ca02c;stroke:#2ca02c;" x="129.469404" xlink:href="#mda94e55f8e" y="257.459492"/>
     <use style="fill:#2ca02c;stroke:#2ca02c;" x="136.095007" xlink:href="#mda94e55f8e" y="253.27283"/>
     <use style="fill:#2ca02c;stroke:#2ca02c;" x="142.72061" xlink:href="#mda94e55f8e" y="249.057429"/>
     <use style="fill:#2ca02c;stroke:#2ca02c;" x="149.346213" xlink:href="#mda94e55f8e" y="244.856195"/>
     <use style="fill:#2ca02c;stroke:#2ca02c;" x="155.971816" xlink:href="#mda94e55f8e" y="240.626704"/>
     <use style="fill:#2ca02c;stroke:#2ca02c;" x="162.597419" xlink:href="#mda94e55f8e" y="236.395143"/>
     <use style="fill:#2ca02c;stroke:#2ca02c;" x="169.223022" xlink:href="#mda94e55f8e" y="232.160349"/>
     <use style="fill:#2ca02c;stroke:#2ca02c;" x="175.848625" xlink:href="#mda94e55f8e" y="227.966396"/>
     <use style="fill:#2ca02c;stroke:#2ca02c;" x="182.474228" xlink:href="#mda94e55f8e" y="223.766673"/>
     <use style="fill:#2ca02c;stroke:#2ca02c;" x="189.099831" xlink:href="#mda94e55f8e" y="219.526568"/>
     <use style="fill:#2ca02c;stroke:#2ca02c;" x="195.725434" xlink:href="#mda94e55f8e" y="215.343653"/>
     <use style="fill:#2ca02c;stroke:#2ca02c;" x="202.351037" xlink:href="#mda94e55f8e" y="211.089598"/>
     <use style="fill:#2ca02c;stroke:#2ca02c;" x="208.97664" xlink:href="#mda94e55f8e" y="206.88695"/>
     <use style="fill:#2ca02c;stroke:#2ca02c;" x="215.602243" xlink:href="#mda94e55f8e" y="202.724984"/>
     <use style="fill:#2ca02c;stroke:#2ca02c;" x="222.227846" xlink:href="#mda94e55f8e" y="198.492923"/>
     <use style="fill:#2ca02c;stroke:#2ca02c;" x="228.853449" xlink:href="#mda94e55f8e" y="194.237287"/>
     <use style="fill:#2ca02c;stroke:#2ca02c;" x="235.479051" xlink:href="#mda94e55f8e" y="189.979259"/>
     <use style="fill:#2ca02c;stroke:#2ca02c;" x="242.104654" xlink:href="#mda94e55f8e" y="185.794595"/>
     <use style="fill:#2ca02c;stroke:#2ca02c;" x="248.730257" xlink:href="#mda94e55f8e" y="181.597276"/>
     <use style="fill:#2ca02c;stroke:#2ca02c;" x="255.35586" xlink:href="#mda94e55f8e" y="177.389051"/>
     <use style="fill:#2ca02c;stroke:#2ca02c;" x="261.981463" xlink:href="#mda94e55f8e" y="173.17821"/>
     <use style="fill:#2ca02c;stroke:#2ca02c;" x="268.607066" xlink:href="#mda94e55f8e" y="168.960187"/>
     <use style="fill:#2ca02c;stroke:#2ca02c;" x="275.232669" xlink:href="#mda94e55f8e" y="164.709577"/>
     <use style="fill:#2ca02c;stroke:#2ca02c;" x="281.858272" xlink:href="#mda94e55f8e" y="160.513392"/>
     <use style="fill:#2ca02c;stroke:#2ca02c;" x="288.483875" xlink:href="#mda94e55f8e" y="156.306744"/>
     <use style="fill:#2ca02c;stroke:#2ca02c;" x="295.109478" xlink:href="#mda94e55f8e" y="152.093162"/>
     <use style="fill:#2ca02c;stroke:#2ca02c;" x="301.735081" xlink:href="#mda94e55f8e" y="147.919201"/>
     <use style="fill:#2ca02c;stroke:#2ca02c;" x="308.360684" xlink:href="#mda94e55f8e" y="143.678346"/>
     <use style="fill:#2ca02c;stroke:#2ca02c;" x="314.986287" xlink:href="#mda94e55f8e" y="139.41102"/>
     <use style="fill:#2ca02c;stroke:#2ca02c;" x="321.61189" xlink:href="#mda94e55f8e" y="135.20776"/>
     <use style="fill:#2ca02c;stroke:#2ca02c;" x="328.237493" xlink:href="#mda94e55f8e" y="131.031252"/>
     <use style="fill:#2ca02c;stroke:#2ca02c;" x="334.863096" xlink:href="#mda94e55f8e" y="126.821121"/>
     <use style="fill:#2ca02c;stroke:#2ca02c;" x="341.488699" xlink:href="#mda94e55f8e" y="122.612368"/>
     <use style="fill:#2ca02c;stroke:#2ca02c;" x="348.114302" xlink:href="#mda94e55f8e" y="118.400218"/>
     <use style="fill:#2ca02c;stroke:#2ca02c;" x="354.739905" xlink:href="#mda94e55f8e" y="114.186543"/>
     <use style="fill:#2ca02c;stroke:#2ca02c;" x="361.365508" xlink:href="#mda94e55f8e" y="109.982736"/>
     <use style="fill:#2ca02c;stroke:#2ca02c;" x="367.991111" xlink:href="#mda94e55f8e" y="105.774832"/>
     <use style="fill:#2ca02c;stroke:#2ca02c;" x="374.616714" xlink:href="#mda94e55f8e" y="101.557963"/>
     <use style="fill:#2ca02c;stroke:#2ca02c;" x="381.242317" xlink:href="#mda94e55f8e" y="97.326145"/>
     <use style="fill:#2ca02c;stroke:#2ca02c;" x="387.86792" xlink:href="#mda94e55f8e" y="93.14996"/>
     <use style="fill:#2ca02c;stroke:#2ca02c;" x="394.493523" xlink:href="#mda94e55f8e" y="88.907355"/>
    </g>
   </g>
   <g id="line2d_26">
    <path clip-path="url(#p2c2c987b5a)" d="M 69.838977 295.09792 
L 76.46458 290.464921 
L 83.090183 285.830951 
L 89.715786 281.157868 
L 96.341389 276.539613 
L 102.966992 271.866458 
L 109.592595 267.228761 
L 116.218198 262.565964 
L 122.843801 257.919066 
L 129.469404 253.277898 
L 136.095007 248.646068 
L 142.72061 244.027843 
L 149.346213 239.439931 
L 155.971816 234.784604 
L 162.597419 230.154503 
L 169.223022 225.557456 
L 175.848625 220.901279 
L 182.474228 216.278566 
L 189.099831 211.644674 
L 195.725434 206.9808 
L 202.351037 202.31688 
L 208.97664 197.643191 
L 215.602243 193.011337 
L 222.227846 188.339231 
L 228.853449 183.683045 
L 235.479051 179.105157 
L 242.104654 174.413272 
L 248.730257 169.821676 
L 255.35586 165.140134 
L 261.981463 160.483567 
L 268.607066 155.835353 
L 275.232669 151.206761 
L 281.858272 146.540655 
L 288.483875 141.879849 
L 295.109478 137.191683 
L 301.735081 132.591501 
L 308.360684 127.925428 
L 314.986287 123.284961 
L 321.61189 118.626027 
L 328.237493 114.005728 
L 334.863096 109.364599 
L 341.488699 104.724986 
L 348.114302 100.070519 
L 354.739905 95.451498 
L 361.365508 90.789457 
L 367.991111 86.190677 
L 374.616714 81.593757 
L 381.242317 76.978011 
L 387.86792 72.314431 
L 394.493523 67.716576 
" style="fill:none;stroke:#d62728;stroke-linecap:square;stroke-width:1.5;"/>
    <defs>
     <path d="M -3 3 
L 3 -3 
M -3 -3 
L 3 3 
" id="m55a5fb983c" style="stroke:#d62728;"/>
    </defs>
    <g clip-path="url(#p2c2c987b5a)">
     <use style="fill:#d62728;stroke:#d62728;" x="69.838977" xlink:href="#m55a5fb983c" y="295.09792"/>
     <use style="fill:#d62728;stroke:#d62728;" x="76.46458" xlink:href="#m55a5fb983c" y="290.464921"/>
     <use style="fill:#d62728;stroke:#d62728;" x="83.090183" xlink:href="#m55a5fb983c" y="285.830951"/>
     <use style="fill:#d62728;stroke:#d62728;" x="89.715786" xlink:href="#m55a5fb983c" y="281.157868"/>
     <use style="fill:#d62728;stroke:#d62728;" x="96.341389" xlink:href="#m55a5fb983c" y="276.539613"/>
     <use style="fill:#d62728;stroke:#d62728;" x="102.966992" xlink:href="#m55a5fb983c" y="271.866458"/>
     <use style="fill:#d62728;stroke:#d62728;" x="109.592595" xlink:href="#m55a5fb983c" y="267.228761"/>
     <use style="fill:#d62728;stroke:#d62728;" x="116.218198" xlink:href="#m55a5fb983c" y="262.565964"/>
     <use style="fill:#d62728;stroke:#d62728;" x="122.843801" xlink:href="#m55a5fb983c" y="257.919066"/>
     <use style="fill:#d62728;stroke:#d62728;" x="129.469404" xlink:href="#m55a5fb983c" y="253.277898"/>
     <use style="fill:#d62728;stroke:#d62728;" x="136.095007" xlink:href="#m55a5fb983c" y="248.646068"/>
     <use style="fill:#d62728;stroke:#d62728;" x="142.72061" xlink:href="#m55a5fb983c" y="244.027843"/>
     <use style="fill:#d62728;stroke:#d62728;" x="149.346213" xlink:href="#m55a5fb983c" y="239.439931"/>
     <use style="fill:#d62728;stroke:#d62728;" x="155.971816" xlink:href="#m55a5fb983c" y="234.784604"/>
     <use style="fill:#d62728;stroke:#d62728;" x="162.597419" xlink:href="#m55a5fb983c" y="230.154503"/>
     <use style="fill:#d62728;stroke:#d62728;" x="169.223022" xlink:href="#m55a5fb983c" y="225.557456"/>
     <use style="fill:#d62728;stroke:#d62728;" x="175.848625" xlink:href="#m55a5fb983c" y="220.901279"/>
     <use style="fill:#d62728;stroke:#d62728;" x="182.474228" xlink:href="#m55a5fb983c" y="216.278566"/>
     <use style="fill:#d62728;stroke:#d62728;" x="189.099831" xlink:href="#m55a5fb983c" y="211.644674"/>
     <use style="fill:#d62728;stroke:#d62728;" x="195.725434" xlink:href="#m55a5fb983c" y="206.9808"/>
     <use style="fill:#d62728;stroke:#d62728;" x="202.351037" xlink:href="#m55a5fb983c" y="202.31688"/>
     <use style="fill:#d62728;stroke:#d62728;" x="208.97664" xlink:href="#m55a5fb983c" y="197.643191"/>
     <use style="fill:#d62728;stroke:#d62728;" x="215.602243" xlink:href="#m55a5fb983c" y="193.011337"/>
     <use style="fill:#d62728;stroke:#d62728;" x="222.227846" xlink:href="#m55a5fb983c" y="188.339231"/>
     <use style="fill:#d62728;stroke:#d62728;" x="228.853449" xlink:href="#m55a5fb983c" y="183.683045"/>
     <use style="fill:#d62728;stroke:#d62728;" x="235.479051" xlink:href="#m55a5fb983c" y="179.105157"/>
     <use style="fill:#d62728;stroke:#d62728;" x="242.104654" xlink:href="#m55a5fb983c" y="174.413272"/>
     <use style="fill:#d62728;stroke:#d62728;" x="248.730257" xlink:href="#m55a5fb983c" y="169.821676"/>
     <use style="fill:#d62728;stroke:#d62728;" x="255.35586" xlink:href="#m55a5fb983c" y="165.140134"/>
     <use style="fill:#d62728;stroke:#d62728;" x="261.981463" xlink:href="#m55a5fb983c" y="160.483567"/>
     <use style="fill:#d62728;stroke:#d62728;" x="268.607066" xlink:href="#m55a5fb983c" y="155.835353"/>
     <use style="fill:#d62728;stroke:#d62728;" x="275.232669" xlink:href="#m55a5fb983c" y="151.206761"/>
     <use style="fill:#d62728;stroke:#d62728;" x="281.858272" xlink:href="#m55a5fb983c" y="146.540655"/>
     <use style="fill:#d62728;stroke:#d62728;" x="288.483875" xlink:href="#m55a5fb983c" y="141.879849"/>
     <use style="fill:#d62728;stroke:#d62728;" x="295.109478" xlink:href="#m55a5fb983c" y="137.191683"/>
     <use style="fill:#d62728;stroke:#d62728;" x="301.735081" xlink:href="#m55a5fb983c" y="132.591501"/>
     <use style="fill:#d62728;stroke:#d62728;" x="308.360684" xlink:href="#m55a5fb983c" y="127.925428"/>
     <use style="fill:#d62728;stroke:#d62728;" x="314.986287" xlink:href="#m55a5fb983c" y="123.284961"/>
     <use style="fill:#d62728;stroke:#d62728;" x="321.61189" xlink:href="#m55a5fb983c" y="118.626027"/>
     <use style="fill:#d62728;stroke:#d62728;" x="328.237493" xlink:href="#m55a5fb983c" y="114.005728"/>
     <use style="fill:#d62728;stroke:#d62728;" x="334.863096" xlink:href="#m55a5fb983c" y="109.364599"/>
     <use style="fill:#d62728;stroke:#d62728;" x="341.488699" xlink:href="#m55a5fb983c" y="104.724986"/>
     <use style="fill:#d62728;stroke:#d62728;" x="348.114302" xlink:href="#m55a5fb983c" y="100.070519"/>
     <use style="fill:#d62728;stroke:#d62728;" x="354.739905" xlink:href="#m55a5fb983c" y="95.451498"/>
     <use style="fill:#d62728;stroke:#d62728;" x="361.365508" xlink:href="#m55a5fb983c" y="90.789457"/>
     <use style="fill:#d62728;stroke:#d62728;" x="367.991111" xlink:href="#m55a5fb983c" y="86.190677"/>
     <use style="fill:#d62728;stroke:#d62728;" x="374.616714" xlink:href="#m55a5fb983c" y="81.593757"/>
     <use style="fill:#d62728;stroke:#d62728;" x="381.242317" xlink:href="#m55a5fb983c" y="76.978011"/>
     <use style="fill:#d62728;stroke:#d62728;" x="387.86792" xlink:href="#m55a5fb983c" y="72.314431"/>
     <use style="fill:#d62728;stroke:#d62728;" x="394.493523" xlink:href="#m55a5fb983c" y="67.716576"/>
    </g>
   </g>
   <g id="line2d_27">
    <path clip-path="url(#p2c2c987b5a)" d="M 69.838977 295.776 
L 76.46458 291.634781 
L 83.090183 287.482873 
L 89.715786 283.304324 
L 96.341389 279.355652 
L 102.966992 275.398197 
L 109.592595 271.458243 
L 116.218198 267.52993 
L 122.843801 263.612019 
L 129.469404 259.755793 
L 136.095007 255.830601 
L 142.72061 251.932029 
L 149.346213 247.984056 
L 155.971816 244.076087 
L 162.597419 240.187532 
L 169.223022 236.257095 
L 175.848625 232.347737 
L 182.474228 228.453844 
L 189.099831 224.545974 
L 195.725434 220.642853 
L 202.351037 216.748101 
L 208.97664 212.787831 
L 215.602243 208.843363 
L 222.227846 204.947192 
L 228.853449 201.030989 
L 235.479051 197.117894 
L 242.104654 193.188485 
L 248.730257 189.287455 
L 255.35586 185.348228 
L 261.981463 181.426979 
L 268.607066 177.515912 
L 275.232669 173.591558 
L 281.858272 169.664186 
L 288.483875 165.763131 
L 295.109478 161.867321 
L 301.735081 157.951646 
L 308.360684 154.076052 
L 314.986287 150.182565 
L 321.61189 146.250973 
L 328.237493 142.374593 
L 334.863096 138.469259 
L 341.488699 134.559092 
L 348.114302 130.6311 
L 354.739905 126.718674 
L 361.365508 122.776515 
L 367.991111 118.813623 
L 374.616714 114.906582 
L 381.242317 110.942489 
L 387.86792 107.005407 
L 394.493523 103.045161 
" style="fill:none;stroke:#9467bd;stroke-linecap:square;stroke-width:1.5;"/>
    <defs>
     <path d="M -3 3 
L 3 -3 
M -3 -3 
L 3 3 
" id="m2ccd8ba8a7" style="stroke:#9467bd;"/>
    </defs>
    <g clip-path="url(#p2c2c987b5a)">
     <use style="fill:#9467bd;stroke:#9467bd;" x="69.838977" xlink:href="#m2ccd8ba8a7" y="295.776"/>
     <use style="fill:#9467bd;stroke:#9467bd;" x="76.46458" xlink:href="#m2ccd8ba8a7" y="291.634781"/>
     <use style="fill:#9467bd;stroke:#9467bd;" x="83.090183" xlink:href="#m2ccd8ba8a7" y="287.482873"/>
     <use style="fill:#9467bd;stroke:#9467bd;" x="89.715786" xlink:href="#m2ccd8ba8a7" y="283.304324"/>
     <use style="fill:#9467bd;stroke:#9467bd;" x="96.341389" xlink:href="#m2ccd8ba8a7" y="279.355652"/>
     <use style="fill:#9467bd;stroke:#9467bd;" x="102.966992" xlink:href="#m2ccd8ba8a7" y="275.398197"/>
     <use style="fill:#9467bd;stroke:#9467bd;" x="109.592595" xlink:href="#m2ccd8ba8a7" y="271.458243"/>
     <use style="fill:#9467bd;stroke:#9467bd;" x="116.218198" xlink:href="#m2ccd8ba8a7" y="267.52993"/>
     <use style="fill:#9467bd;stroke:#9467bd;" x="122.843801" xlink:href="#m2ccd8ba8a7" y="263.612019"/>
     <use style="fill:#9467bd;stroke:#9467bd;" x="129.469404" xlink:href="#m2ccd8ba8a7" y="259.755793"/>
     <use style="fill:#9467bd;stroke:#9467bd;" x="136.095007" xlink:href="#m2ccd8ba8a7" y="255.830601"/>
     <use style="fill:#9467bd;stroke:#9467bd;" x="142.72061" xlink:href="#m2ccd8ba8a7" y="251.932029"/>
     <use style="fill:#9467bd;stroke:#9467bd;" x="149.346213" xlink:href="#m2ccd8ba8a7" y="247.984056"/>
     <use style="fill:#9467bd;stroke:#9467bd;" x="155.971816" xlink:href="#m2ccd8ba8a7" y="244.076087"/>
     <use style="fill:#9467bd;stroke:#9467bd;" x="162.597419" xlink:href="#m2ccd8ba8a7" y="240.187532"/>
     <use style="fill:#9467bd;stroke:#9467bd;" x="169.223022" xlink:href="#m2ccd8ba8a7" y="236.257095"/>
     <use style="fill:#9467bd;stroke:#9467bd;" x="175.848625" xlink:href="#m2ccd8ba8a7" y="232.347737"/>
     <use style="fill:#9467bd;stroke:#9467bd;" x="182.474228" xlink:href="#m2ccd8ba8a7" y="228.453844"/>
     <use style="fill:#9467bd;stroke:#9467bd;" x="189.099831" xlink:href="#m2ccd8ba8a7" y="224.545974"/>
     <use style="fill:#9467bd;stroke:#9467bd;" x="195.725434" xlink:href="#m2ccd8ba8a7" y="220.642853"/>
     <use style="fill:#9467bd;stroke:#9467bd;" x="202.351037" xlink:href="#m2ccd8ba8a7" y="216.748101"/>
     <use style="fill:#9467bd;stroke:#9467bd;" x="208.97664" xlink:href="#m2ccd8ba8a7" y="212.787831"/>
     <use style="fill:#9467bd;stroke:#9467bd;" x="215.602243" xlink:href="#m2ccd8ba8a7" y="208.843363"/>
     <use style="fill:#9467bd;stroke:#9467bd;" x="222.227846" xlink:href="#m2ccd8ba8a7" y="204.947192"/>
     <use style="fill:#9467bd;stroke:#9467bd;" x="228.853449" xlink:href="#m2ccd8ba8a7" y="201.030989"/>
     <use style="fill:#9467bd;stroke:#9467bd;" x="235.479051" xlink:href="#m2ccd8ba8a7" y="197.117894"/>
     <use style="fill:#9467bd;stroke:#9467bd;" x="242.104654" xlink:href="#m2ccd8ba8a7" y="193.188485"/>
     <use style="fill:#9467bd;stroke:#9467bd;" x="248.730257" xlink:href="#m2ccd8ba8a7" y="189.287455"/>
     <use style="fill:#9467bd;stroke:#9467bd;" x="255.35586" xlink:href="#m2ccd8ba8a7" y="185.348228"/>
     <use style="fill:#9467bd;stroke:#9467bd;" x="261.981463" xlink:href="#m2ccd8ba8a7" y="181.426979"/>
     <use style="fill:#9467bd;stroke:#9467bd;" x="268.607066" xlink:href="#m2ccd8ba8a7" y="177.515912"/>
     <use style="fill:#9467bd;stroke:#9467bd;" x="275.232669" xlink:href="#m2ccd8ba8a7" y="173.591558"/>
     <use style="fill:#9467bd;stroke:#9467bd;" x="281.858272" xlink:href="#m2ccd8ba8a7" y="169.664186"/>
     <use style="fill:#9467bd;stroke:#9467bd;" x="288.483875" xlink:href="#m2ccd8ba8a7" y="165.763131"/>
     <use style="fill:#9467bd;stroke:#9467bd;" x="295.109478" xlink:href="#m2ccd8ba8a7" y="161.867321"/>
     <use style="fill:#9467bd;stroke:#9467bd;" x="301.735081" xlink:href="#m2ccd8ba8a7" y="157.951646"/>
     <use style="fill:#9467bd;stroke:#9467bd;" x="308.360684" xlink:href="#m2ccd8ba8a7" y="154.076052"/>
     <use style="fill:#9467bd;stroke:#9467bd;" x="314.986287" xlink:href="#m2ccd8ba8a7" y="150.182565"/>
     <use style="fill:#9467bd;stroke:#9467bd;" x="321.61189" xlink:href="#m2ccd8ba8a7" y="146.250973"/>
     <use style="fill:#9467bd;stroke:#9467bd;" x="328.237493" xlink:href="#m2ccd8ba8a7" y="142.374593"/>
     <use style="fill:#9467bd;stroke:#9467bd;" x="334.863096" xlink:href="#m2ccd8ba8a7" y="138.469259"/>
     <use style="fill:#9467bd;stroke:#9467bd;" x="341.488699" xlink:href="#m2ccd8ba8a7" y="134.559092"/>
     <use style="fill:#9467bd;stroke:#9467bd;" x="348.114302" xlink:href="#m2ccd8ba8a7" y="130.6311"/>
     <use style="fill:#9467bd;stroke:#9467bd;" x="354.739905" xlink:href="#m2ccd8ba8a7" y="126.718674"/>
     <use style="fill:#9467bd;stroke:#9467bd;" x="361.365508" xlink:href="#m2ccd8ba8a7" y="122.776515"/>
     <use style="fill:#9467bd;stroke:#9467bd;" x="367.991111" xlink:href="#m2ccd8ba8a7" y="118.813623"/>
     <use style="fill:#9467bd;stroke:#9467bd;" x="374.616714" xlink:href="#m2ccd8ba8a7" y="114.906582"/>
     <use style="fill:#9467bd;stroke:#9467bd;" x="381.242317" xlink:href="#m2ccd8ba8a7" y="110.942489"/>
     <use style="fill:#9467bd;stroke:#9467bd;" x="387.86792" xlink:href="#m2ccd8ba8a7" y="107.005407"/>
     <use style="fill:#9467bd;stroke:#9467bd;" x="394.493523" xlink:href="#m2ccd8ba8a7" y="103.045161"/>
    </g>
   </g>
   <g id="patch_3">
    <path d="M 53.60625 307.872 
L 53.60625 41.76 
" style="fill:none;stroke:#000000;stroke-linecap:square;stroke-linejoin:miter;stroke-width:0.8;"/>
   </g>
   <g id="patch_4">
    <path d="M 410.72625 307.872 
L 410.72625 41.76 
" style="fill:none;stroke:#000000;stroke-linecap:square;stroke-linejoin:miter;stroke-width:0.8;"/>
   </g>
   <g id="patch_5">
    <path d="M 53.60625 307.872 
L 410.72625 307.872 
" style="fill:none;stroke:#000000;stroke-linecap:square;stroke-linejoin:miter;stroke-width:0.8;"/>
   </g>
   <g id="patch_6">
    <path d="M 53.60625 41.76 
L 410.72625 41.76 
" style="fill:none;stroke:#000000;stroke-linecap:square;stroke-linejoin:miter;stroke-width:0.8;"/>
   </g>
   <g id="text_14">
    <!-- Epochs: 50 -->
    <defs>
     <path d="M 11.71875 12.40625 
L 22.015625 12.40625 
L 22.015625 0 
L 11.71875 0 
z
M 11.71875 51.703125 
L 22.015625 51.703125 
L 22.015625 39.3125 
L 11.71875 39.3125 
z
" id="DejaVuSans-58"/>
    </defs>
    <g transform="translate(199.104375 35.76)scale(0.12 -0.12)">
     <use xlink:href="#DejaVuSans-69"/>
     <use x="63.183594" xlink:href="#DejaVuSans-112"/>
     <use x="126.660156" xlink:href="#DejaVuSans-111"/>
     <use x="187.841797" xlink:href="#DejaVuSans-99"/>
     <use x="242.822266" xlink:href="#DejaVuSans-104"/>
     <use x="306.201172" xlink:href="#DejaVuSans-115"/>
     <use x="358.300781" xlink:href="#DejaVuSans-58"/>
     <use x="391.992188" xlink:href="#DejaVuSans-32"/>
     <use x="423.779297" xlink:href="#DejaVuSans-53"/>
     <use x="487.402344" xlink:href="#DejaVuSans-48"/>
    </g>
   </g>
   <g id="legend_1">
    <g id="patch_7">
     <path d="M 417.72625 124.54125 
L 562.027812 124.54125 
Q 564.027812 124.54125 564.027812 122.54125 
L 564.027812 48.76 
Q 564.027812 46.76 562.027812 46.76 
L 417.72625 46.76 
Q 415.72625 46.76 415.72625 48.76 
L 415.72625 122.54125 
Q 415.72625 124.54125 417.72625 124.54125 
z
" style="fill:#ffffff;opacity:0.8;stroke:#cccccc;stroke-linejoin:miter;"/>
    </g>
    <g id="line2d_28">
     <path d="M 419.72625 54.858438 
L 439.72625 54.858438 
" style="fill:none;stroke:#1f77b4;stroke-linecap:square;stroke-width:1.5;"/>
    </g>
    <g id="line2d_29">
     <g>
      <use style="fill:#1f77b4;stroke:#1f77b4;" x="429.72625" xlink:href="#m1bc6d6508d" y="54.858438"/>
     </g>
    </g>
    <g id="text_15">
     <!-- adam-elapsed_time -->
     <defs>
      <path d="M 4.890625 31.390625 
L 31.203125 31.390625 
L 31.203125 23.390625 
L 4.890625 23.390625 
z
" id="DejaVuSans-45"/>
     </defs>
     <g transform="translate(447.72625 58.358438)scale(0.1 -0.1)">
      <use xlink:href="#DejaVuSans-97"/>
      <use x="61.279297" xlink:href="#DejaVuSans-100"/>
      <use x="124.755859" xlink:href="#DejaVuSans-97"/>
      <use x="186.035156" xlink:href="#DejaVuSans-109"/>
      <use x="283.447266" xlink:href="#DejaVuSans-45"/>
      <use x="319.53125" xlink:href="#DejaVuSans-101"/>
      <use x="381.054688" xlink:href="#DejaVuSans-108"/>
      <use x="408.837891" xlink:href="#DejaVuSans-97"/>
      <use x="470.117188" xlink:href="#DejaVuSans-112"/>
      <use x="533.59375" xlink:href="#DejaVuSans-115"/>
      <use x="585.693359" xlink:href="#DejaVuSans-101"/>
      <use x="647.216797" xlink:href="#DejaVuSans-100"/>
      <use x="710.693359" xlink:href="#DejaVuSans-95"/>
      <use x="760.693359" xlink:href="#DejaVuSans-116"/>
      <use x="799.902344" xlink:href="#DejaVuSans-105"/>
      <use x="827.685547" xlink:href="#DejaVuSans-109"/>
      <use x="925.097656" xlink:href="#DejaVuSans-101"/>
     </g>
    </g>
    <g id="line2d_30">
     <path d="M 419.72625 69.814688 
L 439.72625 69.814688 
" style="fill:none;stroke:#ff7f0e;stroke-linecap:square;stroke-width:1.5;"/>
    </g>
    <g id="line2d_31">
     <g>
      <use style="fill:#ff7f0e;stroke:#ff7f0e;" x="429.72625" xlink:href="#m9f0246e72d" y="69.814688"/>
     </g>
    </g>
    <g id="text_16">
     <!-- adagrad-elapsed_time -->
     <defs>
      <path d="M 45.40625 27.984375 
Q 45.40625 37.75 41.375 43.109375 
Q 37.359375 48.484375 30.078125 48.484375 
Q 22.859375 48.484375 18.828125 43.109375 
Q 14.796875 37.75 14.796875 27.984375 
Q 14.796875 18.265625 18.828125 12.890625 
Q 22.859375 7.515625 30.078125 7.515625 
Q 37.359375 7.515625 41.375 12.890625 
Q 45.40625 18.265625 45.40625 27.984375 
z
M 54.390625 6.78125 
Q 54.390625 -7.171875 48.1875 -13.984375 
Q 42 -20.796875 29.203125 -20.796875 
Q 24.46875 -20.796875 20.265625 -20.09375 
Q 16.0625 -19.390625 12.109375 -17.921875 
L 12.109375 -9.1875 
Q 16.0625 -11.328125 19.921875 -12.34375 
Q 23.78125 -13.375 27.78125 -13.375 
Q 36.625 -13.375 41.015625 -8.765625 
Q 45.40625 -4.15625 45.40625 5.171875 
L 45.40625 9.625 
Q 42.625 4.78125 38.28125 2.390625 
Q 33.9375 0 27.875 0 
Q 17.828125 0 11.671875 7.65625 
Q 5.515625 15.328125 5.515625 27.984375 
Q 5.515625 40.671875 11.671875 48.328125 
Q 17.828125 56 27.875 56 
Q 33.9375 56 38.28125 53.609375 
Q 42.625 51.21875 45.40625 46.390625 
L 45.40625 54.6875 
L 54.390625 54.6875 
z
" id="DejaVuSans-103"/>
      <path d="M 41.109375 46.296875 
Q 39.59375 47.171875 37.8125 47.578125 
Q 36.03125 48 33.890625 48 
Q 26.265625 48 22.1875 43.046875 
Q 18.109375 38.09375 18.109375 28.8125 
L 18.109375 0 
L 9.078125 0 
L 9.078125 54.6875 
L 18.109375 54.6875 
L 18.109375 46.1875 
Q 20.953125 51.171875 25.484375 53.578125 
Q 30.03125 56 36.53125 56 
Q 37.453125 56 38.578125 55.875 
Q 39.703125 55.765625 41.0625 55.515625 
z
" id="DejaVuSans-114"/>
     </defs>
     <g transform="translate(447.72625 73.314688)scale(0.1 -0.1)">
      <use xlink:href="#DejaVuSans-97"/>
      <use x="61.279297" xlink:href="#DejaVuSans-100"/>
      <use x="124.755859" xlink:href="#DejaVuSans-97"/>
      <use x="186.035156" xlink:href="#DejaVuSans-103"/>
      <use x="249.511719" xlink:href="#DejaVuSans-114"/>
      <use x="290.625" xlink:href="#DejaVuSans-97"/>
      <use x="351.904297" xlink:href="#DejaVuSans-100"/>
      <use x="415.380859" xlink:href="#DejaVuSans-45"/>
      <use x="451.464844" xlink:href="#DejaVuSans-101"/>
      <use x="512.988281" xlink:href="#DejaVuSans-108"/>
      <use x="540.771484" xlink:href="#DejaVuSans-97"/>
      <use x="602.050781" xlink:href="#DejaVuSans-112"/>
      <use x="665.527344" xlink:href="#DejaVuSans-115"/>
      <use x="717.626953" xlink:href="#DejaVuSans-101"/>
      <use x="779.150391" xlink:href="#DejaVuSans-100"/>
      <use x="842.626953" xlink:href="#DejaVuSans-95"/>
      <use x="892.626953" xlink:href="#DejaVuSans-116"/>
      <use x="931.835938" xlink:href="#DejaVuSans-105"/>
      <use x="959.619141" xlink:href="#DejaVuSans-109"/>
      <use x="1057.03125" xlink:href="#DejaVuSans-101"/>
     </g>
    </g>
    <g id="line2d_32">
     <path d="M 419.72625 84.770938 
L 439.72625 84.770938 
" style="fill:none;stroke:#2ca02c;stroke-linecap:square;stroke-width:1.5;"/>
    </g>
    <g id="line2d_33">
     <g>
      <use style="fill:#2ca02c;stroke:#2ca02c;" x="429.72625" xlink:href="#mda94e55f8e" y="84.770938"/>
     </g>
    </g>
    <g id="text_17">
     <!-- msgd-elapsed_time -->
     <g transform="translate(447.72625 88.270938)scale(0.1 -0.1)">
      <use xlink:href="#DejaVuSans-109"/>
      <use x="97.412109" xlink:href="#DejaVuSans-115"/>
      <use x="149.511719" xlink:href="#DejaVuSans-103"/>
      <use x="212.988281" xlink:href="#DejaVuSans-100"/>
      <use x="276.464844" xlink:href="#DejaVuSans-45"/>
      <use x="312.548828" xlink:href="#DejaVuSans-101"/>
      <use x="374.072266" xlink:href="#DejaVuSans-108"/>
      <use x="401.855469" xlink:href="#DejaVuSans-97"/>
      <use x="463.134766" xlink:href="#DejaVuSans-112"/>
      <use x="526.611328" xlink:href="#DejaVuSans-115"/>
      <use x="578.710938" xlink:href="#DejaVuSans-101"/>
      <use x="640.234375" xlink:href="#DejaVuSans-100"/>
      <use x="703.710938" xlink:href="#DejaVuSans-95"/>
      <use x="753.710938" xlink:href="#DejaVuSans-116"/>
      <use x="792.919922" xlink:href="#DejaVuSans-105"/>
      <use x="820.703125" xlink:href="#DejaVuSans-109"/>
      <use x="918.115234" xlink:href="#DejaVuSans-101"/>
     </g>
    </g>
    <g id="line2d_34">
     <path d="M 419.72625 99.727188 
L 439.72625 99.727188 
" style="fill:none;stroke:#d62728;stroke-linecap:square;stroke-width:1.5;"/>
    </g>
    <g id="line2d_35">
     <g>
      <use style="fill:#d62728;stroke:#d62728;" x="429.72625" xlink:href="#m55a5fb983c" y="99.727188"/>
     </g>
    </g>
    <g id="text_18">
     <!-- rmsprop-elapsed_time -->
     <g transform="translate(447.72625 103.227188)scale(0.1 -0.1)">
      <use xlink:href="#DejaVuSans-114"/>
      <use x="41.097656" xlink:href="#DejaVuSans-109"/>
      <use x="138.509766" xlink:href="#DejaVuSans-115"/>
      <use x="190.609375" xlink:href="#DejaVuSans-112"/>
      <use x="254.085938" xlink:href="#DejaVuSans-114"/>
      <use x="295.167969" xlink:href="#DejaVuSans-111"/>
      <use x="356.349609" xlink:href="#DejaVuSans-112"/>
      <use x="419.826172" xlink:href="#DejaVuSans-45"/>
      <use x="455.910156" xlink:href="#DejaVuSans-101"/>
      <use x="517.433594" xlink:href="#DejaVuSans-108"/>
      <use x="545.216797" xlink:href="#DejaVuSans-97"/>
      <use x="606.496094" xlink:href="#DejaVuSans-112"/>
      <use x="669.972656" xlink:href="#DejaVuSans-115"/>
      <use x="722.072266" xlink:href="#DejaVuSans-101"/>
      <use x="783.595703" xlink:href="#DejaVuSans-100"/>
      <use x="847.072266" xlink:href="#DejaVuSans-95"/>
      <use x="897.072266" xlink:href="#DejaVuSans-116"/>
      <use x="936.28125" xlink:href="#DejaVuSans-105"/>
      <use x="964.064453" xlink:href="#DejaVuSans-109"/>
      <use x="1061.476562" xlink:href="#DejaVuSans-101"/>
     </g>
    </g>
    <g id="line2d_36">
     <path d="M 419.72625 114.683438 
L 439.72625 114.683438 
" style="fill:none;stroke:#9467bd;stroke-linecap:square;stroke-width:1.5;"/>
    </g>
    <g id="line2d_37">
     <g>
      <use style="fill:#9467bd;stroke:#9467bd;" x="429.72625" xlink:href="#m2ccd8ba8a7" y="114.683438"/>
     </g>
    </g>
    <g id="text_19">
     <!-- sgd-elapsed_time -->
     <g transform="translate(447.72625 118.183438)scale(0.1 -0.1)">
      <use xlink:href="#DejaVuSans-115"/>
      <use x="52.099609" xlink:href="#DejaVuSans-103"/>
      <use x="115.576172" xlink:href="#DejaVuSans-100"/>
      <use x="179.052734" xlink:href="#DejaVuSans-45"/>
      <use x="215.136719" xlink:href="#DejaVuSans-101"/>
      <use x="276.660156" xlink:href="#DejaVuSans-108"/>
      <use x="304.443359" xlink:href="#DejaVuSans-97"/>
      <use x="365.722656" xlink:href="#DejaVuSans-112"/>
      <use x="429.199219" xlink:href="#DejaVuSans-115"/>
      <use x="481.298828" xlink:href="#DejaVuSans-101"/>
      <use x="542.822266" xlink:href="#DejaVuSans-100"/>
      <use x="606.298828" xlink:href="#DejaVuSans-95"/>
      <use x="656.298828" xlink:href="#DejaVuSans-116"/>
      <use x="695.507812" xlink:href="#DejaVuSans-105"/>
      <use x="723.291016" xlink:href="#DejaVuSans-109"/>
      <use x="820.703125" xlink:href="#DejaVuSans-101"/>
     </g>
    </g>
   </g>
  </g>
  <g id="text_20">
   <!-- GPU: Accuracy Comparison Based on Optimizer -->
   <defs>
    <path d="M 59.515625 10.40625 
L 59.515625 29.984375 
L 43.40625 29.984375 
L 43.40625 38.09375 
L 69.28125 38.09375 
L 69.28125 6.78125 
Q 63.578125 2.734375 56.6875 0.65625 
Q 49.8125 -1.421875 42 -1.421875 
Q 24.90625 -1.421875 15.25 8.5625 
Q 5.609375 18.5625 5.609375 36.375 
Q 5.609375 54.25 15.25 64.234375 
Q 24.90625 74.21875 42 74.21875 
Q 49.125 74.21875 55.546875 72.453125 
Q 61.96875 70.703125 67.390625 67.28125 
L 67.390625 56.78125 
Q 61.921875 61.421875 55.765625 63.765625 
Q 49.609375 66.109375 42.828125 66.109375 
Q 29.4375 66.109375 22.71875 58.640625 
Q 16.015625 51.171875 16.015625 36.375 
Q 16.015625 21.625 22.71875 14.15625 
Q 29.4375 6.6875 42.828125 6.6875 
Q 48.046875 6.6875 52.140625 7.59375 
Q 56.25 8.5 59.515625 10.40625 
z
" id="DejaVuSans-71"/>
    <path d="M 19.671875 64.796875 
L 19.671875 37.40625 
L 32.078125 37.40625 
Q 38.96875 37.40625 42.71875 40.96875 
Q 46.484375 44.53125 46.484375 51.125 
Q 46.484375 57.671875 42.71875 61.234375 
Q 38.96875 64.796875 32.078125 64.796875 
z
M 9.8125 72.90625 
L 32.078125 72.90625 
Q 44.34375 72.90625 50.609375 67.359375 
Q 56.890625 61.8125 56.890625 51.125 
Q 56.890625 40.328125 50.609375 34.8125 
Q 44.34375 29.296875 32.078125 29.296875 
L 19.671875 29.296875 
L 19.671875 0 
L 9.8125 0 
z
" id="DejaVuSans-80"/>
    <path d="M 8.6875 72.90625 
L 18.609375 72.90625 
L 18.609375 28.609375 
Q 18.609375 16.890625 22.84375 11.734375 
Q 27.09375 6.59375 36.625 6.59375 
Q 46.09375 6.59375 50.34375 11.734375 
Q 54.59375 16.890625 54.59375 28.609375 
L 54.59375 72.90625 
L 64.5 72.90625 
L 64.5 27.390625 
Q 64.5 13.140625 57.4375 5.859375 
Q 50.390625 -1.421875 36.625 -1.421875 
Q 22.796875 -1.421875 15.734375 5.859375 
Q 8.6875 13.140625 8.6875 27.390625 
z
" id="DejaVuSans-85"/>
    <path d="M 34.1875 63.1875 
L 20.796875 26.90625 
L 47.609375 26.90625 
z
M 28.609375 72.90625 
L 39.796875 72.90625 
L 67.578125 0 
L 57.328125 0 
L 50.6875 18.703125 
L 17.828125 18.703125 
L 11.1875 0 
L 0.78125 0 
z
" id="DejaVuSans-65"/>
    <path d="M 32.171875 -5.078125 
Q 28.375 -14.84375 24.75 -17.8125 
Q 21.140625 -20.796875 15.09375 -20.796875 
L 7.90625 -20.796875 
L 7.90625 -13.28125 
L 13.1875 -13.28125 
Q 16.890625 -13.28125 18.9375 -11.515625 
Q 21 -9.765625 23.484375 -3.21875 
L 25.09375 0.875 
L 2.984375 54.6875 
L 12.5 54.6875 
L 29.59375 11.921875 
L 46.6875 54.6875 
L 56.203125 54.6875 
z
" id="DejaVuSans-121"/>
    <path d="M 64.40625 67.28125 
L 64.40625 56.890625 
Q 59.421875 61.53125 53.78125 63.8125 
Q 48.140625 66.109375 41.796875 66.109375 
Q 29.296875 66.109375 22.65625 58.46875 
Q 16.015625 50.828125 16.015625 36.375 
Q 16.015625 21.96875 22.65625 14.328125 
Q 29.296875 6.6875 41.796875 6.6875 
Q 48.140625 6.6875 53.78125 8.984375 
Q 59.421875 11.28125 64.40625 15.921875 
L 64.40625 5.609375 
Q 59.234375 2.09375 53.4375 0.328125 
Q 47.65625 -1.421875 41.21875 -1.421875 
Q 24.65625 -1.421875 15.125 8.703125 
Q 5.609375 18.84375 5.609375 36.375 
Q 5.609375 53.953125 15.125 64.078125 
Q 24.65625 74.21875 41.21875 74.21875 
Q 47.75 74.21875 53.53125 72.484375 
Q 59.328125 70.75 64.40625 67.28125 
z
" id="DejaVuSans-67"/>
    <path d="M 54.890625 33.015625 
L 54.890625 0 
L 45.90625 0 
L 45.90625 32.71875 
Q 45.90625 40.484375 42.875 44.328125 
Q 39.84375 48.1875 33.796875 48.1875 
Q 26.515625 48.1875 22.3125 43.546875 
Q 18.109375 38.921875 18.109375 30.90625 
L 18.109375 0 
L 9.078125 0 
L 9.078125 54.6875 
L 18.109375 54.6875 
L 18.109375 46.1875 
Q 21.34375 51.125 25.703125 53.5625 
Q 30.078125 56 35.796875 56 
Q 45.21875 56 50.046875 50.171875 
Q 54.890625 44.34375 54.890625 33.015625 
z
" id="DejaVuSans-110"/>
    <path d="M 19.671875 34.8125 
L 19.671875 8.109375 
L 35.5 8.109375 
Q 43.453125 8.109375 47.28125 11.40625 
Q 51.125 14.703125 51.125 21.484375 
Q 51.125 28.328125 47.28125 31.5625 
Q 43.453125 34.8125 35.5 34.8125 
z
M 19.671875 64.796875 
L 19.671875 42.828125 
L 34.28125 42.828125 
Q 41.5 42.828125 45.03125 45.53125 
Q 48.578125 48.25 48.578125 53.8125 
Q 48.578125 59.328125 45.03125 62.0625 
Q 41.5 64.796875 34.28125 64.796875 
z
M 9.8125 72.90625 
L 35.015625 72.90625 
Q 46.296875 72.90625 52.390625 68.21875 
Q 58.5 63.53125 58.5 54.890625 
Q 58.5 48.1875 55.375 44.234375 
Q 52.25 40.28125 46.1875 39.3125 
Q 53.46875 37.75 57.5 32.78125 
Q 61.53125 27.828125 61.53125 20.40625 
Q 61.53125 10.640625 54.890625 5.3125 
Q 48.25 0 35.984375 0 
L 9.8125 0 
z
" id="DejaVuSans-66"/>
    <path d="M 39.40625 66.21875 
Q 28.65625 66.21875 22.328125 58.203125 
Q 16.015625 50.203125 16.015625 36.375 
Q 16.015625 22.609375 22.328125 14.59375 
Q 28.65625 6.59375 39.40625 6.59375 
Q 50.140625 6.59375 56.421875 14.59375 
Q 62.703125 22.609375 62.703125 36.375 
Q 62.703125 50.203125 56.421875 58.203125 
Q 50.140625 66.21875 39.40625 66.21875 
z
M 39.40625 74.21875 
Q 54.734375 74.21875 63.90625 63.9375 
Q 73.09375 53.65625 73.09375 36.375 
Q 73.09375 19.140625 63.90625 8.859375 
Q 54.734375 -1.421875 39.40625 -1.421875 
Q 24.03125 -1.421875 14.8125 8.828125 
Q 5.609375 19.09375 5.609375 36.375 
Q 5.609375 53.65625 14.8125 63.9375 
Q 24.03125 74.21875 39.40625 74.21875 
z
" id="DejaVuSans-79"/>
    <path d="M 5.515625 54.6875 
L 48.1875 54.6875 
L 48.1875 46.484375 
L 14.40625 7.171875 
L 48.1875 7.171875 
L 48.1875 0 
L 4.296875 0 
L 4.296875 8.203125 
L 38.09375 47.515625 
L 5.515625 47.515625 
z
" id="DejaVuSans-122"/>
   </defs>
   <g transform="translate(83.506875 16.318125)scale(0.12 -0.12)">
    <use xlink:href="#DejaVuSans-71"/>
    <use x="77.490234" xlink:href="#DejaVuSans-80"/>
    <use x="137.792969" xlink:href="#DejaVuSans-85"/>
    <use x="210.986328" xlink:href="#DejaVuSans-58"/>
    <use x="244.677734" xlink:href="#DejaVuSans-32"/>
    <use x="276.464844" xlink:href="#DejaVuSans-65"/>
    <use x="344.857422" xlink:href="#DejaVuSans-99"/>
    <use x="399.837891" xlink:href="#DejaVuSans-99"/>
    <use x="454.818359" xlink:href="#DejaVuSans-117"/>
    <use x="518.197266" xlink:href="#DejaVuSans-114"/>
    <use x="559.310547" xlink:href="#DejaVuSans-97"/>
    <use x="620.589844" xlink:href="#DejaVuSans-99"/>
    <use x="675.570312" xlink:href="#DejaVuSans-121"/>
    <use x="734.75" xlink:href="#DejaVuSans-32"/>
    <use x="766.537109" xlink:href="#DejaVuSans-67"/>
    <use x="836.361328" xlink:href="#DejaVuSans-111"/>
    <use x="897.542969" xlink:href="#DejaVuSans-109"/>
    <use x="994.955078" xlink:href="#DejaVuSans-112"/>
    <use x="1058.431641" xlink:href="#DejaVuSans-97"/>
    <use x="1119.710938" xlink:href="#DejaVuSans-114"/>
    <use x="1160.824219" xlink:href="#DejaVuSans-105"/>
    <use x="1188.607422" xlink:href="#DejaVuSans-115"/>
    <use x="1240.707031" xlink:href="#DejaVuSans-111"/>
    <use x="1301.888672" xlink:href="#DejaVuSans-110"/>
    <use x="1365.267578" xlink:href="#DejaVuSans-32"/>
    <use x="1397.054688" xlink:href="#DejaVuSans-66"/>
    <use x="1465.658203" xlink:href="#DejaVuSans-97"/>
    <use x="1526.9375" xlink:href="#DejaVuSans-115"/>
    <use x="1579.037109" xlink:href="#DejaVuSans-101"/>
    <use x="1640.560547" xlink:href="#DejaVuSans-100"/>
    <use x="1704.037109" xlink:href="#DejaVuSans-32"/>
    <use x="1735.824219" xlink:href="#DejaVuSans-111"/>
    <use x="1797.005859" xlink:href="#DejaVuSans-110"/>
    <use x="1860.384766" xlink:href="#DejaVuSans-32"/>
    <use x="1892.171875" xlink:href="#DejaVuSans-79"/>
    <use x="1970.882812" xlink:href="#DejaVuSans-112"/>
    <use x="2034.359375" xlink:href="#DejaVuSans-116"/>
    <use x="2073.568359" xlink:href="#DejaVuSans-105"/>
    <use x="2101.351562" xlink:href="#DejaVuSans-109"/>
    <use x="2198.763672" xlink:href="#DejaVuSans-105"/>
    <use x="2226.546875" xlink:href="#DejaVuSans-122"/>
    <use x="2279.037109" xlink:href="#DejaVuSans-101"/>
    <use x="2340.560547" xlink:href="#DejaVuSans-114"/>
   </g>
  </g>
 </g>
 <defs>
  <clipPath id="p2c2c987b5a">
   <rect height="266.112" width="357.12" x="53.60625" y="41.76"/>
  </clipPath>
 </defs>
</svg>
