<?xml version="1.0" encoding="utf-8" standalone="no"?>
<!DOCTYPE svg PUBLIC "-//W3C//DTD SVG 1.1//EN"
  "http://www.w3.org/Graphics/SVG/1.1/DTD/svg11.dtd">
<!-- Created with matplotlib (https://matplotlib.org/) -->
<svg height="325.986375pt" version="1.1" viewBox="0 0 585.612187 325.986375" width="585.612187pt" xmlns="http://www.w3.org/2000/svg" xmlns:xlink="http://www.w3.org/1999/xlink">
 <defs>
  <style type="text/css">
*{stroke-linecap:butt;stroke-linejoin:round;}
  </style>
 </defs>
 <g id="figure_1">
  <g id="patch_1">
   <path d="M 0 325.986375 
L 585.612187 325.986375 
L 585.612187 0 
L 0 0 
z
" style="fill:#ffffff;"/>
  </g>
  <g id="axes_1">
   <g id="patch_2">
    <path d="M 40.603125 288.430125 
L 397.723125 288.430125 
L 397.723125 22.318125 
L 40.603125 22.318125 
z
" style="fill:#ffffff;"/>
   </g>
   <g id="matplotlib.axis_1">
    <g id="xtick_1">
     <g id="line2d_1">
      <path clip-path="url(#p4e05bf95e7)" d="M 56.835852 288.430125 
L 56.835852 22.318125 
" style="fill:none;stroke:#b0b0b0;stroke-linecap:square;stroke-width:0.8;"/>
     </g>
     <g id="line2d_2">
      <defs>
       <path d="M 0 0 
L 0 3.5 
" id="mc01ee6f03c" style="stroke:#000000;stroke-width:0.8;"/>
      </defs>
      <g>
       <use style="stroke:#000000;stroke-width:0.8;" x="56.835852" xlink:href="#mc01ee6f03c" y="288.430125"/>
      </g>
     </g>
     <g id="text_1">
      <!-- 0 -->
      <defs>
       <path d="M 31.78125 66.40625 
Q 24.171875 66.40625 20.328125 58.90625 
Q 16.5 51.421875 16.5 36.375 
Q 16.5 21.390625 20.328125 13.890625 
Q 24.171875 6.390625 31.78125 6.390625 
Q 39.453125 6.390625 43.28125 13.890625 
Q 47.125 21.390625 47.125 36.375 
Q 47.125 51.421875 43.28125 58.90625 
Q 39.453125 66.40625 31.78125 66.40625 
z
M 31.78125 74.21875 
Q 44.046875 74.21875 50.515625 64.515625 
Q 56.984375 54.828125 56.984375 36.375 
Q 56.984375 17.96875 50.515625 8.265625 
Q 44.046875 -1.421875 31.78125 -1.421875 
Q 19.53125 -1.421875 13.0625 8.265625 
Q 6.59375 17.96875 6.59375 36.375 
Q 6.59375 54.828125 13.0625 64.515625 
Q 19.53125 74.21875 31.78125 74.21875 
z
" id="DejaVuSans-48"/>
      </defs>
      <g transform="translate(53.654602 303.028562)scale(0.1 -0.1)">
       <use xlink:href="#DejaVuSans-48"/>
      </g>
     </g>
    </g>
    <g id="xtick_2">
     <g id="line2d_3">
      <path clip-path="url(#p4e05bf95e7)" d="M 123.091882 288.430125 
L 123.091882 22.318125 
" style="fill:none;stroke:#b0b0b0;stroke-linecap:square;stroke-width:0.8;"/>
     </g>
     <g id="line2d_4">
      <g>
       <use style="stroke:#000000;stroke-width:0.8;" x="123.091882" xlink:href="#mc01ee6f03c" y="288.430125"/>
      </g>
     </g>
     <g id="text_2">
      <!-- 10 -->
      <defs>
       <path d="M 12.40625 8.296875 
L 28.515625 8.296875 
L 28.515625 63.921875 
L 10.984375 60.40625 
L 10.984375 69.390625 
L 28.421875 72.90625 
L 38.28125 72.90625 
L 38.28125 8.296875 
L 54.390625 8.296875 
L 54.390625 0 
L 12.40625 0 
z
" id="DejaVuSans-49"/>
      </defs>
      <g transform="translate(116.729382 303.028562)scale(0.1 -0.1)">
       <use xlink:href="#DejaVuSans-49"/>
       <use x="63.623047" xlink:href="#DejaVuSans-48"/>
      </g>
     </g>
    </g>
    <g id="xtick_3">
     <g id="line2d_5">
      <path clip-path="url(#p4e05bf95e7)" d="M 189.347912 288.430125 
L 189.347912 22.318125 
" style="fill:none;stroke:#b0b0b0;stroke-linecap:square;stroke-width:0.8;"/>
     </g>
     <g id="line2d_6">
      <g>
       <use style="stroke:#000000;stroke-width:0.8;" x="189.347912" xlink:href="#mc01ee6f03c" y="288.430125"/>
      </g>
     </g>
     <g id="text_3">
      <!-- 20 -->
      <defs>
       <path d="M 19.1875 8.296875 
L 53.609375 8.296875 
L 53.609375 0 
L 7.328125 0 
L 7.328125 8.296875 
Q 12.9375 14.109375 22.625 23.890625 
Q 32.328125 33.6875 34.8125 36.53125 
Q 39.546875 41.84375 41.421875 45.53125 
Q 43.3125 49.21875 43.3125 52.78125 
Q 43.3125 58.59375 39.234375 62.25 
Q 35.15625 65.921875 28.609375 65.921875 
Q 23.96875 65.921875 18.8125 64.3125 
Q 13.671875 62.703125 7.8125 59.421875 
L 7.8125 69.390625 
Q 13.765625 71.78125 18.9375 73 
Q 24.125 74.21875 28.421875 74.21875 
Q 39.75 74.21875 46.484375 68.546875 
Q 53.21875 62.890625 53.21875 53.421875 
Q 53.21875 48.921875 51.53125 44.890625 
Q 49.859375 40.875 45.40625 35.40625 
Q 44.1875 33.984375 37.640625 27.21875 
Q 31.109375 20.453125 19.1875 8.296875 
z
" id="DejaVuSans-50"/>
      </defs>
      <g transform="translate(182.985412 303.028562)scale(0.1 -0.1)">
       <use xlink:href="#DejaVuSans-50"/>
       <use x="63.623047" xlink:href="#DejaVuSans-48"/>
      </g>
     </g>
    </g>
    <g id="xtick_4">
     <g id="line2d_7">
      <path clip-path="url(#p4e05bf95e7)" d="M 255.603941 288.430125 
L 255.603941 22.318125 
" style="fill:none;stroke:#b0b0b0;stroke-linecap:square;stroke-width:0.8;"/>
     </g>
     <g id="line2d_8">
      <g>
       <use style="stroke:#000000;stroke-width:0.8;" x="255.603941" xlink:href="#mc01ee6f03c" y="288.430125"/>
      </g>
     </g>
     <g id="text_4">
      <!-- 30 -->
      <defs>
       <path d="M 40.578125 39.3125 
Q 47.65625 37.796875 51.625 33 
Q 55.609375 28.21875 55.609375 21.1875 
Q 55.609375 10.40625 48.1875 4.484375 
Q 40.765625 -1.421875 27.09375 -1.421875 
Q 22.515625 -1.421875 17.65625 -0.515625 
Q 12.796875 0.390625 7.625 2.203125 
L 7.625 11.71875 
Q 11.71875 9.328125 16.59375 8.109375 
Q 21.484375 6.890625 26.8125 6.890625 
Q 36.078125 6.890625 40.9375 10.546875 
Q 45.796875 14.203125 45.796875 21.1875 
Q 45.796875 27.640625 41.28125 31.265625 
Q 36.765625 34.90625 28.71875 34.90625 
L 20.21875 34.90625 
L 20.21875 43.015625 
L 29.109375 43.015625 
Q 36.375 43.015625 40.234375 45.921875 
Q 44.09375 48.828125 44.09375 54.296875 
Q 44.09375 59.90625 40.109375 62.90625 
Q 36.140625 65.921875 28.71875 65.921875 
Q 24.65625 65.921875 20.015625 65.03125 
Q 15.375 64.15625 9.8125 62.3125 
L 9.8125 71.09375 
Q 15.4375 72.65625 20.34375 73.4375 
Q 25.25 74.21875 29.59375 74.21875 
Q 40.828125 74.21875 47.359375 69.109375 
Q 53.90625 64.015625 53.90625 55.328125 
Q 53.90625 49.265625 50.4375 45.09375 
Q 46.96875 40.921875 40.578125 39.3125 
z
" id="DejaVuSans-51"/>
      </defs>
      <g transform="translate(249.241441 303.028562)scale(0.1 -0.1)">
       <use xlink:href="#DejaVuSans-51"/>
       <use x="63.623047" xlink:href="#DejaVuSans-48"/>
      </g>
     </g>
    </g>
    <g id="xtick_5">
     <g id="line2d_9">
      <path clip-path="url(#p4e05bf95e7)" d="M 321.859971 288.430125 
L 321.859971 22.318125 
" style="fill:none;stroke:#b0b0b0;stroke-linecap:square;stroke-width:0.8;"/>
     </g>
     <g id="line2d_10">
      <g>
       <use style="stroke:#000000;stroke-width:0.8;" x="321.859971" xlink:href="#mc01ee6f03c" y="288.430125"/>
      </g>
     </g>
     <g id="text_5">
      <!-- 40 -->
      <defs>
       <path d="M 37.796875 64.3125 
L 12.890625 25.390625 
L 37.796875 25.390625 
z
M 35.203125 72.90625 
L 47.609375 72.90625 
L 47.609375 25.390625 
L 58.015625 25.390625 
L 58.015625 17.1875 
L 47.609375 17.1875 
L 47.609375 0 
L 37.796875 0 
L 37.796875 17.1875 
L 4.890625 17.1875 
L 4.890625 26.703125 
z
" id="DejaVuSans-52"/>
      </defs>
      <g transform="translate(315.497471 303.028562)scale(0.1 -0.1)">
       <use xlink:href="#DejaVuSans-52"/>
       <use x="63.623047" xlink:href="#DejaVuSans-48"/>
      </g>
     </g>
    </g>
    <g id="xtick_6">
     <g id="line2d_11">
      <path clip-path="url(#p4e05bf95e7)" d="M 388.116001 288.430125 
L 388.116001 22.318125 
" style="fill:none;stroke:#b0b0b0;stroke-linecap:square;stroke-width:0.8;"/>
     </g>
     <g id="line2d_12">
      <g>
       <use style="stroke:#000000;stroke-width:0.8;" x="388.116001" xlink:href="#mc01ee6f03c" y="288.430125"/>
      </g>
     </g>
     <g id="text_6">
      <!-- 50 -->
      <defs>
       <path d="M 10.796875 72.90625 
L 49.515625 72.90625 
L 49.515625 64.59375 
L 19.828125 64.59375 
L 19.828125 46.734375 
Q 21.96875 47.46875 24.109375 47.828125 
Q 26.265625 48.1875 28.421875 48.1875 
Q 40.625 48.1875 47.75 41.5 
Q 54.890625 34.8125 54.890625 23.390625 
Q 54.890625 11.625 47.5625 5.09375 
Q 40.234375 -1.421875 26.90625 -1.421875 
Q 22.3125 -1.421875 17.546875 -0.640625 
Q 12.796875 0.140625 7.71875 1.703125 
L 7.71875 11.625 
Q 12.109375 9.234375 16.796875 8.0625 
Q 21.484375 6.890625 26.703125 6.890625 
Q 35.15625 6.890625 40.078125 11.328125 
Q 45.015625 15.765625 45.015625 23.390625 
Q 45.015625 31 40.078125 35.4375 
Q 35.15625 39.890625 26.703125 39.890625 
Q 22.75 39.890625 18.8125 39.015625 
Q 14.890625 38.140625 10.796875 36.28125 
z
" id="DejaVuSans-53"/>
      </defs>
      <g transform="translate(381.753501 303.028562)scale(0.1 -0.1)">
       <use xlink:href="#DejaVuSans-53"/>
       <use x="63.623047" xlink:href="#DejaVuSans-48"/>
      </g>
     </g>
    </g>
    <g id="text_7">
     <!-- Epoch Num -->
     <defs>
      <path d="M 9.8125 72.90625 
L 55.90625 72.90625 
L 55.90625 64.59375 
L 19.671875 64.59375 
L 19.671875 43.015625 
L 54.390625 43.015625 
L 54.390625 34.71875 
L 19.671875 34.71875 
L 19.671875 8.296875 
L 56.78125 8.296875 
L 56.78125 0 
L 9.8125 0 
z
" id="DejaVuSans-69"/>
      <path d="M 18.109375 8.203125 
L 18.109375 -20.796875 
L 9.078125 -20.796875 
L 9.078125 54.6875 
L 18.109375 54.6875 
L 18.109375 46.390625 
Q 20.953125 51.265625 25.265625 53.625 
Q 29.59375 56 35.59375 56 
Q 45.5625 56 51.78125 48.09375 
Q 58.015625 40.1875 58.015625 27.296875 
Q 58.015625 14.40625 51.78125 6.484375 
Q 45.5625 -1.421875 35.59375 -1.421875 
Q 29.59375 -1.421875 25.265625 0.953125 
Q 20.953125 3.328125 18.109375 8.203125 
z
M 48.6875 27.296875 
Q 48.6875 37.203125 44.609375 42.84375 
Q 40.53125 48.484375 33.40625 48.484375 
Q 26.265625 48.484375 22.1875 42.84375 
Q 18.109375 37.203125 18.109375 27.296875 
Q 18.109375 17.390625 22.1875 11.75 
Q 26.265625 6.109375 33.40625 6.109375 
Q 40.53125 6.109375 44.609375 11.75 
Q 48.6875 17.390625 48.6875 27.296875 
z
" id="DejaVuSans-112"/>
      <path d="M 30.609375 48.390625 
Q 23.390625 48.390625 19.1875 42.75 
Q 14.984375 37.109375 14.984375 27.296875 
Q 14.984375 17.484375 19.15625 11.84375 
Q 23.34375 6.203125 30.609375 6.203125 
Q 37.796875 6.203125 41.984375 11.859375 
Q 46.1875 17.53125 46.1875 27.296875 
Q 46.1875 37.015625 41.984375 42.703125 
Q 37.796875 48.390625 30.609375 48.390625 
z
M 30.609375 56 
Q 42.328125 56 49.015625 48.375 
Q 55.71875 40.765625 55.71875 27.296875 
Q 55.71875 13.875 49.015625 6.21875 
Q 42.328125 -1.421875 30.609375 -1.421875 
Q 18.84375 -1.421875 12.171875 6.21875 
Q 5.515625 13.875 5.515625 27.296875 
Q 5.515625 40.765625 12.171875 48.375 
Q 18.84375 56 30.609375 56 
z
" id="DejaVuSans-111"/>
      <path d="M 48.78125 52.59375 
L 48.78125 44.1875 
Q 44.96875 46.296875 41.140625 47.34375 
Q 37.3125 48.390625 33.40625 48.390625 
Q 24.65625 48.390625 19.8125 42.84375 
Q 14.984375 37.3125 14.984375 27.296875 
Q 14.984375 17.28125 19.8125 11.734375 
Q 24.65625 6.203125 33.40625 6.203125 
Q 37.3125 6.203125 41.140625 7.25 
Q 44.96875 8.296875 48.78125 10.40625 
L 48.78125 2.09375 
Q 45.015625 0.34375 40.984375 -0.53125 
Q 36.96875 -1.421875 32.421875 -1.421875 
Q 20.0625 -1.421875 12.78125 6.34375 
Q 5.515625 14.109375 5.515625 27.296875 
Q 5.515625 40.671875 12.859375 48.328125 
Q 20.21875 56 33.015625 56 
Q 37.15625 56 41.109375 55.140625 
Q 45.0625 54.296875 48.78125 52.59375 
z
" id="DejaVuSans-99"/>
      <path d="M 54.890625 33.015625 
L 54.890625 0 
L 45.90625 0 
L 45.90625 32.71875 
Q 45.90625 40.484375 42.875 44.328125 
Q 39.84375 48.1875 33.796875 48.1875 
Q 26.515625 48.1875 22.3125 43.546875 
Q 18.109375 38.921875 18.109375 30.90625 
L 18.109375 0 
L 9.078125 0 
L 9.078125 75.984375 
L 18.109375 75.984375 
L 18.109375 46.1875 
Q 21.34375 51.125 25.703125 53.5625 
Q 30.078125 56 35.796875 56 
Q 45.21875 56 50.046875 50.171875 
Q 54.890625 44.34375 54.890625 33.015625 
z
" id="DejaVuSans-104"/>
      <path id="DejaVuSans-32"/>
      <path d="M 9.8125 72.90625 
L 23.09375 72.90625 
L 55.421875 11.921875 
L 55.421875 72.90625 
L 64.984375 72.90625 
L 64.984375 0 
L 51.703125 0 
L 19.390625 60.984375 
L 19.390625 0 
L 9.8125 0 
z
" id="DejaVuSans-78"/>
      <path d="M 8.5 21.578125 
L 8.5 54.6875 
L 17.484375 54.6875 
L 17.484375 21.921875 
Q 17.484375 14.15625 20.5 10.265625 
Q 23.53125 6.390625 29.59375 6.390625 
Q 36.859375 6.390625 41.078125 11.03125 
Q 45.3125 15.671875 45.3125 23.6875 
L 45.3125 54.6875 
L 54.296875 54.6875 
L 54.296875 0 
L 45.3125 0 
L 45.3125 8.40625 
Q 42.046875 3.421875 37.71875 1 
Q 33.40625 -1.421875 27.6875 -1.421875 
Q 18.265625 -1.421875 13.375 4.4375 
Q 8.5 10.296875 8.5 21.578125 
z
M 31.109375 56 
z
" id="DejaVuSans-117"/>
      <path d="M 52 44.1875 
Q 55.375 50.25 60.0625 53.125 
Q 64.75 56 71.09375 56 
Q 79.640625 56 84.28125 50.015625 
Q 88.921875 44.046875 88.921875 33.015625 
L 88.921875 0 
L 79.890625 0 
L 79.890625 32.71875 
Q 79.890625 40.578125 77.09375 44.375 
Q 74.3125 48.1875 68.609375 48.1875 
Q 61.625 48.1875 57.5625 43.546875 
Q 53.515625 38.921875 53.515625 30.90625 
L 53.515625 0 
L 44.484375 0 
L 44.484375 32.71875 
Q 44.484375 40.625 41.703125 44.40625 
Q 38.921875 48.1875 33.109375 48.1875 
Q 26.21875 48.1875 22.15625 43.53125 
Q 18.109375 38.875 18.109375 30.90625 
L 18.109375 0 
L 9.078125 0 
L 9.078125 54.6875 
L 18.109375 54.6875 
L 18.109375 46.1875 
Q 21.1875 51.21875 25.484375 53.609375 
Q 29.78125 56 35.6875 56 
Q 41.65625 56 45.828125 52.96875 
Q 50 49.953125 52 44.1875 
z
" id="DejaVuSans-109"/>
     </defs>
     <g transform="translate(190.483438 316.706687)scale(0.1 -0.1)">
      <use xlink:href="#DejaVuSans-69"/>
      <use x="63.183594" xlink:href="#DejaVuSans-112"/>
      <use x="126.660156" xlink:href="#DejaVuSans-111"/>
      <use x="187.841797" xlink:href="#DejaVuSans-99"/>
      <use x="242.822266" xlink:href="#DejaVuSans-104"/>
      <use x="306.201172" xlink:href="#DejaVuSans-32"/>
      <use x="337.988281" xlink:href="#DejaVuSans-78"/>
      <use x="412.792969" xlink:href="#DejaVuSans-117"/>
      <use x="476.171875" xlink:href="#DejaVuSans-109"/>
     </g>
    </g>
   </g>
   <g id="matplotlib.axis_2">
    <g id="ytick_1">
     <g id="line2d_13">
      <path clip-path="url(#p4e05bf95e7)" d="M 40.603125 259.597394 
L 397.723125 259.597394 
" style="fill:none;stroke:#b0b0b0;stroke-linecap:square;stroke-width:0.8;"/>
     </g>
     <g id="line2d_14">
      <defs>
       <path d="M 0 0 
L -3.5 0 
" id="m96ac0af76c" style="stroke:#000000;stroke-width:0.8;"/>
      </defs>
      <g>
       <use style="stroke:#000000;stroke-width:0.8;" x="40.603125" xlink:href="#m96ac0af76c" y="259.597394"/>
      </g>
     </g>
     <g id="text_8">
      <!-- 30 -->
      <g transform="translate(20.878125 263.396613)scale(0.1 -0.1)">
       <use xlink:href="#DejaVuSans-51"/>
       <use x="63.623047" xlink:href="#DejaVuSans-48"/>
      </g>
     </g>
    </g>
    <g id="ytick_2">
     <g id="line2d_15">
      <path clip-path="url(#p4e05bf95e7)" d="M 40.603125 209.094284 
L 397.723125 209.094284 
" style="fill:none;stroke:#b0b0b0;stroke-linecap:square;stroke-width:0.8;"/>
     </g>
     <g id="line2d_16">
      <g>
       <use style="stroke:#000000;stroke-width:0.8;" x="40.603125" xlink:href="#m96ac0af76c" y="209.094284"/>
      </g>
     </g>
     <g id="text_9">
      <!-- 40 -->
      <g transform="translate(20.878125 212.893502)scale(0.1 -0.1)">
       <use xlink:href="#DejaVuSans-52"/>
       <use x="63.623047" xlink:href="#DejaVuSans-48"/>
      </g>
     </g>
    </g>
    <g id="ytick_3">
     <g id="line2d_17">
      <path clip-path="url(#p4e05bf95e7)" d="M 40.603125 158.591173 
L 397.723125 158.591173 
" style="fill:none;stroke:#b0b0b0;stroke-linecap:square;stroke-width:0.8;"/>
     </g>
     <g id="line2d_18">
      <g>
       <use style="stroke:#000000;stroke-width:0.8;" x="40.603125" xlink:href="#m96ac0af76c" y="158.591173"/>
      </g>
     </g>
     <g id="text_10">
      <!-- 50 -->
      <g transform="translate(20.878125 162.390392)scale(0.1 -0.1)">
       <use xlink:href="#DejaVuSans-53"/>
       <use x="63.623047" xlink:href="#DejaVuSans-48"/>
      </g>
     </g>
    </g>
    <g id="ytick_4">
     <g id="line2d_19">
      <path clip-path="url(#p4e05bf95e7)" d="M 40.603125 108.088063 
L 397.723125 108.088063 
" style="fill:none;stroke:#b0b0b0;stroke-linecap:square;stroke-width:0.8;"/>
     </g>
     <g id="line2d_20">
      <g>
       <use style="stroke:#000000;stroke-width:0.8;" x="40.603125" xlink:href="#m96ac0af76c" y="108.088063"/>
      </g>
     </g>
     <g id="text_11">
      <!-- 60 -->
      <defs>
       <path d="M 33.015625 40.375 
Q 26.375 40.375 22.484375 35.828125 
Q 18.609375 31.296875 18.609375 23.390625 
Q 18.609375 15.53125 22.484375 10.953125 
Q 26.375 6.390625 33.015625 6.390625 
Q 39.65625 6.390625 43.53125 10.953125 
Q 47.40625 15.53125 47.40625 23.390625 
Q 47.40625 31.296875 43.53125 35.828125 
Q 39.65625 40.375 33.015625 40.375 
z
M 52.59375 71.296875 
L 52.59375 62.3125 
Q 48.875 64.0625 45.09375 64.984375 
Q 41.3125 65.921875 37.59375 65.921875 
Q 27.828125 65.921875 22.671875 59.328125 
Q 17.53125 52.734375 16.796875 39.40625 
Q 19.671875 43.65625 24.015625 45.921875 
Q 28.375 48.1875 33.59375 48.1875 
Q 44.578125 48.1875 50.953125 41.515625 
Q 57.328125 34.859375 57.328125 23.390625 
Q 57.328125 12.15625 50.6875 5.359375 
Q 44.046875 -1.421875 33.015625 -1.421875 
Q 20.359375 -1.421875 13.671875 8.265625 
Q 6.984375 17.96875 6.984375 36.375 
Q 6.984375 53.65625 15.1875 63.9375 
Q 23.390625 74.21875 37.203125 74.21875 
Q 40.921875 74.21875 44.703125 73.484375 
Q 48.484375 72.75 52.59375 71.296875 
z
" id="DejaVuSans-54"/>
      </defs>
      <g transform="translate(20.878125 111.887281)scale(0.1 -0.1)">
       <use xlink:href="#DejaVuSans-54"/>
       <use x="63.623047" xlink:href="#DejaVuSans-48"/>
      </g>
     </g>
    </g>
    <g id="ytick_5">
     <g id="line2d_21">
      <path clip-path="url(#p4e05bf95e7)" d="M 40.603125 57.584952 
L 397.723125 57.584952 
" style="fill:none;stroke:#b0b0b0;stroke-linecap:square;stroke-width:0.8;"/>
     </g>
     <g id="line2d_22">
      <g>
       <use style="stroke:#000000;stroke-width:0.8;" x="40.603125" xlink:href="#m96ac0af76c" y="57.584952"/>
      </g>
     </g>
     <g id="text_12">
      <!-- 70 -->
      <defs>
       <path d="M 8.203125 72.90625 
L 55.078125 72.90625 
L 55.078125 68.703125 
L 28.609375 0 
L 18.3125 0 
L 43.21875 64.59375 
L 8.203125 64.59375 
z
" id="DejaVuSans-55"/>
      </defs>
      <g transform="translate(20.878125 61.384171)scale(0.1 -0.1)">
       <use xlink:href="#DejaVuSans-55"/>
       <use x="63.623047" xlink:href="#DejaVuSans-48"/>
      </g>
     </g>
    </g>
    <g id="text_13">
     <!-- Accuracy -->
     <defs>
      <path d="M 34.1875 63.1875 
L 20.796875 26.90625 
L 47.609375 26.90625 
z
M 28.609375 72.90625 
L 39.796875 72.90625 
L 67.578125 0 
L 57.328125 0 
L 50.6875 18.703125 
L 17.828125 18.703125 
L 11.1875 0 
L 0.78125 0 
z
" id="DejaVuSans-65"/>
      <path d="M 41.109375 46.296875 
Q 39.59375 47.171875 37.8125 47.578125 
Q 36.03125 48 33.890625 48 
Q 26.265625 48 22.1875 43.046875 
Q 18.109375 38.09375 18.109375 28.8125 
L 18.109375 0 
L 9.078125 0 
L 9.078125 54.6875 
L 18.109375 54.6875 
L 18.109375 46.1875 
Q 20.953125 51.171875 25.484375 53.578125 
Q 30.03125 56 36.53125 56 
Q 37.453125 56 38.578125 55.875 
Q 39.703125 55.765625 41.0625 55.515625 
z
" id="DejaVuSans-114"/>
      <path d="M 34.28125 27.484375 
Q 23.390625 27.484375 19.1875 25 
Q 14.984375 22.515625 14.984375 16.5 
Q 14.984375 11.71875 18.140625 8.90625 
Q 21.296875 6.109375 26.703125 6.109375 
Q 34.1875 6.109375 38.703125 11.40625 
Q 43.21875 16.703125 43.21875 25.484375 
L 43.21875 27.484375 
z
M 52.203125 31.203125 
L 52.203125 0 
L 43.21875 0 
L 43.21875 8.296875 
Q 40.140625 3.328125 35.546875 0.953125 
Q 30.953125 -1.421875 24.3125 -1.421875 
Q 15.921875 -1.421875 10.953125 3.296875 
Q 6 8.015625 6 15.921875 
Q 6 25.140625 12.171875 29.828125 
Q 18.359375 34.515625 30.609375 34.515625 
L 43.21875 34.515625 
L 43.21875 35.40625 
Q 43.21875 41.609375 39.140625 45 
Q 35.0625 48.390625 27.6875 48.390625 
Q 23 48.390625 18.546875 47.265625 
Q 14.109375 46.140625 10.015625 43.890625 
L 10.015625 52.203125 
Q 14.9375 54.109375 19.578125 55.046875 
Q 24.21875 56 28.609375 56 
Q 40.484375 56 46.34375 49.84375 
Q 52.203125 43.703125 52.203125 31.203125 
z
" id="DejaVuSans-97"/>
      <path d="M 32.171875 -5.078125 
Q 28.375 -14.84375 24.75 -17.8125 
Q 21.140625 -20.796875 15.09375 -20.796875 
L 7.90625 -20.796875 
L 7.90625 -13.28125 
L 13.1875 -13.28125 
Q 16.890625 -13.28125 18.9375 -11.515625 
Q 21 -9.765625 23.484375 -3.21875 
L 25.09375 0.875 
L 2.984375 54.6875 
L 12.5 54.6875 
L 29.59375 11.921875 
L 46.6875 54.6875 
L 56.203125 54.6875 
z
" id="DejaVuSans-121"/>
     </defs>
     <g transform="translate(14.798438 178.288969)rotate(-90)scale(0.1 -0.1)">
      <use xlink:href="#DejaVuSans-65"/>
      <use x="68.392578" xlink:href="#DejaVuSans-99"/>
      <use x="123.373047" xlink:href="#DejaVuSans-99"/>
      <use x="178.353516" xlink:href="#DejaVuSans-117"/>
      <use x="241.732422" xlink:href="#DejaVuSans-114"/>
      <use x="282.845703" xlink:href="#DejaVuSans-97"/>
      <use x="344.125" xlink:href="#DejaVuSans-99"/>
      <use x="399.105469" xlink:href="#DejaVuSans-121"/>
     </g>
    </g>
   </g>
   <g id="line2d_23">
    <path clip-path="url(#p4e05bf95e7)" d="M 56.835852 161.065826 
L 63.461455 124.006643 
L 70.087058 104.734656 
L 76.712661 86.139411 
L 83.338264 96.280435 
L 89.963867 84.604116 
L 96.58947 80.76588 
L 103.215073 72.422766 
L 109.840676 83.321337 
L 116.466279 61.423189 
L 123.091882 70.998578 
L 129.717485 71.958137 
L 136.343088 64.190759 
L 142.968691 63.847338 
L 149.594294 59.685882 
L 156.219897 54.857784 
L 162.8455 59.069744 
L 169.471103 60.019202 
L 176.096706 54.504262 
L 182.722309 59.999001 
L 189.347912 49.645863 
L 195.973515 54.554765 
L 202.599118 66.291688 
L 209.224721 52.393232 
L 215.850324 56.756701 
L 222.475926 54.120439 
L 229.101529 55.302212 
L 235.727132 62.928181 
L 242.352735 47.888355 
L 248.978338 51.22156 
L 255.603941 44.56525 
L 262.229544 49.191335 
L 268.855147 53.191181 
L 275.48075 47.817651 
L 282.106353 51.958906 
L 288.731956 47.32272 
L 295.357559 43.767301 
L 301.983162 65.392733 
L 308.608765 48.191374 
L 315.234368 49.403448 
L 321.859971 49.393348 
L 328.485574 56.110261 
L 335.111177 72.251055 
L 341.73678 43.42388 
L 348.362383 44.272332 
L 354.987986 47.666141 
L 361.613589 41.171441 
L 368.239192 46.565173 
L 374.864795 52.150817 
L 381.490398 47.130808 
" style="fill:none;stroke:#1f77b4;stroke-linecap:square;stroke-width:1.5;"/>
   </g>
   <g id="line2d_24">
    <path clip-path="url(#p4e05bf95e7)" d="M 56.835852 165.611106 
L 63.461455 130.915469 
L 70.087058 116.623088 
L 76.712661 106.370957 
L 83.338264 111.067746 
L 89.963867 104.249826 
L 96.58947 101.21964 
L 103.215073 94.957254 
L 109.840676 105.209385 
L 116.466279 90.159458 
L 123.091882 96.371341 
L 129.717485 93.745179 
L 136.343088 91.876564 
L 142.968691 87.129272 
L 149.594294 87.886818 
L 156.219897 85.563675 
L 162.8455 88.088831 
L 169.471103 87.785812 
L 176.096706 87.381787 
L 182.722309 89.603924 
L 189.347912 82.937514 
L 195.973515 84.604116 
L 202.599118 97.785428 
L 209.224721 82.482986 
L 215.850324 88.644365 
L 222.475926 84.402104 
L 229.101529 85.412166 
L 235.727132 92.886626 
L 242.352735 83.139526 
L 248.978338 85.513172 
L 255.603941 82.634495 
L 262.229544 84.402104 
L 268.855147 89.04839 
L 275.48075 82.583992 
L 282.106353 86.725247 
L 288.731956 85.563675 
L 295.357559 81.523426 
L 301.983162 99.149012 
L 308.608765 81.169905 
L 315.234368 83.947576 
L 321.859971 84.957638 
L 328.485574 87.381787 
L 335.111177 104.855864 
L 341.73678 80.715377 
L 348.362383 81.57393 
L 354.987986 86.270719 
L 361.613589 80.513364 
L 368.239192 82.735501 
L 374.864795 86.573738 
L 381.490398 81.068898 
" style="fill:none;stroke:#ff7f0e;stroke-linecap:square;stroke-width:1.5;"/>
   </g>
   <g id="line2d_25">
    <path clip-path="url(#p4e05bf95e7)" d="M 56.835852 223.861393 
L 63.461455 174.792571 
L 70.087058 145.652276 
L 76.712661 125.360126 
L 83.338264 103.694292 
L 89.963867 105.340693 
L 96.58947 109.66376 
L 103.215073 101.431753 
L 109.840676 83.452645 
L 116.466279 82.907212 
L 123.091882 80.200245 
L 129.717485 81.89715 
L 136.343088 76.422612 
L 142.968691 71.867232 
L 149.594294 64.261463 
L 156.219897 65.726054 
L 162.8455 73.554036 
L 169.471103 63.029187 
L 176.096706 60.786849 
L 182.722309 61.150472 
L 189.347912 62.645364 
L 195.973515 58.352599 
L 202.599118 60.938359 
L 209.224721 64.766494 
L 215.850324 57.433443 
L 222.475926 59.221253 
L 229.101529 50.827636 
L 235.727132 55.968853 
L 242.352735 50.363007 
L 248.978338 54.110338 
L 255.603941 50.322605 
L 262.229544 56.150664 
L 268.855147 55.322413 
L 275.48075 50.999346 
L 282.106353 49.605461 
L 288.731956 48.585298 
L 295.357559 51.585183 
L 301.983162 49.474153 
L 308.608765 47.221714 
L 315.234368 51.868 
L 321.859971 49.241838 
L 328.485574 49.969083 
L 335.111177 46.171249 
L 341.73678 44.100622 
L 348.362383 51.635686 
L 354.987986 48.696405 
L 361.613589 42.201705 
L 368.239192 47.464129 
L 374.864795 49.857976 
L 381.490398 44.827866 
" style="fill:none;stroke:#2ca02c;stroke-linecap:square;stroke-width:1.5;"/>
   </g>
   <g id="line2d_26">
    <path clip-path="url(#p4e05bf95e7)" d="M 56.835852 225.810813 
L 63.461455 182.832666 
L 70.087058 151.924763 
L 76.712661 134.804208 
L 83.338264 113.946423 
L 89.963867 113.592902 
L 96.58947 119.653275 
L 103.215073 107.431522 
L 109.840676 94.654235 
L 116.466279 95.361279 
L 123.091882 92.12908 
L 129.717485 97.633919 
L 136.343088 87.987825 
L 142.968691 83.644557 
L 149.594294 76.372109 
L 156.219897 81.018395 
L 162.8455 85.816191 
L 169.471103 77.281165 
L 176.096706 76.119594 
L 182.722309 75.261041 
L 189.347912 72.48337 
L 195.973515 70.412742 
L 202.599118 73.190413 
L 209.224721 74.857016 
L 215.850324 72.937898 
L 222.475926 72.382363 
L 229.101529 66.4735 
L 235.727132 69.453183 
L 242.352735 66.4735 
L 248.978338 66.827021 
L 255.603941 67.837084 
L 262.229544 71.069283 
L 268.855147 67.029034 
L 275.48075 64.756394 
L 282.106353 62.130232 
L 288.731956 65.008909 
L 295.357559 65.917965 
L 301.983162 62.483754 
L 308.608765 60.413126 
L 315.234368 67.78658 
L 321.859971 66.372493 
L 328.485574 64.806897 
L 335.111177 63.544319 
L 341.73678 59.554573 
L 348.362383 64.453375 
L 354.987986 63.493816 
L 361.613589 55.514325 
L 368.239192 61.069667 
L 374.864795 66.422996 
L 381.490398 58.948536 
" style="fill:none;stroke:#d62728;stroke-linecap:square;stroke-width:1.5;"/>
   </g>
   <g id="line2d_27">
    <path clip-path="url(#p4e05bf95e7)" d="M 56.835852 210.316459 
L 63.461455 159.924455 
L 70.087058 137.066747 
L 76.712661 118.774521 
L 83.338264 117.845264 
L 89.963867 103.815499 
L 96.58947 97.906636 
L 103.215073 96.583454 
L 109.840676 94.189607 
L 116.466279 87.280781 
L 123.091882 83.69506 
L 129.717485 79.281088 
L 136.343088 72.998501 
L 142.968691 65.160419 
L 149.594294 70.715761 
L 156.219897 68.58453 
L 162.8455 72.473269 
L 169.471103 72.200552 
L 176.096706 71.806628 
L 182.722309 59.423265 
L 189.347912 61.958521 
L 195.973515 57.645556 
L 202.599118 56.079959 
L 209.224721 69.796604 
L 215.850324 59.9788 
L 222.475926 57.918273 
L 229.101529 58.786926 
L 235.727132 63.433212 
L 242.352735 57.615254 
L 248.978338 47.918657 
L 255.603941 53.32249 
L 262.229544 53.221483 
L 268.855147 51.22156 
L 275.48075 53.514401 
L 282.106353 53.797219 
L 288.731956 52.312427 
L 295.357559 48.94892 
L 301.983162 43.706697 
L 308.608765 49.120631 
L 315.234368 51.251862 
L 321.859971 46.393463 
L 328.485574 43.019855 
L 335.111177 50.696328 
L 341.73678 47.656041 
L 348.362383 42.504723 
L 354.987986 43.151163 
L 361.613589 49.645863 
L 368.239192 44.009716 
L 374.864795 45.736922 
L 381.490398 47.585336 
" style="fill:none;stroke:#9467bd;stroke-linecap:square;stroke-width:1.5;"/>
   </g>
   <g id="line2d_28">
    <path clip-path="url(#p4e05bf95e7)" d="M 56.835852 212.528495 
L 63.461455 164.904062 
L 70.087058 142.985712 
L 76.712661 124.350064 
L 83.338264 123.390505 
L 89.963867 109.855671 
L 96.58947 108.542591 
L 103.215073 103.138758 
L 109.840676 102.583224 
L 116.466279 92.583608 
L 123.091882 88.341346 
L 129.717485 83.69506 
L 136.343088 81.674936 
L 142.968691 70.412742 
L 149.594294 76.119594 
L 156.219897 75.867078 
L 162.8455 77.735693 
L 169.471103 80.210346 
L 176.096706 76.2206 
L 182.722309 66.018972 
L 189.347912 67.180543 
L 195.973515 65.261425 
L 202.599118 64.604884 
L 209.224721 75.463053 
L 215.850324 66.018972 
L 222.475926 65.51394 
L 229.101529 66.170481 
L 235.727132 68.493624 
L 242.352735 64.453375 
L 248.978338 60.110108 
L 255.603941 62.938282 
L 262.229544 57.534449 
L 268.855147 57.736461 
L 275.48075 61.978723 
L 282.106353 60.413126 
L 288.731956 56.776902 
L 295.357559 56.877909 
L 301.983162 53.797219 
L 308.608765 56.524387 
L 315.234368 58.241493 
L 321.859971 53.595206 
L 328.485574 50.918542 
L 335.111177 56.726399 
L 341.73678 53.595206 
L 348.362383 47.736846 
L 354.987986 52.02961 
L 361.613589 55.564828 
L 368.239192 53.191181 
L 374.864795 53.292188 
L 381.490398 53.898225 
" style="fill:none;stroke:#8c564b;stroke-linecap:square;stroke-width:1.5;"/>
   </g>
   <g id="line2d_29">
    <path clip-path="url(#p4e05bf95e7)" d="M 56.835852 276.334125 
L 63.461455 250.830054 
L 70.087058 233.426682 
L 76.712661 204.942928 
L 83.338264 146.086603 
L 89.963867 119.633074 
L 96.58947 104.108418 
L 103.215073 101.138835 
L 109.840676 95.937014 
L 116.466279 92.088677 
L 123.091882 89.311006 
L 129.717485 84.856632 
L 136.343088 91.80586 
L 142.968691 91.119017 
L 149.594294 91.189722 
L 156.219897 80.624471 
L 162.8455 71.109685 
L 169.471103 67.958291 
L 176.096706 77.998309 
L 182.722309 57.06982 
L 189.347912 62.534257 
L 195.973515 57.463745 
L 202.599118 62.978684 
L 209.224721 57.191028 
L 215.850324 58.009178 
L 222.475926 57.271833 
L 229.101529 53.797219 
L 235.727132 60.988862 
L 242.352735 50.211498 
L 248.978338 61.049465 
L 255.603941 48.352984 
L 262.229544 58.312197 
L 268.855147 65.938167 
L 275.48075 51.474076 
L 282.106353 56.302173 
L 288.731956 49.868077 
L 295.357559 43.110761 
L 301.983162 47.635839 
L 308.608765 50.322605 
L 315.234368 52.231622 
L 321.859971 39.020009 
L 328.485574 45.241992 
L 335.111177 48.191374 
L 341.73678 47.989361 
L 348.362383 45.039979 
L 354.987986 50.231699 
L 361.613589 50.41351 
L 368.239192 42.77744 
L 374.864795 44.656156 
L 381.490398 40.322989 
" style="fill:none;stroke:#e377c2;stroke-linecap:square;stroke-width:1.5;"/>
   </g>
   <g id="line2d_30">
    <path clip-path="url(#p4e05bf95e7)" d="M 56.835852 274.95034 
L 63.461455 253.486518 
L 70.087058 237.628541 
L 76.712661 210.558874 
L 83.338264 150.9147 
L 89.963867 125.865158 
L 96.58947 112.128311 
L 103.215073 107.22951 
L 109.840676 105.714416 
L 116.466279 102.027689 
L 123.091882 100.563099 
L 129.717485 99.199515 
L 136.343088 101.371149 
L 142.968691 99.805552 
L 149.594294 98.593478 
L 156.219897 90.058452 
L 162.8455 81.927451 
L 169.471103 77.432675 
L 176.096706 85.563675 
L 182.722309 68.897649 
L 189.347912 71.877332 
L 195.973515 70.816767 
L 202.599118 73.644941 
L 209.224721 64.806897 
L 215.850324 73.13991 
L 222.475926 71.826829 
L 229.101529 66.271487 
L 235.727132 73.644941 
L 242.352735 64.655388 
L 248.978338 72.129848 
L 255.603941 59.453567 
L 262.229544 70.86727 
L 268.855147 77.483178 
L 275.48075 63.796835 
L 282.106353 70.05922 
L 288.731956 62.483754 
L 295.357559 55.867846 
L 301.983162 60.160611 
L 308.608765 63.039288 
L 315.234368 62.685766 
L 321.859971 53.898225 
L 328.485574 58.797027 
L 335.111177 63.342307 
L 341.73678 63.493816 
L 348.362383 58.948536 
L 354.987986 65.816959 
L 361.613589 61.322182 
L 368.239192 57.837468 
L 374.864795 56.978915 
L 381.490398 54.403256 
" style="fill:none;stroke:#7f7f7f;stroke-linecap:square;stroke-width:1.5;"/>
   </g>
   <g id="line2d_31">
    <path clip-path="url(#p4e05bf95e7)" d="M 56.835852 180.78224 
L 63.461455 132.066939 
L 70.087058 123.269298 
L 76.712661 103.835701 
L 83.338264 96.664259 
L 89.963867 94.300713 
L 96.58947 75.634764 
L 103.215073 76.028688 
L 109.840676 67.200744 
L 116.466279 72.685382 
L 123.091882 63.06959 
L 129.717485 58.170788 
L 136.343088 57.584952 
L 142.968691 52.51444 
L 149.594294 53.807319 
L 156.219897 66.766418 
L 162.8455 52.51444 
L 169.471103 47.494431 
L 176.096706 52.282126 
L 182.722309 48.605499 
L 189.347912 51.948805 
L 195.973515 46.423765 
L 202.599118 48.858015 
L 209.224721 54.251747 
L 215.850324 43.514786 
L 222.475926 36.171633 
L 229.101529 41.080536 
L 235.727132 39.252323 
L 242.352735 42.343113 
L 248.978338 42.1209 
L 255.603941 42.1209 
L 262.229544 37.161494 
L 268.855147 45.898532 
L 275.48075 40.242184 
L 282.106353 40.444196 
L 288.731956 48.78731 
L 295.357559 45.241992 
L 301.983162 43.302672 
L 308.608765 41.787579 
L 315.234368 38.959405 
L 321.859971 43.888509 
L 328.485574 38.545279 
L 335.111177 34.414125 
L 341.73678 38.464474 
L 348.362383 36.92918 
L 354.987986 35.484791 
L 361.613589 40.605806 
L 368.239192 35.31308 
L 374.864795 37.626123 
L 381.490398 38.979606 
" style="fill:none;stroke:#bcbd22;stroke-linecap:square;stroke-width:1.5;"/>
   </g>
   <g id="line2d_32">
    <path clip-path="url(#p4e05bf95e7)" d="M 56.835852 182.277132 
L 63.461455 136.723326 
L 70.087058 128.188301 
L 76.712661 112.532336 
L 83.338264 106.623472 
L 89.963867 99.250018 
L 96.58947 83.947576 
L 103.215073 83.190029 
L 109.840676 78.139718 
L 116.466279 83.392042 
L 123.091882 75.564059 
L 129.717485 70.564252 
L 136.343088 68.544127 
L 142.968691 63.796835 
L 149.594294 64.352369 
L 156.219897 74.75601 
L 162.8455 61.726207 
L 169.471103 63.039288 
L 176.096706 63.998847 
L 182.722309 62.786772 
L 189.347912 66.220984 
L 195.973515 57.584952 
L 202.599118 60.564636 
L 209.224721 67.78658 
L 215.850324 55.362815 
L 222.475926 49.605461 
L 229.101529 53.292188 
L 235.727132 56.322374 
L 242.352735 54.908287 
L 248.978338 56.776902 
L 255.603941 54.554765 
L 262.229544 52.02961 
L 268.855147 59.605077 
L 275.48075 54.251747 
L 282.106353 58.443505 
L 288.731956 61.675704 
L 295.357559 56.221368 
L 301.983162 59.302058 
L 308.608765 57.23143 
L 315.234368 53.898225 
L 321.859971 57.988977 
L 328.485574 49.554958 
L 335.111177 51.979107 
L 341.73678 55.362815 
L 348.362383 52.989169 
L 354.987986 48.797411 
L 361.613589 55.867846 
L 368.239192 51.726591 
L 374.864795 51.979107 
L 381.490398 55.968853 
" style="fill:none;stroke:#17becf;stroke-linecap:square;stroke-width:1.5;"/>
   </g>
   <g id="patch_3">
    <path d="M 40.603125 288.430125 
L 40.603125 22.318125 
" style="fill:none;stroke:#000000;stroke-linecap:square;stroke-linejoin:miter;stroke-width:0.8;"/>
   </g>
   <g id="patch_4">
    <path d="M 397.723125 288.430125 
L 397.723125 22.318125 
" style="fill:none;stroke:#000000;stroke-linecap:square;stroke-linejoin:miter;stroke-width:0.8;"/>
   </g>
   <g id="patch_5">
    <path d="M 40.603125 288.430125 
L 397.723125 288.430125 
" style="fill:none;stroke:#000000;stroke-linecap:square;stroke-linejoin:miter;stroke-width:0.8;"/>
   </g>
   <g id="patch_6">
    <path d="M 40.603125 22.318125 
L 397.723125 22.318125 
" style="fill:none;stroke:#000000;stroke-linecap:square;stroke-linejoin:miter;stroke-width:0.8;"/>
   </g>
   <g id="text_14">
    <!-- GPU: Accuracy Comparison Based on model -->
    <defs>
     <path d="M 59.515625 10.40625 
L 59.515625 29.984375 
L 43.40625 29.984375 
L 43.40625 38.09375 
L 69.28125 38.09375 
L 69.28125 6.78125 
Q 63.578125 2.734375 56.6875 0.65625 
Q 49.8125 -1.421875 42 -1.421875 
Q 24.90625 -1.421875 15.25 8.5625 
Q 5.609375 18.5625 5.609375 36.375 
Q 5.609375 54.25 15.25 64.234375 
Q 24.90625 74.21875 42 74.21875 
Q 49.125 74.21875 55.546875 72.453125 
Q 61.96875 70.703125 67.390625 67.28125 
L 67.390625 56.78125 
Q 61.921875 61.421875 55.765625 63.765625 
Q 49.609375 66.109375 42.828125 66.109375 
Q 29.4375 66.109375 22.71875 58.640625 
Q 16.015625 51.171875 16.015625 36.375 
Q 16.015625 21.625 22.71875 14.15625 
Q 29.4375 6.6875 42.828125 6.6875 
Q 48.046875 6.6875 52.140625 7.59375 
Q 56.25 8.5 59.515625 10.40625 
z
" id="DejaVuSans-71"/>
     <path d="M 19.671875 64.796875 
L 19.671875 37.40625 
L 32.078125 37.40625 
Q 38.96875 37.40625 42.71875 40.96875 
Q 46.484375 44.53125 46.484375 51.125 
Q 46.484375 57.671875 42.71875 61.234375 
Q 38.96875 64.796875 32.078125 64.796875 
z
M 9.8125 72.90625 
L 32.078125 72.90625 
Q 44.34375 72.90625 50.609375 67.359375 
Q 56.890625 61.8125 56.890625 51.125 
Q 56.890625 40.328125 50.609375 34.8125 
Q 44.34375 29.296875 32.078125 29.296875 
L 19.671875 29.296875 
L 19.671875 0 
L 9.8125 0 
z
" id="DejaVuSans-80"/>
     <path d="M 8.6875 72.90625 
L 18.609375 72.90625 
L 18.609375 28.609375 
Q 18.609375 16.890625 22.84375 11.734375 
Q 27.09375 6.59375 36.625 6.59375 
Q 46.09375 6.59375 50.34375 11.734375 
Q 54.59375 16.890625 54.59375 28.609375 
L 54.59375 72.90625 
L 64.5 72.90625 
L 64.5 27.390625 
Q 64.5 13.140625 57.4375 5.859375 
Q 50.390625 -1.421875 36.625 -1.421875 
Q 22.796875 -1.421875 15.734375 5.859375 
Q 8.6875 13.140625 8.6875 27.390625 
z
" id="DejaVuSans-85"/>
     <path d="M 11.71875 12.40625 
L 22.015625 12.40625 
L 22.015625 0 
L 11.71875 0 
z
M 11.71875 51.703125 
L 22.015625 51.703125 
L 22.015625 39.3125 
L 11.71875 39.3125 
z
" id="DejaVuSans-58"/>
     <path d="M 64.40625 67.28125 
L 64.40625 56.890625 
Q 59.421875 61.53125 53.78125 63.8125 
Q 48.140625 66.109375 41.796875 66.109375 
Q 29.296875 66.109375 22.65625 58.46875 
Q 16.015625 50.828125 16.015625 36.375 
Q 16.015625 21.96875 22.65625 14.328125 
Q 29.296875 6.6875 41.796875 6.6875 
Q 48.140625 6.6875 53.78125 8.984375 
Q 59.421875 11.28125 64.40625 15.921875 
L 64.40625 5.609375 
Q 59.234375 2.09375 53.4375 0.328125 
Q 47.65625 -1.421875 41.21875 -1.421875 
Q 24.65625 -1.421875 15.125 8.703125 
Q 5.609375 18.84375 5.609375 36.375 
Q 5.609375 53.953125 15.125 64.078125 
Q 24.65625 74.21875 41.21875 74.21875 
Q 47.75 74.21875 53.53125 72.484375 
Q 59.328125 70.75 64.40625 67.28125 
z
" id="DejaVuSans-67"/>
     <path d="M 9.421875 54.6875 
L 18.40625 54.6875 
L 18.40625 0 
L 9.421875 0 
z
M 9.421875 75.984375 
L 18.40625 75.984375 
L 18.40625 64.59375 
L 9.421875 64.59375 
z
" id="DejaVuSans-105"/>
     <path d="M 44.28125 53.078125 
L 44.28125 44.578125 
Q 40.484375 46.53125 36.375 47.5 
Q 32.28125 48.484375 27.875 48.484375 
Q 21.1875 48.484375 17.84375 46.4375 
Q 14.5 44.390625 14.5 40.28125 
Q 14.5 37.15625 16.890625 35.375 
Q 19.28125 33.59375 26.515625 31.984375 
L 29.59375 31.296875 
Q 39.15625 29.25 43.1875 25.515625 
Q 47.21875 21.78125 47.21875 15.09375 
Q 47.21875 7.46875 41.1875 3.015625 
Q 35.15625 -1.421875 24.609375 -1.421875 
Q 20.21875 -1.421875 15.453125 -0.5625 
Q 10.6875 0.296875 5.421875 2 
L 5.421875 11.28125 
Q 10.40625 8.6875 15.234375 7.390625 
Q 20.0625 6.109375 24.8125 6.109375 
Q 31.15625 6.109375 34.5625 8.28125 
Q 37.984375 10.453125 37.984375 14.40625 
Q 37.984375 18.0625 35.515625 20.015625 
Q 33.0625 21.96875 24.703125 23.78125 
L 21.578125 24.515625 
Q 13.234375 26.265625 9.515625 29.90625 
Q 5.8125 33.546875 5.8125 39.890625 
Q 5.8125 47.609375 11.28125 51.796875 
Q 16.75 56 26.8125 56 
Q 31.78125 56 36.171875 55.265625 
Q 40.578125 54.546875 44.28125 53.078125 
z
" id="DejaVuSans-115"/>
     <path d="M 54.890625 33.015625 
L 54.890625 0 
L 45.90625 0 
L 45.90625 32.71875 
Q 45.90625 40.484375 42.875 44.328125 
Q 39.84375 48.1875 33.796875 48.1875 
Q 26.515625 48.1875 22.3125 43.546875 
Q 18.109375 38.921875 18.109375 30.90625 
L 18.109375 0 
L 9.078125 0 
L 9.078125 54.6875 
L 18.109375 54.6875 
L 18.109375 46.1875 
Q 21.34375 51.125 25.703125 53.5625 
Q 30.078125 56 35.796875 56 
Q 45.21875 56 50.046875 50.171875 
Q 54.890625 44.34375 54.890625 33.015625 
z
" id="DejaVuSans-110"/>
     <path d="M 19.671875 34.8125 
L 19.671875 8.109375 
L 35.5 8.109375 
Q 43.453125 8.109375 47.28125 11.40625 
Q 51.125 14.703125 51.125 21.484375 
Q 51.125 28.328125 47.28125 31.5625 
Q 43.453125 34.8125 35.5 34.8125 
z
M 19.671875 64.796875 
L 19.671875 42.828125 
L 34.28125 42.828125 
Q 41.5 42.828125 45.03125 45.53125 
Q 48.578125 48.25 48.578125 53.8125 
Q 48.578125 59.328125 45.03125 62.0625 
Q 41.5 64.796875 34.28125 64.796875 
z
M 9.8125 72.90625 
L 35.015625 72.90625 
Q 46.296875 72.90625 52.390625 68.21875 
Q 58.5 63.53125 58.5 54.890625 
Q 58.5 48.1875 55.375 44.234375 
Q 52.25 40.28125 46.1875 39.3125 
Q 53.46875 37.75 57.5 32.78125 
Q 61.53125 27.828125 61.53125 20.40625 
Q 61.53125 10.640625 54.890625 5.3125 
Q 48.25 0 35.984375 0 
L 9.8125 0 
z
" id="DejaVuSans-66"/>
     <path d="M 56.203125 29.59375 
L 56.203125 25.203125 
L 14.890625 25.203125 
Q 15.484375 15.921875 20.484375 11.0625 
Q 25.484375 6.203125 34.421875 6.203125 
Q 39.59375 6.203125 44.453125 7.46875 
Q 49.3125 8.734375 54.109375 11.28125 
L 54.109375 2.78125 
Q 49.265625 0.734375 44.1875 -0.34375 
Q 39.109375 -1.421875 33.890625 -1.421875 
Q 20.796875 -1.421875 13.15625 6.1875 
Q 5.515625 13.8125 5.515625 26.8125 
Q 5.515625 40.234375 12.765625 48.109375 
Q 20.015625 56 32.328125 56 
Q 43.359375 56 49.78125 48.890625 
Q 56.203125 41.796875 56.203125 29.59375 
z
M 47.21875 32.234375 
Q 47.125 39.59375 43.09375 43.984375 
Q 39.0625 48.390625 32.421875 48.390625 
Q 24.90625 48.390625 20.390625 44.140625 
Q 15.875 39.890625 15.1875 32.171875 
z
" id="DejaVuSans-101"/>
     <path d="M 45.40625 46.390625 
L 45.40625 75.984375 
L 54.390625 75.984375 
L 54.390625 0 
L 45.40625 0 
L 45.40625 8.203125 
Q 42.578125 3.328125 38.25 0.953125 
Q 33.9375 -1.421875 27.875 -1.421875 
Q 17.96875 -1.421875 11.734375 6.484375 
Q 5.515625 14.40625 5.515625 27.296875 
Q 5.515625 40.1875 11.734375 48.09375 
Q 17.96875 56 27.875 56 
Q 33.9375 56 38.25 53.625 
Q 42.578125 51.265625 45.40625 46.390625 
z
M 14.796875 27.296875 
Q 14.796875 17.390625 18.875 11.75 
Q 22.953125 6.109375 30.078125 6.109375 
Q 37.203125 6.109375 41.296875 11.75 
Q 45.40625 17.390625 45.40625 27.296875 
Q 45.40625 37.203125 41.296875 42.84375 
Q 37.203125 48.484375 30.078125 48.484375 
Q 22.953125 48.484375 18.875 42.84375 
Q 14.796875 37.203125 14.796875 27.296875 
z
" id="DejaVuSans-100"/>
     <path d="M 9.421875 75.984375 
L 18.40625 75.984375 
L 18.40625 0 
L 9.421875 0 
z
" id="DejaVuSans-108"/>
    </defs>
    <g transform="translate(86.950313 16.318125)scale(0.12 -0.12)">
     <use xlink:href="#DejaVuSans-71"/>
     <use x="77.490234" xlink:href="#DejaVuSans-80"/>
     <use x="137.792969" xlink:href="#DejaVuSans-85"/>
     <use x="210.986328" xlink:href="#DejaVuSans-58"/>
     <use x="244.677734" xlink:href="#DejaVuSans-32"/>
     <use x="276.464844" xlink:href="#DejaVuSans-65"/>
     <use x="344.857422" xlink:href="#DejaVuSans-99"/>
     <use x="399.837891" xlink:href="#DejaVuSans-99"/>
     <use x="454.818359" xlink:href="#DejaVuSans-117"/>
     <use x="518.197266" xlink:href="#DejaVuSans-114"/>
     <use x="559.310547" xlink:href="#DejaVuSans-97"/>
     <use x="620.589844" xlink:href="#DejaVuSans-99"/>
     <use x="675.570312" xlink:href="#DejaVuSans-121"/>
     <use x="734.75" xlink:href="#DejaVuSans-32"/>
     <use x="766.537109" xlink:href="#DejaVuSans-67"/>
     <use x="836.361328" xlink:href="#DejaVuSans-111"/>
     <use x="897.542969" xlink:href="#DejaVuSans-109"/>
     <use x="994.955078" xlink:href="#DejaVuSans-112"/>
     <use x="1058.431641" xlink:href="#DejaVuSans-97"/>
     <use x="1119.710938" xlink:href="#DejaVuSans-114"/>
     <use x="1160.824219" xlink:href="#DejaVuSans-105"/>
     <use x="1188.607422" xlink:href="#DejaVuSans-115"/>
     <use x="1240.707031" xlink:href="#DejaVuSans-111"/>
     <use x="1301.888672" xlink:href="#DejaVuSans-110"/>
     <use x="1365.267578" xlink:href="#DejaVuSans-32"/>
     <use x="1397.054688" xlink:href="#DejaVuSans-66"/>
     <use x="1465.658203" xlink:href="#DejaVuSans-97"/>
     <use x="1526.9375" xlink:href="#DejaVuSans-115"/>
     <use x="1579.037109" xlink:href="#DejaVuSans-101"/>
     <use x="1640.560547" xlink:href="#DejaVuSans-100"/>
     <use x="1704.037109" xlink:href="#DejaVuSans-32"/>
     <use x="1735.824219" xlink:href="#DejaVuSans-111"/>
     <use x="1797.005859" xlink:href="#DejaVuSans-110"/>
     <use x="1860.384766" xlink:href="#DejaVuSans-32"/>
     <use x="1892.171875" xlink:href="#DejaVuSans-109"/>
     <use x="1989.583984" xlink:href="#DejaVuSans-111"/>
     <use x="2050.765625" xlink:href="#DejaVuSans-100"/>
     <use x="2114.242188" xlink:href="#DejaVuSans-101"/>
     <use x="2175.765625" xlink:href="#DejaVuSans-108"/>
    </g>
   </g>
   <g id="legend_1">
    <g id="patch_7">
     <path d="M 404.723125 177.099375 
L 576.412187 177.099375 
Q 578.412187 177.099375 578.412187 175.099375 
L 578.412187 29.318125 
Q 578.412187 27.318125 576.412187 27.318125 
L 404.723125 27.318125 
Q 402.723125 27.318125 402.723125 29.318125 
L 402.723125 175.099375 
Q 402.723125 177.099375 404.723125 177.099375 
z
" style="fill:#ffffff;opacity:0.8;stroke:#cccccc;stroke-linejoin:miter;"/>
    </g>
    <g id="line2d_33">
     <path d="M 406.723125 35.416562 
L 426.723125 35.416562 
" style="fill:none;stroke:#1f77b4;stroke-linecap:square;stroke-width:1.5;"/>
    </g>
    <g id="line2d_34"/>
    <g id="text_15">
     <!-- lenet-main/accuracy -->
     <defs>
      <path d="M 18.3125 70.21875 
L 18.3125 54.6875 
L 36.8125 54.6875 
L 36.8125 47.703125 
L 18.3125 47.703125 
L 18.3125 18.015625 
Q 18.3125 11.328125 20.140625 9.421875 
Q 21.96875 7.515625 27.59375 7.515625 
L 36.8125 7.515625 
L 36.8125 0 
L 27.59375 0 
Q 17.1875 0 13.234375 3.875 
Q 9.28125 7.765625 9.28125 18.015625 
L 9.28125 47.703125 
L 2.6875 47.703125 
L 2.6875 54.6875 
L 9.28125 54.6875 
L 9.28125 70.21875 
z
" id="DejaVuSans-116"/>
      <path d="M 4.890625 31.390625 
L 31.203125 31.390625 
L 31.203125 23.390625 
L 4.890625 23.390625 
z
" id="DejaVuSans-45"/>
      <path d="M 25.390625 72.90625 
L 33.6875 72.90625 
L 8.296875 -9.28125 
L 0 -9.28125 
z
" id="DejaVuSans-47"/>
     </defs>
     <g transform="translate(434.723125 38.916562)scale(0.1 -0.1)">
      <use xlink:href="#DejaVuSans-108"/>
      <use x="27.783203" xlink:href="#DejaVuSans-101"/>
      <use x="89.306641" xlink:href="#DejaVuSans-110"/>
      <use x="152.685547" xlink:href="#DejaVuSans-101"/>
      <use x="214.208984" xlink:href="#DejaVuSans-116"/>
      <use x="253.417969" xlink:href="#DejaVuSans-45"/>
      <use x="289.501953" xlink:href="#DejaVuSans-109"/>
      <use x="386.914062" xlink:href="#DejaVuSans-97"/>
      <use x="448.193359" xlink:href="#DejaVuSans-105"/>
      <use x="475.976562" xlink:href="#DejaVuSans-110"/>
      <use x="539.355469" xlink:href="#DejaVuSans-47"/>
      <use x="573.046875" xlink:href="#DejaVuSans-97"/>
      <use x="634.326172" xlink:href="#DejaVuSans-99"/>
      <use x="689.306641" xlink:href="#DejaVuSans-99"/>
      <use x="744.287109" xlink:href="#DejaVuSans-117"/>
      <use x="807.666016" xlink:href="#DejaVuSans-114"/>
      <use x="848.779297" xlink:href="#DejaVuSans-97"/>
      <use x="910.058594" xlink:href="#DejaVuSans-99"/>
      <use x="965.039062" xlink:href="#DejaVuSans-121"/>
     </g>
    </g>
    <g id="line2d_35">
     <path d="M 406.723125 50.094688 
L 426.723125 50.094688 
" style="fill:none;stroke:#ff7f0e;stroke-linecap:square;stroke-width:1.5;"/>
    </g>
    <g id="line2d_36"/>
    <g id="text_16">
     <!-- lenet-test/accuracy -->
     <g transform="translate(434.723125 53.594688)scale(0.1 -0.1)">
      <use xlink:href="#DejaVuSans-108"/>
      <use x="27.783203" xlink:href="#DejaVuSans-101"/>
      <use x="89.306641" xlink:href="#DejaVuSans-110"/>
      <use x="152.685547" xlink:href="#DejaVuSans-101"/>
      <use x="214.208984" xlink:href="#DejaVuSans-116"/>
      <use x="253.417969" xlink:href="#DejaVuSans-45"/>
      <use x="289.501953" xlink:href="#DejaVuSans-116"/>
      <use x="328.710938" xlink:href="#DejaVuSans-101"/>
      <use x="390.234375" xlink:href="#DejaVuSans-115"/>
      <use x="442.333984" xlink:href="#DejaVuSans-116"/>
      <use x="481.542969" xlink:href="#DejaVuSans-47"/>
      <use x="515.234375" xlink:href="#DejaVuSans-97"/>
      <use x="576.513672" xlink:href="#DejaVuSans-99"/>
      <use x="631.494141" xlink:href="#DejaVuSans-99"/>
      <use x="686.474609" xlink:href="#DejaVuSans-117"/>
      <use x="749.853516" xlink:href="#DejaVuSans-114"/>
      <use x="790.966797" xlink:href="#DejaVuSans-97"/>
      <use x="852.246094" xlink:href="#DejaVuSans-99"/>
      <use x="907.226562" xlink:href="#DejaVuSans-121"/>
     </g>
    </g>
    <g id="line2d_37">
     <path d="M 406.723125 64.772812 
L 426.723125 64.772812 
" style="fill:none;stroke:#2ca02c;stroke-linecap:square;stroke-width:1.5;"/>
    </g>
    <g id="line2d_38"/>
    <g id="text_17">
     <!-- mobilenet-main/accuracy -->
     <defs>
      <path d="M 48.6875 27.296875 
Q 48.6875 37.203125 44.609375 42.84375 
Q 40.53125 48.484375 33.40625 48.484375 
Q 26.265625 48.484375 22.1875 42.84375 
Q 18.109375 37.203125 18.109375 27.296875 
Q 18.109375 17.390625 22.1875 11.75 
Q 26.265625 6.109375 33.40625 6.109375 
Q 40.53125 6.109375 44.609375 11.75 
Q 48.6875 17.390625 48.6875 27.296875 
z
M 18.109375 46.390625 
Q 20.953125 51.265625 25.265625 53.625 
Q 29.59375 56 35.59375 56 
Q 45.5625 56 51.78125 48.09375 
Q 58.015625 40.1875 58.015625 27.296875 
Q 58.015625 14.40625 51.78125 6.484375 
Q 45.5625 -1.421875 35.59375 -1.421875 
Q 29.59375 -1.421875 25.265625 0.953125 
Q 20.953125 3.328125 18.109375 8.203125 
L 18.109375 0 
L 9.078125 0 
L 9.078125 75.984375 
L 18.109375 75.984375 
z
" id="DejaVuSans-98"/>
     </defs>
     <g transform="translate(434.723125 68.272812)scale(0.1 -0.1)">
      <use xlink:href="#DejaVuSans-109"/>
      <use x="97.412109" xlink:href="#DejaVuSans-111"/>
      <use x="158.59375" xlink:href="#DejaVuSans-98"/>
      <use x="222.070312" xlink:href="#DejaVuSans-105"/>
      <use x="249.853516" xlink:href="#DejaVuSans-108"/>
      <use x="277.636719" xlink:href="#DejaVuSans-101"/>
      <use x="339.160156" xlink:href="#DejaVuSans-110"/>
      <use x="402.539062" xlink:href="#DejaVuSans-101"/>
      <use x="464.0625" xlink:href="#DejaVuSans-116"/>
      <use x="503.271484" xlink:href="#DejaVuSans-45"/>
      <use x="539.355469" xlink:href="#DejaVuSans-109"/>
      <use x="636.767578" xlink:href="#DejaVuSans-97"/>
      <use x="698.046875" xlink:href="#DejaVuSans-105"/>
      <use x="725.830078" xlink:href="#DejaVuSans-110"/>
      <use x="789.208984" xlink:href="#DejaVuSans-47"/>
      <use x="822.900391" xlink:href="#DejaVuSans-97"/>
      <use x="884.179688" xlink:href="#DejaVuSans-99"/>
      <use x="939.160156" xlink:href="#DejaVuSans-99"/>
      <use x="994.140625" xlink:href="#DejaVuSans-117"/>
      <use x="1057.519531" xlink:href="#DejaVuSans-114"/>
      <use x="1098.632812" xlink:href="#DejaVuSans-97"/>
      <use x="1159.912109" xlink:href="#DejaVuSans-99"/>
      <use x="1214.892578" xlink:href="#DejaVuSans-121"/>
     </g>
    </g>
    <g id="line2d_39">
     <path d="M 406.723125 79.450938 
L 426.723125 79.450938 
" style="fill:none;stroke:#d62728;stroke-linecap:square;stroke-width:1.5;"/>
    </g>
    <g id="line2d_40"/>
    <g id="text_18">
     <!-- mobilenet-test/accuracy -->
     <g transform="translate(434.723125 82.950938)scale(0.1 -0.1)">
      <use xlink:href="#DejaVuSans-109"/>
      <use x="97.412109" xlink:href="#DejaVuSans-111"/>
      <use x="158.59375" xlink:href="#DejaVuSans-98"/>
      <use x="222.070312" xlink:href="#DejaVuSans-105"/>
      <use x="249.853516" xlink:href="#DejaVuSans-108"/>
      <use x="277.636719" xlink:href="#DejaVuSans-101"/>
      <use x="339.160156" xlink:href="#DejaVuSans-110"/>
      <use x="402.539062" xlink:href="#DejaVuSans-101"/>
      <use x="464.0625" xlink:href="#DejaVuSans-116"/>
      <use x="503.271484" xlink:href="#DejaVuSans-45"/>
      <use x="539.355469" xlink:href="#DejaVuSans-116"/>
      <use x="578.564453" xlink:href="#DejaVuSans-101"/>
      <use x="640.087891" xlink:href="#DejaVuSans-115"/>
      <use x="692.1875" xlink:href="#DejaVuSans-116"/>
      <use x="731.396484" xlink:href="#DejaVuSans-47"/>
      <use x="765.087891" xlink:href="#DejaVuSans-97"/>
      <use x="826.367188" xlink:href="#DejaVuSans-99"/>
      <use x="881.347656" xlink:href="#DejaVuSans-99"/>
      <use x="936.328125" xlink:href="#DejaVuSans-117"/>
      <use x="999.707031" xlink:href="#DejaVuSans-114"/>
      <use x="1040.820312" xlink:href="#DejaVuSans-97"/>
      <use x="1102.099609" xlink:href="#DejaVuSans-99"/>
      <use x="1157.080078" xlink:href="#DejaVuSans-121"/>
     </g>
    </g>
    <g id="line2d_41">
     <path d="M 406.723125 94.129063 
L 426.723125 94.129063 
" style="fill:none;stroke:#9467bd;stroke-linecap:square;stroke-width:1.5;"/>
    </g>
    <g id="line2d_42"/>
    <g id="text_19">
     <!-- mobilenetv2-main/accuracy -->
     <defs>
      <path d="M 2.984375 54.6875 
L 12.5 54.6875 
L 29.59375 8.796875 
L 46.6875 54.6875 
L 56.203125 54.6875 
L 35.6875 0 
L 23.484375 0 
z
" id="DejaVuSans-118"/>
     </defs>
     <g transform="translate(434.723125 97.629063)scale(0.1 -0.1)">
      <use xlink:href="#DejaVuSans-109"/>
      <use x="97.412109" xlink:href="#DejaVuSans-111"/>
      <use x="158.59375" xlink:href="#DejaVuSans-98"/>
      <use x="222.070312" xlink:href="#DejaVuSans-105"/>
      <use x="249.853516" xlink:href="#DejaVuSans-108"/>
      <use x="277.636719" xlink:href="#DejaVuSans-101"/>
      <use x="339.160156" xlink:href="#DejaVuSans-110"/>
      <use x="402.539062" xlink:href="#DejaVuSans-101"/>
      <use x="464.0625" xlink:href="#DejaVuSans-116"/>
      <use x="503.271484" xlink:href="#DejaVuSans-118"/>
      <use x="562.451172" xlink:href="#DejaVuSans-50"/>
      <use x="626.074219" xlink:href="#DejaVuSans-45"/>
      <use x="662.158203" xlink:href="#DejaVuSans-109"/>
      <use x="759.570312" xlink:href="#DejaVuSans-97"/>
      <use x="820.849609" xlink:href="#DejaVuSans-105"/>
      <use x="848.632812" xlink:href="#DejaVuSans-110"/>
      <use x="912.011719" xlink:href="#DejaVuSans-47"/>
      <use x="945.703125" xlink:href="#DejaVuSans-97"/>
      <use x="1006.982422" xlink:href="#DejaVuSans-99"/>
      <use x="1061.962891" xlink:href="#DejaVuSans-99"/>
      <use x="1116.943359" xlink:href="#DejaVuSans-117"/>
      <use x="1180.322266" xlink:href="#DejaVuSans-114"/>
      <use x="1221.435547" xlink:href="#DejaVuSans-97"/>
      <use x="1282.714844" xlink:href="#DejaVuSans-99"/>
      <use x="1337.695312" xlink:href="#DejaVuSans-121"/>
     </g>
    </g>
    <g id="line2d_43">
     <path d="M 406.723125 108.807187 
L 426.723125 108.807187 
" style="fill:none;stroke:#8c564b;stroke-linecap:square;stroke-width:1.5;"/>
    </g>
    <g id="line2d_44"/>
    <g id="text_20">
     <!-- mobilenetv2-test/accuracy -->
     <g transform="translate(434.723125 112.307187)scale(0.1 -0.1)">
      <use xlink:href="#DejaVuSans-109"/>
      <use x="97.412109" xlink:href="#DejaVuSans-111"/>
      <use x="158.59375" xlink:href="#DejaVuSans-98"/>
      <use x="222.070312" xlink:href="#DejaVuSans-105"/>
      <use x="249.853516" xlink:href="#DejaVuSans-108"/>
      <use x="277.636719" xlink:href="#DejaVuSans-101"/>
      <use x="339.160156" xlink:href="#DejaVuSans-110"/>
      <use x="402.539062" xlink:href="#DejaVuSans-101"/>
      <use x="464.0625" xlink:href="#DejaVuSans-116"/>
      <use x="503.271484" xlink:href="#DejaVuSans-118"/>
      <use x="562.451172" xlink:href="#DejaVuSans-50"/>
      <use x="626.074219" xlink:href="#DejaVuSans-45"/>
      <use x="662.158203" xlink:href="#DejaVuSans-116"/>
      <use x="701.367188" xlink:href="#DejaVuSans-101"/>
      <use x="762.890625" xlink:href="#DejaVuSans-115"/>
      <use x="814.990234" xlink:href="#DejaVuSans-116"/>
      <use x="854.199219" xlink:href="#DejaVuSans-47"/>
      <use x="887.890625" xlink:href="#DejaVuSans-97"/>
      <use x="949.169922" xlink:href="#DejaVuSans-99"/>
      <use x="1004.150391" xlink:href="#DejaVuSans-99"/>
      <use x="1059.130859" xlink:href="#DejaVuSans-117"/>
      <use x="1122.509766" xlink:href="#DejaVuSans-114"/>
      <use x="1163.623047" xlink:href="#DejaVuSans-97"/>
      <use x="1224.902344" xlink:href="#DejaVuSans-99"/>
      <use x="1279.882812" xlink:href="#DejaVuSans-121"/>
     </g>
    </g>
    <g id="line2d_45">
     <path d="M 406.723125 123.485313 
L 426.723125 123.485313 
" style="fill:none;stroke:#e377c2;stroke-linecap:square;stroke-width:1.5;"/>
    </g>
    <g id="line2d_46"/>
    <g id="text_21">
     <!-- vgg16-main/accuracy -->
     <defs>
      <path d="M 45.40625 27.984375 
Q 45.40625 37.75 41.375 43.109375 
Q 37.359375 48.484375 30.078125 48.484375 
Q 22.859375 48.484375 18.828125 43.109375 
Q 14.796875 37.75 14.796875 27.984375 
Q 14.796875 18.265625 18.828125 12.890625 
Q 22.859375 7.515625 30.078125 7.515625 
Q 37.359375 7.515625 41.375 12.890625 
Q 45.40625 18.265625 45.40625 27.984375 
z
M 54.390625 6.78125 
Q 54.390625 -7.171875 48.1875 -13.984375 
Q 42 -20.796875 29.203125 -20.796875 
Q 24.46875 -20.796875 20.265625 -20.09375 
Q 16.0625 -19.390625 12.109375 -17.921875 
L 12.109375 -9.1875 
Q 16.0625 -11.328125 19.921875 -12.34375 
Q 23.78125 -13.375 27.78125 -13.375 
Q 36.625 -13.375 41.015625 -8.765625 
Q 45.40625 -4.15625 45.40625 5.171875 
L 45.40625 9.625 
Q 42.625 4.78125 38.28125 2.390625 
Q 33.9375 0 27.875 0 
Q 17.828125 0 11.671875 7.65625 
Q 5.515625 15.328125 5.515625 27.984375 
Q 5.515625 40.671875 11.671875 48.328125 
Q 17.828125 56 27.875 56 
Q 33.9375 56 38.28125 53.609375 
Q 42.625 51.21875 45.40625 46.390625 
L 45.40625 54.6875 
L 54.390625 54.6875 
z
" id="DejaVuSans-103"/>
     </defs>
     <g transform="translate(434.723125 126.985313)scale(0.1 -0.1)">
      <use xlink:href="#DejaVuSans-118"/>
      <use x="59.179688" xlink:href="#DejaVuSans-103"/>
      <use x="122.65625" xlink:href="#DejaVuSans-103"/>
      <use x="186.132812" xlink:href="#DejaVuSans-49"/>
      <use x="249.755859" xlink:href="#DejaVuSans-54"/>
      <use x="313.378906" xlink:href="#DejaVuSans-45"/>
      <use x="349.462891" xlink:href="#DejaVuSans-109"/>
      <use x="446.875" xlink:href="#DejaVuSans-97"/>
      <use x="508.154297" xlink:href="#DejaVuSans-105"/>
      <use x="535.9375" xlink:href="#DejaVuSans-110"/>
      <use x="599.316406" xlink:href="#DejaVuSans-47"/>
      <use x="633.007812" xlink:href="#DejaVuSans-97"/>
      <use x="694.287109" xlink:href="#DejaVuSans-99"/>
      <use x="749.267578" xlink:href="#DejaVuSans-99"/>
      <use x="804.248047" xlink:href="#DejaVuSans-117"/>
      <use x="867.626953" xlink:href="#DejaVuSans-114"/>
      <use x="908.740234" xlink:href="#DejaVuSans-97"/>
      <use x="970.019531" xlink:href="#DejaVuSans-99"/>
      <use x="1025" xlink:href="#DejaVuSans-121"/>
     </g>
    </g>
    <g id="line2d_47">
     <path d="M 406.723125 138.163437 
L 426.723125 138.163437 
" style="fill:none;stroke:#7f7f7f;stroke-linecap:square;stroke-width:1.5;"/>
    </g>
    <g id="line2d_48"/>
    <g id="text_22">
     <!-- vgg16-test/accuracy -->
     <g transform="translate(434.723125 141.663437)scale(0.1 -0.1)">
      <use xlink:href="#DejaVuSans-118"/>
      <use x="59.179688" xlink:href="#DejaVuSans-103"/>
      <use x="122.65625" xlink:href="#DejaVuSans-103"/>
      <use x="186.132812" xlink:href="#DejaVuSans-49"/>
      <use x="249.755859" xlink:href="#DejaVuSans-54"/>
      <use x="313.378906" xlink:href="#DejaVuSans-45"/>
      <use x="349.462891" xlink:href="#DejaVuSans-116"/>
      <use x="388.671875" xlink:href="#DejaVuSans-101"/>
      <use x="450.195312" xlink:href="#DejaVuSans-115"/>
      <use x="502.294922" xlink:href="#DejaVuSans-116"/>
      <use x="541.503906" xlink:href="#DejaVuSans-47"/>
      <use x="575.195312" xlink:href="#DejaVuSans-97"/>
      <use x="636.474609" xlink:href="#DejaVuSans-99"/>
      <use x="691.455078" xlink:href="#DejaVuSans-99"/>
      <use x="746.435547" xlink:href="#DejaVuSans-117"/>
      <use x="809.814453" xlink:href="#DejaVuSans-114"/>
      <use x="850.927734" xlink:href="#DejaVuSans-97"/>
      <use x="912.207031" xlink:href="#DejaVuSans-99"/>
      <use x="967.1875" xlink:href="#DejaVuSans-121"/>
     </g>
    </g>
    <g id="line2d_49">
     <path d="M 406.723125 152.841563 
L 426.723125 152.841563 
" style="fill:none;stroke:#bcbd22;stroke-linecap:square;stroke-width:1.5;"/>
    </g>
    <g id="line2d_50"/>
    <g id="text_23">
     <!-- resnet50-main/accuracy -->
     <g transform="translate(434.723125 156.341563)scale(0.1 -0.1)">
      <use xlink:href="#DejaVuSans-114"/>
      <use x="41.082031" xlink:href="#DejaVuSans-101"/>
      <use x="102.605469" xlink:href="#DejaVuSans-115"/>
      <use x="154.705078" xlink:href="#DejaVuSans-110"/>
      <use x="218.083984" xlink:href="#DejaVuSans-101"/>
      <use x="279.607422" xlink:href="#DejaVuSans-116"/>
      <use x="318.816406" xlink:href="#DejaVuSans-53"/>
      <use x="382.439453" xlink:href="#DejaVuSans-48"/>
      <use x="446.0625" xlink:href="#DejaVuSans-45"/>
      <use x="482.146484" xlink:href="#DejaVuSans-109"/>
      <use x="579.558594" xlink:href="#DejaVuSans-97"/>
      <use x="640.837891" xlink:href="#DejaVuSans-105"/>
      <use x="668.621094" xlink:href="#DejaVuSans-110"/>
      <use x="732" xlink:href="#DejaVuSans-47"/>
      <use x="765.691406" xlink:href="#DejaVuSans-97"/>
      <use x="826.970703" xlink:href="#DejaVuSans-99"/>
      <use x="881.951172" xlink:href="#DejaVuSans-99"/>
      <use x="936.931641" xlink:href="#DejaVuSans-117"/>
      <use x="1000.310547" xlink:href="#DejaVuSans-114"/>
      <use x="1041.423828" xlink:href="#DejaVuSans-97"/>
      <use x="1102.703125" xlink:href="#DejaVuSans-99"/>
      <use x="1157.683594" xlink:href="#DejaVuSans-121"/>
     </g>
    </g>
    <g id="line2d_51">
     <path d="M 406.723125 167.519687 
L 426.723125 167.519687 
" style="fill:none;stroke:#17becf;stroke-linecap:square;stroke-width:1.5;"/>
    </g>
    <g id="line2d_52"/>
    <g id="text_24">
     <!-- resnet50-test/accuracy -->
     <g transform="translate(434.723125 171.019687)scale(0.1 -0.1)">
      <use xlink:href="#DejaVuSans-114"/>
      <use x="41.082031" xlink:href="#DejaVuSans-101"/>
      <use x="102.605469" xlink:href="#DejaVuSans-115"/>
      <use x="154.705078" xlink:href="#DejaVuSans-110"/>
      <use x="218.083984" xlink:href="#DejaVuSans-101"/>
      <use x="279.607422" xlink:href="#DejaVuSans-116"/>
      <use x="318.816406" xlink:href="#DejaVuSans-53"/>
      <use x="382.439453" xlink:href="#DejaVuSans-48"/>
      <use x="446.0625" xlink:href="#DejaVuSans-45"/>
      <use x="482.146484" xlink:href="#DejaVuSans-116"/>
      <use x="521.355469" xlink:href="#DejaVuSans-101"/>
      <use x="582.878906" xlink:href="#DejaVuSans-115"/>
      <use x="634.978516" xlink:href="#DejaVuSans-116"/>
      <use x="674.1875" xlink:href="#DejaVuSans-47"/>
      <use x="707.878906" xlink:href="#DejaVuSans-97"/>
      <use x="769.158203" xlink:href="#DejaVuSans-99"/>
      <use x="824.138672" xlink:href="#DejaVuSans-99"/>
      <use x="879.119141" xlink:href="#DejaVuSans-117"/>
      <use x="942.498047" xlink:href="#DejaVuSans-114"/>
      <use x="983.611328" xlink:href="#DejaVuSans-97"/>
      <use x="1044.890625" xlink:href="#DejaVuSans-99"/>
      <use x="1099.871094" xlink:href="#DejaVuSans-121"/>
     </g>
    </g>
   </g>
  </g>
 </g>
 <defs>
  <clipPath id="p4e05bf95e7">
   <rect height="266.112" width="357.12" x="40.603125" y="22.318125"/>
  </clipPath>
 </defs>
</svg>
