<?xml version="1.0" encoding="utf-8" standalone="no"?>
<!DOCTYPE svg PUBLIC "-//W3C//DTD SVG 1.1//EN"
  "http://www.w3.org/Graphics/SVG/1.1/DTD/svg11.dtd">
<!-- Created with matplotlib (https://matplotlib.org/) -->
<svg height="345.6pt" version="1.1" viewBox="0 0 460.8 345.6" width="460.8pt" xmlns="http://www.w3.org/2000/svg" xmlns:xlink="http://www.w3.org/1999/xlink">
 <defs>
  <style type="text/css">
*{stroke-linecap:butt;stroke-linejoin:round;}
  </style>
 </defs>
 <g id="figure_1">
  <g id="patch_1">
   <path d="M 0 345.6 
L 460.8 345.6 
L 460.8 0 
L 0 0 
z
" style="fill:#ffffff;"/>
  </g>
  <g id="axes_1">
   <g id="patch_2">
    <path d="M 57.6 307.584 
L 414.72 307.584 
L 414.72 41.472 
L 57.6 41.472 
z
" style="fill:#ffffff;"/>
   </g>
   <g id="matplotlib.axis_1">
    <g id="xtick_1">
     <g id="line2d_1">
      <path clip-path="url(#p06a0d164c8)" d="M 73.832727 307.584 
L 73.832727 41.472 
" style="fill:none;stroke:#b0b0b0;stroke-linecap:square;stroke-width:0.8;"/>
     </g>
     <g id="line2d_2">
      <defs>
       <path d="M 0 0 
L 0 3.5 
" id="m4121e2c14b" style="stroke:#000000;stroke-width:0.8;"/>
      </defs>
      <g>
       <use style="stroke:#000000;stroke-width:0.8;" x="73.832727" xlink:href="#m4121e2c14b" y="307.584"/>
      </g>
     </g>
     <g id="text_1">
      <!-- 0 -->
      <defs>
       <path d="M 31.78125 66.40625 
Q 24.171875 66.40625 20.328125 58.90625 
Q 16.5 51.421875 16.5 36.375 
Q 16.5 21.390625 20.328125 13.890625 
Q 24.171875 6.390625 31.78125 6.390625 
Q 39.453125 6.390625 43.28125 13.890625 
Q 47.125 21.390625 47.125 36.375 
Q 47.125 51.421875 43.28125 58.90625 
Q 39.453125 66.40625 31.78125 66.40625 
z
M 31.78125 74.21875 
Q 44.046875 74.21875 50.515625 64.515625 
Q 56.984375 54.828125 56.984375 36.375 
Q 56.984375 17.96875 50.515625 8.265625 
Q 44.046875 -1.421875 31.78125 -1.421875 
Q 19.53125 -1.421875 13.0625 8.265625 
Q 6.59375 17.96875 6.59375 36.375 
Q 6.59375 54.828125 13.0625 64.515625 
Q 19.53125 74.21875 31.78125 74.21875 
z
" id="DejaVuSans-48"/>
      </defs>
      <g transform="translate(70.651477 322.182437)scale(0.1 -0.1)">
       <use xlink:href="#DejaVuSans-48"/>
      </g>
     </g>
    </g>
    <g id="xtick_2">
     <g id="line2d_3">
      <path clip-path="url(#p06a0d164c8)" d="M 145.978182 307.584 
L 145.978182 41.472 
" style="fill:none;stroke:#b0b0b0;stroke-linecap:square;stroke-width:0.8;"/>
     </g>
     <g id="line2d_4">
      <g>
       <use style="stroke:#000000;stroke-width:0.8;" x="145.978182" xlink:href="#m4121e2c14b" y="307.584"/>
      </g>
     </g>
     <g id="text_2">
      <!-- 2 -->
      <defs>
       <path d="M 19.1875 8.296875 
L 53.609375 8.296875 
L 53.609375 0 
L 7.328125 0 
L 7.328125 8.296875 
Q 12.9375 14.109375 22.625 23.890625 
Q 32.328125 33.6875 34.8125 36.53125 
Q 39.546875 41.84375 41.421875 45.53125 
Q 43.3125 49.21875 43.3125 52.78125 
Q 43.3125 58.59375 39.234375 62.25 
Q 35.15625 65.921875 28.609375 65.921875 
Q 23.96875 65.921875 18.8125 64.3125 
Q 13.671875 62.703125 7.8125 59.421875 
L 7.8125 69.390625 
Q 13.765625 71.78125 18.9375 73 
Q 24.125 74.21875 28.421875 74.21875 
Q 39.75 74.21875 46.484375 68.546875 
Q 53.21875 62.890625 53.21875 53.421875 
Q 53.21875 48.921875 51.53125 44.890625 
Q 49.859375 40.875 45.40625 35.40625 
Q 44.1875 33.984375 37.640625 27.21875 
Q 31.109375 20.453125 19.1875 8.296875 
z
" id="DejaVuSans-50"/>
      </defs>
      <g transform="translate(142.796932 322.182437)scale(0.1 -0.1)">
       <use xlink:href="#DejaVuSans-50"/>
      </g>
     </g>
    </g>
    <g id="xtick_3">
     <g id="line2d_5">
      <path clip-path="url(#p06a0d164c8)" d="M 218.123636 307.584 
L 218.123636 41.472 
" style="fill:none;stroke:#b0b0b0;stroke-linecap:square;stroke-width:0.8;"/>
     </g>
     <g id="line2d_6">
      <g>
       <use style="stroke:#000000;stroke-width:0.8;" x="218.123636" xlink:href="#m4121e2c14b" y="307.584"/>
      </g>
     </g>
     <g id="text_3">
      <!-- 4 -->
      <defs>
       <path d="M 37.796875 64.3125 
L 12.890625 25.390625 
L 37.796875 25.390625 
z
M 35.203125 72.90625 
L 47.609375 72.90625 
L 47.609375 25.390625 
L 58.015625 25.390625 
L 58.015625 17.1875 
L 47.609375 17.1875 
L 47.609375 0 
L 37.796875 0 
L 37.796875 17.1875 
L 4.890625 17.1875 
L 4.890625 26.703125 
z
" id="DejaVuSans-52"/>
      </defs>
      <g transform="translate(214.942386 322.182437)scale(0.1 -0.1)">
       <use xlink:href="#DejaVuSans-52"/>
      </g>
     </g>
    </g>
    <g id="xtick_4">
     <g id="line2d_7">
      <path clip-path="url(#p06a0d164c8)" d="M 290.269091 307.584 
L 290.269091 41.472 
" style="fill:none;stroke:#b0b0b0;stroke-linecap:square;stroke-width:0.8;"/>
     </g>
     <g id="line2d_8">
      <g>
       <use style="stroke:#000000;stroke-width:0.8;" x="290.269091" xlink:href="#m4121e2c14b" y="307.584"/>
      </g>
     </g>
     <g id="text_4">
      <!-- 6 -->
      <defs>
       <path d="M 33.015625 40.375 
Q 26.375 40.375 22.484375 35.828125 
Q 18.609375 31.296875 18.609375 23.390625 
Q 18.609375 15.53125 22.484375 10.953125 
Q 26.375 6.390625 33.015625 6.390625 
Q 39.65625 6.390625 43.53125 10.953125 
Q 47.40625 15.53125 47.40625 23.390625 
Q 47.40625 31.296875 43.53125 35.828125 
Q 39.65625 40.375 33.015625 40.375 
z
M 52.59375 71.296875 
L 52.59375 62.3125 
Q 48.875 64.0625 45.09375 64.984375 
Q 41.3125 65.921875 37.59375 65.921875 
Q 27.828125 65.921875 22.671875 59.328125 
Q 17.53125 52.734375 16.796875 39.40625 
Q 19.671875 43.65625 24.015625 45.921875 
Q 28.375 48.1875 33.59375 48.1875 
Q 44.578125 48.1875 50.953125 41.515625 
Q 57.328125 34.859375 57.328125 23.390625 
Q 57.328125 12.15625 50.6875 5.359375 
Q 44.046875 -1.421875 33.015625 -1.421875 
Q 20.359375 -1.421875 13.671875 8.265625 
Q 6.984375 17.96875 6.984375 36.375 
Q 6.984375 53.65625 15.1875 63.9375 
Q 23.390625 74.21875 37.203125 74.21875 
Q 40.921875 74.21875 44.703125 73.484375 
Q 48.484375 72.75 52.59375 71.296875 
z
" id="DejaVuSans-54"/>
      </defs>
      <g transform="translate(287.087841 322.182437)scale(0.1 -0.1)">
       <use xlink:href="#DejaVuSans-54"/>
      </g>
     </g>
    </g>
    <g id="xtick_5">
     <g id="line2d_9">
      <path clip-path="url(#p06a0d164c8)" d="M 362.414545 307.584 
L 362.414545 41.472 
" style="fill:none;stroke:#b0b0b0;stroke-linecap:square;stroke-width:0.8;"/>
     </g>
     <g id="line2d_10">
      <g>
       <use style="stroke:#000000;stroke-width:0.8;" x="362.414545" xlink:href="#m4121e2c14b" y="307.584"/>
      </g>
     </g>
     <g id="text_5">
      <!-- 8 -->
      <defs>
       <path d="M 31.78125 34.625 
Q 24.75 34.625 20.71875 30.859375 
Q 16.703125 27.09375 16.703125 20.515625 
Q 16.703125 13.921875 20.71875 10.15625 
Q 24.75 6.390625 31.78125 6.390625 
Q 38.8125 6.390625 42.859375 10.171875 
Q 46.921875 13.96875 46.921875 20.515625 
Q 46.921875 27.09375 42.890625 30.859375 
Q 38.875 34.625 31.78125 34.625 
z
M 21.921875 38.8125 
Q 15.578125 40.375 12.03125 44.71875 
Q 8.5 49.078125 8.5 55.328125 
Q 8.5 64.0625 14.71875 69.140625 
Q 20.953125 74.21875 31.78125 74.21875 
Q 42.671875 74.21875 48.875 69.140625 
Q 55.078125 64.0625 55.078125 55.328125 
Q 55.078125 49.078125 51.53125 44.71875 
Q 48 40.375 41.703125 38.8125 
Q 48.828125 37.15625 52.796875 32.3125 
Q 56.78125 27.484375 56.78125 20.515625 
Q 56.78125 9.90625 50.3125 4.234375 
Q 43.84375 -1.421875 31.78125 -1.421875 
Q 19.734375 -1.421875 13.25 4.234375 
Q 6.78125 9.90625 6.78125 20.515625 
Q 6.78125 27.484375 10.78125 32.3125 
Q 14.796875 37.15625 21.921875 38.8125 
z
M 18.3125 54.390625 
Q 18.3125 48.734375 21.84375 45.5625 
Q 25.390625 42.390625 31.78125 42.390625 
Q 38.140625 42.390625 41.71875 45.5625 
Q 45.3125 48.734375 45.3125 54.390625 
Q 45.3125 60.0625 41.71875 63.234375 
Q 38.140625 66.40625 31.78125 66.40625 
Q 25.390625 66.40625 21.84375 63.234375 
Q 18.3125 60.0625 18.3125 54.390625 
z
" id="DejaVuSans-56"/>
      </defs>
      <g transform="translate(359.233295 322.182437)scale(0.1 -0.1)">
       <use xlink:href="#DejaVuSans-56"/>
      </g>
     </g>
    </g>
    <g id="text_6">
     <!-- Epoch Num -->
     <defs>
      <path d="M 9.8125 72.90625 
L 55.90625 72.90625 
L 55.90625 64.59375 
L 19.671875 64.59375 
L 19.671875 43.015625 
L 54.390625 43.015625 
L 54.390625 34.71875 
L 19.671875 34.71875 
L 19.671875 8.296875 
L 56.78125 8.296875 
L 56.78125 0 
L 9.8125 0 
z
" id="DejaVuSans-69"/>
      <path d="M 18.109375 8.203125 
L 18.109375 -20.796875 
L 9.078125 -20.796875 
L 9.078125 54.6875 
L 18.109375 54.6875 
L 18.109375 46.390625 
Q 20.953125 51.265625 25.265625 53.625 
Q 29.59375 56 35.59375 56 
Q 45.5625 56 51.78125 48.09375 
Q 58.015625 40.1875 58.015625 27.296875 
Q 58.015625 14.40625 51.78125 6.484375 
Q 45.5625 -1.421875 35.59375 -1.421875 
Q 29.59375 -1.421875 25.265625 0.953125 
Q 20.953125 3.328125 18.109375 8.203125 
z
M 48.6875 27.296875 
Q 48.6875 37.203125 44.609375 42.84375 
Q 40.53125 48.484375 33.40625 48.484375 
Q 26.265625 48.484375 22.1875 42.84375 
Q 18.109375 37.203125 18.109375 27.296875 
Q 18.109375 17.390625 22.1875 11.75 
Q 26.265625 6.109375 33.40625 6.109375 
Q 40.53125 6.109375 44.609375 11.75 
Q 48.6875 17.390625 48.6875 27.296875 
z
" id="DejaVuSans-112"/>
      <path d="M 30.609375 48.390625 
Q 23.390625 48.390625 19.1875 42.75 
Q 14.984375 37.109375 14.984375 27.296875 
Q 14.984375 17.484375 19.15625 11.84375 
Q 23.34375 6.203125 30.609375 6.203125 
Q 37.796875 6.203125 41.984375 11.859375 
Q 46.1875 17.53125 46.1875 27.296875 
Q 46.1875 37.015625 41.984375 42.703125 
Q 37.796875 48.390625 30.609375 48.390625 
z
M 30.609375 56 
Q 42.328125 56 49.015625 48.375 
Q 55.71875 40.765625 55.71875 27.296875 
Q 55.71875 13.875 49.015625 6.21875 
Q 42.328125 -1.421875 30.609375 -1.421875 
Q 18.84375 -1.421875 12.171875 6.21875 
Q 5.515625 13.875 5.515625 27.296875 
Q 5.515625 40.765625 12.171875 48.375 
Q 18.84375 56 30.609375 56 
z
" id="DejaVuSans-111"/>
      <path d="M 48.78125 52.59375 
L 48.78125 44.1875 
Q 44.96875 46.296875 41.140625 47.34375 
Q 37.3125 48.390625 33.40625 48.390625 
Q 24.65625 48.390625 19.8125 42.84375 
Q 14.984375 37.3125 14.984375 27.296875 
Q 14.984375 17.28125 19.8125 11.734375 
Q 24.65625 6.203125 33.40625 6.203125 
Q 37.3125 6.203125 41.140625 7.25 
Q 44.96875 8.296875 48.78125 10.40625 
L 48.78125 2.09375 
Q 45.015625 0.34375 40.984375 -0.53125 
Q 36.96875 -1.421875 32.421875 -1.421875 
Q 20.0625 -1.421875 12.78125 6.34375 
Q 5.515625 14.109375 5.515625 27.296875 
Q 5.515625 40.671875 12.859375 48.328125 
Q 20.21875 56 33.015625 56 
Q 37.15625 56 41.109375 55.140625 
Q 45.0625 54.296875 48.78125 52.59375 
z
" id="DejaVuSans-99"/>
      <path d="M 54.890625 33.015625 
L 54.890625 0 
L 45.90625 0 
L 45.90625 32.71875 
Q 45.90625 40.484375 42.875 44.328125 
Q 39.84375 48.1875 33.796875 48.1875 
Q 26.515625 48.1875 22.3125 43.546875 
Q 18.109375 38.921875 18.109375 30.90625 
L 18.109375 0 
L 9.078125 0 
L 9.078125 75.984375 
L 18.109375 75.984375 
L 18.109375 46.1875 
Q 21.34375 51.125 25.703125 53.5625 
Q 30.078125 56 35.796875 56 
Q 45.21875 56 50.046875 50.171875 
Q 54.890625 44.34375 54.890625 33.015625 
z
" id="DejaVuSans-104"/>
      <path id="DejaVuSans-32"/>
      <path d="M 9.8125 72.90625 
L 23.09375 72.90625 
L 55.421875 11.921875 
L 55.421875 72.90625 
L 64.984375 72.90625 
L 64.984375 0 
L 51.703125 0 
L 19.390625 60.984375 
L 19.390625 0 
L 9.8125 0 
z
" id="DejaVuSans-78"/>
      <path d="M 8.5 21.578125 
L 8.5 54.6875 
L 17.484375 54.6875 
L 17.484375 21.921875 
Q 17.484375 14.15625 20.5 10.265625 
Q 23.53125 6.390625 29.59375 6.390625 
Q 36.859375 6.390625 41.078125 11.03125 
Q 45.3125 15.671875 45.3125 23.6875 
L 45.3125 54.6875 
L 54.296875 54.6875 
L 54.296875 0 
L 45.3125 0 
L 45.3125 8.40625 
Q 42.046875 3.421875 37.71875 1 
Q 33.40625 -1.421875 27.6875 -1.421875 
Q 18.265625 -1.421875 13.375 4.4375 
Q 8.5 10.296875 8.5 21.578125 
z
M 31.109375 56 
z
" id="DejaVuSans-117"/>
      <path d="M 52 44.1875 
Q 55.375 50.25 60.0625 53.125 
Q 64.75 56 71.09375 56 
Q 79.640625 56 84.28125 50.015625 
Q 88.921875 44.046875 88.921875 33.015625 
L 88.921875 0 
L 79.890625 0 
L 79.890625 32.71875 
Q 79.890625 40.578125 77.09375 44.375 
Q 74.3125 48.1875 68.609375 48.1875 
Q 61.625 48.1875 57.5625 43.546875 
Q 53.515625 38.921875 53.515625 30.90625 
L 53.515625 0 
L 44.484375 0 
L 44.484375 32.71875 
Q 44.484375 40.625 41.703125 44.40625 
Q 38.921875 48.1875 33.109375 48.1875 
Q 26.21875 48.1875 22.15625 43.53125 
Q 18.109375 38.875 18.109375 30.90625 
L 18.109375 0 
L 9.078125 0 
L 9.078125 54.6875 
L 18.109375 54.6875 
L 18.109375 46.1875 
Q 21.1875 51.21875 25.484375 53.609375 
Q 29.78125 56 35.6875 56 
Q 41.65625 56 45.828125 52.96875 
Q 50 49.953125 52 44.1875 
z
" id="DejaVuSans-109"/>
     </defs>
     <g transform="translate(207.480312 335.860562)scale(0.1 -0.1)">
      <use xlink:href="#DejaVuSans-69"/>
      <use x="63.183594" xlink:href="#DejaVuSans-112"/>
      <use x="126.660156" xlink:href="#DejaVuSans-111"/>
      <use x="187.841797" xlink:href="#DejaVuSans-99"/>
      <use x="242.822266" xlink:href="#DejaVuSans-104"/>
      <use x="306.201172" xlink:href="#DejaVuSans-32"/>
      <use x="337.988281" xlink:href="#DejaVuSans-78"/>
      <use x="412.792969" xlink:href="#DejaVuSans-117"/>
      <use x="476.171875" xlink:href="#DejaVuSans-109"/>
     </g>
    </g>
   </g>
   <g id="matplotlib.axis_2">
    <g id="ytick_1">
     <g id="line2d_11">
      <path clip-path="url(#p06a0d164c8)" d="M 57.6 296.061652 
L 414.72 296.061652 
" style="fill:none;stroke:#b0b0b0;stroke-linecap:square;stroke-width:0.8;"/>
     </g>
     <g id="line2d_12">
      <defs>
       <path d="M 0 0 
L -3.5 0 
" id="m0431c4807a" style="stroke:#000000;stroke-width:0.8;"/>
      </defs>
      <g>
       <use style="stroke:#000000;stroke-width:0.8;" x="57.6" xlink:href="#m0431c4807a" y="296.061652"/>
      </g>
     </g>
     <g id="text_7">
      <!-- 0.84 -->
      <defs>
       <path d="M 10.6875 12.40625 
L 21 12.40625 
L 21 0 
L 10.6875 0 
z
" id="DejaVuSans-46"/>
      </defs>
      <g transform="translate(28.334375 299.860871)scale(0.1 -0.1)">
       <use xlink:href="#DejaVuSans-48"/>
       <use x="63.623047" xlink:href="#DejaVuSans-46"/>
       <use x="95.410156" xlink:href="#DejaVuSans-56"/>
       <use x="159.033203" xlink:href="#DejaVuSans-52"/>
      </g>
     </g>
    </g>
    <g id="ytick_2">
     <g id="line2d_13">
      <path clip-path="url(#p06a0d164c8)" d="M 57.6 265.32276 
L 414.72 265.32276 
" style="fill:none;stroke:#b0b0b0;stroke-linecap:square;stroke-width:0.8;"/>
     </g>
     <g id="line2d_14">
      <g>
       <use style="stroke:#000000;stroke-width:0.8;" x="57.6" xlink:href="#m0431c4807a" y="265.32276"/>
      </g>
     </g>
     <g id="text_8">
      <!-- 0.86 -->
      <g transform="translate(28.334375 269.121978)scale(0.1 -0.1)">
       <use xlink:href="#DejaVuSans-48"/>
       <use x="63.623047" xlink:href="#DejaVuSans-46"/>
       <use x="95.410156" xlink:href="#DejaVuSans-56"/>
       <use x="159.033203" xlink:href="#DejaVuSans-54"/>
      </g>
     </g>
    </g>
    <g id="ytick_3">
     <g id="line2d_15">
      <path clip-path="url(#p06a0d164c8)" d="M 57.6 234.583868 
L 414.72 234.583868 
" style="fill:none;stroke:#b0b0b0;stroke-linecap:square;stroke-width:0.8;"/>
     </g>
     <g id="line2d_16">
      <g>
       <use style="stroke:#000000;stroke-width:0.8;" x="57.6" xlink:href="#m0431c4807a" y="234.583868"/>
      </g>
     </g>
     <g id="text_9">
      <!-- 0.88 -->
      <g transform="translate(28.334375 238.383086)scale(0.1 -0.1)">
       <use xlink:href="#DejaVuSans-48"/>
       <use x="63.623047" xlink:href="#DejaVuSans-46"/>
       <use x="95.410156" xlink:href="#DejaVuSans-56"/>
       <use x="159.033203" xlink:href="#DejaVuSans-56"/>
      </g>
     </g>
    </g>
    <g id="ytick_4">
     <g id="line2d_17">
      <path clip-path="url(#p06a0d164c8)" d="M 57.6 203.844975 
L 414.72 203.844975 
" style="fill:none;stroke:#b0b0b0;stroke-linecap:square;stroke-width:0.8;"/>
     </g>
     <g id="line2d_18">
      <g>
       <use style="stroke:#000000;stroke-width:0.8;" x="57.6" xlink:href="#m0431c4807a" y="203.844975"/>
      </g>
     </g>
     <g id="text_10">
      <!-- 0.90 -->
      <defs>
       <path d="M 10.984375 1.515625 
L 10.984375 10.5 
Q 14.703125 8.734375 18.5 7.8125 
Q 22.3125 6.890625 25.984375 6.890625 
Q 35.75 6.890625 40.890625 13.453125 
Q 46.046875 20.015625 46.78125 33.40625 
Q 43.953125 29.203125 39.59375 26.953125 
Q 35.25 24.703125 29.984375 24.703125 
Q 19.046875 24.703125 12.671875 31.3125 
Q 6.296875 37.9375 6.296875 49.421875 
Q 6.296875 60.640625 12.9375 67.421875 
Q 19.578125 74.21875 30.609375 74.21875 
Q 43.265625 74.21875 49.921875 64.515625 
Q 56.59375 54.828125 56.59375 36.375 
Q 56.59375 19.140625 48.40625 8.859375 
Q 40.234375 -1.421875 26.421875 -1.421875 
Q 22.703125 -1.421875 18.890625 -0.6875 
Q 15.09375 0.046875 10.984375 1.515625 
z
M 30.609375 32.421875 
Q 37.25 32.421875 41.125 36.953125 
Q 45.015625 41.5 45.015625 49.421875 
Q 45.015625 57.28125 41.125 61.84375 
Q 37.25 66.40625 30.609375 66.40625 
Q 23.96875 66.40625 20.09375 61.84375 
Q 16.21875 57.28125 16.21875 49.421875 
Q 16.21875 41.5 20.09375 36.953125 
Q 23.96875 32.421875 30.609375 32.421875 
z
" id="DejaVuSans-57"/>
      </defs>
      <g transform="translate(28.334375 207.644194)scale(0.1 -0.1)">
       <use xlink:href="#DejaVuSans-48"/>
       <use x="63.623047" xlink:href="#DejaVuSans-46"/>
       <use x="95.410156" xlink:href="#DejaVuSans-57"/>
       <use x="159.033203" xlink:href="#DejaVuSans-48"/>
      </g>
     </g>
    </g>
    <g id="ytick_5">
     <g id="line2d_19">
      <path clip-path="url(#p06a0d164c8)" d="M 57.6 173.106083 
L 414.72 173.106083 
" style="fill:none;stroke:#b0b0b0;stroke-linecap:square;stroke-width:0.8;"/>
     </g>
     <g id="line2d_20">
      <g>
       <use style="stroke:#000000;stroke-width:0.8;" x="57.6" xlink:href="#m0431c4807a" y="173.106083"/>
      </g>
     </g>
     <g id="text_11">
      <!-- 0.92 -->
      <g transform="translate(28.334375 176.905302)scale(0.1 -0.1)">
       <use xlink:href="#DejaVuSans-48"/>
       <use x="63.623047" xlink:href="#DejaVuSans-46"/>
       <use x="95.410156" xlink:href="#DejaVuSans-57"/>
       <use x="159.033203" xlink:href="#DejaVuSans-50"/>
      </g>
     </g>
    </g>
    <g id="ytick_6">
     <g id="line2d_21">
      <path clip-path="url(#p06a0d164c8)" d="M 57.6 142.367191 
L 414.72 142.367191 
" style="fill:none;stroke:#b0b0b0;stroke-linecap:square;stroke-width:0.8;"/>
     </g>
     <g id="line2d_22">
      <g>
       <use style="stroke:#000000;stroke-width:0.8;" x="57.6" xlink:href="#m0431c4807a" y="142.367191"/>
      </g>
     </g>
     <g id="text_12">
      <!-- 0.94 -->
      <g transform="translate(28.334375 146.16641)scale(0.1 -0.1)">
       <use xlink:href="#DejaVuSans-48"/>
       <use x="63.623047" xlink:href="#DejaVuSans-46"/>
       <use x="95.410156" xlink:href="#DejaVuSans-57"/>
       <use x="159.033203" xlink:href="#DejaVuSans-52"/>
      </g>
     </g>
    </g>
    <g id="ytick_7">
     <g id="line2d_23">
      <path clip-path="url(#p06a0d164c8)" d="M 57.6 111.628299 
L 414.72 111.628299 
" style="fill:none;stroke:#b0b0b0;stroke-linecap:square;stroke-width:0.8;"/>
     </g>
     <g id="line2d_24">
      <g>
       <use style="stroke:#000000;stroke-width:0.8;" x="57.6" xlink:href="#m0431c4807a" y="111.628299"/>
      </g>
     </g>
     <g id="text_13">
      <!-- 0.96 -->
      <g transform="translate(28.334375 115.427518)scale(0.1 -0.1)">
       <use xlink:href="#DejaVuSans-48"/>
       <use x="63.623047" xlink:href="#DejaVuSans-46"/>
       <use x="95.410156" xlink:href="#DejaVuSans-57"/>
       <use x="159.033203" xlink:href="#DejaVuSans-54"/>
      </g>
     </g>
    </g>
    <g id="ytick_8">
     <g id="line2d_25">
      <path clip-path="url(#p06a0d164c8)" d="M 57.6 80.889407 
L 414.72 80.889407 
" style="fill:none;stroke:#b0b0b0;stroke-linecap:square;stroke-width:0.8;"/>
     </g>
     <g id="line2d_26">
      <g>
       <use style="stroke:#000000;stroke-width:0.8;" x="57.6" xlink:href="#m0431c4807a" y="80.889407"/>
      </g>
     </g>
     <g id="text_14">
      <!-- 0.98 -->
      <g transform="translate(28.334375 84.688626)scale(0.1 -0.1)">
       <use xlink:href="#DejaVuSans-48"/>
       <use x="63.623047" xlink:href="#DejaVuSans-46"/>
       <use x="95.410156" xlink:href="#DejaVuSans-57"/>
       <use x="159.033203" xlink:href="#DejaVuSans-56"/>
      </g>
     </g>
    </g>
    <g id="ytick_9">
     <g id="line2d_27">
      <path clip-path="url(#p06a0d164c8)" d="M 57.6 50.150515 
L 414.72 50.150515 
" style="fill:none;stroke:#b0b0b0;stroke-linecap:square;stroke-width:0.8;"/>
     </g>
     <g id="line2d_28">
      <g>
       <use style="stroke:#000000;stroke-width:0.8;" x="57.6" xlink:href="#m0431c4807a" y="50.150515"/>
      </g>
     </g>
     <g id="text_15">
      <!-- 1.00 -->
      <defs>
       <path d="M 12.40625 8.296875 
L 28.515625 8.296875 
L 28.515625 63.921875 
L 10.984375 60.40625 
L 10.984375 69.390625 
L 28.421875 72.90625 
L 38.28125 72.90625 
L 38.28125 8.296875 
L 54.390625 8.296875 
L 54.390625 0 
L 12.40625 0 
z
" id="DejaVuSans-49"/>
      </defs>
      <g transform="translate(28.334375 53.949734)scale(0.1 -0.1)">
       <use xlink:href="#DejaVuSans-49"/>
       <use x="63.623047" xlink:href="#DejaVuSans-46"/>
       <use x="95.410156" xlink:href="#DejaVuSans-48"/>
       <use x="159.033203" xlink:href="#DejaVuSans-48"/>
      </g>
     </g>
    </g>
    <g id="text_16">
     <!-- Accuracy -->
     <defs>
      <path d="M 34.1875 63.1875 
L 20.796875 26.90625 
L 47.609375 26.90625 
z
M 28.609375 72.90625 
L 39.796875 72.90625 
L 67.578125 0 
L 57.328125 0 
L 50.6875 18.703125 
L 17.828125 18.703125 
L 11.1875 0 
L 0.78125 0 
z
" id="DejaVuSans-65"/>
      <path d="M 41.109375 46.296875 
Q 39.59375 47.171875 37.8125 47.578125 
Q 36.03125 48 33.890625 48 
Q 26.265625 48 22.1875 43.046875 
Q 18.109375 38.09375 18.109375 28.8125 
L 18.109375 0 
L 9.078125 0 
L 9.078125 54.6875 
L 18.109375 54.6875 
L 18.109375 46.1875 
Q 20.953125 51.171875 25.484375 53.578125 
Q 30.03125 56 36.53125 56 
Q 37.453125 56 38.578125 55.875 
Q 39.703125 55.765625 41.0625 55.515625 
z
" id="DejaVuSans-114"/>
      <path d="M 34.28125 27.484375 
Q 23.390625 27.484375 19.1875 25 
Q 14.984375 22.515625 14.984375 16.5 
Q 14.984375 11.71875 18.140625 8.90625 
Q 21.296875 6.109375 26.703125 6.109375 
Q 34.1875 6.109375 38.703125 11.40625 
Q 43.21875 16.703125 43.21875 25.484375 
L 43.21875 27.484375 
z
M 52.203125 31.203125 
L 52.203125 0 
L 43.21875 0 
L 43.21875 8.296875 
Q 40.140625 3.328125 35.546875 0.953125 
Q 30.953125 -1.421875 24.3125 -1.421875 
Q 15.921875 -1.421875 10.953125 3.296875 
Q 6 8.015625 6 15.921875 
Q 6 25.140625 12.171875 29.828125 
Q 18.359375 34.515625 30.609375 34.515625 
L 43.21875 34.515625 
L 43.21875 35.40625 
Q 43.21875 41.609375 39.140625 45 
Q 35.0625 48.390625 27.6875 48.390625 
Q 23 48.390625 18.546875 47.265625 
Q 14.109375 46.140625 10.015625 43.890625 
L 10.015625 52.203125 
Q 14.9375 54.109375 19.578125 55.046875 
Q 24.21875 56 28.609375 56 
Q 40.484375 56 46.34375 49.84375 
Q 52.203125 43.703125 52.203125 31.203125 
z
" id="DejaVuSans-97"/>
      <path d="M 32.171875 -5.078125 
Q 28.375 -14.84375 24.75 -17.8125 
Q 21.140625 -20.796875 15.09375 -20.796875 
L 7.90625 -20.796875 
L 7.90625 -13.28125 
L 13.1875 -13.28125 
Q 16.890625 -13.28125 18.9375 -11.515625 
Q 21 -9.765625 23.484375 -3.21875 
L 25.09375 0.875 
L 2.984375 54.6875 
L 12.5 54.6875 
L 29.59375 11.921875 
L 46.6875 54.6875 
L 56.203125 54.6875 
z
" id="DejaVuSans-121"/>
     </defs>
     <g transform="translate(22.254687 197.442844)rotate(-90)scale(0.1 -0.1)">
      <use xlink:href="#DejaVuSans-65"/>
      <use x="68.392578" xlink:href="#DejaVuSans-99"/>
      <use x="123.373047" xlink:href="#DejaVuSans-99"/>
      <use x="178.353516" xlink:href="#DejaVuSans-117"/>
      <use x="241.732422" xlink:href="#DejaVuSans-114"/>
      <use x="282.845703" xlink:href="#DejaVuSans-97"/>
      <use x="344.125" xlink:href="#DejaVuSans-99"/>
      <use x="399.105469" xlink:href="#DejaVuSans-121"/>
     </g>
    </g>
   </g>
   <g id="line2d_29">
    <path clip-path="url(#p06a0d164c8)" d="M 73.832727 129.565052 
L 109.905455 74.38024 
L 145.978182 66.283507 
L 182.050909 61.512997 
L 218.123636 59.179082 
L 254.196364 57.108638 
L 290.269091 55.770337 
L 326.341818 53.568 
L 362.414545 54.173448 
L 398.487273 53.620678 
" style="fill:none;stroke:#1f77b4;stroke-linecap:square;stroke-width:1.5;"/>
    <defs>
     <path d="M -3 3 
L 3 -3 
M -3 -3 
L 3 3 
" id="m962439f65d" style="stroke:#1f77b4;"/>
    </defs>
    <g clip-path="url(#p06a0d164c8)">
     <use style="fill:#1f77b4;stroke:#1f77b4;" x="73.832727" xlink:href="#m962439f65d" y="129.565052"/>
     <use style="fill:#1f77b4;stroke:#1f77b4;" x="109.905455" xlink:href="#m962439f65d" y="74.38024"/>
     <use style="fill:#1f77b4;stroke:#1f77b4;" x="145.978182" xlink:href="#m962439f65d" y="66.283507"/>
     <use style="fill:#1f77b4;stroke:#1f77b4;" x="182.050909" xlink:href="#m962439f65d" y="61.512997"/>
     <use style="fill:#1f77b4;stroke:#1f77b4;" x="218.123636" xlink:href="#m962439f65d" y="59.179082"/>
     <use style="fill:#1f77b4;stroke:#1f77b4;" x="254.196364" xlink:href="#m962439f65d" y="57.108638"/>
     <use style="fill:#1f77b4;stroke:#1f77b4;" x="290.269091" xlink:href="#m962439f65d" y="55.770337"/>
     <use style="fill:#1f77b4;stroke:#1f77b4;" x="326.341818" xlink:href="#m962439f65d" y="53.568"/>
     <use style="fill:#1f77b4;stroke:#1f77b4;" x="362.414545" xlink:href="#m962439f65d" y="54.173448"/>
     <use style="fill:#1f77b4;stroke:#1f77b4;" x="398.487273" xlink:href="#m962439f65d" y="53.620678"/>
    </g>
   </g>
   <g id="line2d_30">
    <path clip-path="url(#p06a0d164c8)" d="M 73.832727 74.013282 
L 109.905455 71.277424 
L 145.978182 68.085589 
L 182.050909 63.829808 
L 218.123636 63.525824 
L 254.196364 66.565667 
L 290.269091 65.34973 
L 326.341818 64.285785 
L 362.414545 65.045746 
L 398.487273 63.373832 
" style="fill:none;stroke:#ff7f0e;stroke-linecap:square;stroke-width:1.5;"/>
    <defs>
     <path d="M -3 3 
L 3 -3 
M -3 -3 
L 3 3 
" id="ma35e05db9f" style="stroke:#ff7f0e;"/>
    </defs>
    <g clip-path="url(#p06a0d164c8)">
     <use style="fill:#ff7f0e;stroke:#ff7f0e;" x="73.832727" xlink:href="#ma35e05db9f" y="74.013282"/>
     <use style="fill:#ff7f0e;stroke:#ff7f0e;" x="109.905455" xlink:href="#ma35e05db9f" y="71.277424"/>
     <use style="fill:#ff7f0e;stroke:#ff7f0e;" x="145.978182" xlink:href="#ma35e05db9f" y="68.085589"/>
     <use style="fill:#ff7f0e;stroke:#ff7f0e;" x="182.050909" xlink:href="#ma35e05db9f" y="63.829808"/>
     <use style="fill:#ff7f0e;stroke:#ff7f0e;" x="218.123636" xlink:href="#ma35e05db9f" y="63.525824"/>
     <use style="fill:#ff7f0e;stroke:#ff7f0e;" x="254.196364" xlink:href="#ma35e05db9f" y="66.565667"/>
     <use style="fill:#ff7f0e;stroke:#ff7f0e;" x="290.269091" xlink:href="#ma35e05db9f" y="65.34973"/>
     <use style="fill:#ff7f0e;stroke:#ff7f0e;" x="326.341818" xlink:href="#ma35e05db9f" y="64.285785"/>
     <use style="fill:#ff7f0e;stroke:#ff7f0e;" x="362.414545" xlink:href="#ma35e05db9f" y="65.045746"/>
     <use style="fill:#ff7f0e;stroke:#ff7f0e;" x="398.487273" xlink:href="#ma35e05db9f" y="63.373832"/>
    </g>
   </g>
   <g id="line2d_31">
    <path clip-path="url(#p06a0d164c8)" d="M 73.832727 176.08981 
L 109.905455 114.732406 
L 145.978182 100.58151 
L 182.050909 93.69646 
L 218.123636 89.734946 
L 254.196364 86.172654 
L 290.269091 83.869448 
L 326.341818 82.016254 
L 362.414545 80.460704 
L 398.487273 79.324456 
" style="fill:none;stroke:#2ca02c;stroke-linecap:square;stroke-width:1.5;"/>
    <defs>
     <path d="M -3 3 
L 3 -3 
M -3 -3 
L 3 3 
" id="m9555bed837" style="stroke:#2ca02c;"/>
    </defs>
    <g clip-path="url(#p06a0d164c8)">
     <use style="fill:#2ca02c;stroke:#2ca02c;" x="73.832727" xlink:href="#m9555bed837" y="176.08981"/>
     <use style="fill:#2ca02c;stroke:#2ca02c;" x="109.905455" xlink:href="#m9555bed837" y="114.732406"/>
     <use style="fill:#2ca02c;stroke:#2ca02c;" x="145.978182" xlink:href="#m9555bed837" y="100.58151"/>
     <use style="fill:#2ca02c;stroke:#2ca02c;" x="182.050909" xlink:href="#m9555bed837" y="93.69646"/>
     <use style="fill:#2ca02c;stroke:#2ca02c;" x="218.123636" xlink:href="#m9555bed837" y="89.734946"/>
     <use style="fill:#2ca02c;stroke:#2ca02c;" x="254.196364" xlink:href="#m9555bed837" y="86.172654"/>
     <use style="fill:#2ca02c;stroke:#2ca02c;" x="290.269091" xlink:href="#m9555bed837" y="83.869448"/>
     <use style="fill:#2ca02c;stroke:#2ca02c;" x="326.341818" xlink:href="#m9555bed837" y="82.016254"/>
     <use style="fill:#2ca02c;stroke:#2ca02c;" x="362.414545" xlink:href="#m9555bed837" y="80.460704"/>
     <use style="fill:#2ca02c;stroke:#2ca02c;" x="398.487273" xlink:href="#m9555bed837" y="79.324456"/>
    </g>
   </g>
   <g id="line2d_32">
    <path clip-path="url(#p06a0d164c8)" d="M 73.832727 118.242998 
L 109.905455 102.435814 
L 145.978182 94.228238 
L 182.050909 88.452536 
L 218.123636 86.020662 
L 254.196364 83.892772 
L 290.269091 81.61289 
L 326.341818 81.004921 
L 362.414545 78.421055 
L 398.487273 79.333008 
" style="fill:none;stroke:#d62728;stroke-linecap:square;stroke-width:1.5;"/>
    <defs>
     <path d="M -3 3 
L 3 -3 
M -3 -3 
L 3 3 
" id="m6bc06fdb48" style="stroke:#d62728;"/>
    </defs>
    <g clip-path="url(#p06a0d164c8)">
     <use style="fill:#d62728;stroke:#d62728;" x="73.832727" xlink:href="#m6bc06fdb48" y="118.242998"/>
     <use style="fill:#d62728;stroke:#d62728;" x="109.905455" xlink:href="#m6bc06fdb48" y="102.435814"/>
     <use style="fill:#d62728;stroke:#d62728;" x="145.978182" xlink:href="#m6bc06fdb48" y="94.228238"/>
     <use style="fill:#d62728;stroke:#d62728;" x="182.050909" xlink:href="#m6bc06fdb48" y="88.452536"/>
     <use style="fill:#d62728;stroke:#d62728;" x="218.123636" xlink:href="#m6bc06fdb48" y="86.020662"/>
     <use style="fill:#d62728;stroke:#d62728;" x="254.196364" xlink:href="#m6bc06fdb48" y="83.892772"/>
     <use style="fill:#d62728;stroke:#d62728;" x="290.269091" xlink:href="#m6bc06fdb48" y="81.61289"/>
     <use style="fill:#d62728;stroke:#d62728;" x="326.341818" xlink:href="#m6bc06fdb48" y="81.004921"/>
     <use style="fill:#d62728;stroke:#d62728;" x="362.414545" xlink:href="#m6bc06fdb48" y="78.421055"/>
     <use style="fill:#d62728;stroke:#d62728;" x="398.487273" xlink:href="#m6bc06fdb48" y="79.333008"/>
    </g>
   </g>
   <g id="line2d_33">
    <path clip-path="url(#p06a0d164c8)" d="M 73.832727 159.138215 
L 109.905455 83.900158 
L 145.978182 75.24286 
L 182.050909 70.572273 
L 218.123636 67.808426 
L 254.196364 65.113557 
L 290.269091 62.956339 
L 326.341818 61.23425 
L 362.414545 60.284621 
L 398.487273 59.516885 
" style="fill:none;stroke:#9467bd;stroke-linecap:square;stroke-width:1.5;"/>
    <defs>
     <path d="M -3 3 
L 3 -3 
M -3 -3 
L 3 3 
" id="m0352629dfb" style="stroke:#9467bd;"/>
    </defs>
    <g clip-path="url(#p06a0d164c8)">
     <use style="fill:#9467bd;stroke:#9467bd;" x="73.832727" xlink:href="#m0352629dfb" y="159.138215"/>
     <use style="fill:#9467bd;stroke:#9467bd;" x="109.905455" xlink:href="#m0352629dfb" y="83.900158"/>
     <use style="fill:#9467bd;stroke:#9467bd;" x="145.978182" xlink:href="#m0352629dfb" y="75.24286"/>
     <use style="fill:#9467bd;stroke:#9467bd;" x="182.050909" xlink:href="#m0352629dfb" y="70.572273"/>
     <use style="fill:#9467bd;stroke:#9467bd;" x="218.123636" xlink:href="#m0352629dfb" y="67.808426"/>
     <use style="fill:#9467bd;stroke:#9467bd;" x="254.196364" xlink:href="#m0352629dfb" y="65.113557"/>
     <use style="fill:#9467bd;stroke:#9467bd;" x="290.269091" xlink:href="#m0352629dfb" y="62.956339"/>
     <use style="fill:#9467bd;stroke:#9467bd;" x="326.341818" xlink:href="#m0352629dfb" y="61.23425"/>
     <use style="fill:#9467bd;stroke:#9467bd;" x="362.414545" xlink:href="#m0352629dfb" y="60.284621"/>
     <use style="fill:#9467bd;stroke:#9467bd;" x="398.487273" xlink:href="#m0352629dfb" y="59.516885"/>
    </g>
   </g>
   <g id="line2d_34">
    <path clip-path="url(#p06a0d164c8)" d="M 73.832727 93.468277 
L 109.905455 79.333008 
L 145.978182 72.037384 
L 182.050909 69.149534 
L 218.123636 67.325628 
L 254.196364 65.045746 
L 290.269091 68.389573 
L 326.341818 67.629612 
L 362.414545 66.109691 
L 398.487273 64.893753 
" style="fill:none;stroke:#8c564b;stroke-linecap:square;stroke-width:1.5;"/>
    <defs>
     <path d="M -3 3 
L 3 -3 
M -3 -3 
L 3 3 
" id="med3e437317" style="stroke:#8c564b;"/>
    </defs>
    <g clip-path="url(#p06a0d164c8)">
     <use style="fill:#8c564b;stroke:#8c564b;" x="73.832727" xlink:href="#med3e437317" y="93.468277"/>
     <use style="fill:#8c564b;stroke:#8c564b;" x="109.905455" xlink:href="#med3e437317" y="79.333008"/>
     <use style="fill:#8c564b;stroke:#8c564b;" x="145.978182" xlink:href="#med3e437317" y="72.037384"/>
     <use style="fill:#8c564b;stroke:#8c564b;" x="182.050909" xlink:href="#med3e437317" y="69.149534"/>
     <use style="fill:#8c564b;stroke:#8c564b;" x="218.123636" xlink:href="#med3e437317" y="67.325628"/>
     <use style="fill:#8c564b;stroke:#8c564b;" x="254.196364" xlink:href="#med3e437317" y="65.045746"/>
     <use style="fill:#8c564b;stroke:#8c564b;" x="290.269091" xlink:href="#med3e437317" y="68.389573"/>
     <use style="fill:#8c564b;stroke:#8c564b;" x="326.341818" xlink:href="#med3e437317" y="67.629612"/>
     <use style="fill:#8c564b;stroke:#8c564b;" x="362.414545" xlink:href="#med3e437317" y="66.109691"/>
     <use style="fill:#8c564b;stroke:#8c564b;" x="398.487273" xlink:href="#med3e437317" y="64.893753"/>
    </g>
   </g>
   <g id="line2d_35">
    <path clip-path="url(#p06a0d164c8)" d="M 73.832727 146.731613 
L 109.905455 83.715901 
L 145.978182 78.290887 
L 182.050909 76.806284 
L 218.123636 73.735343 
L 254.196364 70.40912 
L 290.269091 66.426503 
L 326.341818 66.560601 
L 362.414545 65.382383 
L 398.487273 63.202015 
" style="fill:none;stroke:#e377c2;stroke-linecap:square;stroke-width:1.5;"/>
    <defs>
     <path d="M -3 3 
L 3 -3 
M -3 -3 
L 3 3 
" id="m1f4a399804" style="stroke:#e377c2;"/>
    </defs>
    <g clip-path="url(#p06a0d164c8)">
     <use style="fill:#e377c2;stroke:#e377c2;" x="73.832727" xlink:href="#m1f4a399804" y="146.731613"/>
     <use style="fill:#e377c2;stroke:#e377c2;" x="109.905455" xlink:href="#m1f4a399804" y="83.715901"/>
     <use style="fill:#e377c2;stroke:#e377c2;" x="145.978182" xlink:href="#m1f4a399804" y="78.290887"/>
     <use style="fill:#e377c2;stroke:#e377c2;" x="182.050909" xlink:href="#m1f4a399804" y="76.806284"/>
     <use style="fill:#e377c2;stroke:#e377c2;" x="218.123636" xlink:href="#m1f4a399804" y="73.735343"/>
     <use style="fill:#e377c2;stroke:#e377c2;" x="254.196364" xlink:href="#m1f4a399804" y="70.40912"/>
     <use style="fill:#e377c2;stroke:#e377c2;" x="290.269091" xlink:href="#m1f4a399804" y="66.426503"/>
     <use style="fill:#e377c2;stroke:#e377c2;" x="326.341818" xlink:href="#m1f4a399804" y="66.560601"/>
     <use style="fill:#e377c2;stroke:#e377c2;" x="362.414545" xlink:href="#m1f4a399804" y="65.382383"/>
     <use style="fill:#e377c2;stroke:#e377c2;" x="398.487273" xlink:href="#m1f4a399804" y="63.202015"/>
    </g>
   </g>
   <g id="line2d_36">
    <path clip-path="url(#p06a0d164c8)" d="M 73.832727 85.412693 
L 109.905455 77.509102 
L 145.978182 78.421055 
L 182.050909 76.293165 
L 218.123636 73.253322 
L 254.196364 73.253322 
L 290.269091 74.165274 
L 326.341818 73.709298 
L 362.414545 72.341369 
L 398.487273 73.101329 
" style="fill:none;stroke:#7f7f7f;stroke-linecap:square;stroke-width:1.5;"/>
    <defs>
     <path d="M -3 3 
L 3 -3 
M -3 -3 
L 3 3 
" id="mf599324a17" style="stroke:#7f7f7f;"/>
    </defs>
    <g clip-path="url(#p06a0d164c8)">
     <use style="fill:#7f7f7f;stroke:#7f7f7f;" x="73.832727" xlink:href="#mf599324a17" y="85.412693"/>
     <use style="fill:#7f7f7f;stroke:#7f7f7f;" x="109.905455" xlink:href="#mf599324a17" y="77.509102"/>
     <use style="fill:#7f7f7f;stroke:#7f7f7f;" x="145.978182" xlink:href="#mf599324a17" y="78.421055"/>
     <use style="fill:#7f7f7f;stroke:#7f7f7f;" x="182.050909" xlink:href="#mf599324a17" y="76.293165"/>
     <use style="fill:#7f7f7f;stroke:#7f7f7f;" x="218.123636" xlink:href="#mf599324a17" y="73.253322"/>
     <use style="fill:#7f7f7f;stroke:#7f7f7f;" x="254.196364" xlink:href="#mf599324a17" y="73.253322"/>
     <use style="fill:#7f7f7f;stroke:#7f7f7f;" x="290.269091" xlink:href="#mf599324a17" y="74.165274"/>
     <use style="fill:#7f7f7f;stroke:#7f7f7f;" x="326.341818" xlink:href="#mf599324a17" y="73.709298"/>
     <use style="fill:#7f7f7f;stroke:#7f7f7f;" x="362.414545" xlink:href="#mf599324a17" y="72.341369"/>
     <use style="fill:#7f7f7f;stroke:#7f7f7f;" x="398.487273" xlink:href="#mf599324a17" y="73.101329"/>
    </g>
   </g>
   <g id="line2d_37">
    <path clip-path="url(#p06a0d164c8)" d="M 73.832727 295.488 
L 109.905455 160.735104 
L 145.978182 133.92508 
L 182.050909 118.847468 
L 218.123636 109.634644 
L 254.196364 103.383232 
L 290.269091 98.302872 
L 326.341818 93.623387 
L 362.414545 91.08616 
L 398.487273 88.567988 
" style="fill:none;stroke:#bcbd22;stroke-linecap:square;stroke-width:1.5;"/>
    <defs>
     <path d="M -3 3 
L 3 -3 
M -3 -3 
L 3 3 
" id="md228deb0e4" style="stroke:#bcbd22;"/>
    </defs>
    <g clip-path="url(#p06a0d164c8)">
     <use style="fill:#bcbd22;stroke:#bcbd22;" x="73.832727" xlink:href="#md228deb0e4" y="295.488"/>
     <use style="fill:#bcbd22;stroke:#bcbd22;" x="109.905455" xlink:href="#md228deb0e4" y="160.735104"/>
     <use style="fill:#bcbd22;stroke:#bcbd22;" x="145.978182" xlink:href="#md228deb0e4" y="133.92508"/>
     <use style="fill:#bcbd22;stroke:#bcbd22;" x="182.050909" xlink:href="#md228deb0e4" y="118.847468"/>
     <use style="fill:#bcbd22;stroke:#bcbd22;" x="218.123636" xlink:href="#md228deb0e4" y="109.634644"/>
     <use style="fill:#bcbd22;stroke:#bcbd22;" x="254.196364" xlink:href="#md228deb0e4" y="103.383232"/>
     <use style="fill:#bcbd22;stroke:#bcbd22;" x="290.269091" xlink:href="#md228deb0e4" y="98.302872"/>
     <use style="fill:#bcbd22;stroke:#bcbd22;" x="326.341818" xlink:href="#md228deb0e4" y="93.623387"/>
     <use style="fill:#bcbd22;stroke:#bcbd22;" x="362.414545" xlink:href="#md228deb0e4" y="91.08616"/>
     <use style="fill:#bcbd22;stroke:#bcbd22;" x="398.487273" xlink:href="#md228deb0e4" y="88.567988"/>
    </g>
   </g>
   <g id="line2d_38">
    <path clip-path="url(#p06a0d164c8)" d="M 73.832727 163.232673 
L 109.905455 133.442212 
L 145.978182 117.331045 
L 182.050909 107.603547 
L 218.123636 97.420073 
L 254.196364 93.620269 
L 290.269091 89.212497 
L 326.341818 87.540584 
L 362.414545 85.260701 
L 398.487273 83.132811 
" style="fill:none;stroke:#17becf;stroke-linecap:square;stroke-width:1.5;"/>
    <defs>
     <path d="M -3 3 
L 3 -3 
M -3 -3 
L 3 3 
" id="m1c4b00491a" style="stroke:#17becf;"/>
    </defs>
    <g clip-path="url(#p06a0d164c8)">
     <use style="fill:#17becf;stroke:#17becf;" x="73.832727" xlink:href="#m1c4b00491a" y="163.232673"/>
     <use style="fill:#17becf;stroke:#17becf;" x="109.905455" xlink:href="#m1c4b00491a" y="133.442212"/>
     <use style="fill:#17becf;stroke:#17becf;" x="145.978182" xlink:href="#m1c4b00491a" y="117.331045"/>
     <use style="fill:#17becf;stroke:#17becf;" x="182.050909" xlink:href="#m1c4b00491a" y="107.603547"/>
     <use style="fill:#17becf;stroke:#17becf;" x="218.123636" xlink:href="#m1c4b00491a" y="97.420073"/>
     <use style="fill:#17becf;stroke:#17becf;" x="254.196364" xlink:href="#m1c4b00491a" y="93.620269"/>
     <use style="fill:#17becf;stroke:#17becf;" x="290.269091" xlink:href="#m1c4b00491a" y="89.212497"/>
     <use style="fill:#17becf;stroke:#17becf;" x="326.341818" xlink:href="#m1c4b00491a" y="87.540584"/>
     <use style="fill:#17becf;stroke:#17becf;" x="362.414545" xlink:href="#m1c4b00491a" y="85.260701"/>
     <use style="fill:#17becf;stroke:#17becf;" x="398.487273" xlink:href="#m1c4b00491a" y="83.132811"/>
    </g>
   </g>
   <g id="patch_3">
    <path d="M 57.6 307.584 
L 57.6 41.472 
" style="fill:none;stroke:#000000;stroke-linecap:square;stroke-linejoin:miter;stroke-width:0.8;"/>
   </g>
   <g id="patch_4">
    <path d="M 414.72 307.584 
L 414.72 41.472 
" style="fill:none;stroke:#000000;stroke-linecap:square;stroke-linejoin:miter;stroke-width:0.8;"/>
   </g>
   <g id="patch_5">
    <path d="M 57.6 307.584 
L 414.72 307.584 
" style="fill:none;stroke:#000000;stroke-linecap:square;stroke-linejoin:miter;stroke-width:0.8;"/>
   </g>
   <g id="patch_6">
    <path d="M 57.6 41.472 
L 414.72 41.472 
" style="fill:none;stroke:#000000;stroke-linecap:square;stroke-linejoin:miter;stroke-width:0.8;"/>
   </g>
   <g id="text_17">
    <!-- CPU: Accuracy Comparison Based on Optimizer -->
    <defs>
     <path d="M 64.40625 67.28125 
L 64.40625 56.890625 
Q 59.421875 61.53125 53.78125 63.8125 
Q 48.140625 66.109375 41.796875 66.109375 
Q 29.296875 66.109375 22.65625 58.46875 
Q 16.015625 50.828125 16.015625 36.375 
Q 16.015625 21.96875 22.65625 14.328125 
Q 29.296875 6.6875 41.796875 6.6875 
Q 48.140625 6.6875 53.78125 8.984375 
Q 59.421875 11.28125 64.40625 15.921875 
L 64.40625 5.609375 
Q 59.234375 2.09375 53.4375 0.328125 
Q 47.65625 -1.421875 41.21875 -1.421875 
Q 24.65625 -1.421875 15.125 8.703125 
Q 5.609375 18.84375 5.609375 36.375 
Q 5.609375 53.953125 15.125 64.078125 
Q 24.65625 74.21875 41.21875 74.21875 
Q 47.75 74.21875 53.53125 72.484375 
Q 59.328125 70.75 64.40625 67.28125 
z
" id="DejaVuSans-67"/>
     <path d="M 19.671875 64.796875 
L 19.671875 37.40625 
L 32.078125 37.40625 
Q 38.96875 37.40625 42.71875 40.96875 
Q 46.484375 44.53125 46.484375 51.125 
Q 46.484375 57.671875 42.71875 61.234375 
Q 38.96875 64.796875 32.078125 64.796875 
z
M 9.8125 72.90625 
L 32.078125 72.90625 
Q 44.34375 72.90625 50.609375 67.359375 
Q 56.890625 61.8125 56.890625 51.125 
Q 56.890625 40.328125 50.609375 34.8125 
Q 44.34375 29.296875 32.078125 29.296875 
L 19.671875 29.296875 
L 19.671875 0 
L 9.8125 0 
z
" id="DejaVuSans-80"/>
     <path d="M 8.6875 72.90625 
L 18.609375 72.90625 
L 18.609375 28.609375 
Q 18.609375 16.890625 22.84375 11.734375 
Q 27.09375 6.59375 36.625 6.59375 
Q 46.09375 6.59375 50.34375 11.734375 
Q 54.59375 16.890625 54.59375 28.609375 
L 54.59375 72.90625 
L 64.5 72.90625 
L 64.5 27.390625 
Q 64.5 13.140625 57.4375 5.859375 
Q 50.390625 -1.421875 36.625 -1.421875 
Q 22.796875 -1.421875 15.734375 5.859375 
Q 8.6875 13.140625 8.6875 27.390625 
z
" id="DejaVuSans-85"/>
     <path d="M 11.71875 12.40625 
L 22.015625 12.40625 
L 22.015625 0 
L 11.71875 0 
z
M 11.71875 51.703125 
L 22.015625 51.703125 
L 22.015625 39.3125 
L 11.71875 39.3125 
z
" id="DejaVuSans-58"/>
     <path d="M 9.421875 54.6875 
L 18.40625 54.6875 
L 18.40625 0 
L 9.421875 0 
z
M 9.421875 75.984375 
L 18.40625 75.984375 
L 18.40625 64.59375 
L 9.421875 64.59375 
z
" id="DejaVuSans-105"/>
     <path d="M 44.28125 53.078125 
L 44.28125 44.578125 
Q 40.484375 46.53125 36.375 47.5 
Q 32.28125 48.484375 27.875 48.484375 
Q 21.1875 48.484375 17.84375 46.4375 
Q 14.5 44.390625 14.5 40.28125 
Q 14.5 37.15625 16.890625 35.375 
Q 19.28125 33.59375 26.515625 31.984375 
L 29.59375 31.296875 
Q 39.15625 29.25 43.1875 25.515625 
Q 47.21875 21.78125 47.21875 15.09375 
Q 47.21875 7.46875 41.1875 3.015625 
Q 35.15625 -1.421875 24.609375 -1.421875 
Q 20.21875 -1.421875 15.453125 -0.5625 
Q 10.6875 0.296875 5.421875 2 
L 5.421875 11.28125 
Q 10.40625 8.6875 15.234375 7.390625 
Q 20.0625 6.109375 24.8125 6.109375 
Q 31.15625 6.109375 34.5625 8.28125 
Q 37.984375 10.453125 37.984375 14.40625 
Q 37.984375 18.0625 35.515625 20.015625 
Q 33.0625 21.96875 24.703125 23.78125 
L 21.578125 24.515625 
Q 13.234375 26.265625 9.515625 29.90625 
Q 5.8125 33.546875 5.8125 39.890625 
Q 5.8125 47.609375 11.28125 51.796875 
Q 16.75 56 26.8125 56 
Q 31.78125 56 36.171875 55.265625 
Q 40.578125 54.546875 44.28125 53.078125 
z
" id="DejaVuSans-115"/>
     <path d="M 54.890625 33.015625 
L 54.890625 0 
L 45.90625 0 
L 45.90625 32.71875 
Q 45.90625 40.484375 42.875 44.328125 
Q 39.84375 48.1875 33.796875 48.1875 
Q 26.515625 48.1875 22.3125 43.546875 
Q 18.109375 38.921875 18.109375 30.90625 
L 18.109375 0 
L 9.078125 0 
L 9.078125 54.6875 
L 18.109375 54.6875 
L 18.109375 46.1875 
Q 21.34375 51.125 25.703125 53.5625 
Q 30.078125 56 35.796875 56 
Q 45.21875 56 50.046875 50.171875 
Q 54.890625 44.34375 54.890625 33.015625 
z
" id="DejaVuSans-110"/>
     <path d="M 19.671875 34.8125 
L 19.671875 8.109375 
L 35.5 8.109375 
Q 43.453125 8.109375 47.28125 11.40625 
Q 51.125 14.703125 51.125 21.484375 
Q 51.125 28.328125 47.28125 31.5625 
Q 43.453125 34.8125 35.5 34.8125 
z
M 19.671875 64.796875 
L 19.671875 42.828125 
L 34.28125 42.828125 
Q 41.5 42.828125 45.03125 45.53125 
Q 48.578125 48.25 48.578125 53.8125 
Q 48.578125 59.328125 45.03125 62.0625 
Q 41.5 64.796875 34.28125 64.796875 
z
M 9.8125 72.90625 
L 35.015625 72.90625 
Q 46.296875 72.90625 52.390625 68.21875 
Q 58.5 63.53125 58.5 54.890625 
Q 58.5 48.1875 55.375 44.234375 
Q 52.25 40.28125 46.1875 39.3125 
Q 53.46875 37.75 57.5 32.78125 
Q 61.53125 27.828125 61.53125 20.40625 
Q 61.53125 10.640625 54.890625 5.3125 
Q 48.25 0 35.984375 0 
L 9.8125 0 
z
" id="DejaVuSans-66"/>
     <path d="M 56.203125 29.59375 
L 56.203125 25.203125 
L 14.890625 25.203125 
Q 15.484375 15.921875 20.484375 11.0625 
Q 25.484375 6.203125 34.421875 6.203125 
Q 39.59375 6.203125 44.453125 7.46875 
Q 49.3125 8.734375 54.109375 11.28125 
L 54.109375 2.78125 
Q 49.265625 0.734375 44.1875 -0.34375 
Q 39.109375 -1.421875 33.890625 -1.421875 
Q 20.796875 -1.421875 13.15625 6.1875 
Q 5.515625 13.8125 5.515625 26.8125 
Q 5.515625 40.234375 12.765625 48.109375 
Q 20.015625 56 32.328125 56 
Q 43.359375 56 49.78125 48.890625 
Q 56.203125 41.796875 56.203125 29.59375 
z
M 47.21875 32.234375 
Q 47.125 39.59375 43.09375 43.984375 
Q 39.0625 48.390625 32.421875 48.390625 
Q 24.90625 48.390625 20.390625 44.140625 
Q 15.875 39.890625 15.1875 32.171875 
z
" id="DejaVuSans-101"/>
     <path d="M 45.40625 46.390625 
L 45.40625 75.984375 
L 54.390625 75.984375 
L 54.390625 0 
L 45.40625 0 
L 45.40625 8.203125 
Q 42.578125 3.328125 38.25 0.953125 
Q 33.9375 -1.421875 27.875 -1.421875 
Q 17.96875 -1.421875 11.734375 6.484375 
Q 5.515625 14.40625 5.515625 27.296875 
Q 5.515625 40.1875 11.734375 48.09375 
Q 17.96875 56 27.875 56 
Q 33.9375 56 38.25 53.625 
Q 42.578125 51.265625 45.40625 46.390625 
z
M 14.796875 27.296875 
Q 14.796875 17.390625 18.875 11.75 
Q 22.953125 6.109375 30.078125 6.109375 
Q 37.203125 6.109375 41.296875 11.75 
Q 45.40625 17.390625 45.40625 27.296875 
Q 45.40625 37.203125 41.296875 42.84375 
Q 37.203125 48.484375 30.078125 48.484375 
Q 22.953125 48.484375 18.875 42.84375 
Q 14.796875 37.203125 14.796875 27.296875 
z
" id="DejaVuSans-100"/>
     <path d="M 39.40625 66.21875 
Q 28.65625 66.21875 22.328125 58.203125 
Q 16.015625 50.203125 16.015625 36.375 
Q 16.015625 22.609375 22.328125 14.59375 
Q 28.65625 6.59375 39.40625 6.59375 
Q 50.140625 6.59375 56.421875 14.59375 
Q 62.703125 22.609375 62.703125 36.375 
Q 62.703125 50.203125 56.421875 58.203125 
Q 50.140625 66.21875 39.40625 66.21875 
z
M 39.40625 74.21875 
Q 54.734375 74.21875 63.90625 63.9375 
Q 73.09375 53.65625 73.09375 36.375 
Q 73.09375 19.140625 63.90625 8.859375 
Q 54.734375 -1.421875 39.40625 -1.421875 
Q 24.03125 -1.421875 14.8125 8.828125 
Q 5.609375 19.09375 5.609375 36.375 
Q 5.609375 53.65625 14.8125 63.9375 
Q 24.03125 74.21875 39.40625 74.21875 
z
" id="DejaVuSans-79"/>
     <path d="M 18.3125 70.21875 
L 18.3125 54.6875 
L 36.8125 54.6875 
L 36.8125 47.703125 
L 18.3125 47.703125 
L 18.3125 18.015625 
Q 18.3125 11.328125 20.140625 9.421875 
Q 21.96875 7.515625 27.59375 7.515625 
L 36.8125 7.515625 
L 36.8125 0 
L 27.59375 0 
Q 17.1875 0 13.234375 3.875 
Q 9.28125 7.765625 9.28125 18.015625 
L 9.28125 47.703125 
L 2.6875 47.703125 
L 2.6875 54.6875 
L 9.28125 54.6875 
L 9.28125 70.21875 
z
" id="DejaVuSans-116"/>
     <path d="M 5.515625 54.6875 
L 48.1875 54.6875 
L 48.1875 46.484375 
L 14.40625 7.171875 
L 48.1875 7.171875 
L 48.1875 0 
L 4.296875 0 
L 4.296875 8.203125 
L 38.09375 47.515625 
L 5.515625 47.515625 
z
" id="DejaVuSans-122"/>
    </defs>
    <g transform="translate(93.72 35.472)scale(0.12 -0.12)">
     <use xlink:href="#DejaVuSans-67"/>
     <use x="69.824219" xlink:href="#DejaVuSans-80"/>
     <use x="130.126953" xlink:href="#DejaVuSans-85"/>
     <use x="203.320312" xlink:href="#DejaVuSans-58"/>
     <use x="237.011719" xlink:href="#DejaVuSans-32"/>
     <use x="268.798828" xlink:href="#DejaVuSans-65"/>
     <use x="337.191406" xlink:href="#DejaVuSans-99"/>
     <use x="392.171875" xlink:href="#DejaVuSans-99"/>
     <use x="447.152344" xlink:href="#DejaVuSans-117"/>
     <use x="510.53125" xlink:href="#DejaVuSans-114"/>
     <use x="551.644531" xlink:href="#DejaVuSans-97"/>
     <use x="612.923828" xlink:href="#DejaVuSans-99"/>
     <use x="667.904297" xlink:href="#DejaVuSans-121"/>
     <use x="727.083984" xlink:href="#DejaVuSans-32"/>
     <use x="758.871094" xlink:href="#DejaVuSans-67"/>
     <use x="828.695312" xlink:href="#DejaVuSans-111"/>
     <use x="889.876953" xlink:href="#DejaVuSans-109"/>
     <use x="987.289062" xlink:href="#DejaVuSans-112"/>
     <use x="1050.765625" xlink:href="#DejaVuSans-97"/>
     <use x="1112.044922" xlink:href="#DejaVuSans-114"/>
     <use x="1153.158203" xlink:href="#DejaVuSans-105"/>
     <use x="1180.941406" xlink:href="#DejaVuSans-115"/>
     <use x="1233.041016" xlink:href="#DejaVuSans-111"/>
     <use x="1294.222656" xlink:href="#DejaVuSans-110"/>
     <use x="1357.601562" xlink:href="#DejaVuSans-32"/>
     <use x="1389.388672" xlink:href="#DejaVuSans-66"/>
     <use x="1457.992188" xlink:href="#DejaVuSans-97"/>
     <use x="1519.271484" xlink:href="#DejaVuSans-115"/>
     <use x="1571.371094" xlink:href="#DejaVuSans-101"/>
     <use x="1632.894531" xlink:href="#DejaVuSans-100"/>
     <use x="1696.371094" xlink:href="#DejaVuSans-32"/>
     <use x="1728.158203" xlink:href="#DejaVuSans-111"/>
     <use x="1789.339844" xlink:href="#DejaVuSans-110"/>
     <use x="1852.71875" xlink:href="#DejaVuSans-32"/>
     <use x="1884.505859" xlink:href="#DejaVuSans-79"/>
     <use x="1963.216797" xlink:href="#DejaVuSans-112"/>
     <use x="2026.693359" xlink:href="#DejaVuSans-116"/>
     <use x="2065.902344" xlink:href="#DejaVuSans-105"/>
     <use x="2093.685547" xlink:href="#DejaVuSans-109"/>
     <use x="2191.097656" xlink:href="#DejaVuSans-105"/>
     <use x="2218.880859" xlink:href="#DejaVuSans-122"/>
     <use x="2271.371094" xlink:href="#DejaVuSans-101"/>
     <use x="2332.894531" xlink:href="#DejaVuSans-114"/>
    </g>
   </g>
   <g id="legend_1">
    <g id="patch_7">
     <path d="M 204.0575 302.584 
L 407.72 302.584 
Q 409.72 302.584 409.72 300.584 
L 409.72 154.80275 
Q 409.72 152.80275 407.72 152.80275 
L 204.0575 152.80275 
Q 202.0575 152.80275 202.0575 154.80275 
L 202.0575 300.584 
Q 202.0575 302.584 204.0575 302.584 
z
" style="fill:#ffffff;opacity:0.8;stroke:#cccccc;stroke-linejoin:miter;"/>
    </g>
    <g id="line2d_39">
     <path d="M 206.0575 160.901187 
L 226.0575 160.901187 
" style="fill:none;stroke:#1f77b4;stroke-linecap:square;stroke-width:1.5;"/>
    </g>
    <g id="line2d_40">
     <g>
      <use style="fill:#1f77b4;stroke:#1f77b4;" x="216.0575" xlink:href="#m962439f65d" y="160.901187"/>
     </g>
    </g>
    <g id="text_18">
     <!-- adam-main/accuracy -->
     <defs>
      <path d="M 4.890625 31.390625 
L 31.203125 31.390625 
L 31.203125 23.390625 
L 4.890625 23.390625 
z
" id="DejaVuSans-45"/>
      <path d="M 25.390625 72.90625 
L 33.6875 72.90625 
L 8.296875 -9.28125 
L 0 -9.28125 
z
" id="DejaVuSans-47"/>
     </defs>
     <g transform="translate(234.0575 164.401187)scale(0.1 -0.1)">
      <use xlink:href="#DejaVuSans-97"/>
      <use x="61.279297" xlink:href="#DejaVuSans-100"/>
      <use x="124.755859" xlink:href="#DejaVuSans-97"/>
      <use x="186.035156" xlink:href="#DejaVuSans-109"/>
      <use x="283.447266" xlink:href="#DejaVuSans-45"/>
      <use x="319.53125" xlink:href="#DejaVuSans-109"/>
      <use x="416.943359" xlink:href="#DejaVuSans-97"/>
      <use x="478.222656" xlink:href="#DejaVuSans-105"/>
      <use x="506.005859" xlink:href="#DejaVuSans-110"/>
      <use x="569.384766" xlink:href="#DejaVuSans-47"/>
      <use x="603.076172" xlink:href="#DejaVuSans-97"/>
      <use x="664.355469" xlink:href="#DejaVuSans-99"/>
      <use x="719.335938" xlink:href="#DejaVuSans-99"/>
      <use x="774.316406" xlink:href="#DejaVuSans-117"/>
      <use x="837.695312" xlink:href="#DejaVuSans-114"/>
      <use x="878.808594" xlink:href="#DejaVuSans-97"/>
      <use x="940.087891" xlink:href="#DejaVuSans-99"/>
      <use x="995.068359" xlink:href="#DejaVuSans-121"/>
     </g>
    </g>
    <g id="line2d_41">
     <path d="M 206.0575 175.579313 
L 226.0575 175.579313 
" style="fill:none;stroke:#ff7f0e;stroke-linecap:square;stroke-width:1.5;"/>
    </g>
    <g id="line2d_42">
     <g>
      <use style="fill:#ff7f0e;stroke:#ff7f0e;" x="216.0575" xlink:href="#ma35e05db9f" y="175.579313"/>
     </g>
    </g>
    <g id="text_19">
     <!-- adam-validation/main/accuracy -->
     <defs>
      <path d="M 2.984375 54.6875 
L 12.5 54.6875 
L 29.59375 8.796875 
L 46.6875 54.6875 
L 56.203125 54.6875 
L 35.6875 0 
L 23.484375 0 
z
" id="DejaVuSans-118"/>
      <path d="M 9.421875 75.984375 
L 18.40625 75.984375 
L 18.40625 0 
L 9.421875 0 
z
" id="DejaVuSans-108"/>
     </defs>
     <g transform="translate(234.0575 179.079313)scale(0.1 -0.1)">
      <use xlink:href="#DejaVuSans-97"/>
      <use x="61.279297" xlink:href="#DejaVuSans-100"/>
      <use x="124.755859" xlink:href="#DejaVuSans-97"/>
      <use x="186.035156" xlink:href="#DejaVuSans-109"/>
      <use x="283.447266" xlink:href="#DejaVuSans-45"/>
      <use x="319.5" xlink:href="#DejaVuSans-118"/>
      <use x="378.679688" xlink:href="#DejaVuSans-97"/>
      <use x="439.958984" xlink:href="#DejaVuSans-108"/>
      <use x="467.742188" xlink:href="#DejaVuSans-105"/>
      <use x="495.525391" xlink:href="#DejaVuSans-100"/>
      <use x="559.001953" xlink:href="#DejaVuSans-97"/>
      <use x="620.28125" xlink:href="#DejaVuSans-116"/>
      <use x="659.490234" xlink:href="#DejaVuSans-105"/>
      <use x="687.273438" xlink:href="#DejaVuSans-111"/>
      <use x="748.455078" xlink:href="#DejaVuSans-110"/>
      <use x="811.833984" xlink:href="#DejaVuSans-47"/>
      <use x="845.525391" xlink:href="#DejaVuSans-109"/>
      <use x="942.9375" xlink:href="#DejaVuSans-97"/>
      <use x="1004.216797" xlink:href="#DejaVuSans-105"/>
      <use x="1032" xlink:href="#DejaVuSans-110"/>
      <use x="1095.378906" xlink:href="#DejaVuSans-47"/>
      <use x="1129.070312" xlink:href="#DejaVuSans-97"/>
      <use x="1190.349609" xlink:href="#DejaVuSans-99"/>
      <use x="1245.330078" xlink:href="#DejaVuSans-99"/>
      <use x="1300.310547" xlink:href="#DejaVuSans-117"/>
      <use x="1363.689453" xlink:href="#DejaVuSans-114"/>
      <use x="1404.802734" xlink:href="#DejaVuSans-97"/>
      <use x="1466.082031" xlink:href="#DejaVuSans-99"/>
      <use x="1521.0625" xlink:href="#DejaVuSans-121"/>
     </g>
    </g>
    <g id="line2d_43">
     <path d="M 206.0575 190.257438 
L 226.0575 190.257438 
" style="fill:none;stroke:#2ca02c;stroke-linecap:square;stroke-width:1.5;"/>
    </g>
    <g id="line2d_44">
     <g>
      <use style="fill:#2ca02c;stroke:#2ca02c;" x="216.0575" xlink:href="#m9555bed837" y="190.257438"/>
     </g>
    </g>
    <g id="text_20">
     <!-- adagrad-main/accuracy -->
     <defs>
      <path d="M 45.40625 27.984375 
Q 45.40625 37.75 41.375 43.109375 
Q 37.359375 48.484375 30.078125 48.484375 
Q 22.859375 48.484375 18.828125 43.109375 
Q 14.796875 37.75 14.796875 27.984375 
Q 14.796875 18.265625 18.828125 12.890625 
Q 22.859375 7.515625 30.078125 7.515625 
Q 37.359375 7.515625 41.375 12.890625 
Q 45.40625 18.265625 45.40625 27.984375 
z
M 54.390625 6.78125 
Q 54.390625 -7.171875 48.1875 -13.984375 
Q 42 -20.796875 29.203125 -20.796875 
Q 24.46875 -20.796875 20.265625 -20.09375 
Q 16.0625 -19.390625 12.109375 -17.921875 
L 12.109375 -9.1875 
Q 16.0625 -11.328125 19.921875 -12.34375 
Q 23.78125 -13.375 27.78125 -13.375 
Q 36.625 -13.375 41.015625 -8.765625 
Q 45.40625 -4.15625 45.40625 5.171875 
L 45.40625 9.625 
Q 42.625 4.78125 38.28125 2.390625 
Q 33.9375 0 27.875 0 
Q 17.828125 0 11.671875 7.65625 
Q 5.515625 15.328125 5.515625 27.984375 
Q 5.515625 40.671875 11.671875 48.328125 
Q 17.828125 56 27.875 56 
Q 33.9375 56 38.28125 53.609375 
Q 42.625 51.21875 45.40625 46.390625 
L 45.40625 54.6875 
L 54.390625 54.6875 
z
" id="DejaVuSans-103"/>
     </defs>
     <g transform="translate(234.0575 193.757438)scale(0.1 -0.1)">
      <use xlink:href="#DejaVuSans-97"/>
      <use x="61.279297" xlink:href="#DejaVuSans-100"/>
      <use x="124.755859" xlink:href="#DejaVuSans-97"/>
      <use x="186.035156" xlink:href="#DejaVuSans-103"/>
      <use x="249.511719" xlink:href="#DejaVuSans-114"/>
      <use x="290.625" xlink:href="#DejaVuSans-97"/>
      <use x="351.904297" xlink:href="#DejaVuSans-100"/>
      <use x="415.380859" xlink:href="#DejaVuSans-45"/>
      <use x="451.464844" xlink:href="#DejaVuSans-109"/>
      <use x="548.876953" xlink:href="#DejaVuSans-97"/>
      <use x="610.15625" xlink:href="#DejaVuSans-105"/>
      <use x="637.939453" xlink:href="#DejaVuSans-110"/>
      <use x="701.318359" xlink:href="#DejaVuSans-47"/>
      <use x="735.009766" xlink:href="#DejaVuSans-97"/>
      <use x="796.289062" xlink:href="#DejaVuSans-99"/>
      <use x="851.269531" xlink:href="#DejaVuSans-99"/>
      <use x="906.25" xlink:href="#DejaVuSans-117"/>
      <use x="969.628906" xlink:href="#DejaVuSans-114"/>
      <use x="1010.742188" xlink:href="#DejaVuSans-97"/>
      <use x="1072.021484" xlink:href="#DejaVuSans-99"/>
      <use x="1127.001953" xlink:href="#DejaVuSans-121"/>
     </g>
    </g>
    <g id="line2d_45">
     <path d="M 206.0575 204.935563 
L 226.0575 204.935563 
" style="fill:none;stroke:#d62728;stroke-linecap:square;stroke-width:1.5;"/>
    </g>
    <g id="line2d_46">
     <g>
      <use style="fill:#d62728;stroke:#d62728;" x="216.0575" xlink:href="#m6bc06fdb48" y="204.935563"/>
     </g>
    </g>
    <g id="text_21">
     <!-- adagrad-validation/main/accuracy -->
     <g transform="translate(234.0575 208.435563)scale(0.1 -0.1)">
      <use xlink:href="#DejaVuSans-97"/>
      <use x="61.279297" xlink:href="#DejaVuSans-100"/>
      <use x="124.755859" xlink:href="#DejaVuSans-97"/>
      <use x="186.035156" xlink:href="#DejaVuSans-103"/>
      <use x="249.511719" xlink:href="#DejaVuSans-114"/>
      <use x="290.625" xlink:href="#DejaVuSans-97"/>
      <use x="351.904297" xlink:href="#DejaVuSans-100"/>
      <use x="415.380859" xlink:href="#DejaVuSans-45"/>
      <use x="451.433594" xlink:href="#DejaVuSans-118"/>
      <use x="510.613281" xlink:href="#DejaVuSans-97"/>
      <use x="571.892578" xlink:href="#DejaVuSans-108"/>
      <use x="599.675781" xlink:href="#DejaVuSans-105"/>
      <use x="627.458984" xlink:href="#DejaVuSans-100"/>
      <use x="690.935547" xlink:href="#DejaVuSans-97"/>
      <use x="752.214844" xlink:href="#DejaVuSans-116"/>
      <use x="791.423828" xlink:href="#DejaVuSans-105"/>
      <use x="819.207031" xlink:href="#DejaVuSans-111"/>
      <use x="880.388672" xlink:href="#DejaVuSans-110"/>
      <use x="943.767578" xlink:href="#DejaVuSans-47"/>
      <use x="977.458984" xlink:href="#DejaVuSans-109"/>
      <use x="1074.871094" xlink:href="#DejaVuSans-97"/>
      <use x="1136.150391" xlink:href="#DejaVuSans-105"/>
      <use x="1163.933594" xlink:href="#DejaVuSans-110"/>
      <use x="1227.3125" xlink:href="#DejaVuSans-47"/>
      <use x="1261.003906" xlink:href="#DejaVuSans-97"/>
      <use x="1322.283203" xlink:href="#DejaVuSans-99"/>
      <use x="1377.263672" xlink:href="#DejaVuSans-99"/>
      <use x="1432.244141" xlink:href="#DejaVuSans-117"/>
      <use x="1495.623047" xlink:href="#DejaVuSans-114"/>
      <use x="1536.736328" xlink:href="#DejaVuSans-97"/>
      <use x="1598.015625" xlink:href="#DejaVuSans-99"/>
      <use x="1652.996094" xlink:href="#DejaVuSans-121"/>
     </g>
    </g>
    <g id="line2d_47">
     <path d="M 206.0575 219.613688 
L 226.0575 219.613688 
" style="fill:none;stroke:#9467bd;stroke-linecap:square;stroke-width:1.5;"/>
    </g>
    <g id="line2d_48">
     <g>
      <use style="fill:#9467bd;stroke:#9467bd;" x="216.0575" xlink:href="#m0352629dfb" y="219.613688"/>
     </g>
    </g>
    <g id="text_22">
     <!-- msgd-main/accuracy -->
     <g transform="translate(234.0575 223.113688)scale(0.1 -0.1)">
      <use xlink:href="#DejaVuSans-109"/>
      <use x="97.412109" xlink:href="#DejaVuSans-115"/>
      <use x="149.511719" xlink:href="#DejaVuSans-103"/>
      <use x="212.988281" xlink:href="#DejaVuSans-100"/>
      <use x="276.464844" xlink:href="#DejaVuSans-45"/>
      <use x="312.548828" xlink:href="#DejaVuSans-109"/>
      <use x="409.960938" xlink:href="#DejaVuSans-97"/>
      <use x="471.240234" xlink:href="#DejaVuSans-105"/>
      <use x="499.023438" xlink:href="#DejaVuSans-110"/>
      <use x="562.402344" xlink:href="#DejaVuSans-47"/>
      <use x="596.09375" xlink:href="#DejaVuSans-97"/>
      <use x="657.373047" xlink:href="#DejaVuSans-99"/>
      <use x="712.353516" xlink:href="#DejaVuSans-99"/>
      <use x="767.333984" xlink:href="#DejaVuSans-117"/>
      <use x="830.712891" xlink:href="#DejaVuSans-114"/>
      <use x="871.826172" xlink:href="#DejaVuSans-97"/>
      <use x="933.105469" xlink:href="#DejaVuSans-99"/>
      <use x="988.085938" xlink:href="#DejaVuSans-121"/>
     </g>
    </g>
    <g id="line2d_49">
     <path d="M 206.0575 234.291812 
L 226.0575 234.291812 
" style="fill:none;stroke:#8c564b;stroke-linecap:square;stroke-width:1.5;"/>
    </g>
    <g id="line2d_50">
     <g>
      <use style="fill:#8c564b;stroke:#8c564b;" x="216.0575" xlink:href="#med3e437317" y="234.291812"/>
     </g>
    </g>
    <g id="text_23">
     <!-- msgd-validation/main/accuracy -->
     <g transform="translate(234.0575 237.791812)scale(0.1 -0.1)">
      <use xlink:href="#DejaVuSans-109"/>
      <use x="97.412109" xlink:href="#DejaVuSans-115"/>
      <use x="149.511719" xlink:href="#DejaVuSans-103"/>
      <use x="212.988281" xlink:href="#DejaVuSans-100"/>
      <use x="276.464844" xlink:href="#DejaVuSans-45"/>
      <use x="312.517578" xlink:href="#DejaVuSans-118"/>
      <use x="371.697266" xlink:href="#DejaVuSans-97"/>
      <use x="432.976562" xlink:href="#DejaVuSans-108"/>
      <use x="460.759766" xlink:href="#DejaVuSans-105"/>
      <use x="488.542969" xlink:href="#DejaVuSans-100"/>
      <use x="552.019531" xlink:href="#DejaVuSans-97"/>
      <use x="613.298828" xlink:href="#DejaVuSans-116"/>
      <use x="652.507812" xlink:href="#DejaVuSans-105"/>
      <use x="680.291016" xlink:href="#DejaVuSans-111"/>
      <use x="741.472656" xlink:href="#DejaVuSans-110"/>
      <use x="804.851562" xlink:href="#DejaVuSans-47"/>
      <use x="838.542969" xlink:href="#DejaVuSans-109"/>
      <use x="935.955078" xlink:href="#DejaVuSans-97"/>
      <use x="997.234375" xlink:href="#DejaVuSans-105"/>
      <use x="1025.017578" xlink:href="#DejaVuSans-110"/>
      <use x="1088.396484" xlink:href="#DejaVuSans-47"/>
      <use x="1122.087891" xlink:href="#DejaVuSans-97"/>
      <use x="1183.367188" xlink:href="#DejaVuSans-99"/>
      <use x="1238.347656" xlink:href="#DejaVuSans-99"/>
      <use x="1293.328125" xlink:href="#DejaVuSans-117"/>
      <use x="1356.707031" xlink:href="#DejaVuSans-114"/>
      <use x="1397.820312" xlink:href="#DejaVuSans-97"/>
      <use x="1459.099609" xlink:href="#DejaVuSans-99"/>
      <use x="1514.080078" xlink:href="#DejaVuSans-121"/>
     </g>
    </g>
    <g id="line2d_51">
     <path d="M 206.0575 248.969938 
L 226.0575 248.969938 
" style="fill:none;stroke:#e377c2;stroke-linecap:square;stroke-width:1.5;"/>
    </g>
    <g id="line2d_52">
     <g>
      <use style="fill:#e377c2;stroke:#e377c2;" x="216.0575" xlink:href="#m1f4a399804" y="248.969938"/>
     </g>
    </g>
    <g id="text_24">
     <!-- rmsprop-main/accuracy -->
     <g transform="translate(234.0575 252.469938)scale(0.1 -0.1)">
      <use xlink:href="#DejaVuSans-114"/>
      <use x="41.097656" xlink:href="#DejaVuSans-109"/>
      <use x="138.509766" xlink:href="#DejaVuSans-115"/>
      <use x="190.609375" xlink:href="#DejaVuSans-112"/>
      <use x="254.085938" xlink:href="#DejaVuSans-114"/>
      <use x="295.167969" xlink:href="#DejaVuSans-111"/>
      <use x="356.349609" xlink:href="#DejaVuSans-112"/>
      <use x="419.826172" xlink:href="#DejaVuSans-45"/>
      <use x="455.910156" xlink:href="#DejaVuSans-109"/>
      <use x="553.322266" xlink:href="#DejaVuSans-97"/>
      <use x="614.601562" xlink:href="#DejaVuSans-105"/>
      <use x="642.384766" xlink:href="#DejaVuSans-110"/>
      <use x="705.763672" xlink:href="#DejaVuSans-47"/>
      <use x="739.455078" xlink:href="#DejaVuSans-97"/>
      <use x="800.734375" xlink:href="#DejaVuSans-99"/>
      <use x="855.714844" xlink:href="#DejaVuSans-99"/>
      <use x="910.695312" xlink:href="#DejaVuSans-117"/>
      <use x="974.074219" xlink:href="#DejaVuSans-114"/>
      <use x="1015.1875" xlink:href="#DejaVuSans-97"/>
      <use x="1076.466797" xlink:href="#DejaVuSans-99"/>
      <use x="1131.447266" xlink:href="#DejaVuSans-121"/>
     </g>
    </g>
    <g id="line2d_53">
     <path d="M 206.0575 263.648062 
L 226.0575 263.648062 
" style="fill:none;stroke:#7f7f7f;stroke-linecap:square;stroke-width:1.5;"/>
    </g>
    <g id="line2d_54">
     <g>
      <use style="fill:#7f7f7f;stroke:#7f7f7f;" x="216.0575" xlink:href="#mf599324a17" y="263.648062"/>
     </g>
    </g>
    <g id="text_25">
     <!-- rmsprop-validation/main/accuracy -->
     <g transform="translate(234.0575 267.148062)scale(0.1 -0.1)">
      <use xlink:href="#DejaVuSans-114"/>
      <use x="41.097656" xlink:href="#DejaVuSans-109"/>
      <use x="138.509766" xlink:href="#DejaVuSans-115"/>
      <use x="190.609375" xlink:href="#DejaVuSans-112"/>
      <use x="254.085938" xlink:href="#DejaVuSans-114"/>
      <use x="295.167969" xlink:href="#DejaVuSans-111"/>
      <use x="356.349609" xlink:href="#DejaVuSans-112"/>
      <use x="419.826172" xlink:href="#DejaVuSans-45"/>
      <use x="455.878906" xlink:href="#DejaVuSans-118"/>
      <use x="515.058594" xlink:href="#DejaVuSans-97"/>
      <use x="576.337891" xlink:href="#DejaVuSans-108"/>
      <use x="604.121094" xlink:href="#DejaVuSans-105"/>
      <use x="631.904297" xlink:href="#DejaVuSans-100"/>
      <use x="695.380859" xlink:href="#DejaVuSans-97"/>
      <use x="756.660156" xlink:href="#DejaVuSans-116"/>
      <use x="795.869141" xlink:href="#DejaVuSans-105"/>
      <use x="823.652344" xlink:href="#DejaVuSans-111"/>
      <use x="884.833984" xlink:href="#DejaVuSans-110"/>
      <use x="948.212891" xlink:href="#DejaVuSans-47"/>
      <use x="981.904297" xlink:href="#DejaVuSans-109"/>
      <use x="1079.316406" xlink:href="#DejaVuSans-97"/>
      <use x="1140.595703" xlink:href="#DejaVuSans-105"/>
      <use x="1168.378906" xlink:href="#DejaVuSans-110"/>
      <use x="1231.757812" xlink:href="#DejaVuSans-47"/>
      <use x="1265.449219" xlink:href="#DejaVuSans-97"/>
      <use x="1326.728516" xlink:href="#DejaVuSans-99"/>
      <use x="1381.708984" xlink:href="#DejaVuSans-99"/>
      <use x="1436.689453" xlink:href="#DejaVuSans-117"/>
      <use x="1500.068359" xlink:href="#DejaVuSans-114"/>
      <use x="1541.181641" xlink:href="#DejaVuSans-97"/>
      <use x="1602.460938" xlink:href="#DejaVuSans-99"/>
      <use x="1657.441406" xlink:href="#DejaVuSans-121"/>
     </g>
    </g>
    <g id="line2d_55">
     <path d="M 206.0575 278.326188 
L 226.0575 278.326188 
" style="fill:none;stroke:#bcbd22;stroke-linecap:square;stroke-width:1.5;"/>
    </g>
    <g id="line2d_56">
     <g>
      <use style="fill:#bcbd22;stroke:#bcbd22;" x="216.0575" xlink:href="#md228deb0e4" y="278.326188"/>
     </g>
    </g>
    <g id="text_26">
     <!-- sgd-main/accuracy -->
     <g transform="translate(234.0575 281.826188)scale(0.1 -0.1)">
      <use xlink:href="#DejaVuSans-115"/>
      <use x="52.099609" xlink:href="#DejaVuSans-103"/>
      <use x="115.576172" xlink:href="#DejaVuSans-100"/>
      <use x="179.052734" xlink:href="#DejaVuSans-45"/>
      <use x="215.136719" xlink:href="#DejaVuSans-109"/>
      <use x="312.548828" xlink:href="#DejaVuSans-97"/>
      <use x="373.828125" xlink:href="#DejaVuSans-105"/>
      <use x="401.611328" xlink:href="#DejaVuSans-110"/>
      <use x="464.990234" xlink:href="#DejaVuSans-47"/>
      <use x="498.681641" xlink:href="#DejaVuSans-97"/>
      <use x="559.960938" xlink:href="#DejaVuSans-99"/>
      <use x="614.941406" xlink:href="#DejaVuSans-99"/>
      <use x="669.921875" xlink:href="#DejaVuSans-117"/>
      <use x="733.300781" xlink:href="#DejaVuSans-114"/>
      <use x="774.414062" xlink:href="#DejaVuSans-97"/>
      <use x="835.693359" xlink:href="#DejaVuSans-99"/>
      <use x="890.673828" xlink:href="#DejaVuSans-121"/>
     </g>
    </g>
    <g id="line2d_57">
     <path d="M 206.0575 293.004312 
L 226.0575 293.004312 
" style="fill:none;stroke:#17becf;stroke-linecap:square;stroke-width:1.5;"/>
    </g>
    <g id="line2d_58">
     <g>
      <use style="fill:#17becf;stroke:#17becf;" x="216.0575" xlink:href="#m1c4b00491a" y="293.004312"/>
     </g>
    </g>
    <g id="text_27">
     <!-- sgd-validation/main/accuracy -->
     <g transform="translate(234.0575 296.504312)scale(0.1 -0.1)">
      <use xlink:href="#DejaVuSans-115"/>
      <use x="52.099609" xlink:href="#DejaVuSans-103"/>
      <use x="115.576172" xlink:href="#DejaVuSans-100"/>
      <use x="179.052734" xlink:href="#DejaVuSans-45"/>
      <use x="215.105469" xlink:href="#DejaVuSans-118"/>
      <use x="274.285156" xlink:href="#DejaVuSans-97"/>
      <use x="335.564453" xlink:href="#DejaVuSans-108"/>
      <use x="363.347656" xlink:href="#DejaVuSans-105"/>
      <use x="391.130859" xlink:href="#DejaVuSans-100"/>
      <use x="454.607422" xlink:href="#DejaVuSans-97"/>
      <use x="515.886719" xlink:href="#DejaVuSans-116"/>
      <use x="555.095703" xlink:href="#DejaVuSans-105"/>
      <use x="582.878906" xlink:href="#DejaVuSans-111"/>
      <use x="644.060547" xlink:href="#DejaVuSans-110"/>
      <use x="707.439453" xlink:href="#DejaVuSans-47"/>
      <use x="741.130859" xlink:href="#DejaVuSans-109"/>
      <use x="838.542969" xlink:href="#DejaVuSans-97"/>
      <use x="899.822266" xlink:href="#DejaVuSans-105"/>
      <use x="927.605469" xlink:href="#DejaVuSans-110"/>
      <use x="990.984375" xlink:href="#DejaVuSans-47"/>
      <use x="1024.675781" xlink:href="#DejaVuSans-97"/>
      <use x="1085.955078" xlink:href="#DejaVuSans-99"/>
      <use x="1140.935547" xlink:href="#DejaVuSans-99"/>
      <use x="1195.916016" xlink:href="#DejaVuSans-117"/>
      <use x="1259.294922" xlink:href="#DejaVuSans-114"/>
      <use x="1300.408203" xlink:href="#DejaVuSans-97"/>
      <use x="1361.6875" xlink:href="#DejaVuSans-99"/>
      <use x="1416.667969" xlink:href="#DejaVuSans-121"/>
     </g>
    </g>
   </g>
  </g>
 </g>
 <defs>
  <clipPath id="p06a0d164c8">
   <rect height="266.112" width="357.12" x="57.6" y="41.472"/>
  </clipPath>
 </defs>
</svg>
