<?xml version="1.0" encoding="utf-8" standalone="no"?>
<!DOCTYPE svg PUBLIC "-//W3C//DTD SVG 1.1//EN"
  "http://www.w3.org/Graphics/SVG/1.1/DTD/svg11.dtd">
<!-- Created with matplotlib (https://matplotlib.org/) -->
<svg height="345.6pt" version="1.1" viewBox="0 0 460.8 345.6" width="460.8pt" xmlns="http://www.w3.org/2000/svg" xmlns:xlink="http://www.w3.org/1999/xlink">
 <defs>
  <style type="text/css">
*{stroke-linecap:butt;stroke-linejoin:round;}
  </style>
 </defs>
 <g id="figure_1">
  <g id="patch_1">
   <path d="M 0 345.6 
L 460.8 345.6 
L 460.8 0 
L 0 0 
z
" style="fill:#ffffff;"/>
  </g>
  <g id="axes_1">
   <g id="patch_2">
    <path d="M 57.6 307.584 
L 414.72 307.584 
L 414.72 41.472 
L 57.6 41.472 
z
" style="fill:#ffffff;"/>
   </g>
   <g id="matplotlib.axis_1">
    <g id="xtick_1">
     <g id="line2d_1">
      <path clip-path="url(#p0d2d640af8)" d="M 73.832727 307.584 
L 73.832727 41.472 
" style="fill:none;stroke:#b0b0b0;stroke-linecap:square;stroke-width:0.8;"/>
     </g>
     <g id="line2d_2">
      <defs>
       <path d="M 0 0 
L 0 3.5 
" id="m4f54092773" style="stroke:#000000;stroke-width:0.8;"/>
      </defs>
      <g>
       <use style="stroke:#000000;stroke-width:0.8;" x="73.832727" xlink:href="#m4f54092773" y="307.584"/>
      </g>
     </g>
     <g id="text_1">
      <!-- 0 -->
      <defs>
       <path d="M 31.78125 66.40625 
Q 24.171875 66.40625 20.328125 58.90625 
Q 16.5 51.421875 16.5 36.375 
Q 16.5 21.390625 20.328125 13.890625 
Q 24.171875 6.390625 31.78125 6.390625 
Q 39.453125 6.390625 43.28125 13.890625 
Q 47.125 21.390625 47.125 36.375 
Q 47.125 51.421875 43.28125 58.90625 
Q 39.453125 66.40625 31.78125 66.40625 
z
M 31.78125 74.21875 
Q 44.046875 74.21875 50.515625 64.515625 
Q 56.984375 54.828125 56.984375 36.375 
Q 56.984375 17.96875 50.515625 8.265625 
Q 44.046875 -1.421875 31.78125 -1.421875 
Q 19.53125 -1.421875 13.0625 8.265625 
Q 6.59375 17.96875 6.59375 36.375 
Q 6.59375 54.828125 13.0625 64.515625 
Q 19.53125 74.21875 31.78125 74.21875 
z
" id="DejaVuSans-48"/>
      </defs>
      <g transform="translate(70.651477 322.182437)scale(0.1 -0.1)">
       <use xlink:href="#DejaVuSans-48"/>
      </g>
     </g>
    </g>
    <g id="xtick_2">
     <g id="line2d_3">
      <path clip-path="url(#p0d2d640af8)" d="M 145.978182 307.584 
L 145.978182 41.472 
" style="fill:none;stroke:#b0b0b0;stroke-linecap:square;stroke-width:0.8;"/>
     </g>
     <g id="line2d_4">
      <g>
       <use style="stroke:#000000;stroke-width:0.8;" x="145.978182" xlink:href="#m4f54092773" y="307.584"/>
      </g>
     </g>
     <g id="text_2">
      <!-- 2 -->
      <defs>
       <path d="M 19.1875 8.296875 
L 53.609375 8.296875 
L 53.609375 0 
L 7.328125 0 
L 7.328125 8.296875 
Q 12.9375 14.109375 22.625 23.890625 
Q 32.328125 33.6875 34.8125 36.53125 
Q 39.546875 41.84375 41.421875 45.53125 
Q 43.3125 49.21875 43.3125 52.78125 
Q 43.3125 58.59375 39.234375 62.25 
Q 35.15625 65.921875 28.609375 65.921875 
Q 23.96875 65.921875 18.8125 64.3125 
Q 13.671875 62.703125 7.8125 59.421875 
L 7.8125 69.390625 
Q 13.765625 71.78125 18.9375 73 
Q 24.125 74.21875 28.421875 74.21875 
Q 39.75 74.21875 46.484375 68.546875 
Q 53.21875 62.890625 53.21875 53.421875 
Q 53.21875 48.921875 51.53125 44.890625 
Q 49.859375 40.875 45.40625 35.40625 
Q 44.1875 33.984375 37.640625 27.21875 
Q 31.109375 20.453125 19.1875 8.296875 
z
" id="DejaVuSans-50"/>
      </defs>
      <g transform="translate(142.796932 322.182437)scale(0.1 -0.1)">
       <use xlink:href="#DejaVuSans-50"/>
      </g>
     </g>
    </g>
    <g id="xtick_3">
     <g id="line2d_5">
      <path clip-path="url(#p0d2d640af8)" d="M 218.123636 307.584 
L 218.123636 41.472 
" style="fill:none;stroke:#b0b0b0;stroke-linecap:square;stroke-width:0.8;"/>
     </g>
     <g id="line2d_6">
      <g>
       <use style="stroke:#000000;stroke-width:0.8;" x="218.123636" xlink:href="#m4f54092773" y="307.584"/>
      </g>
     </g>
     <g id="text_3">
      <!-- 4 -->
      <defs>
       <path d="M 37.796875 64.3125 
L 12.890625 25.390625 
L 37.796875 25.390625 
z
M 35.203125 72.90625 
L 47.609375 72.90625 
L 47.609375 25.390625 
L 58.015625 25.390625 
L 58.015625 17.1875 
L 47.609375 17.1875 
L 47.609375 0 
L 37.796875 0 
L 37.796875 17.1875 
L 4.890625 17.1875 
L 4.890625 26.703125 
z
" id="DejaVuSans-52"/>
      </defs>
      <g transform="translate(214.942386 322.182437)scale(0.1 -0.1)">
       <use xlink:href="#DejaVuSans-52"/>
      </g>
     </g>
    </g>
    <g id="xtick_4">
     <g id="line2d_7">
      <path clip-path="url(#p0d2d640af8)" d="M 290.269091 307.584 
L 290.269091 41.472 
" style="fill:none;stroke:#b0b0b0;stroke-linecap:square;stroke-width:0.8;"/>
     </g>
     <g id="line2d_8">
      <g>
       <use style="stroke:#000000;stroke-width:0.8;" x="290.269091" xlink:href="#m4f54092773" y="307.584"/>
      </g>
     </g>
     <g id="text_4">
      <!-- 6 -->
      <defs>
       <path d="M 33.015625 40.375 
Q 26.375 40.375 22.484375 35.828125 
Q 18.609375 31.296875 18.609375 23.390625 
Q 18.609375 15.53125 22.484375 10.953125 
Q 26.375 6.390625 33.015625 6.390625 
Q 39.65625 6.390625 43.53125 10.953125 
Q 47.40625 15.53125 47.40625 23.390625 
Q 47.40625 31.296875 43.53125 35.828125 
Q 39.65625 40.375 33.015625 40.375 
z
M 52.59375 71.296875 
L 52.59375 62.3125 
Q 48.875 64.0625 45.09375 64.984375 
Q 41.3125 65.921875 37.59375 65.921875 
Q 27.828125 65.921875 22.671875 59.328125 
Q 17.53125 52.734375 16.796875 39.40625 
Q 19.671875 43.65625 24.015625 45.921875 
Q 28.375 48.1875 33.59375 48.1875 
Q 44.578125 48.1875 50.953125 41.515625 
Q 57.328125 34.859375 57.328125 23.390625 
Q 57.328125 12.15625 50.6875 5.359375 
Q 44.046875 -1.421875 33.015625 -1.421875 
Q 20.359375 -1.421875 13.671875 8.265625 
Q 6.984375 17.96875 6.984375 36.375 
Q 6.984375 53.65625 15.1875 63.9375 
Q 23.390625 74.21875 37.203125 74.21875 
Q 40.921875 74.21875 44.703125 73.484375 
Q 48.484375 72.75 52.59375 71.296875 
z
" id="DejaVuSans-54"/>
      </defs>
      <g transform="translate(287.087841 322.182437)scale(0.1 -0.1)">
       <use xlink:href="#DejaVuSans-54"/>
      </g>
     </g>
    </g>
    <g id="xtick_5">
     <g id="line2d_9">
      <path clip-path="url(#p0d2d640af8)" d="M 362.414545 307.584 
L 362.414545 41.472 
" style="fill:none;stroke:#b0b0b0;stroke-linecap:square;stroke-width:0.8;"/>
     </g>
     <g id="line2d_10">
      <g>
       <use style="stroke:#000000;stroke-width:0.8;" x="362.414545" xlink:href="#m4f54092773" y="307.584"/>
      </g>
     </g>
     <g id="text_5">
      <!-- 8 -->
      <defs>
       <path d="M 31.78125 34.625 
Q 24.75 34.625 20.71875 30.859375 
Q 16.703125 27.09375 16.703125 20.515625 
Q 16.703125 13.921875 20.71875 10.15625 
Q 24.75 6.390625 31.78125 6.390625 
Q 38.8125 6.390625 42.859375 10.171875 
Q 46.921875 13.96875 46.921875 20.515625 
Q 46.921875 27.09375 42.890625 30.859375 
Q 38.875 34.625 31.78125 34.625 
z
M 21.921875 38.8125 
Q 15.578125 40.375 12.03125 44.71875 
Q 8.5 49.078125 8.5 55.328125 
Q 8.5 64.0625 14.71875 69.140625 
Q 20.953125 74.21875 31.78125 74.21875 
Q 42.671875 74.21875 48.875 69.140625 
Q 55.078125 64.0625 55.078125 55.328125 
Q 55.078125 49.078125 51.53125 44.71875 
Q 48 40.375 41.703125 38.8125 
Q 48.828125 37.15625 52.796875 32.3125 
Q 56.78125 27.484375 56.78125 20.515625 
Q 56.78125 9.90625 50.3125 4.234375 
Q 43.84375 -1.421875 31.78125 -1.421875 
Q 19.734375 -1.421875 13.25 4.234375 
Q 6.78125 9.90625 6.78125 20.515625 
Q 6.78125 27.484375 10.78125 32.3125 
Q 14.796875 37.15625 21.921875 38.8125 
z
M 18.3125 54.390625 
Q 18.3125 48.734375 21.84375 45.5625 
Q 25.390625 42.390625 31.78125 42.390625 
Q 38.140625 42.390625 41.71875 45.5625 
Q 45.3125 48.734375 45.3125 54.390625 
Q 45.3125 60.0625 41.71875 63.234375 
Q 38.140625 66.40625 31.78125 66.40625 
Q 25.390625 66.40625 21.84375 63.234375 
Q 18.3125 60.0625 18.3125 54.390625 
z
" id="DejaVuSans-56"/>
      </defs>
      <g transform="translate(359.233295 322.182437)scale(0.1 -0.1)">
       <use xlink:href="#DejaVuSans-56"/>
      </g>
     </g>
    </g>
    <g id="text_6">
     <!-- Epoch Num -->
     <defs>
      <path d="M 9.8125 72.90625 
L 55.90625 72.90625 
L 55.90625 64.59375 
L 19.671875 64.59375 
L 19.671875 43.015625 
L 54.390625 43.015625 
L 54.390625 34.71875 
L 19.671875 34.71875 
L 19.671875 8.296875 
L 56.78125 8.296875 
L 56.78125 0 
L 9.8125 0 
z
" id="DejaVuSans-69"/>
      <path d="M 18.109375 8.203125 
L 18.109375 -20.796875 
L 9.078125 -20.796875 
L 9.078125 54.6875 
L 18.109375 54.6875 
L 18.109375 46.390625 
Q 20.953125 51.265625 25.265625 53.625 
Q 29.59375 56 35.59375 56 
Q 45.5625 56 51.78125 48.09375 
Q 58.015625 40.1875 58.015625 27.296875 
Q 58.015625 14.40625 51.78125 6.484375 
Q 45.5625 -1.421875 35.59375 -1.421875 
Q 29.59375 -1.421875 25.265625 0.953125 
Q 20.953125 3.328125 18.109375 8.203125 
z
M 48.6875 27.296875 
Q 48.6875 37.203125 44.609375 42.84375 
Q 40.53125 48.484375 33.40625 48.484375 
Q 26.265625 48.484375 22.1875 42.84375 
Q 18.109375 37.203125 18.109375 27.296875 
Q 18.109375 17.390625 22.1875 11.75 
Q 26.265625 6.109375 33.40625 6.109375 
Q 40.53125 6.109375 44.609375 11.75 
Q 48.6875 17.390625 48.6875 27.296875 
z
" id="DejaVuSans-112"/>
      <path d="M 30.609375 48.390625 
Q 23.390625 48.390625 19.1875 42.75 
Q 14.984375 37.109375 14.984375 27.296875 
Q 14.984375 17.484375 19.15625 11.84375 
Q 23.34375 6.203125 30.609375 6.203125 
Q 37.796875 6.203125 41.984375 11.859375 
Q 46.1875 17.53125 46.1875 27.296875 
Q 46.1875 37.015625 41.984375 42.703125 
Q 37.796875 48.390625 30.609375 48.390625 
z
M 30.609375 56 
Q 42.328125 56 49.015625 48.375 
Q 55.71875 40.765625 55.71875 27.296875 
Q 55.71875 13.875 49.015625 6.21875 
Q 42.328125 -1.421875 30.609375 -1.421875 
Q 18.84375 -1.421875 12.171875 6.21875 
Q 5.515625 13.875 5.515625 27.296875 
Q 5.515625 40.765625 12.171875 48.375 
Q 18.84375 56 30.609375 56 
z
" id="DejaVuSans-111"/>
      <path d="M 48.78125 52.59375 
L 48.78125 44.1875 
Q 44.96875 46.296875 41.140625 47.34375 
Q 37.3125 48.390625 33.40625 48.390625 
Q 24.65625 48.390625 19.8125 42.84375 
Q 14.984375 37.3125 14.984375 27.296875 
Q 14.984375 17.28125 19.8125 11.734375 
Q 24.65625 6.203125 33.40625 6.203125 
Q 37.3125 6.203125 41.140625 7.25 
Q 44.96875 8.296875 48.78125 10.40625 
L 48.78125 2.09375 
Q 45.015625 0.34375 40.984375 -0.53125 
Q 36.96875 -1.421875 32.421875 -1.421875 
Q 20.0625 -1.421875 12.78125 6.34375 
Q 5.515625 14.109375 5.515625 27.296875 
Q 5.515625 40.671875 12.859375 48.328125 
Q 20.21875 56 33.015625 56 
Q 37.15625 56 41.109375 55.140625 
Q 45.0625 54.296875 48.78125 52.59375 
z
" id="DejaVuSans-99"/>
      <path d="M 54.890625 33.015625 
L 54.890625 0 
L 45.90625 0 
L 45.90625 32.71875 
Q 45.90625 40.484375 42.875 44.328125 
Q 39.84375 48.1875 33.796875 48.1875 
Q 26.515625 48.1875 22.3125 43.546875 
Q 18.109375 38.921875 18.109375 30.90625 
L 18.109375 0 
L 9.078125 0 
L 9.078125 75.984375 
L 18.109375 75.984375 
L 18.109375 46.1875 
Q 21.34375 51.125 25.703125 53.5625 
Q 30.078125 56 35.796875 56 
Q 45.21875 56 50.046875 50.171875 
Q 54.890625 44.34375 54.890625 33.015625 
z
" id="DejaVuSans-104"/>
      <path id="DejaVuSans-32"/>
      <path d="M 9.8125 72.90625 
L 23.09375 72.90625 
L 55.421875 11.921875 
L 55.421875 72.90625 
L 64.984375 72.90625 
L 64.984375 0 
L 51.703125 0 
L 19.390625 60.984375 
L 19.390625 0 
L 9.8125 0 
z
" id="DejaVuSans-78"/>
      <path d="M 8.5 21.578125 
L 8.5 54.6875 
L 17.484375 54.6875 
L 17.484375 21.921875 
Q 17.484375 14.15625 20.5 10.265625 
Q 23.53125 6.390625 29.59375 6.390625 
Q 36.859375 6.390625 41.078125 11.03125 
Q 45.3125 15.671875 45.3125 23.6875 
L 45.3125 54.6875 
L 54.296875 54.6875 
L 54.296875 0 
L 45.3125 0 
L 45.3125 8.40625 
Q 42.046875 3.421875 37.71875 1 
Q 33.40625 -1.421875 27.6875 -1.421875 
Q 18.265625 -1.421875 13.375 4.4375 
Q 8.5 10.296875 8.5 21.578125 
z
M 31.109375 56 
z
" id="DejaVuSans-117"/>
      <path d="M 52 44.1875 
Q 55.375 50.25 60.0625 53.125 
Q 64.75 56 71.09375 56 
Q 79.640625 56 84.28125 50.015625 
Q 88.921875 44.046875 88.921875 33.015625 
L 88.921875 0 
L 79.890625 0 
L 79.890625 32.71875 
Q 79.890625 40.578125 77.09375 44.375 
Q 74.3125 48.1875 68.609375 48.1875 
Q 61.625 48.1875 57.5625 43.546875 
Q 53.515625 38.921875 53.515625 30.90625 
L 53.515625 0 
L 44.484375 0 
L 44.484375 32.71875 
Q 44.484375 40.625 41.703125 44.40625 
Q 38.921875 48.1875 33.109375 48.1875 
Q 26.21875 48.1875 22.15625 43.53125 
Q 18.109375 38.875 18.109375 30.90625 
L 18.109375 0 
L 9.078125 0 
L 9.078125 54.6875 
L 18.109375 54.6875 
L 18.109375 46.1875 
Q 21.1875 51.21875 25.484375 53.609375 
Q 29.78125 56 35.6875 56 
Q 41.65625 56 45.828125 52.96875 
Q 50 49.953125 52 44.1875 
z
" id="DejaVuSans-109"/>
     </defs>
     <g transform="translate(207.480312 335.860562)scale(0.1 -0.1)">
      <use xlink:href="#DejaVuSans-69"/>
      <use x="63.183594" xlink:href="#DejaVuSans-112"/>
      <use x="126.660156" xlink:href="#DejaVuSans-111"/>
      <use x="187.841797" xlink:href="#DejaVuSans-99"/>
      <use x="242.822266" xlink:href="#DejaVuSans-104"/>
      <use x="306.201172" xlink:href="#DejaVuSans-32"/>
      <use x="337.988281" xlink:href="#DejaVuSans-78"/>
      <use x="412.792969" xlink:href="#DejaVuSans-117"/>
      <use x="476.171875" xlink:href="#DejaVuSans-109"/>
     </g>
    </g>
   </g>
   <g id="matplotlib.axis_2">
    <g id="ytick_1">
     <g id="line2d_11">
      <path clip-path="url(#p0d2d640af8)" d="M 57.6 299.740334 
L 414.72 299.740334 
" style="fill:none;stroke:#b0b0b0;stroke-linecap:square;stroke-width:0.8;"/>
     </g>
     <g id="line2d_12">
      <defs>
       <path d="M 0 0 
L -3.5 0 
" id="mb5057af325" style="stroke:#000000;stroke-width:0.8;"/>
      </defs>
      <g>
       <use style="stroke:#000000;stroke-width:0.8;" x="57.6" xlink:href="#mb5057af325" y="299.740334"/>
      </g>
     </g>
     <g id="text_7">
      <!-- 0.0 -->
      <defs>
       <path d="M 10.6875 12.40625 
L 21 12.40625 
L 21 0 
L 10.6875 0 
z
" id="DejaVuSans-46"/>
      </defs>
      <g transform="translate(34.696875 303.539553)scale(0.1 -0.1)">
       <use xlink:href="#DejaVuSans-48"/>
       <use x="63.623047" xlink:href="#DejaVuSans-46"/>
       <use x="95.410156" xlink:href="#DejaVuSans-48"/>
      </g>
     </g>
    </g>
    <g id="ytick_2">
     <g id="line2d_13">
      <path clip-path="url(#p0d2d640af8)" d="M 57.6 269.796439 
L 414.72 269.796439 
" style="fill:none;stroke:#b0b0b0;stroke-linecap:square;stroke-width:0.8;"/>
     </g>
     <g id="line2d_14">
      <g>
       <use style="stroke:#000000;stroke-width:0.8;" x="57.6" xlink:href="#mb5057af325" y="269.796439"/>
      </g>
     </g>
     <g id="text_8">
      <!-- 0.2 -->
      <g transform="translate(34.696875 273.595658)scale(0.1 -0.1)">
       <use xlink:href="#DejaVuSans-48"/>
       <use x="63.623047" xlink:href="#DejaVuSans-46"/>
       <use x="95.410156" xlink:href="#DejaVuSans-50"/>
      </g>
     </g>
    </g>
    <g id="ytick_3">
     <g id="line2d_15">
      <path clip-path="url(#p0d2d640af8)" d="M 57.6 239.852544 
L 414.72 239.852544 
" style="fill:none;stroke:#b0b0b0;stroke-linecap:square;stroke-width:0.8;"/>
     </g>
     <g id="line2d_16">
      <g>
       <use style="stroke:#000000;stroke-width:0.8;" x="57.6" xlink:href="#mb5057af325" y="239.852544"/>
      </g>
     </g>
     <g id="text_9">
      <!-- 0.4 -->
      <g transform="translate(34.696875 243.651763)scale(0.1 -0.1)">
       <use xlink:href="#DejaVuSans-48"/>
       <use x="63.623047" xlink:href="#DejaVuSans-46"/>
       <use x="95.410156" xlink:href="#DejaVuSans-52"/>
      </g>
     </g>
    </g>
    <g id="ytick_4">
     <g id="line2d_17">
      <path clip-path="url(#p0d2d640af8)" d="M 57.6 209.908649 
L 414.72 209.908649 
" style="fill:none;stroke:#b0b0b0;stroke-linecap:square;stroke-width:0.8;"/>
     </g>
     <g id="line2d_18">
      <g>
       <use style="stroke:#000000;stroke-width:0.8;" x="57.6" xlink:href="#mb5057af325" y="209.908649"/>
      </g>
     </g>
     <g id="text_10">
      <!-- 0.6 -->
      <g transform="translate(34.696875 213.707868)scale(0.1 -0.1)">
       <use xlink:href="#DejaVuSans-48"/>
       <use x="63.623047" xlink:href="#DejaVuSans-46"/>
       <use x="95.410156" xlink:href="#DejaVuSans-54"/>
      </g>
     </g>
    </g>
    <g id="ytick_5">
     <g id="line2d_19">
      <path clip-path="url(#p0d2d640af8)" d="M 57.6 179.964754 
L 414.72 179.964754 
" style="fill:none;stroke:#b0b0b0;stroke-linecap:square;stroke-width:0.8;"/>
     </g>
     <g id="line2d_20">
      <g>
       <use style="stroke:#000000;stroke-width:0.8;" x="57.6" xlink:href="#mb5057af325" y="179.964754"/>
      </g>
     </g>
     <g id="text_11">
      <!-- 0.8 -->
      <g transform="translate(34.696875 183.763973)scale(0.1 -0.1)">
       <use xlink:href="#DejaVuSans-48"/>
       <use x="63.623047" xlink:href="#DejaVuSans-46"/>
       <use x="95.410156" xlink:href="#DejaVuSans-56"/>
      </g>
     </g>
    </g>
    <g id="ytick_6">
     <g id="line2d_21">
      <path clip-path="url(#p0d2d640af8)" d="M 57.6 150.020859 
L 414.72 150.020859 
" style="fill:none;stroke:#b0b0b0;stroke-linecap:square;stroke-width:0.8;"/>
     </g>
     <g id="line2d_22">
      <g>
       <use style="stroke:#000000;stroke-width:0.8;" x="57.6" xlink:href="#mb5057af325" y="150.020859"/>
      </g>
     </g>
     <g id="text_12">
      <!-- 1.0 -->
      <defs>
       <path d="M 12.40625 8.296875 
L 28.515625 8.296875 
L 28.515625 63.921875 
L 10.984375 60.40625 
L 10.984375 69.390625 
L 28.421875 72.90625 
L 38.28125 72.90625 
L 38.28125 8.296875 
L 54.390625 8.296875 
L 54.390625 0 
L 12.40625 0 
z
" id="DejaVuSans-49"/>
      </defs>
      <g transform="translate(34.696875 153.820078)scale(0.1 -0.1)">
       <use xlink:href="#DejaVuSans-49"/>
       <use x="63.623047" xlink:href="#DejaVuSans-46"/>
       <use x="95.410156" xlink:href="#DejaVuSans-48"/>
      </g>
     </g>
    </g>
    <g id="ytick_7">
     <g id="line2d_23">
      <path clip-path="url(#p0d2d640af8)" d="M 57.6 120.076964 
L 414.72 120.076964 
" style="fill:none;stroke:#b0b0b0;stroke-linecap:square;stroke-width:0.8;"/>
     </g>
     <g id="line2d_24">
      <g>
       <use style="stroke:#000000;stroke-width:0.8;" x="57.6" xlink:href="#mb5057af325" y="120.076964"/>
      </g>
     </g>
     <g id="text_13">
      <!-- 1.2 -->
      <g transform="translate(34.696875 123.876183)scale(0.1 -0.1)">
       <use xlink:href="#DejaVuSans-49"/>
       <use x="63.623047" xlink:href="#DejaVuSans-46"/>
       <use x="95.410156" xlink:href="#DejaVuSans-50"/>
      </g>
     </g>
    </g>
    <g id="ytick_8">
     <g id="line2d_25">
      <path clip-path="url(#p0d2d640af8)" d="M 57.6 90.133069 
L 414.72 90.133069 
" style="fill:none;stroke:#b0b0b0;stroke-linecap:square;stroke-width:0.8;"/>
     </g>
     <g id="line2d_26">
      <g>
       <use style="stroke:#000000;stroke-width:0.8;" x="57.6" xlink:href="#mb5057af325" y="90.133069"/>
      </g>
     </g>
     <g id="text_14">
      <!-- 1.4 -->
      <g transform="translate(34.696875 93.932288)scale(0.1 -0.1)">
       <use xlink:href="#DejaVuSans-49"/>
       <use x="63.623047" xlink:href="#DejaVuSans-46"/>
       <use x="95.410156" xlink:href="#DejaVuSans-52"/>
      </g>
     </g>
    </g>
    <g id="ytick_9">
     <g id="line2d_27">
      <path clip-path="url(#p0d2d640af8)" d="M 57.6 60.189174 
L 414.72 60.189174 
" style="fill:none;stroke:#b0b0b0;stroke-linecap:square;stroke-width:0.8;"/>
     </g>
     <g id="line2d_28">
      <g>
       <use style="stroke:#000000;stroke-width:0.8;" x="57.6" xlink:href="#mb5057af325" y="60.189174"/>
      </g>
     </g>
     <g id="text_15">
      <!-- 1.6 -->
      <g transform="translate(34.696875 63.988393)scale(0.1 -0.1)">
       <use xlink:href="#DejaVuSans-49"/>
       <use x="63.623047" xlink:href="#DejaVuSans-46"/>
       <use x="95.410156" xlink:href="#DejaVuSans-54"/>
      </g>
     </g>
    </g>
    <g id="text_16">
     <!-- Loss -->
     <defs>
      <path d="M 9.8125 72.90625 
L 19.671875 72.90625 
L 19.671875 8.296875 
L 55.171875 8.296875 
L 55.171875 0 
L 9.8125 0 
z
" id="DejaVuSans-76"/>
      <path d="M 44.28125 53.078125 
L 44.28125 44.578125 
Q 40.484375 46.53125 36.375 47.5 
Q 32.28125 48.484375 27.875 48.484375 
Q 21.1875 48.484375 17.84375 46.4375 
Q 14.5 44.390625 14.5 40.28125 
Q 14.5 37.15625 16.890625 35.375 
Q 19.28125 33.59375 26.515625 31.984375 
L 29.59375 31.296875 
Q 39.15625 29.25 43.1875 25.515625 
Q 47.21875 21.78125 47.21875 15.09375 
Q 47.21875 7.46875 41.1875 3.015625 
Q 35.15625 -1.421875 24.609375 -1.421875 
Q 20.21875 -1.421875 15.453125 -0.5625 
Q 10.6875 0.296875 5.421875 2 
L 5.421875 11.28125 
Q 10.40625 8.6875 15.234375 7.390625 
Q 20.0625 6.109375 24.8125 6.109375 
Q 31.15625 6.109375 34.5625 8.28125 
Q 37.984375 10.453125 37.984375 14.40625 
Q 37.984375 18.0625 35.515625 20.015625 
Q 33.0625 21.96875 24.703125 23.78125 
L 21.578125 24.515625 
Q 13.234375 26.265625 9.515625 29.90625 
Q 5.8125 33.546875 5.8125 39.890625 
Q 5.8125 47.609375 11.28125 51.796875 
Q 16.75 56 26.8125 56 
Q 31.78125 56 36.171875 55.265625 
Q 40.578125 54.546875 44.28125 53.078125 
z
" id="DejaVuSans-115"/>
     </defs>
     <g transform="translate(28.617188 185.581906)rotate(-90)scale(0.1 -0.1)">
      <use xlink:href="#DejaVuSans-76"/>
      <use x="55.697266" xlink:href="#DejaVuSans-111"/>
      <use x="116.878906" xlink:href="#DejaVuSans-115"/>
      <use x="168.978516" xlink:href="#DejaVuSans-115"/>
     </g>
    </g>
   </g>
   <g id="line2d_29">
    <path clip-path="url(#p0d2d640af8)" d="M 73.832727 240.911828 
L 109.905455 274.918359 
L 145.978182 281.488661 
L 182.050909 285.656725 
L 218.123636 288.367614 
L 254.196364 290.522893 
L 290.269091 292.192404 
L 326.341818 293.274584 
L 362.414545 294.509011 
L 398.487273 295.488 
" style="fill:none;stroke:#1f77b4;stroke-linecap:square;stroke-width:1.5;"/>
    <defs>
     <path d="M -3 3 
L 3 -3 
M -3 -3 
L 3 3 
" id="m2f3622a54a" style="stroke:#1f77b4;"/>
    </defs>
    <g clip-path="url(#p0d2d640af8)">
     <use style="fill:#1f77b4;stroke:#1f77b4;" x="73.832727" xlink:href="#m2f3622a54a" y="240.911828"/>
     <use style="fill:#1f77b4;stroke:#1f77b4;" x="109.905455" xlink:href="#m2f3622a54a" y="274.918359"/>
     <use style="fill:#1f77b4;stroke:#1f77b4;" x="145.978182" xlink:href="#m2f3622a54a" y="281.488661"/>
     <use style="fill:#1f77b4;stroke:#1f77b4;" x="182.050909" xlink:href="#m2f3622a54a" y="285.656725"/>
     <use style="fill:#1f77b4;stroke:#1f77b4;" x="218.123636" xlink:href="#m2f3622a54a" y="288.367614"/>
     <use style="fill:#1f77b4;stroke:#1f77b4;" x="254.196364" xlink:href="#m2f3622a54a" y="290.522893"/>
     <use style="fill:#1f77b4;stroke:#1f77b4;" x="290.269091" xlink:href="#m2f3622a54a" y="292.192404"/>
     <use style="fill:#1f77b4;stroke:#1f77b4;" x="326.341818" xlink:href="#m2f3622a54a" y="293.274584"/>
     <use style="fill:#1f77b4;stroke:#1f77b4;" x="362.414545" xlink:href="#m2f3622a54a" y="294.509011"/>
     <use style="fill:#1f77b4;stroke:#1f77b4;" x="398.487273" xlink:href="#m2f3622a54a" y="295.488"/>
    </g>
   </g>
   <g id="line2d_30">
    <path clip-path="url(#p0d2d640af8)" d="M 73.832727 270.554893 
L 109.905455 277.713054 
L 145.978182 281.030461 
L 182.050909 283.924154 
L 218.123636 284.941615 
L 254.196364 286.898963 
L 290.269091 287.744094 
L 326.341818 285.39429 
L 362.414545 287.822833 
L 398.487273 287.701471 
" style="fill:none;stroke:#ff7f0e;stroke-linecap:square;stroke-width:1.5;"/>
    <defs>
     <path d="M -3 3 
L 3 -3 
M -3 -3 
L 3 3 
" id="mf98a63ec5f" style="stroke:#ff7f0e;"/>
    </defs>
    <g clip-path="url(#p0d2d640af8)">
     <use style="fill:#ff7f0e;stroke:#ff7f0e;" x="73.832727" xlink:href="#mf98a63ec5f" y="270.554893"/>
     <use style="fill:#ff7f0e;stroke:#ff7f0e;" x="109.905455" xlink:href="#mf98a63ec5f" y="277.713054"/>
     <use style="fill:#ff7f0e;stroke:#ff7f0e;" x="145.978182" xlink:href="#mf98a63ec5f" y="281.030461"/>
     <use style="fill:#ff7f0e;stroke:#ff7f0e;" x="182.050909" xlink:href="#mf98a63ec5f" y="283.924154"/>
     <use style="fill:#ff7f0e;stroke:#ff7f0e;" x="218.123636" xlink:href="#mf98a63ec5f" y="284.941615"/>
     <use style="fill:#ff7f0e;stroke:#ff7f0e;" x="254.196364" xlink:href="#mf98a63ec5f" y="286.898963"/>
     <use style="fill:#ff7f0e;stroke:#ff7f0e;" x="290.269091" xlink:href="#mf98a63ec5f" y="287.744094"/>
     <use style="fill:#ff7f0e;stroke:#ff7f0e;" x="326.341818" xlink:href="#mf98a63ec5f" y="285.39429"/>
     <use style="fill:#ff7f0e;stroke:#ff7f0e;" x="362.414545" xlink:href="#mf98a63ec5f" y="287.822833"/>
     <use style="fill:#ff7f0e;stroke:#ff7f0e;" x="398.487273" xlink:href="#mf98a63ec5f" y="287.701471"/>
    </g>
   </g>
   <g id="line2d_31">
    <path clip-path="url(#p0d2d640af8)" d="M 73.832727 167.562204 
L 109.905455 230.549506 
L 145.978182 241.115866 
L 182.050909 246.421292 
L 218.123636 249.635104 
L 254.196364 251.910025 
L 290.269091 253.70657 
L 326.341818 255.061228 
L 362.414545 256.256809 
L 398.487273 257.366581 
" style="fill:none;stroke:#2ca02c;stroke-linecap:square;stroke-width:1.5;"/>
    <defs>
     <path d="M -3 3 
L 3 -3 
M -3 -3 
L 3 3 
" id="m766ccc989a" style="stroke:#2ca02c;"/>
    </defs>
    <g clip-path="url(#p0d2d640af8)">
     <use style="fill:#2ca02c;stroke:#2ca02c;" x="73.832727" xlink:href="#m766ccc989a" y="167.562204"/>
     <use style="fill:#2ca02c;stroke:#2ca02c;" x="109.905455" xlink:href="#m766ccc989a" y="230.549506"/>
     <use style="fill:#2ca02c;stroke:#2ca02c;" x="145.978182" xlink:href="#m766ccc989a" y="241.115866"/>
     <use style="fill:#2ca02c;stroke:#2ca02c;" x="182.050909" xlink:href="#m766ccc989a" y="246.421292"/>
     <use style="fill:#2ca02c;stroke:#2ca02c;" x="218.123636" xlink:href="#m766ccc989a" y="249.635104"/>
     <use style="fill:#2ca02c;stroke:#2ca02c;" x="254.196364" xlink:href="#m766ccc989a" y="251.910025"/>
     <use style="fill:#2ca02c;stroke:#2ca02c;" x="290.269091" xlink:href="#m766ccc989a" y="253.70657"/>
     <use style="fill:#2ca02c;stroke:#2ca02c;" x="326.341818" xlink:href="#m766ccc989a" y="255.061228"/>
     <use style="fill:#2ca02c;stroke:#2ca02c;" x="362.414545" xlink:href="#m766ccc989a" y="256.256809"/>
     <use style="fill:#2ca02c;stroke:#2ca02c;" x="398.487273" xlink:href="#m766ccc989a" y="257.366581"/>
    </g>
   </g>
   <g id="line2d_32">
    <path clip-path="url(#p0d2d640af8)" d="M 73.832727 223.126242 
L 109.905455 239.571902 
L 145.978182 246.201275 
L 182.050909 250.130698 
L 218.123636 252.6544 
L 254.196364 254.287546 
L 290.269091 255.898606 
L 326.341818 257.002179 
L 362.414545 258.022464 
L 398.487273 258.890933 
" style="fill:none;stroke:#d62728;stroke-linecap:square;stroke-width:1.5;"/>
    <defs>
     <path d="M -3 3 
L 3 -3 
M -3 -3 
L 3 3 
" id="m0bad5dd74a" style="stroke:#d62728;"/>
    </defs>
    <g clip-path="url(#p0d2d640af8)">
     <use style="fill:#d62728;stroke:#d62728;" x="73.832727" xlink:href="#m0bad5dd74a" y="223.126242"/>
     <use style="fill:#d62728;stroke:#d62728;" x="109.905455" xlink:href="#m0bad5dd74a" y="239.571902"/>
     <use style="fill:#d62728;stroke:#d62728;" x="145.978182" xlink:href="#m0bad5dd74a" y="246.201275"/>
     <use style="fill:#d62728;stroke:#d62728;" x="182.050909" xlink:href="#m0bad5dd74a" y="250.130698"/>
     <use style="fill:#d62728;stroke:#d62728;" x="218.123636" xlink:href="#m0bad5dd74a" y="252.6544"/>
     <use style="fill:#d62728;stroke:#d62728;" x="254.196364" xlink:href="#m0bad5dd74a" y="254.287546"/>
     <use style="fill:#d62728;stroke:#d62728;" x="290.269091" xlink:href="#m0bad5dd74a" y="255.898606"/>
     <use style="fill:#d62728;stroke:#d62728;" x="326.341818" xlink:href="#m0bad5dd74a" y="257.002179"/>
     <use style="fill:#d62728;stroke:#d62728;" x="362.414545" xlink:href="#m0bad5dd74a" y="258.022464"/>
     <use style="fill:#d62728;stroke:#d62728;" x="398.487273" xlink:href="#m0bad5dd74a" y="258.890933"/>
    </g>
   </g>
   <g id="line2d_33">
    <path clip-path="url(#p0d2d640af8)" d="M 73.832727 212.110248 
L 109.905455 261.696948 
L 145.978182 270.215658 
L 182.050909 275.634761 
L 218.123636 279.366687 
L 254.196364 282.328076 
L 290.269091 284.52836 
L 326.341818 286.209832 
L 362.414545 287.835466 
L 398.487273 289.06049 
" style="fill:none;stroke:#9467bd;stroke-linecap:square;stroke-width:1.5;"/>
    <defs>
     <path d="M -3 3 
L 3 -3 
M -3 -3 
L 3 3 
" id="m4e64bb5bfc" style="stroke:#9467bd;"/>
    </defs>
    <g clip-path="url(#p0d2d640af8)">
     <use style="fill:#9467bd;stroke:#9467bd;" x="73.832727" xlink:href="#m4e64bb5bfc" y="212.110248"/>
     <use style="fill:#9467bd;stroke:#9467bd;" x="109.905455" xlink:href="#m4e64bb5bfc" y="261.696948"/>
     <use style="fill:#9467bd;stroke:#9467bd;" x="145.978182" xlink:href="#m4e64bb5bfc" y="270.215658"/>
     <use style="fill:#9467bd;stroke:#9467bd;" x="182.050909" xlink:href="#m4e64bb5bfc" y="275.634761"/>
     <use style="fill:#9467bd;stroke:#9467bd;" x="218.123636" xlink:href="#m4e64bb5bfc" y="279.366687"/>
     <use style="fill:#9467bd;stroke:#9467bd;" x="254.196364" xlink:href="#m4e64bb5bfc" y="282.328076"/>
     <use style="fill:#9467bd;stroke:#9467bd;" x="290.269091" xlink:href="#m4e64bb5bfc" y="284.52836"/>
     <use style="fill:#9467bd;stroke:#9467bd;" x="326.341818" xlink:href="#m4e64bb5bfc" y="286.209832"/>
     <use style="fill:#9467bd;stroke:#9467bd;" x="362.414545" xlink:href="#m4e64bb5bfc" y="287.835466"/>
     <use style="fill:#9467bd;stroke:#9467bd;" x="398.487273" xlink:href="#m4e64bb5bfc" y="289.06049"/>
    </g>
   </g>
   <g id="line2d_34">
    <path clip-path="url(#p0d2d640af8)" d="M 73.832727 257.186389 
L 109.905455 268.883812 
L 145.978182 273.92339 
L 182.050909 276.944284 
L 218.123636 279.958943 
L 254.196364 281.683052 
L 290.269091 282.432138 
L 326.341818 282.551778 
L 362.414545 284.802151 
L 398.487273 285.301054 
" style="fill:none;stroke:#8c564b;stroke-linecap:square;stroke-width:1.5;"/>
    <defs>
     <path d="M -3 3 
L 3 -3 
M -3 -3 
L 3 3 
" id="m880a73b542" style="stroke:#8c564b;"/>
    </defs>
    <g clip-path="url(#p0d2d640af8)">
     <use style="fill:#8c564b;stroke:#8c564b;" x="73.832727" xlink:href="#m880a73b542" y="257.186389"/>
     <use style="fill:#8c564b;stroke:#8c564b;" x="109.905455" xlink:href="#m880a73b542" y="268.883812"/>
     <use style="fill:#8c564b;stroke:#8c564b;" x="145.978182" xlink:href="#m880a73b542" y="273.92339"/>
     <use style="fill:#8c564b;stroke:#8c564b;" x="182.050909" xlink:href="#m880a73b542" y="276.944284"/>
     <use style="fill:#8c564b;stroke:#8c564b;" x="218.123636" xlink:href="#m880a73b542" y="279.958943"/>
     <use style="fill:#8c564b;stroke:#8c564b;" x="254.196364" xlink:href="#m880a73b542" y="281.683052"/>
     <use style="fill:#8c564b;stroke:#8c564b;" x="290.269091" xlink:href="#m880a73b542" y="282.432138"/>
     <use style="fill:#8c564b;stroke:#8c564b;" x="326.341818" xlink:href="#m880a73b542" y="282.551778"/>
     <use style="fill:#8c564b;stroke:#8c564b;" x="362.414545" xlink:href="#m880a73b542" y="284.802151"/>
     <use style="fill:#8c564b;stroke:#8c564b;" x="398.487273" xlink:href="#m880a73b542" y="285.301054"/>
    </g>
   </g>
   <g id="line2d_35">
    <path clip-path="url(#p0d2d640af8)" d="M 73.832727 194.078876 
L 109.905455 271.551274 
L 145.978182 276.89381 
L 182.050909 279.884049 
L 218.123636 282.542304 
L 254.196364 283.263485 
L 290.269091 284.500283 
L 326.341818 285.844047 
L 362.414545 286.343478 
L 398.487273 286.262119 
" style="fill:none;stroke:#e377c2;stroke-linecap:square;stroke-width:1.5;"/>
    <defs>
     <path d="M -3 3 
L 3 -3 
M -3 -3 
L 3 3 
" id="m675659dc18" style="stroke:#e377c2;"/>
    </defs>
    <g clip-path="url(#p0d2d640af8)">
     <use style="fill:#e377c2;stroke:#e377c2;" x="73.832727" xlink:href="#m675659dc18" y="194.078876"/>
     <use style="fill:#e377c2;stroke:#e377c2;" x="109.905455" xlink:href="#m675659dc18" y="271.551274"/>
     <use style="fill:#e377c2;stroke:#e377c2;" x="145.978182" xlink:href="#m675659dc18" y="276.89381"/>
     <use style="fill:#e377c2;stroke:#e377c2;" x="182.050909" xlink:href="#m675659dc18" y="279.884049"/>
     <use style="fill:#e377c2;stroke:#e377c2;" x="218.123636" xlink:href="#m675659dc18" y="282.542304"/>
     <use style="fill:#e377c2;stroke:#e377c2;" x="254.196364" xlink:href="#m675659dc18" y="283.263485"/>
     <use style="fill:#e377c2;stroke:#e377c2;" x="290.269091" xlink:href="#m675659dc18" y="284.500283"/>
     <use style="fill:#e377c2;stroke:#e377c2;" x="326.341818" xlink:href="#m675659dc18" y="285.844047"/>
     <use style="fill:#e377c2;stroke:#e377c2;" x="362.414545" xlink:href="#m675659dc18" y="286.343478"/>
     <use style="fill:#e377c2;stroke:#e377c2;" x="398.487273" xlink:href="#m675659dc18" y="286.262119"/>
    </g>
   </g>
   <g id="line2d_36">
    <path clip-path="url(#p0d2d640af8)" d="M 73.832727 269.427363 
L 109.905455 275.194568 
L 145.978182 278.112347 
L 182.050909 279.435947 
L 218.123636 278.152626 
L 254.196364 279.072933 
L 290.269091 277.113496 
L 326.341818 278.504916 
L 362.414545 273.227957 
L 398.487273 274.705218 
" style="fill:none;stroke:#7f7f7f;stroke-linecap:square;stroke-width:1.5;"/>
    <defs>
     <path d="M -3 3 
L 3 -3 
M -3 -3 
L 3 3 
" id="md255924370" style="stroke:#7f7f7f;"/>
    </defs>
    <g clip-path="url(#p0d2d640af8)">
     <use style="fill:#7f7f7f;stroke:#7f7f7f;" x="73.832727" xlink:href="#md255924370" y="269.427363"/>
     <use style="fill:#7f7f7f;stroke:#7f7f7f;" x="109.905455" xlink:href="#md255924370" y="275.194568"/>
     <use style="fill:#7f7f7f;stroke:#7f7f7f;" x="145.978182" xlink:href="#md255924370" y="278.112347"/>
     <use style="fill:#7f7f7f;stroke:#7f7f7f;" x="182.050909" xlink:href="#md255924370" y="279.435947"/>
     <use style="fill:#7f7f7f;stroke:#7f7f7f;" x="218.123636" xlink:href="#md255924370" y="278.152626"/>
     <use style="fill:#7f7f7f;stroke:#7f7f7f;" x="254.196364" xlink:href="#md255924370" y="279.072933"/>
     <use style="fill:#7f7f7f;stroke:#7f7f7f;" x="290.269091" xlink:href="#md255924370" y="277.113496"/>
     <use style="fill:#7f7f7f;stroke:#7f7f7f;" x="326.341818" xlink:href="#md255924370" y="278.504916"/>
     <use style="fill:#7f7f7f;stroke:#7f7f7f;" x="362.414545" xlink:href="#md255924370" y="273.227957"/>
     <use style="fill:#7f7f7f;stroke:#7f7f7f;" x="398.487273" xlink:href="#md255924370" y="274.705218"/>
    </g>
   </g>
   <g id="line2d_37">
    <path clip-path="url(#p0d2d640af8)" d="M 73.832727 53.568 
L 109.905455 198.678727 
L 145.978182 229.998366 
L 182.050909 241.011745 
L 218.123636 246.623759 
L 254.196364 250.068249 
L 290.269091 252.638965 
L 326.341818 254.668758 
L 362.414545 256.439894 
L 398.487273 257.909483 
" style="fill:none;stroke:#bcbd22;stroke-linecap:square;stroke-width:1.5;"/>
    <defs>
     <path d="M -3 3 
L 3 -3 
M -3 -3 
L 3 3 
" id="m7754b7cee9" style="stroke:#bcbd22;"/>
    </defs>
    <g clip-path="url(#p0d2d640af8)">
     <use style="fill:#bcbd22;stroke:#bcbd22;" x="73.832727" xlink:href="#m7754b7cee9" y="53.568"/>
     <use style="fill:#bcbd22;stroke:#bcbd22;" x="109.905455" xlink:href="#m7754b7cee9" y="198.678727"/>
     <use style="fill:#bcbd22;stroke:#bcbd22;" x="145.978182" xlink:href="#m7754b7cee9" y="229.998366"/>
     <use style="fill:#bcbd22;stroke:#bcbd22;" x="182.050909" xlink:href="#m7754b7cee9" y="241.011745"/>
     <use style="fill:#bcbd22;stroke:#bcbd22;" x="218.123636" xlink:href="#m7754b7cee9" y="246.623759"/>
     <use style="fill:#bcbd22;stroke:#bcbd22;" x="254.196364" xlink:href="#m7754b7cee9" y="250.068249"/>
     <use style="fill:#bcbd22;stroke:#bcbd22;" x="290.269091" xlink:href="#m7754b7cee9" y="252.638965"/>
     <use style="fill:#bcbd22;stroke:#bcbd22;" x="326.341818" xlink:href="#m7754b7cee9" y="254.668758"/>
     <use style="fill:#bcbd22;stroke:#bcbd22;" x="362.414545" xlink:href="#m7754b7cee9" y="256.439894"/>
     <use style="fill:#bcbd22;stroke:#bcbd22;" x="398.487273" xlink:href="#m7754b7cee9" y="257.909483"/>
    </g>
   </g>
   <g id="line2d_38">
    <path clip-path="url(#p0d2d640af8)" d="M 73.832727 164.931178 
L 109.905455 224.116257 
L 145.978182 240.24632 
L 182.050909 247.154205 
L 218.123636 251.176089 
L 254.196364 253.604873 
L 290.269091 255.909884 
L 326.341818 257.158157 
L 362.414545 258.694273 
L 398.487273 260.061852 
" style="fill:none;stroke:#17becf;stroke-linecap:square;stroke-width:1.5;"/>
    <defs>
     <path d="M -3 3 
L 3 -3 
M -3 -3 
L 3 3 
" id="m1478fec6f4" style="stroke:#17becf;"/>
    </defs>
    <g clip-path="url(#p0d2d640af8)">
     <use style="fill:#17becf;stroke:#17becf;" x="73.832727" xlink:href="#m1478fec6f4" y="164.931178"/>
     <use style="fill:#17becf;stroke:#17becf;" x="109.905455" xlink:href="#m1478fec6f4" y="224.116257"/>
     <use style="fill:#17becf;stroke:#17becf;" x="145.978182" xlink:href="#m1478fec6f4" y="240.24632"/>
     <use style="fill:#17becf;stroke:#17becf;" x="182.050909" xlink:href="#m1478fec6f4" y="247.154205"/>
     <use style="fill:#17becf;stroke:#17becf;" x="218.123636" xlink:href="#m1478fec6f4" y="251.176089"/>
     <use style="fill:#17becf;stroke:#17becf;" x="254.196364" xlink:href="#m1478fec6f4" y="253.604873"/>
     <use style="fill:#17becf;stroke:#17becf;" x="290.269091" xlink:href="#m1478fec6f4" y="255.909884"/>
     <use style="fill:#17becf;stroke:#17becf;" x="326.341818" xlink:href="#m1478fec6f4" y="257.158157"/>
     <use style="fill:#17becf;stroke:#17becf;" x="362.414545" xlink:href="#m1478fec6f4" y="258.694273"/>
     <use style="fill:#17becf;stroke:#17becf;" x="398.487273" xlink:href="#m1478fec6f4" y="260.061852"/>
    </g>
   </g>
   <g id="patch_3">
    <path d="M 57.6 307.584 
L 57.6 41.472 
" style="fill:none;stroke:#000000;stroke-linecap:square;stroke-linejoin:miter;stroke-width:0.8;"/>
   </g>
   <g id="patch_4">
    <path d="M 414.72 307.584 
L 414.72 41.472 
" style="fill:none;stroke:#000000;stroke-linecap:square;stroke-linejoin:miter;stroke-width:0.8;"/>
   </g>
   <g id="patch_5">
    <path d="M 57.6 307.584 
L 414.72 307.584 
" style="fill:none;stroke:#000000;stroke-linecap:square;stroke-linejoin:miter;stroke-width:0.8;"/>
   </g>
   <g id="patch_6">
    <path d="M 57.6 41.472 
L 414.72 41.472 
" style="fill:none;stroke:#000000;stroke-linecap:square;stroke-linejoin:miter;stroke-width:0.8;"/>
   </g>
   <g id="text_17">
    <!-- GPU: Comparison of loss by optimization method -->
    <defs>
     <path d="M 59.515625 10.40625 
L 59.515625 29.984375 
L 43.40625 29.984375 
L 43.40625 38.09375 
L 69.28125 38.09375 
L 69.28125 6.78125 
Q 63.578125 2.734375 56.6875 0.65625 
Q 49.8125 -1.421875 42 -1.421875 
Q 24.90625 -1.421875 15.25 8.5625 
Q 5.609375 18.5625 5.609375 36.375 
Q 5.609375 54.25 15.25 64.234375 
Q 24.90625 74.21875 42 74.21875 
Q 49.125 74.21875 55.546875 72.453125 
Q 61.96875 70.703125 67.390625 67.28125 
L 67.390625 56.78125 
Q 61.921875 61.421875 55.765625 63.765625 
Q 49.609375 66.109375 42.828125 66.109375 
Q 29.4375 66.109375 22.71875 58.640625 
Q 16.015625 51.171875 16.015625 36.375 
Q 16.015625 21.625 22.71875 14.15625 
Q 29.4375 6.6875 42.828125 6.6875 
Q 48.046875 6.6875 52.140625 7.59375 
Q 56.25 8.5 59.515625 10.40625 
z
" id="DejaVuSans-71"/>
     <path d="M 19.671875 64.796875 
L 19.671875 37.40625 
L 32.078125 37.40625 
Q 38.96875 37.40625 42.71875 40.96875 
Q 46.484375 44.53125 46.484375 51.125 
Q 46.484375 57.671875 42.71875 61.234375 
Q 38.96875 64.796875 32.078125 64.796875 
z
M 9.8125 72.90625 
L 32.078125 72.90625 
Q 44.34375 72.90625 50.609375 67.359375 
Q 56.890625 61.8125 56.890625 51.125 
Q 56.890625 40.328125 50.609375 34.8125 
Q 44.34375 29.296875 32.078125 29.296875 
L 19.671875 29.296875 
L 19.671875 0 
L 9.8125 0 
z
" id="DejaVuSans-80"/>
     <path d="M 8.6875 72.90625 
L 18.609375 72.90625 
L 18.609375 28.609375 
Q 18.609375 16.890625 22.84375 11.734375 
Q 27.09375 6.59375 36.625 6.59375 
Q 46.09375 6.59375 50.34375 11.734375 
Q 54.59375 16.890625 54.59375 28.609375 
L 54.59375 72.90625 
L 64.5 72.90625 
L 64.5 27.390625 
Q 64.5 13.140625 57.4375 5.859375 
Q 50.390625 -1.421875 36.625 -1.421875 
Q 22.796875 -1.421875 15.734375 5.859375 
Q 8.6875 13.140625 8.6875 27.390625 
z
" id="DejaVuSans-85"/>
     <path d="M 11.71875 12.40625 
L 22.015625 12.40625 
L 22.015625 0 
L 11.71875 0 
z
M 11.71875 51.703125 
L 22.015625 51.703125 
L 22.015625 39.3125 
L 11.71875 39.3125 
z
" id="DejaVuSans-58"/>
     <path d="M 64.40625 67.28125 
L 64.40625 56.890625 
Q 59.421875 61.53125 53.78125 63.8125 
Q 48.140625 66.109375 41.796875 66.109375 
Q 29.296875 66.109375 22.65625 58.46875 
Q 16.015625 50.828125 16.015625 36.375 
Q 16.015625 21.96875 22.65625 14.328125 
Q 29.296875 6.6875 41.796875 6.6875 
Q 48.140625 6.6875 53.78125 8.984375 
Q 59.421875 11.28125 64.40625 15.921875 
L 64.40625 5.609375 
Q 59.234375 2.09375 53.4375 0.328125 
Q 47.65625 -1.421875 41.21875 -1.421875 
Q 24.65625 -1.421875 15.125 8.703125 
Q 5.609375 18.84375 5.609375 36.375 
Q 5.609375 53.953125 15.125 64.078125 
Q 24.65625 74.21875 41.21875 74.21875 
Q 47.75 74.21875 53.53125 72.484375 
Q 59.328125 70.75 64.40625 67.28125 
z
" id="DejaVuSans-67"/>
     <path d="M 34.28125 27.484375 
Q 23.390625 27.484375 19.1875 25 
Q 14.984375 22.515625 14.984375 16.5 
Q 14.984375 11.71875 18.140625 8.90625 
Q 21.296875 6.109375 26.703125 6.109375 
Q 34.1875 6.109375 38.703125 11.40625 
Q 43.21875 16.703125 43.21875 25.484375 
L 43.21875 27.484375 
z
M 52.203125 31.203125 
L 52.203125 0 
L 43.21875 0 
L 43.21875 8.296875 
Q 40.140625 3.328125 35.546875 0.953125 
Q 30.953125 -1.421875 24.3125 -1.421875 
Q 15.921875 -1.421875 10.953125 3.296875 
Q 6 8.015625 6 15.921875 
Q 6 25.140625 12.171875 29.828125 
Q 18.359375 34.515625 30.609375 34.515625 
L 43.21875 34.515625 
L 43.21875 35.40625 
Q 43.21875 41.609375 39.140625 45 
Q 35.0625 48.390625 27.6875 48.390625 
Q 23 48.390625 18.546875 47.265625 
Q 14.109375 46.140625 10.015625 43.890625 
L 10.015625 52.203125 
Q 14.9375 54.109375 19.578125 55.046875 
Q 24.21875 56 28.609375 56 
Q 40.484375 56 46.34375 49.84375 
Q 52.203125 43.703125 52.203125 31.203125 
z
" id="DejaVuSans-97"/>
     <path d="M 41.109375 46.296875 
Q 39.59375 47.171875 37.8125 47.578125 
Q 36.03125 48 33.890625 48 
Q 26.265625 48 22.1875 43.046875 
Q 18.109375 38.09375 18.109375 28.8125 
L 18.109375 0 
L 9.078125 0 
L 9.078125 54.6875 
L 18.109375 54.6875 
L 18.109375 46.1875 
Q 20.953125 51.171875 25.484375 53.578125 
Q 30.03125 56 36.53125 56 
Q 37.453125 56 38.578125 55.875 
Q 39.703125 55.765625 41.0625 55.515625 
z
" id="DejaVuSans-114"/>
     <path d="M 9.421875 54.6875 
L 18.40625 54.6875 
L 18.40625 0 
L 9.421875 0 
z
M 9.421875 75.984375 
L 18.40625 75.984375 
L 18.40625 64.59375 
L 9.421875 64.59375 
z
" id="DejaVuSans-105"/>
     <path d="M 54.890625 33.015625 
L 54.890625 0 
L 45.90625 0 
L 45.90625 32.71875 
Q 45.90625 40.484375 42.875 44.328125 
Q 39.84375 48.1875 33.796875 48.1875 
Q 26.515625 48.1875 22.3125 43.546875 
Q 18.109375 38.921875 18.109375 30.90625 
L 18.109375 0 
L 9.078125 0 
L 9.078125 54.6875 
L 18.109375 54.6875 
L 18.109375 46.1875 
Q 21.34375 51.125 25.703125 53.5625 
Q 30.078125 56 35.796875 56 
Q 45.21875 56 50.046875 50.171875 
Q 54.890625 44.34375 54.890625 33.015625 
z
" id="DejaVuSans-110"/>
     <path d="M 37.109375 75.984375 
L 37.109375 68.5 
L 28.515625 68.5 
Q 23.6875 68.5 21.796875 66.546875 
Q 19.921875 64.59375 19.921875 59.515625 
L 19.921875 54.6875 
L 34.71875 54.6875 
L 34.71875 47.703125 
L 19.921875 47.703125 
L 19.921875 0 
L 10.890625 0 
L 10.890625 47.703125 
L 2.296875 47.703125 
L 2.296875 54.6875 
L 10.890625 54.6875 
L 10.890625 58.5 
Q 10.890625 67.625 15.140625 71.796875 
Q 19.390625 75.984375 28.609375 75.984375 
z
" id="DejaVuSans-102"/>
     <path d="M 9.421875 75.984375 
L 18.40625 75.984375 
L 18.40625 0 
L 9.421875 0 
z
" id="DejaVuSans-108"/>
     <path d="M 48.6875 27.296875 
Q 48.6875 37.203125 44.609375 42.84375 
Q 40.53125 48.484375 33.40625 48.484375 
Q 26.265625 48.484375 22.1875 42.84375 
Q 18.109375 37.203125 18.109375 27.296875 
Q 18.109375 17.390625 22.1875 11.75 
Q 26.265625 6.109375 33.40625 6.109375 
Q 40.53125 6.109375 44.609375 11.75 
Q 48.6875 17.390625 48.6875 27.296875 
z
M 18.109375 46.390625 
Q 20.953125 51.265625 25.265625 53.625 
Q 29.59375 56 35.59375 56 
Q 45.5625 56 51.78125 48.09375 
Q 58.015625 40.1875 58.015625 27.296875 
Q 58.015625 14.40625 51.78125 6.484375 
Q 45.5625 -1.421875 35.59375 -1.421875 
Q 29.59375 -1.421875 25.265625 0.953125 
Q 20.953125 3.328125 18.109375 8.203125 
L 18.109375 0 
L 9.078125 0 
L 9.078125 75.984375 
L 18.109375 75.984375 
z
" id="DejaVuSans-98"/>
     <path d="M 32.171875 -5.078125 
Q 28.375 -14.84375 24.75 -17.8125 
Q 21.140625 -20.796875 15.09375 -20.796875 
L 7.90625 -20.796875 
L 7.90625 -13.28125 
L 13.1875 -13.28125 
Q 16.890625 -13.28125 18.9375 -11.515625 
Q 21 -9.765625 23.484375 -3.21875 
L 25.09375 0.875 
L 2.984375 54.6875 
L 12.5 54.6875 
L 29.59375 11.921875 
L 46.6875 54.6875 
L 56.203125 54.6875 
z
" id="DejaVuSans-121"/>
     <path d="M 18.3125 70.21875 
L 18.3125 54.6875 
L 36.8125 54.6875 
L 36.8125 47.703125 
L 18.3125 47.703125 
L 18.3125 18.015625 
Q 18.3125 11.328125 20.140625 9.421875 
Q 21.96875 7.515625 27.59375 7.515625 
L 36.8125 7.515625 
L 36.8125 0 
L 27.59375 0 
Q 17.1875 0 13.234375 3.875 
Q 9.28125 7.765625 9.28125 18.015625 
L 9.28125 47.703125 
L 2.6875 47.703125 
L 2.6875 54.6875 
L 9.28125 54.6875 
L 9.28125 70.21875 
z
" id="DejaVuSans-116"/>
     <path d="M 5.515625 54.6875 
L 48.1875 54.6875 
L 48.1875 46.484375 
L 14.40625 7.171875 
L 48.1875 7.171875 
L 48.1875 0 
L 4.296875 0 
L 4.296875 8.203125 
L 38.09375 47.515625 
L 5.515625 47.515625 
z
" id="DejaVuSans-122"/>
     <path d="M 56.203125 29.59375 
L 56.203125 25.203125 
L 14.890625 25.203125 
Q 15.484375 15.921875 20.484375 11.0625 
Q 25.484375 6.203125 34.421875 6.203125 
Q 39.59375 6.203125 44.453125 7.46875 
Q 49.3125 8.734375 54.109375 11.28125 
L 54.109375 2.78125 
Q 49.265625 0.734375 44.1875 -0.34375 
Q 39.109375 -1.421875 33.890625 -1.421875 
Q 20.796875 -1.421875 13.15625 6.1875 
Q 5.515625 13.8125 5.515625 26.8125 
Q 5.515625 40.234375 12.765625 48.109375 
Q 20.015625 56 32.328125 56 
Q 43.359375 56 49.78125 48.890625 
Q 56.203125 41.796875 56.203125 29.59375 
z
M 47.21875 32.234375 
Q 47.125 39.59375 43.09375 43.984375 
Q 39.0625 48.390625 32.421875 48.390625 
Q 24.90625 48.390625 20.390625 44.140625 
Q 15.875 39.890625 15.1875 32.171875 
z
" id="DejaVuSans-101"/>
     <path d="M 45.40625 46.390625 
L 45.40625 75.984375 
L 54.390625 75.984375 
L 54.390625 0 
L 45.40625 0 
L 45.40625 8.203125 
Q 42.578125 3.328125 38.25 0.953125 
Q 33.9375 -1.421875 27.875 -1.421875 
Q 17.96875 -1.421875 11.734375 6.484375 
Q 5.515625 14.40625 5.515625 27.296875 
Q 5.515625 40.1875 11.734375 48.09375 
Q 17.96875 56 27.875 56 
Q 33.9375 56 38.25 53.625 
Q 42.578125 51.265625 45.40625 46.390625 
z
M 14.796875 27.296875 
Q 14.796875 17.390625 18.875 11.75 
Q 22.953125 6.109375 30.078125 6.109375 
Q 37.203125 6.109375 41.296875 11.75 
Q 45.40625 17.390625 45.40625 27.296875 
Q 45.40625 37.203125 41.296875 42.84375 
Q 37.203125 48.484375 30.078125 48.484375 
Q 22.953125 48.484375 18.875 42.84375 
Q 14.796875 37.203125 14.796875 27.296875 
z
" id="DejaVuSans-100"/>
    </defs>
    <g transform="translate(88.881563 35.472)scale(0.12 -0.12)">
     <use xlink:href="#DejaVuSans-71"/>
     <use x="77.490234" xlink:href="#DejaVuSans-80"/>
     <use x="137.792969" xlink:href="#DejaVuSans-85"/>
     <use x="210.986328" xlink:href="#DejaVuSans-58"/>
     <use x="244.677734" xlink:href="#DejaVuSans-32"/>
     <use x="276.464844" xlink:href="#DejaVuSans-67"/>
     <use x="346.289062" xlink:href="#DejaVuSans-111"/>
     <use x="407.470703" xlink:href="#DejaVuSans-109"/>
     <use x="504.882812" xlink:href="#DejaVuSans-112"/>
     <use x="568.359375" xlink:href="#DejaVuSans-97"/>
     <use x="629.638672" xlink:href="#DejaVuSans-114"/>
     <use x="670.751953" xlink:href="#DejaVuSans-105"/>
     <use x="698.535156" xlink:href="#DejaVuSans-115"/>
     <use x="750.634766" xlink:href="#DejaVuSans-111"/>
     <use x="811.816406" xlink:href="#DejaVuSans-110"/>
     <use x="875.195312" xlink:href="#DejaVuSans-32"/>
     <use x="906.982422" xlink:href="#DejaVuSans-111"/>
     <use x="968.164062" xlink:href="#DejaVuSans-102"/>
     <use x="1003.369141" xlink:href="#DejaVuSans-32"/>
     <use x="1035.15625" xlink:href="#DejaVuSans-108"/>
     <use x="1062.939453" xlink:href="#DejaVuSans-111"/>
     <use x="1124.121094" xlink:href="#DejaVuSans-115"/>
     <use x="1176.220703" xlink:href="#DejaVuSans-115"/>
     <use x="1228.320312" xlink:href="#DejaVuSans-32"/>
     <use x="1260.107422" xlink:href="#DejaVuSans-98"/>
     <use x="1323.583984" xlink:href="#DejaVuSans-121"/>
     <use x="1382.763672" xlink:href="#DejaVuSans-32"/>
     <use x="1414.550781" xlink:href="#DejaVuSans-111"/>
     <use x="1475.732422" xlink:href="#DejaVuSans-112"/>
     <use x="1539.208984" xlink:href="#DejaVuSans-116"/>
     <use x="1578.417969" xlink:href="#DejaVuSans-105"/>
     <use x="1606.201172" xlink:href="#DejaVuSans-109"/>
     <use x="1703.613281" xlink:href="#DejaVuSans-105"/>
     <use x="1731.396484" xlink:href="#DejaVuSans-122"/>
     <use x="1783.886719" xlink:href="#DejaVuSans-97"/>
     <use x="1845.166016" xlink:href="#DejaVuSans-116"/>
     <use x="1884.375" xlink:href="#DejaVuSans-105"/>
     <use x="1912.158203" xlink:href="#DejaVuSans-111"/>
     <use x="1973.339844" xlink:href="#DejaVuSans-110"/>
     <use x="2036.71875" xlink:href="#DejaVuSans-32"/>
     <use x="2068.505859" xlink:href="#DejaVuSans-109"/>
     <use x="2165.917969" xlink:href="#DejaVuSans-101"/>
     <use x="2227.441406" xlink:href="#DejaVuSans-116"/>
     <use x="2266.650391" xlink:href="#DejaVuSans-104"/>
     <use x="2330.029297" xlink:href="#DejaVuSans-111"/>
     <use x="2391.210938" xlink:href="#DejaVuSans-100"/>
    </g>
   </g>
   <g id="legend_1">
    <g id="patch_7">
     <path d="M 190.848125 196.8095 
L 407.72 196.8095 
Q 409.72 196.8095 409.72 194.8095 
L 409.72 48.472 
Q 409.72 46.472 407.72 46.472 
L 190.848125 46.472 
Q 188.848125 46.472 188.848125 48.472 
L 188.848125 194.8095 
Q 188.848125 196.8095 190.848125 196.8095 
z
" style="fill:#ffffff;opacity:0.8;stroke:#cccccc;stroke-linejoin:miter;"/>
    </g>
    <g id="line2d_39">
     <path d="M 192.848125 54.570437 
L 212.848125 54.570437 
" style="fill:none;stroke:#1f77b4;stroke-linecap:square;stroke-width:1.5;"/>
    </g>
    <g id="line2d_40">
     <g>
      <use style="fill:#1f77b4;stroke:#1f77b4;" x="202.848125" xlink:href="#m2f3622a54a" y="54.570437"/>
     </g>
    </g>
    <g id="text_18">
     <!-- adam-main/loss -->
     <defs>
      <path d="M 4.890625 31.390625 
L 31.203125 31.390625 
L 31.203125 23.390625 
L 4.890625 23.390625 
z
" id="DejaVuSans-45"/>
      <path d="M 25.390625 72.90625 
L 33.6875 72.90625 
L 8.296875 -9.28125 
L 0 -9.28125 
z
" id="DejaVuSans-47"/>
     </defs>
     <g transform="translate(220.848125 58.070437)scale(0.1 -0.1)">
      <use xlink:href="#DejaVuSans-97"/>
      <use x="61.279297" xlink:href="#DejaVuSans-100"/>
      <use x="124.755859" xlink:href="#DejaVuSans-97"/>
      <use x="186.035156" xlink:href="#DejaVuSans-109"/>
      <use x="283.447266" xlink:href="#DejaVuSans-45"/>
      <use x="319.53125" xlink:href="#DejaVuSans-109"/>
      <use x="416.943359" xlink:href="#DejaVuSans-97"/>
      <use x="478.222656" xlink:href="#DejaVuSans-105"/>
      <use x="506.005859" xlink:href="#DejaVuSans-110"/>
      <use x="569.384766" xlink:href="#DejaVuSans-47"/>
      <use x="603.076172" xlink:href="#DejaVuSans-108"/>
      <use x="630.859375" xlink:href="#DejaVuSans-111"/>
      <use x="692.041016" xlink:href="#DejaVuSans-115"/>
      <use x="744.140625" xlink:href="#DejaVuSans-115"/>
     </g>
    </g>
    <g id="line2d_41">
     <path d="M 192.848125 69.248562 
L 212.848125 69.248562 
" style="fill:none;stroke:#ff7f0e;stroke-linecap:square;stroke-width:1.5;"/>
    </g>
    <g id="line2d_42">
     <g>
      <use style="fill:#ff7f0e;stroke:#ff7f0e;" x="202.848125" xlink:href="#mf98a63ec5f" y="69.248562"/>
     </g>
    </g>
    <g id="text_19">
     <!-- adam-validation/main/loss -->
     <defs>
      <path d="M 2.984375 54.6875 
L 12.5 54.6875 
L 29.59375 8.796875 
L 46.6875 54.6875 
L 56.203125 54.6875 
L 35.6875 0 
L 23.484375 0 
z
" id="DejaVuSans-118"/>
     </defs>
     <g transform="translate(220.848125 72.748562)scale(0.1 -0.1)">
      <use xlink:href="#DejaVuSans-97"/>
      <use x="61.279297" xlink:href="#DejaVuSans-100"/>
      <use x="124.755859" xlink:href="#DejaVuSans-97"/>
      <use x="186.035156" xlink:href="#DejaVuSans-109"/>
      <use x="283.447266" xlink:href="#DejaVuSans-45"/>
      <use x="319.5" xlink:href="#DejaVuSans-118"/>
      <use x="378.679688" xlink:href="#DejaVuSans-97"/>
      <use x="439.958984" xlink:href="#DejaVuSans-108"/>
      <use x="467.742188" xlink:href="#DejaVuSans-105"/>
      <use x="495.525391" xlink:href="#DejaVuSans-100"/>
      <use x="559.001953" xlink:href="#DejaVuSans-97"/>
      <use x="620.28125" xlink:href="#DejaVuSans-116"/>
      <use x="659.490234" xlink:href="#DejaVuSans-105"/>
      <use x="687.273438" xlink:href="#DejaVuSans-111"/>
      <use x="748.455078" xlink:href="#DejaVuSans-110"/>
      <use x="811.833984" xlink:href="#DejaVuSans-47"/>
      <use x="845.525391" xlink:href="#DejaVuSans-109"/>
      <use x="942.9375" xlink:href="#DejaVuSans-97"/>
      <use x="1004.216797" xlink:href="#DejaVuSans-105"/>
      <use x="1032" xlink:href="#DejaVuSans-110"/>
      <use x="1095.378906" xlink:href="#DejaVuSans-47"/>
      <use x="1129.070312" xlink:href="#DejaVuSans-108"/>
      <use x="1156.853516" xlink:href="#DejaVuSans-111"/>
      <use x="1218.035156" xlink:href="#DejaVuSans-115"/>
      <use x="1270.134766" xlink:href="#DejaVuSans-115"/>
     </g>
    </g>
    <g id="line2d_43">
     <path d="M 192.848125 83.926688 
L 212.848125 83.926688 
" style="fill:none;stroke:#2ca02c;stroke-linecap:square;stroke-width:1.5;"/>
    </g>
    <g id="line2d_44">
     <g>
      <use style="fill:#2ca02c;stroke:#2ca02c;" x="202.848125" xlink:href="#m766ccc989a" y="83.926688"/>
     </g>
    </g>
    <g id="text_20">
     <!-- adagrad-main/loss -->
     <defs>
      <path d="M 45.40625 27.984375 
Q 45.40625 37.75 41.375 43.109375 
Q 37.359375 48.484375 30.078125 48.484375 
Q 22.859375 48.484375 18.828125 43.109375 
Q 14.796875 37.75 14.796875 27.984375 
Q 14.796875 18.265625 18.828125 12.890625 
Q 22.859375 7.515625 30.078125 7.515625 
Q 37.359375 7.515625 41.375 12.890625 
Q 45.40625 18.265625 45.40625 27.984375 
z
M 54.390625 6.78125 
Q 54.390625 -7.171875 48.1875 -13.984375 
Q 42 -20.796875 29.203125 -20.796875 
Q 24.46875 -20.796875 20.265625 -20.09375 
Q 16.0625 -19.390625 12.109375 -17.921875 
L 12.109375 -9.1875 
Q 16.0625 -11.328125 19.921875 -12.34375 
Q 23.78125 -13.375 27.78125 -13.375 
Q 36.625 -13.375 41.015625 -8.765625 
Q 45.40625 -4.15625 45.40625 5.171875 
L 45.40625 9.625 
Q 42.625 4.78125 38.28125 2.390625 
Q 33.9375 0 27.875 0 
Q 17.828125 0 11.671875 7.65625 
Q 5.515625 15.328125 5.515625 27.984375 
Q 5.515625 40.671875 11.671875 48.328125 
Q 17.828125 56 27.875 56 
Q 33.9375 56 38.28125 53.609375 
Q 42.625 51.21875 45.40625 46.390625 
L 45.40625 54.6875 
L 54.390625 54.6875 
z
" id="DejaVuSans-103"/>
     </defs>
     <g transform="translate(220.848125 87.426688)scale(0.1 -0.1)">
      <use xlink:href="#DejaVuSans-97"/>
      <use x="61.279297" xlink:href="#DejaVuSans-100"/>
      <use x="124.755859" xlink:href="#DejaVuSans-97"/>
      <use x="186.035156" xlink:href="#DejaVuSans-103"/>
      <use x="249.511719" xlink:href="#DejaVuSans-114"/>
      <use x="290.625" xlink:href="#DejaVuSans-97"/>
      <use x="351.904297" xlink:href="#DejaVuSans-100"/>
      <use x="415.380859" xlink:href="#DejaVuSans-45"/>
      <use x="451.464844" xlink:href="#DejaVuSans-109"/>
      <use x="548.876953" xlink:href="#DejaVuSans-97"/>
      <use x="610.15625" xlink:href="#DejaVuSans-105"/>
      <use x="637.939453" xlink:href="#DejaVuSans-110"/>
      <use x="701.318359" xlink:href="#DejaVuSans-47"/>
      <use x="735.009766" xlink:href="#DejaVuSans-108"/>
      <use x="762.792969" xlink:href="#DejaVuSans-111"/>
      <use x="823.974609" xlink:href="#DejaVuSans-115"/>
      <use x="876.074219" xlink:href="#DejaVuSans-115"/>
     </g>
    </g>
    <g id="line2d_45">
     <path d="M 192.848125 98.604812 
L 212.848125 98.604812 
" style="fill:none;stroke:#d62728;stroke-linecap:square;stroke-width:1.5;"/>
    </g>
    <g id="line2d_46">
     <g>
      <use style="fill:#d62728;stroke:#d62728;" x="202.848125" xlink:href="#m0bad5dd74a" y="98.604812"/>
     </g>
    </g>
    <g id="text_21">
     <!-- adagrad-validation/main/loss -->
     <g transform="translate(220.848125 102.104812)scale(0.1 -0.1)">
      <use xlink:href="#DejaVuSans-97"/>
      <use x="61.279297" xlink:href="#DejaVuSans-100"/>
      <use x="124.755859" xlink:href="#DejaVuSans-97"/>
      <use x="186.035156" xlink:href="#DejaVuSans-103"/>
      <use x="249.511719" xlink:href="#DejaVuSans-114"/>
      <use x="290.625" xlink:href="#DejaVuSans-97"/>
      <use x="351.904297" xlink:href="#DejaVuSans-100"/>
      <use x="415.380859" xlink:href="#DejaVuSans-45"/>
      <use x="451.433594" xlink:href="#DejaVuSans-118"/>
      <use x="510.613281" xlink:href="#DejaVuSans-97"/>
      <use x="571.892578" xlink:href="#DejaVuSans-108"/>
      <use x="599.675781" xlink:href="#DejaVuSans-105"/>
      <use x="627.458984" xlink:href="#DejaVuSans-100"/>
      <use x="690.935547" xlink:href="#DejaVuSans-97"/>
      <use x="752.214844" xlink:href="#DejaVuSans-116"/>
      <use x="791.423828" xlink:href="#DejaVuSans-105"/>
      <use x="819.207031" xlink:href="#DejaVuSans-111"/>
      <use x="880.388672" xlink:href="#DejaVuSans-110"/>
      <use x="943.767578" xlink:href="#DejaVuSans-47"/>
      <use x="977.458984" xlink:href="#DejaVuSans-109"/>
      <use x="1074.871094" xlink:href="#DejaVuSans-97"/>
      <use x="1136.150391" xlink:href="#DejaVuSans-105"/>
      <use x="1163.933594" xlink:href="#DejaVuSans-110"/>
      <use x="1227.3125" xlink:href="#DejaVuSans-47"/>
      <use x="1261.003906" xlink:href="#DejaVuSans-108"/>
      <use x="1288.787109" xlink:href="#DejaVuSans-111"/>
      <use x="1349.96875" xlink:href="#DejaVuSans-115"/>
      <use x="1402.068359" xlink:href="#DejaVuSans-115"/>
     </g>
    </g>
    <g id="line2d_47">
     <path d="M 192.848125 113.282938 
L 212.848125 113.282938 
" style="fill:none;stroke:#9467bd;stroke-linecap:square;stroke-width:1.5;"/>
    </g>
    <g id="line2d_48">
     <g>
      <use style="fill:#9467bd;stroke:#9467bd;" x="202.848125" xlink:href="#m4e64bb5bfc" y="113.282938"/>
     </g>
    </g>
    <g id="text_22">
     <!-- momentum_sgd-main/loss -->
     <defs>
      <path d="M 50.984375 -16.609375 
L 50.984375 -23.578125 
L -0.984375 -23.578125 
L -0.984375 -16.609375 
z
" id="DejaVuSans-95"/>
     </defs>
     <g transform="translate(220.848125 116.782938)scale(0.1 -0.1)">
      <use xlink:href="#DejaVuSans-109"/>
      <use x="97.412109" xlink:href="#DejaVuSans-111"/>
      <use x="158.59375" xlink:href="#DejaVuSans-109"/>
      <use x="256.005859" xlink:href="#DejaVuSans-101"/>
      <use x="317.529297" xlink:href="#DejaVuSans-110"/>
      <use x="380.908203" xlink:href="#DejaVuSans-116"/>
      <use x="420.117188" xlink:href="#DejaVuSans-117"/>
      <use x="483.496094" xlink:href="#DejaVuSans-109"/>
      <use x="580.908203" xlink:href="#DejaVuSans-95"/>
      <use x="630.908203" xlink:href="#DejaVuSans-115"/>
      <use x="683.007812" xlink:href="#DejaVuSans-103"/>
      <use x="746.484375" xlink:href="#DejaVuSans-100"/>
      <use x="809.960938" xlink:href="#DejaVuSans-45"/>
      <use x="846.044922" xlink:href="#DejaVuSans-109"/>
      <use x="943.457031" xlink:href="#DejaVuSans-97"/>
      <use x="1004.736328" xlink:href="#DejaVuSans-105"/>
      <use x="1032.519531" xlink:href="#DejaVuSans-110"/>
      <use x="1095.898438" xlink:href="#DejaVuSans-47"/>
      <use x="1129.589844" xlink:href="#DejaVuSans-108"/>
      <use x="1157.373047" xlink:href="#DejaVuSans-111"/>
      <use x="1218.554688" xlink:href="#DejaVuSans-115"/>
      <use x="1270.654297" xlink:href="#DejaVuSans-115"/>
     </g>
    </g>
    <g id="line2d_49">
     <path d="M 192.848125 128.239187 
L 212.848125 128.239187 
" style="fill:none;stroke:#8c564b;stroke-linecap:square;stroke-width:1.5;"/>
    </g>
    <g id="line2d_50">
     <g>
      <use style="fill:#8c564b;stroke:#8c564b;" x="202.848125" xlink:href="#m880a73b542" y="128.239187"/>
     </g>
    </g>
    <g id="text_23">
     <!-- momentum_sgd-validation/main/loss -->
     <g transform="translate(220.848125 131.739187)scale(0.1 -0.1)">
      <use xlink:href="#DejaVuSans-109"/>
      <use x="97.412109" xlink:href="#DejaVuSans-111"/>
      <use x="158.59375" xlink:href="#DejaVuSans-109"/>
      <use x="256.005859" xlink:href="#DejaVuSans-101"/>
      <use x="317.529297" xlink:href="#DejaVuSans-110"/>
      <use x="380.908203" xlink:href="#DejaVuSans-116"/>
      <use x="420.117188" xlink:href="#DejaVuSans-117"/>
      <use x="483.496094" xlink:href="#DejaVuSans-109"/>
      <use x="580.908203" xlink:href="#DejaVuSans-95"/>
      <use x="630.908203" xlink:href="#DejaVuSans-115"/>
      <use x="683.007812" xlink:href="#DejaVuSans-103"/>
      <use x="746.484375" xlink:href="#DejaVuSans-100"/>
      <use x="809.960938" xlink:href="#DejaVuSans-45"/>
      <use x="846.013672" xlink:href="#DejaVuSans-118"/>
      <use x="905.193359" xlink:href="#DejaVuSans-97"/>
      <use x="966.472656" xlink:href="#DejaVuSans-108"/>
      <use x="994.255859" xlink:href="#DejaVuSans-105"/>
      <use x="1022.039062" xlink:href="#DejaVuSans-100"/>
      <use x="1085.515625" xlink:href="#DejaVuSans-97"/>
      <use x="1146.794922" xlink:href="#DejaVuSans-116"/>
      <use x="1186.003906" xlink:href="#DejaVuSans-105"/>
      <use x="1213.787109" xlink:href="#DejaVuSans-111"/>
      <use x="1274.96875" xlink:href="#DejaVuSans-110"/>
      <use x="1338.347656" xlink:href="#DejaVuSans-47"/>
      <use x="1372.039062" xlink:href="#DejaVuSans-109"/>
      <use x="1469.451172" xlink:href="#DejaVuSans-97"/>
      <use x="1530.730469" xlink:href="#DejaVuSans-105"/>
      <use x="1558.513672" xlink:href="#DejaVuSans-110"/>
      <use x="1621.892578" xlink:href="#DejaVuSans-47"/>
      <use x="1655.583984" xlink:href="#DejaVuSans-108"/>
      <use x="1683.367188" xlink:href="#DejaVuSans-111"/>
      <use x="1744.548828" xlink:href="#DejaVuSans-115"/>
      <use x="1796.648438" xlink:href="#DejaVuSans-115"/>
     </g>
    </g>
    <g id="line2d_51">
     <path d="M 192.848125 143.195437 
L 212.848125 143.195437 
" style="fill:none;stroke:#e377c2;stroke-linecap:square;stroke-width:1.5;"/>
    </g>
    <g id="line2d_52">
     <g>
      <use style="fill:#e377c2;stroke:#e377c2;" x="202.848125" xlink:href="#m675659dc18" y="143.195437"/>
     </g>
    </g>
    <g id="text_24">
     <!-- rmsprop-main/loss -->
     <g transform="translate(220.848125 146.695437)scale(0.1 -0.1)">
      <use xlink:href="#DejaVuSans-114"/>
      <use x="41.097656" xlink:href="#DejaVuSans-109"/>
      <use x="138.509766" xlink:href="#DejaVuSans-115"/>
      <use x="190.609375" xlink:href="#DejaVuSans-112"/>
      <use x="254.085938" xlink:href="#DejaVuSans-114"/>
      <use x="295.167969" xlink:href="#DejaVuSans-111"/>
      <use x="356.349609" xlink:href="#DejaVuSans-112"/>
      <use x="419.826172" xlink:href="#DejaVuSans-45"/>
      <use x="455.910156" xlink:href="#DejaVuSans-109"/>
      <use x="553.322266" xlink:href="#DejaVuSans-97"/>
      <use x="614.601562" xlink:href="#DejaVuSans-105"/>
      <use x="642.384766" xlink:href="#DejaVuSans-110"/>
      <use x="705.763672" xlink:href="#DejaVuSans-47"/>
      <use x="739.455078" xlink:href="#DejaVuSans-108"/>
      <use x="767.238281" xlink:href="#DejaVuSans-111"/>
      <use x="828.419922" xlink:href="#DejaVuSans-115"/>
      <use x="880.519531" xlink:href="#DejaVuSans-115"/>
     </g>
    </g>
    <g id="line2d_53">
     <path d="M 192.848125 157.873562 
L 212.848125 157.873562 
" style="fill:none;stroke:#7f7f7f;stroke-linecap:square;stroke-width:1.5;"/>
    </g>
    <g id="line2d_54">
     <g>
      <use style="fill:#7f7f7f;stroke:#7f7f7f;" x="202.848125" xlink:href="#md255924370" y="157.873562"/>
     </g>
    </g>
    <g id="text_25">
     <!-- rmsprop-validation/main/loss -->
     <g transform="translate(220.848125 161.373562)scale(0.1 -0.1)">
      <use xlink:href="#DejaVuSans-114"/>
      <use x="41.097656" xlink:href="#DejaVuSans-109"/>
      <use x="138.509766" xlink:href="#DejaVuSans-115"/>
      <use x="190.609375" xlink:href="#DejaVuSans-112"/>
      <use x="254.085938" xlink:href="#DejaVuSans-114"/>
      <use x="295.167969" xlink:href="#DejaVuSans-111"/>
      <use x="356.349609" xlink:href="#DejaVuSans-112"/>
      <use x="419.826172" xlink:href="#DejaVuSans-45"/>
      <use x="455.878906" xlink:href="#DejaVuSans-118"/>
      <use x="515.058594" xlink:href="#DejaVuSans-97"/>
      <use x="576.337891" xlink:href="#DejaVuSans-108"/>
      <use x="604.121094" xlink:href="#DejaVuSans-105"/>
      <use x="631.904297" xlink:href="#DejaVuSans-100"/>
      <use x="695.380859" xlink:href="#DejaVuSans-97"/>
      <use x="756.660156" xlink:href="#DejaVuSans-116"/>
      <use x="795.869141" xlink:href="#DejaVuSans-105"/>
      <use x="823.652344" xlink:href="#DejaVuSans-111"/>
      <use x="884.833984" xlink:href="#DejaVuSans-110"/>
      <use x="948.212891" xlink:href="#DejaVuSans-47"/>
      <use x="981.904297" xlink:href="#DejaVuSans-109"/>
      <use x="1079.316406" xlink:href="#DejaVuSans-97"/>
      <use x="1140.595703" xlink:href="#DejaVuSans-105"/>
      <use x="1168.378906" xlink:href="#DejaVuSans-110"/>
      <use x="1231.757812" xlink:href="#DejaVuSans-47"/>
      <use x="1265.449219" xlink:href="#DejaVuSans-108"/>
      <use x="1293.232422" xlink:href="#DejaVuSans-111"/>
      <use x="1354.414062" xlink:href="#DejaVuSans-115"/>
      <use x="1406.513672" xlink:href="#DejaVuSans-115"/>
     </g>
    </g>
    <g id="line2d_55">
     <path d="M 192.848125 172.551687 
L 212.848125 172.551687 
" style="fill:none;stroke:#bcbd22;stroke-linecap:square;stroke-width:1.5;"/>
    </g>
    <g id="line2d_56">
     <g>
      <use style="fill:#bcbd22;stroke:#bcbd22;" x="202.848125" xlink:href="#m7754b7cee9" y="172.551687"/>
     </g>
    </g>
    <g id="text_26">
     <!-- sgd-main/loss -->
     <g transform="translate(220.848125 176.051687)scale(0.1 -0.1)">
      <use xlink:href="#DejaVuSans-115"/>
      <use x="52.099609" xlink:href="#DejaVuSans-103"/>
      <use x="115.576172" xlink:href="#DejaVuSans-100"/>
      <use x="179.052734" xlink:href="#DejaVuSans-45"/>
      <use x="215.136719" xlink:href="#DejaVuSans-109"/>
      <use x="312.548828" xlink:href="#DejaVuSans-97"/>
      <use x="373.828125" xlink:href="#DejaVuSans-105"/>
      <use x="401.611328" xlink:href="#DejaVuSans-110"/>
      <use x="464.990234" xlink:href="#DejaVuSans-47"/>
      <use x="498.681641" xlink:href="#DejaVuSans-108"/>
      <use x="526.464844" xlink:href="#DejaVuSans-111"/>
      <use x="587.646484" xlink:href="#DejaVuSans-115"/>
      <use x="639.746094" xlink:href="#DejaVuSans-115"/>
     </g>
    </g>
    <g id="line2d_57">
     <path d="M 192.848125 187.229812 
L 212.848125 187.229812 
" style="fill:none;stroke:#17becf;stroke-linecap:square;stroke-width:1.5;"/>
    </g>
    <g id="line2d_58">
     <g>
      <use style="fill:#17becf;stroke:#17becf;" x="202.848125" xlink:href="#m1478fec6f4" y="187.229812"/>
     </g>
    </g>
    <g id="text_27">
     <!-- sgd-validation/main/loss -->
     <g transform="translate(220.848125 190.729812)scale(0.1 -0.1)">
      <use xlink:href="#DejaVuSans-115"/>
      <use x="52.099609" xlink:href="#DejaVuSans-103"/>
      <use x="115.576172" xlink:href="#DejaVuSans-100"/>
      <use x="179.052734" xlink:href="#DejaVuSans-45"/>
      <use x="215.105469" xlink:href="#DejaVuSans-118"/>
      <use x="274.285156" xlink:href="#DejaVuSans-97"/>
      <use x="335.564453" xlink:href="#DejaVuSans-108"/>
      <use x="363.347656" xlink:href="#DejaVuSans-105"/>
      <use x="391.130859" xlink:href="#DejaVuSans-100"/>
      <use x="454.607422" xlink:href="#DejaVuSans-97"/>
      <use x="515.886719" xlink:href="#DejaVuSans-116"/>
      <use x="555.095703" xlink:href="#DejaVuSans-105"/>
      <use x="582.878906" xlink:href="#DejaVuSans-111"/>
      <use x="644.060547" xlink:href="#DejaVuSans-110"/>
      <use x="707.439453" xlink:href="#DejaVuSans-47"/>
      <use x="741.130859" xlink:href="#DejaVuSans-109"/>
      <use x="838.542969" xlink:href="#DejaVuSans-97"/>
      <use x="899.822266" xlink:href="#DejaVuSans-105"/>
      <use x="927.605469" xlink:href="#DejaVuSans-110"/>
      <use x="990.984375" xlink:href="#DejaVuSans-47"/>
      <use x="1024.675781" xlink:href="#DejaVuSans-108"/>
      <use x="1052.458984" xlink:href="#DejaVuSans-111"/>
      <use x="1113.640625" xlink:href="#DejaVuSans-115"/>
      <use x="1165.740234" xlink:href="#DejaVuSans-115"/>
     </g>
    </g>
   </g>
  </g>
 </g>
 <defs>
  <clipPath id="p0d2d640af8">
   <rect height="266.112" width="357.12" x="57.6" y="41.472"/>
  </clipPath>
 </defs>
</svg>
