<?xml version="1.0" encoding="utf-8" standalone="no"?>
<!DOCTYPE svg PUBLIC "-//W3C//DTD SVG 1.1//EN"
  "http://www.w3.org/Graphics/SVG/1.1/DTD/svg11.dtd">
<!-- Created with matplotlib (https://matplotlib.org/) -->
<svg height="345.6pt" version="1.1" viewBox="0 0 460.8 345.6" width="460.8pt" xmlns="http://www.w3.org/2000/svg" xmlns:xlink="http://www.w3.org/1999/xlink">
 <defs>
  <style type="text/css">
*{stroke-linecap:butt;stroke-linejoin:round;}
  </style>
 </defs>
 <g id="figure_1">
  <g id="patch_1">
   <path d="M 0 345.6 
L 460.8 345.6 
L 460.8 0 
L 0 0 
z
" style="fill:#ffffff;"/>
  </g>
  <g id="axes_1">
   <g id="patch_2">
    <path d="M 57.6 307.584 
L 414.72 307.584 
L 414.72 41.472 
L 57.6 41.472 
z
" style="fill:#ffffff;"/>
   </g>
   <g id="matplotlib.axis_1">
    <g id="xtick_1">
     <g id="line2d_1">
      <path clip-path="url(#pa320464289)" d="M 73.832727 307.584 
L 73.832727 41.472 
" style="fill:none;stroke:#b0b0b0;stroke-linecap:square;stroke-width:0.8;"/>
     </g>
     <g id="line2d_2">
      <defs>
       <path d="M 0 0 
L 0 3.5 
" id="m02b7453b6d" style="stroke:#000000;stroke-width:0.8;"/>
      </defs>
      <g>
       <use style="stroke:#000000;stroke-width:0.8;" x="73.832727" xlink:href="#m02b7453b6d" y="307.584"/>
      </g>
     </g>
     <g id="text_1">
      <!-- 0 -->
      <defs>
       <path d="M 31.78125 66.40625 
Q 24.171875 66.40625 20.328125 58.90625 
Q 16.5 51.421875 16.5 36.375 
Q 16.5 21.390625 20.328125 13.890625 
Q 24.171875 6.390625 31.78125 6.390625 
Q 39.453125 6.390625 43.28125 13.890625 
Q 47.125 21.390625 47.125 36.375 
Q 47.125 51.421875 43.28125 58.90625 
Q 39.453125 66.40625 31.78125 66.40625 
z
M 31.78125 74.21875 
Q 44.046875 74.21875 50.515625 64.515625 
Q 56.984375 54.828125 56.984375 36.375 
Q 56.984375 17.96875 50.515625 8.265625 
Q 44.046875 -1.421875 31.78125 -1.421875 
Q 19.53125 -1.421875 13.0625 8.265625 
Q 6.59375 17.96875 6.59375 36.375 
Q 6.59375 54.828125 13.0625 64.515625 
Q 19.53125 74.21875 31.78125 74.21875 
z
" id="DejaVuSans-48"/>
      </defs>
      <g transform="translate(70.651477 322.182437)scale(0.1 -0.1)">
       <use xlink:href="#DejaVuSans-48"/>
      </g>
     </g>
    </g>
    <g id="xtick_2">
     <g id="line2d_3">
      <path clip-path="url(#pa320464289)" d="M 145.978182 307.584 
L 145.978182 41.472 
" style="fill:none;stroke:#b0b0b0;stroke-linecap:square;stroke-width:0.8;"/>
     </g>
     <g id="line2d_4">
      <g>
       <use style="stroke:#000000;stroke-width:0.8;" x="145.978182" xlink:href="#m02b7453b6d" y="307.584"/>
      </g>
     </g>
     <g id="text_2">
      <!-- 2 -->
      <defs>
       <path d="M 19.1875 8.296875 
L 53.609375 8.296875 
L 53.609375 0 
L 7.328125 0 
L 7.328125 8.296875 
Q 12.9375 14.109375 22.625 23.890625 
Q 32.328125 33.6875 34.8125 36.53125 
Q 39.546875 41.84375 41.421875 45.53125 
Q 43.3125 49.21875 43.3125 52.78125 
Q 43.3125 58.59375 39.234375 62.25 
Q 35.15625 65.921875 28.609375 65.921875 
Q 23.96875 65.921875 18.8125 64.3125 
Q 13.671875 62.703125 7.8125 59.421875 
L 7.8125 69.390625 
Q 13.765625 71.78125 18.9375 73 
Q 24.125 74.21875 28.421875 74.21875 
Q 39.75 74.21875 46.484375 68.546875 
Q 53.21875 62.890625 53.21875 53.421875 
Q 53.21875 48.921875 51.53125 44.890625 
Q 49.859375 40.875 45.40625 35.40625 
Q 44.1875 33.984375 37.640625 27.21875 
Q 31.109375 20.453125 19.1875 8.296875 
z
" id="DejaVuSans-50"/>
      </defs>
      <g transform="translate(142.796932 322.182437)scale(0.1 -0.1)">
       <use xlink:href="#DejaVuSans-50"/>
      </g>
     </g>
    </g>
    <g id="xtick_3">
     <g id="line2d_5">
      <path clip-path="url(#pa320464289)" d="M 218.123636 307.584 
L 218.123636 41.472 
" style="fill:none;stroke:#b0b0b0;stroke-linecap:square;stroke-width:0.8;"/>
     </g>
     <g id="line2d_6">
      <g>
       <use style="stroke:#000000;stroke-width:0.8;" x="218.123636" xlink:href="#m02b7453b6d" y="307.584"/>
      </g>
     </g>
     <g id="text_3">
      <!-- 4 -->
      <defs>
       <path d="M 37.796875 64.3125 
L 12.890625 25.390625 
L 37.796875 25.390625 
z
M 35.203125 72.90625 
L 47.609375 72.90625 
L 47.609375 25.390625 
L 58.015625 25.390625 
L 58.015625 17.1875 
L 47.609375 17.1875 
L 47.609375 0 
L 37.796875 0 
L 37.796875 17.1875 
L 4.890625 17.1875 
L 4.890625 26.703125 
z
" id="DejaVuSans-52"/>
      </defs>
      <g transform="translate(214.942386 322.182437)scale(0.1 -0.1)">
       <use xlink:href="#DejaVuSans-52"/>
      </g>
     </g>
    </g>
    <g id="xtick_4">
     <g id="line2d_7">
      <path clip-path="url(#pa320464289)" d="M 290.269091 307.584 
L 290.269091 41.472 
" style="fill:none;stroke:#b0b0b0;stroke-linecap:square;stroke-width:0.8;"/>
     </g>
     <g id="line2d_8">
      <g>
       <use style="stroke:#000000;stroke-width:0.8;" x="290.269091" xlink:href="#m02b7453b6d" y="307.584"/>
      </g>
     </g>
     <g id="text_4">
      <!-- 6 -->
      <defs>
       <path d="M 33.015625 40.375 
Q 26.375 40.375 22.484375 35.828125 
Q 18.609375 31.296875 18.609375 23.390625 
Q 18.609375 15.53125 22.484375 10.953125 
Q 26.375 6.390625 33.015625 6.390625 
Q 39.65625 6.390625 43.53125 10.953125 
Q 47.40625 15.53125 47.40625 23.390625 
Q 47.40625 31.296875 43.53125 35.828125 
Q 39.65625 40.375 33.015625 40.375 
z
M 52.59375 71.296875 
L 52.59375 62.3125 
Q 48.875 64.0625 45.09375 64.984375 
Q 41.3125 65.921875 37.59375 65.921875 
Q 27.828125 65.921875 22.671875 59.328125 
Q 17.53125 52.734375 16.796875 39.40625 
Q 19.671875 43.65625 24.015625 45.921875 
Q 28.375 48.1875 33.59375 48.1875 
Q 44.578125 48.1875 50.953125 41.515625 
Q 57.328125 34.859375 57.328125 23.390625 
Q 57.328125 12.15625 50.6875 5.359375 
Q 44.046875 -1.421875 33.015625 -1.421875 
Q 20.359375 -1.421875 13.671875 8.265625 
Q 6.984375 17.96875 6.984375 36.375 
Q 6.984375 53.65625 15.1875 63.9375 
Q 23.390625 74.21875 37.203125 74.21875 
Q 40.921875 74.21875 44.703125 73.484375 
Q 48.484375 72.75 52.59375 71.296875 
z
" id="DejaVuSans-54"/>
      </defs>
      <g transform="translate(287.087841 322.182437)scale(0.1 -0.1)">
       <use xlink:href="#DejaVuSans-54"/>
      </g>
     </g>
    </g>
    <g id="xtick_5">
     <g id="line2d_9">
      <path clip-path="url(#pa320464289)" d="M 362.414545 307.584 
L 362.414545 41.472 
" style="fill:none;stroke:#b0b0b0;stroke-linecap:square;stroke-width:0.8;"/>
     </g>
     <g id="line2d_10">
      <g>
       <use style="stroke:#000000;stroke-width:0.8;" x="362.414545" xlink:href="#m02b7453b6d" y="307.584"/>
      </g>
     </g>
     <g id="text_5">
      <!-- 8 -->
      <defs>
       <path d="M 31.78125 34.625 
Q 24.75 34.625 20.71875 30.859375 
Q 16.703125 27.09375 16.703125 20.515625 
Q 16.703125 13.921875 20.71875 10.15625 
Q 24.75 6.390625 31.78125 6.390625 
Q 38.8125 6.390625 42.859375 10.171875 
Q 46.921875 13.96875 46.921875 20.515625 
Q 46.921875 27.09375 42.890625 30.859375 
Q 38.875 34.625 31.78125 34.625 
z
M 21.921875 38.8125 
Q 15.578125 40.375 12.03125 44.71875 
Q 8.5 49.078125 8.5 55.328125 
Q 8.5 64.0625 14.71875 69.140625 
Q 20.953125 74.21875 31.78125 74.21875 
Q 42.671875 74.21875 48.875 69.140625 
Q 55.078125 64.0625 55.078125 55.328125 
Q 55.078125 49.078125 51.53125 44.71875 
Q 48 40.375 41.703125 38.8125 
Q 48.828125 37.15625 52.796875 32.3125 
Q 56.78125 27.484375 56.78125 20.515625 
Q 56.78125 9.90625 50.3125 4.234375 
Q 43.84375 -1.421875 31.78125 -1.421875 
Q 19.734375 -1.421875 13.25 4.234375 
Q 6.78125 9.90625 6.78125 20.515625 
Q 6.78125 27.484375 10.78125 32.3125 
Q 14.796875 37.15625 21.921875 38.8125 
z
M 18.3125 54.390625 
Q 18.3125 48.734375 21.84375 45.5625 
Q 25.390625 42.390625 31.78125 42.390625 
Q 38.140625 42.390625 41.71875 45.5625 
Q 45.3125 48.734375 45.3125 54.390625 
Q 45.3125 60.0625 41.71875 63.234375 
Q 38.140625 66.40625 31.78125 66.40625 
Q 25.390625 66.40625 21.84375 63.234375 
Q 18.3125 60.0625 18.3125 54.390625 
z
" id="DejaVuSans-56"/>
      </defs>
      <g transform="translate(359.233295 322.182437)scale(0.1 -0.1)">
       <use xlink:href="#DejaVuSans-56"/>
      </g>
     </g>
    </g>
    <g id="text_6">
     <!-- Epoch Num -->
     <defs>
      <path d="M 9.8125 72.90625 
L 55.90625 72.90625 
L 55.90625 64.59375 
L 19.671875 64.59375 
L 19.671875 43.015625 
L 54.390625 43.015625 
L 54.390625 34.71875 
L 19.671875 34.71875 
L 19.671875 8.296875 
L 56.78125 8.296875 
L 56.78125 0 
L 9.8125 0 
z
" id="DejaVuSans-69"/>
      <path d="M 18.109375 8.203125 
L 18.109375 -20.796875 
L 9.078125 -20.796875 
L 9.078125 54.6875 
L 18.109375 54.6875 
L 18.109375 46.390625 
Q 20.953125 51.265625 25.265625 53.625 
Q 29.59375 56 35.59375 56 
Q 45.5625 56 51.78125 48.09375 
Q 58.015625 40.1875 58.015625 27.296875 
Q 58.015625 14.40625 51.78125 6.484375 
Q 45.5625 -1.421875 35.59375 -1.421875 
Q 29.59375 -1.421875 25.265625 0.953125 
Q 20.953125 3.328125 18.109375 8.203125 
z
M 48.6875 27.296875 
Q 48.6875 37.203125 44.609375 42.84375 
Q 40.53125 48.484375 33.40625 48.484375 
Q 26.265625 48.484375 22.1875 42.84375 
Q 18.109375 37.203125 18.109375 27.296875 
Q 18.109375 17.390625 22.1875 11.75 
Q 26.265625 6.109375 33.40625 6.109375 
Q 40.53125 6.109375 44.609375 11.75 
Q 48.6875 17.390625 48.6875 27.296875 
z
" id="DejaVuSans-112"/>
      <path d="M 30.609375 48.390625 
Q 23.390625 48.390625 19.1875 42.75 
Q 14.984375 37.109375 14.984375 27.296875 
Q 14.984375 17.484375 19.15625 11.84375 
Q 23.34375 6.203125 30.609375 6.203125 
Q 37.796875 6.203125 41.984375 11.859375 
Q 46.1875 17.53125 46.1875 27.296875 
Q 46.1875 37.015625 41.984375 42.703125 
Q 37.796875 48.390625 30.609375 48.390625 
z
M 30.609375 56 
Q 42.328125 56 49.015625 48.375 
Q 55.71875 40.765625 55.71875 27.296875 
Q 55.71875 13.875 49.015625 6.21875 
Q 42.328125 -1.421875 30.609375 -1.421875 
Q 18.84375 -1.421875 12.171875 6.21875 
Q 5.515625 13.875 5.515625 27.296875 
Q 5.515625 40.765625 12.171875 48.375 
Q 18.84375 56 30.609375 56 
z
" id="DejaVuSans-111"/>
      <path d="M 48.78125 52.59375 
L 48.78125 44.1875 
Q 44.96875 46.296875 41.140625 47.34375 
Q 37.3125 48.390625 33.40625 48.390625 
Q 24.65625 48.390625 19.8125 42.84375 
Q 14.984375 37.3125 14.984375 27.296875 
Q 14.984375 17.28125 19.8125 11.734375 
Q 24.65625 6.203125 33.40625 6.203125 
Q 37.3125 6.203125 41.140625 7.25 
Q 44.96875 8.296875 48.78125 10.40625 
L 48.78125 2.09375 
Q 45.015625 0.34375 40.984375 -0.53125 
Q 36.96875 -1.421875 32.421875 -1.421875 
Q 20.0625 -1.421875 12.78125 6.34375 
Q 5.515625 14.109375 5.515625 27.296875 
Q 5.515625 40.671875 12.859375 48.328125 
Q 20.21875 56 33.015625 56 
Q 37.15625 56 41.109375 55.140625 
Q 45.0625 54.296875 48.78125 52.59375 
z
" id="DejaVuSans-99"/>
      <path d="M 54.890625 33.015625 
L 54.890625 0 
L 45.90625 0 
L 45.90625 32.71875 
Q 45.90625 40.484375 42.875 44.328125 
Q 39.84375 48.1875 33.796875 48.1875 
Q 26.515625 48.1875 22.3125 43.546875 
Q 18.109375 38.921875 18.109375 30.90625 
L 18.109375 0 
L 9.078125 0 
L 9.078125 75.984375 
L 18.109375 75.984375 
L 18.109375 46.1875 
Q 21.34375 51.125 25.703125 53.5625 
Q 30.078125 56 35.796875 56 
Q 45.21875 56 50.046875 50.171875 
Q 54.890625 44.34375 54.890625 33.015625 
z
" id="DejaVuSans-104"/>
      <path id="DejaVuSans-32"/>
      <path d="M 9.8125 72.90625 
L 23.09375 72.90625 
L 55.421875 11.921875 
L 55.421875 72.90625 
L 64.984375 72.90625 
L 64.984375 0 
L 51.703125 0 
L 19.390625 60.984375 
L 19.390625 0 
L 9.8125 0 
z
" id="DejaVuSans-78"/>
      <path d="M 8.5 21.578125 
L 8.5 54.6875 
L 17.484375 54.6875 
L 17.484375 21.921875 
Q 17.484375 14.15625 20.5 10.265625 
Q 23.53125 6.390625 29.59375 6.390625 
Q 36.859375 6.390625 41.078125 11.03125 
Q 45.3125 15.671875 45.3125 23.6875 
L 45.3125 54.6875 
L 54.296875 54.6875 
L 54.296875 0 
L 45.3125 0 
L 45.3125 8.40625 
Q 42.046875 3.421875 37.71875 1 
Q 33.40625 -1.421875 27.6875 -1.421875 
Q 18.265625 -1.421875 13.375 4.4375 
Q 8.5 10.296875 8.5 21.578125 
z
M 31.109375 56 
z
" id="DejaVuSans-117"/>
      <path d="M 52 44.1875 
Q 55.375 50.25 60.0625 53.125 
Q 64.75 56 71.09375 56 
Q 79.640625 56 84.28125 50.015625 
Q 88.921875 44.046875 88.921875 33.015625 
L 88.921875 0 
L 79.890625 0 
L 79.890625 32.71875 
Q 79.890625 40.578125 77.09375 44.375 
Q 74.3125 48.1875 68.609375 48.1875 
Q 61.625 48.1875 57.5625 43.546875 
Q 53.515625 38.921875 53.515625 30.90625 
L 53.515625 0 
L 44.484375 0 
L 44.484375 32.71875 
Q 44.484375 40.625 41.703125 44.40625 
Q 38.921875 48.1875 33.109375 48.1875 
Q 26.21875 48.1875 22.15625 43.53125 
Q 18.109375 38.875 18.109375 30.90625 
L 18.109375 0 
L 9.078125 0 
L 9.078125 54.6875 
L 18.109375 54.6875 
L 18.109375 46.1875 
Q 21.1875 51.21875 25.484375 53.609375 
Q 29.78125 56 35.6875 56 
Q 41.65625 56 45.828125 52.96875 
Q 50 49.953125 52 44.1875 
z
" id="DejaVuSans-109"/>
     </defs>
     <g transform="translate(207.480312 335.860562)scale(0.1 -0.1)">
      <use xlink:href="#DejaVuSans-69"/>
      <use x="63.183594" xlink:href="#DejaVuSans-112"/>
      <use x="126.660156" xlink:href="#DejaVuSans-111"/>
      <use x="187.841797" xlink:href="#DejaVuSans-99"/>
      <use x="242.822266" xlink:href="#DejaVuSans-104"/>
      <use x="306.201172" xlink:href="#DejaVuSans-32"/>
      <use x="337.988281" xlink:href="#DejaVuSans-78"/>
      <use x="412.792969" xlink:href="#DejaVuSans-117"/>
      <use x="476.171875" xlink:href="#DejaVuSans-109"/>
     </g>
    </g>
   </g>
   <g id="matplotlib.axis_2">
    <g id="ytick_1">
     <g id="line2d_11">
      <path clip-path="url(#pa320464289)" d="M 57.6 299.702744 
L 414.72 299.702744 
" style="fill:none;stroke:#b0b0b0;stroke-linecap:square;stroke-width:0.8;"/>
     </g>
     <g id="line2d_12">
      <defs>
       <path d="M 0 0 
L -3.5 0 
" id="m5d52c29a71" style="stroke:#000000;stroke-width:0.8;"/>
      </defs>
      <g>
       <use style="stroke:#000000;stroke-width:0.8;" x="57.6" xlink:href="#m5d52c29a71" y="299.702744"/>
      </g>
     </g>
     <g id="text_7">
      <!-- 0.00 -->
      <defs>
       <path d="M 10.6875 12.40625 
L 21 12.40625 
L 21 0 
L 10.6875 0 
z
" id="DejaVuSans-46"/>
      </defs>
      <g transform="translate(28.334375 303.501963)scale(0.1 -0.1)">
       <use xlink:href="#DejaVuSans-48"/>
       <use x="63.623047" xlink:href="#DejaVuSans-46"/>
       <use x="95.410156" xlink:href="#DejaVuSans-48"/>
       <use x="159.033203" xlink:href="#DejaVuSans-48"/>
      </g>
     </g>
    </g>
    <g id="ytick_2">
     <g id="line2d_13">
      <path clip-path="url(#pa320464289)" d="M 57.6 263.76084 
L 414.72 263.76084 
" style="fill:none;stroke:#b0b0b0;stroke-linecap:square;stroke-width:0.8;"/>
     </g>
     <g id="line2d_14">
      <g>
       <use style="stroke:#000000;stroke-width:0.8;" x="57.6" xlink:href="#m5d52c29a71" y="263.76084"/>
      </g>
     </g>
     <g id="text_8">
      <!-- 0.25 -->
      <defs>
       <path d="M 10.796875 72.90625 
L 49.515625 72.90625 
L 49.515625 64.59375 
L 19.828125 64.59375 
L 19.828125 46.734375 
Q 21.96875 47.46875 24.109375 47.828125 
Q 26.265625 48.1875 28.421875 48.1875 
Q 40.625 48.1875 47.75 41.5 
Q 54.890625 34.8125 54.890625 23.390625 
Q 54.890625 11.625 47.5625 5.09375 
Q 40.234375 -1.421875 26.90625 -1.421875 
Q 22.3125 -1.421875 17.546875 -0.640625 
Q 12.796875 0.140625 7.71875 1.703125 
L 7.71875 11.625 
Q 12.109375 9.234375 16.796875 8.0625 
Q 21.484375 6.890625 26.703125 6.890625 
Q 35.15625 6.890625 40.078125 11.328125 
Q 45.015625 15.765625 45.015625 23.390625 
Q 45.015625 31 40.078125 35.4375 
Q 35.15625 39.890625 26.703125 39.890625 
Q 22.75 39.890625 18.8125 39.015625 
Q 14.890625 38.140625 10.796875 36.28125 
z
" id="DejaVuSans-53"/>
      </defs>
      <g transform="translate(28.334375 267.560059)scale(0.1 -0.1)">
       <use xlink:href="#DejaVuSans-48"/>
       <use x="63.623047" xlink:href="#DejaVuSans-46"/>
       <use x="95.410156" xlink:href="#DejaVuSans-50"/>
       <use x="159.033203" xlink:href="#DejaVuSans-53"/>
      </g>
     </g>
    </g>
    <g id="ytick_3">
     <g id="line2d_15">
      <path clip-path="url(#pa320464289)" d="M 57.6 227.818937 
L 414.72 227.818937 
" style="fill:none;stroke:#b0b0b0;stroke-linecap:square;stroke-width:0.8;"/>
     </g>
     <g id="line2d_16">
      <g>
       <use style="stroke:#000000;stroke-width:0.8;" x="57.6" xlink:href="#m5d52c29a71" y="227.818937"/>
      </g>
     </g>
     <g id="text_9">
      <!-- 0.50 -->
      <g transform="translate(28.334375 231.618155)scale(0.1 -0.1)">
       <use xlink:href="#DejaVuSans-48"/>
       <use x="63.623047" xlink:href="#DejaVuSans-46"/>
       <use x="95.410156" xlink:href="#DejaVuSans-53"/>
       <use x="159.033203" xlink:href="#DejaVuSans-48"/>
      </g>
     </g>
    </g>
    <g id="ytick_4">
     <g id="line2d_17">
      <path clip-path="url(#pa320464289)" d="M 57.6 191.877033 
L 414.72 191.877033 
" style="fill:none;stroke:#b0b0b0;stroke-linecap:square;stroke-width:0.8;"/>
     </g>
     <g id="line2d_18">
      <g>
       <use style="stroke:#000000;stroke-width:0.8;" x="57.6" xlink:href="#m5d52c29a71" y="191.877033"/>
      </g>
     </g>
     <g id="text_10">
      <!-- 0.75 -->
      <defs>
       <path d="M 8.203125 72.90625 
L 55.078125 72.90625 
L 55.078125 68.703125 
L 28.609375 0 
L 18.3125 0 
L 43.21875 64.59375 
L 8.203125 64.59375 
z
" id="DejaVuSans-55"/>
      </defs>
      <g transform="translate(28.334375 195.676252)scale(0.1 -0.1)">
       <use xlink:href="#DejaVuSans-48"/>
       <use x="63.623047" xlink:href="#DejaVuSans-46"/>
       <use x="95.410156" xlink:href="#DejaVuSans-55"/>
       <use x="159.033203" xlink:href="#DejaVuSans-53"/>
      </g>
     </g>
    </g>
    <g id="ytick_5">
     <g id="line2d_19">
      <path clip-path="url(#pa320464289)" d="M 57.6 155.935129 
L 414.72 155.935129 
" style="fill:none;stroke:#b0b0b0;stroke-linecap:square;stroke-width:0.8;"/>
     </g>
     <g id="line2d_20">
      <g>
       <use style="stroke:#000000;stroke-width:0.8;" x="57.6" xlink:href="#m5d52c29a71" y="155.935129"/>
      </g>
     </g>
     <g id="text_11">
      <!-- 1.00 -->
      <defs>
       <path d="M 12.40625 8.296875 
L 28.515625 8.296875 
L 28.515625 63.921875 
L 10.984375 60.40625 
L 10.984375 69.390625 
L 28.421875 72.90625 
L 38.28125 72.90625 
L 38.28125 8.296875 
L 54.390625 8.296875 
L 54.390625 0 
L 12.40625 0 
z
" id="DejaVuSans-49"/>
      </defs>
      <g transform="translate(28.334375 159.734348)scale(0.1 -0.1)">
       <use xlink:href="#DejaVuSans-49"/>
       <use x="63.623047" xlink:href="#DejaVuSans-46"/>
       <use x="95.410156" xlink:href="#DejaVuSans-48"/>
       <use x="159.033203" xlink:href="#DejaVuSans-48"/>
      </g>
     </g>
    </g>
    <g id="ytick_6">
     <g id="line2d_21">
      <path clip-path="url(#pa320464289)" d="M 57.6 119.993226 
L 414.72 119.993226 
" style="fill:none;stroke:#b0b0b0;stroke-linecap:square;stroke-width:0.8;"/>
     </g>
     <g id="line2d_22">
      <g>
       <use style="stroke:#000000;stroke-width:0.8;" x="57.6" xlink:href="#m5d52c29a71" y="119.993226"/>
      </g>
     </g>
     <g id="text_12">
      <!-- 1.25 -->
      <g transform="translate(28.334375 123.792444)scale(0.1 -0.1)">
       <use xlink:href="#DejaVuSans-49"/>
       <use x="63.623047" xlink:href="#DejaVuSans-46"/>
       <use x="95.410156" xlink:href="#DejaVuSans-50"/>
       <use x="159.033203" xlink:href="#DejaVuSans-53"/>
      </g>
     </g>
    </g>
    <g id="ytick_7">
     <g id="line2d_23">
      <path clip-path="url(#pa320464289)" d="M 57.6 84.051322 
L 414.72 84.051322 
" style="fill:none;stroke:#b0b0b0;stroke-linecap:square;stroke-width:0.8;"/>
     </g>
     <g id="line2d_24">
      <g>
       <use style="stroke:#000000;stroke-width:0.8;" x="57.6" xlink:href="#m5d52c29a71" y="84.051322"/>
      </g>
     </g>
     <g id="text_13">
      <!-- 1.50 -->
      <g transform="translate(28.334375 87.850541)scale(0.1 -0.1)">
       <use xlink:href="#DejaVuSans-49"/>
       <use x="63.623047" xlink:href="#DejaVuSans-46"/>
       <use x="95.410156" xlink:href="#DejaVuSans-53"/>
       <use x="159.033203" xlink:href="#DejaVuSans-48"/>
      </g>
     </g>
    </g>
    <g id="ytick_8">
     <g id="line2d_25">
      <path clip-path="url(#pa320464289)" d="M 57.6 48.109418 
L 414.72 48.109418 
" style="fill:none;stroke:#b0b0b0;stroke-linecap:square;stroke-width:0.8;"/>
     </g>
     <g id="line2d_26">
      <g>
       <use style="stroke:#000000;stroke-width:0.8;" x="57.6" xlink:href="#m5d52c29a71" y="48.109418"/>
      </g>
     </g>
     <g id="text_14">
      <!-- 1.75 -->
      <g transform="translate(28.334375 51.908637)scale(0.1 -0.1)">
       <use xlink:href="#DejaVuSans-49"/>
       <use x="63.623047" xlink:href="#DejaVuSans-46"/>
       <use x="95.410156" xlink:href="#DejaVuSans-55"/>
       <use x="159.033203" xlink:href="#DejaVuSans-53"/>
      </g>
     </g>
    </g>
    <g id="text_15">
     <!-- Loss -->
     <defs>
      <path d="M 9.8125 72.90625 
L 19.671875 72.90625 
L 19.671875 8.296875 
L 55.171875 8.296875 
L 55.171875 0 
L 9.8125 0 
z
" id="DejaVuSans-76"/>
      <path d="M 44.28125 53.078125 
L 44.28125 44.578125 
Q 40.484375 46.53125 36.375 47.5 
Q 32.28125 48.484375 27.875 48.484375 
Q 21.1875 48.484375 17.84375 46.4375 
Q 14.5 44.390625 14.5 40.28125 
Q 14.5 37.15625 16.890625 35.375 
Q 19.28125 33.59375 26.515625 31.984375 
L 29.59375 31.296875 
Q 39.15625 29.25 43.1875 25.515625 
Q 47.21875 21.78125 47.21875 15.09375 
Q 47.21875 7.46875 41.1875 3.015625 
Q 35.15625 -1.421875 24.609375 -1.421875 
Q 20.21875 -1.421875 15.453125 -0.5625 
Q 10.6875 0.296875 5.421875 2 
L 5.421875 11.28125 
Q 10.40625 8.6875 15.234375 7.390625 
Q 20.0625 6.109375 24.8125 6.109375 
Q 31.15625 6.109375 34.5625 8.28125 
Q 37.984375 10.453125 37.984375 14.40625 
Q 37.984375 18.0625 35.515625 20.015625 
Q 33.0625 21.96875 24.703125 23.78125 
L 21.578125 24.515625 
Q 13.234375 26.265625 9.515625 29.90625 
Q 5.8125 33.546875 5.8125 39.890625 
Q 5.8125 47.609375 11.28125 51.796875 
Q 16.75 56 26.8125 56 
Q 31.78125 56 36.171875 55.265625 
Q 40.578125 54.546875 44.28125 53.078125 
z
" id="DejaVuSans-115"/>
     </defs>
     <g transform="translate(22.254688 185.581906)rotate(-90)scale(0.1 -0.1)">
      <use xlink:href="#DejaVuSans-76"/>
      <use x="55.697266" xlink:href="#DejaVuSans-111"/>
      <use x="116.878906" xlink:href="#DejaVuSans-115"/>
      <use x="168.978516" xlink:href="#DejaVuSans-115"/>
     </g>
    </g>
   </g>
   <g id="line2d_27">
    <path clip-path="url(#pa320464289)" d="M 73.832727 243.334028 
L 109.905455 276.446097 
L 145.978182 283.006395 
L 182.050909 286.594553 
L 218.123636 289.282117 
L 254.196364 291.13785 
L 290.269091 292.607297 
L 326.341818 293.603277 
L 362.414545 294.506078 
L 398.487273 295.488 
" style="fill:none;stroke:#1f77b4;stroke-linecap:square;stroke-width:1.5;"/>
    <defs>
     <path d="M -3 3 
L 3 -3 
M -3 -3 
L 3 3 
" id="m2f79e8053c" style="stroke:#1f77b4;"/>
    </defs>
    <g clip-path="url(#pa320464289)">
     <use style="fill:#1f77b4;stroke:#1f77b4;" x="73.832727" xlink:href="#m2f79e8053c" y="243.334028"/>
     <use style="fill:#1f77b4;stroke:#1f77b4;" x="109.905455" xlink:href="#m2f79e8053c" y="276.446097"/>
     <use style="fill:#1f77b4;stroke:#1f77b4;" x="145.978182" xlink:href="#m2f79e8053c" y="283.006395"/>
     <use style="fill:#1f77b4;stroke:#1f77b4;" x="182.050909" xlink:href="#m2f79e8053c" y="286.594553"/>
     <use style="fill:#1f77b4;stroke:#1f77b4;" x="218.123636" xlink:href="#m2f79e8053c" y="289.282117"/>
     <use style="fill:#1f77b4;stroke:#1f77b4;" x="254.196364" xlink:href="#m2f79e8053c" y="291.13785"/>
     <use style="fill:#1f77b4;stroke:#1f77b4;" x="290.269091" xlink:href="#m2f79e8053c" y="292.607297"/>
     <use style="fill:#1f77b4;stroke:#1f77b4;" x="326.341818" xlink:href="#m2f79e8053c" y="293.603277"/>
     <use style="fill:#1f77b4;stroke:#1f77b4;" x="362.414545" xlink:href="#m2f79e8053c" y="294.506078"/>
     <use style="fill:#1f77b4;stroke:#1f77b4;" x="398.487273" xlink:href="#m2f79e8053c" y="295.488"/>
    </g>
   </g>
   <g id="line2d_28">
    <path clip-path="url(#pa320464289)" d="M 73.832727 272.181943 
L 109.905455 277.165357 
L 145.978182 284.124873 
L 182.050909 284.409535 
L 218.123636 287.208683 
L 254.196364 284.76313 
L 290.269091 287.947441 
L 326.341818 287.896807 
L 362.414545 287.829159 
L 398.487273 285.893285 
" style="fill:none;stroke:#ff7f0e;stroke-linecap:square;stroke-width:1.5;"/>
    <defs>
     <path d="M -3 3 
L 3 -3 
M -3 -3 
L 3 3 
" id="m2ed2a99cc1" style="stroke:#ff7f0e;"/>
    </defs>
    <g clip-path="url(#pa320464289)">
     <use style="fill:#ff7f0e;stroke:#ff7f0e;" x="73.832727" xlink:href="#m2ed2a99cc1" y="272.181943"/>
     <use style="fill:#ff7f0e;stroke:#ff7f0e;" x="109.905455" xlink:href="#m2ed2a99cc1" y="277.165357"/>
     <use style="fill:#ff7f0e;stroke:#ff7f0e;" x="145.978182" xlink:href="#m2ed2a99cc1" y="284.124873"/>
     <use style="fill:#ff7f0e;stroke:#ff7f0e;" x="182.050909" xlink:href="#m2ed2a99cc1" y="284.409535"/>
     <use style="fill:#ff7f0e;stroke:#ff7f0e;" x="218.123636" xlink:href="#m2ed2a99cc1" y="287.208683"/>
     <use style="fill:#ff7f0e;stroke:#ff7f0e;" x="254.196364" xlink:href="#m2ed2a99cc1" y="284.76313"/>
     <use style="fill:#ff7f0e;stroke:#ff7f0e;" x="290.269091" xlink:href="#m2ed2a99cc1" y="287.947441"/>
     <use style="fill:#ff7f0e;stroke:#ff7f0e;" x="326.341818" xlink:href="#m2ed2a99cc1" y="287.896807"/>
     <use style="fill:#ff7f0e;stroke:#ff7f0e;" x="362.414545" xlink:href="#m2ed2a99cc1" y="287.829159"/>
     <use style="fill:#ff7f0e;stroke:#ff7f0e;" x="398.487273" xlink:href="#m2ed2a99cc1" y="285.893285"/>
    </g>
   </g>
   <g id="line2d_29">
    <path clip-path="url(#pa320464289)" d="M 73.832727 174.94449 
L 109.905455 234.880746 
L 145.978182 244.573035 
L 182.050909 249.310406 
L 218.123636 252.312571 
L 254.196364 254.424493 
L 290.269091 256.12356 
L 326.341818 257.477283 
L 362.414545 258.626939 
L 398.487273 259.569843 
" style="fill:none;stroke:#2ca02c;stroke-linecap:square;stroke-width:1.5;"/>
    <defs>
     <path d="M -3 3 
L 3 -3 
M -3 -3 
L 3 3 
" id="mecfd9f286d" style="stroke:#2ca02c;"/>
    </defs>
    <g clip-path="url(#pa320464289)">
     <use style="fill:#2ca02c;stroke:#2ca02c;" x="73.832727" xlink:href="#mecfd9f286d" y="174.94449"/>
     <use style="fill:#2ca02c;stroke:#2ca02c;" x="109.905455" xlink:href="#mecfd9f286d" y="234.880746"/>
     <use style="fill:#2ca02c;stroke:#2ca02c;" x="145.978182" xlink:href="#mecfd9f286d" y="244.573035"/>
     <use style="fill:#2ca02c;stroke:#2ca02c;" x="182.050909" xlink:href="#mecfd9f286d" y="249.310406"/>
     <use style="fill:#2ca02c;stroke:#2ca02c;" x="218.123636" xlink:href="#mecfd9f286d" y="252.312571"/>
     <use style="fill:#2ca02c;stroke:#2ca02c;" x="254.196364" xlink:href="#mecfd9f286d" y="254.424493"/>
     <use style="fill:#2ca02c;stroke:#2ca02c;" x="290.269091" xlink:href="#mecfd9f286d" y="256.12356"/>
     <use style="fill:#2ca02c;stroke:#2ca02c;" x="326.341818" xlink:href="#mecfd9f286d" y="257.477283"/>
     <use style="fill:#2ca02c;stroke:#2ca02c;" x="362.414545" xlink:href="#mecfd9f286d" y="258.626939"/>
     <use style="fill:#2ca02c;stroke:#2ca02c;" x="398.487273" xlink:href="#mecfd9f286d" y="259.569843"/>
    </g>
   </g>
   <g id="line2d_30">
    <path clip-path="url(#pa320464289)" d="M 73.832727 228.299539 
L 109.905455 243.27672 
L 145.978182 249.198079 
L 182.050909 252.52908 
L 218.123636 254.967108 
L 254.196364 256.623887 
L 290.269091 258.023155 
L 326.341818 259.219132 
L 362.414545 260.132689 
L 398.487273 260.937854 
" style="fill:none;stroke:#d62728;stroke-linecap:square;stroke-width:1.5;"/>
    <defs>
     <path d="M -3 3 
L 3 -3 
M -3 -3 
L 3 3 
" id="ma6d491b450" style="stroke:#d62728;"/>
    </defs>
    <g clip-path="url(#pa320464289)">
     <use style="fill:#d62728;stroke:#d62728;" x="73.832727" xlink:href="#ma6d491b450" y="228.299539"/>
     <use style="fill:#d62728;stroke:#d62728;" x="109.905455" xlink:href="#ma6d491b450" y="243.27672"/>
     <use style="fill:#d62728;stroke:#d62728;" x="145.978182" xlink:href="#ma6d491b450" y="249.198079"/>
     <use style="fill:#d62728;stroke:#d62728;" x="182.050909" xlink:href="#ma6d491b450" y="252.52908"/>
     <use style="fill:#d62728;stroke:#d62728;" x="218.123636" xlink:href="#ma6d491b450" y="254.967108"/>
     <use style="fill:#d62728;stroke:#d62728;" x="254.196364" xlink:href="#ma6d491b450" y="256.623887"/>
     <use style="fill:#d62728;stroke:#d62728;" x="290.269091" xlink:href="#ma6d491b450" y="258.023155"/>
     <use style="fill:#d62728;stroke:#d62728;" x="326.341818" xlink:href="#ma6d491b450" y="259.219132"/>
     <use style="fill:#d62728;stroke:#d62728;" x="362.414545" xlink:href="#ma6d491b450" y="260.132689"/>
     <use style="fill:#d62728;stroke:#d62728;" x="398.487273" xlink:href="#ma6d491b450" y="260.937854"/>
    </g>
   </g>
   <g id="line2d_31">
    <path clip-path="url(#pa320464289)" d="M 73.832727 215.423049 
L 109.905455 261.784723 
L 145.978182 270.929982 
L 182.050909 276.412943 
L 218.123636 280.100044 
L 254.196364 282.770018 
L 290.269091 285.03538 
L 326.341818 286.679197 
L 362.414545 287.93571 
L 398.487273 289.220976 
" style="fill:none;stroke:#9467bd;stroke-linecap:square;stroke-width:1.5;"/>
    <defs>
     <path d="M -3 3 
L 3 -3 
M -3 -3 
L 3 3 
" id="m30a97210c7" style="stroke:#9467bd;"/>
    </defs>
    <g clip-path="url(#pa320464289)">
     <use style="fill:#9467bd;stroke:#9467bd;" x="73.832727" xlink:href="#m30a97210c7" y="215.423049"/>
     <use style="fill:#9467bd;stroke:#9467bd;" x="109.905455" xlink:href="#m30a97210c7" y="261.784723"/>
     <use style="fill:#9467bd;stroke:#9467bd;" x="145.978182" xlink:href="#m30a97210c7" y="270.929982"/>
     <use style="fill:#9467bd;stroke:#9467bd;" x="182.050909" xlink:href="#m30a97210c7" y="276.412943"/>
     <use style="fill:#9467bd;stroke:#9467bd;" x="218.123636" xlink:href="#m30a97210c7" y="280.100044"/>
     <use style="fill:#9467bd;stroke:#9467bd;" x="254.196364" xlink:href="#m30a97210c7" y="282.770018"/>
     <use style="fill:#9467bd;stroke:#9467bd;" x="290.269091" xlink:href="#m30a97210c7" y="285.03538"/>
     <use style="fill:#9467bd;stroke:#9467bd;" x="326.341818" xlink:href="#m30a97210c7" y="286.679197"/>
     <use style="fill:#9467bd;stroke:#9467bd;" x="362.414545" xlink:href="#m30a97210c7" y="287.93571"/>
     <use style="fill:#9467bd;stroke:#9467bd;" x="398.487273" xlink:href="#m30a97210c7" y="289.220976"/>
    </g>
   </g>
   <g id="line2d_32">
    <path clip-path="url(#pa320464289)" d="M 73.832727 258.035432 
L 109.905455 269.095588 
L 145.978182 274.664533 
L 182.050909 277.909941 
L 218.123636 281.303301 
L 254.196364 282.678734 
L 290.269091 282.725169 
L 326.341818 284.879385 
L 362.414545 284.755488 
L 398.487273 285.109653 
" style="fill:none;stroke:#8c564b;stroke-linecap:square;stroke-width:1.5;"/>
    <defs>
     <path d="M -3 3 
L 3 -3 
M -3 -3 
L 3 3 
" id="me3ffcb7dea" style="stroke:#8c564b;"/>
    </defs>
    <g clip-path="url(#pa320464289)">
     <use style="fill:#8c564b;stroke:#8c564b;" x="73.832727" xlink:href="#me3ffcb7dea" y="258.035432"/>
     <use style="fill:#8c564b;stroke:#8c564b;" x="109.905455" xlink:href="#me3ffcb7dea" y="269.095588"/>
     <use style="fill:#8c564b;stroke:#8c564b;" x="145.978182" xlink:href="#me3ffcb7dea" y="274.664533"/>
     <use style="fill:#8c564b;stroke:#8c564b;" x="182.050909" xlink:href="#me3ffcb7dea" y="277.909941"/>
     <use style="fill:#8c564b;stroke:#8c564b;" x="218.123636" xlink:href="#me3ffcb7dea" y="281.303301"/>
     <use style="fill:#8c564b;stroke:#8c564b;" x="254.196364" xlink:href="#me3ffcb7dea" y="282.678734"/>
     <use style="fill:#8c564b;stroke:#8c564b;" x="290.269091" xlink:href="#me3ffcb7dea" y="282.725169"/>
     <use style="fill:#8c564b;stroke:#8c564b;" x="326.341818" xlink:href="#me3ffcb7dea" y="284.879385"/>
     <use style="fill:#8c564b;stroke:#8c564b;" x="362.414545" xlink:href="#me3ffcb7dea" y="284.755488"/>
     <use style="fill:#8c564b;stroke:#8c564b;" x="398.487273" xlink:href="#me3ffcb7dea" y="285.109653"/>
    </g>
   </g>
   <g id="line2d_33">
    <path clip-path="url(#pa320464289)" d="M 73.832727 204.260557 
L 109.905455 273.251665 
L 145.978182 277.710291 
L 182.050909 280.604516 
L 218.123636 282.308874 
L 254.196364 283.860012 
L 290.269091 284.381542 
L 326.341818 285.597415 
L 362.414545 286.512278 
L 398.487273 286.782897 
" style="fill:none;stroke:#e377c2;stroke-linecap:square;stroke-width:1.5;"/>
    <defs>
     <path d="M -3 3 
L 3 -3 
M -3 -3 
L 3 3 
" id="ma81ee3d731" style="stroke:#e377c2;"/>
    </defs>
    <g clip-path="url(#pa320464289)">
     <use style="fill:#e377c2;stroke:#e377c2;" x="73.832727" xlink:href="#ma81ee3d731" y="204.260557"/>
     <use style="fill:#e377c2;stroke:#e377c2;" x="109.905455" xlink:href="#ma81ee3d731" y="273.251665"/>
     <use style="fill:#e377c2;stroke:#e377c2;" x="145.978182" xlink:href="#ma81ee3d731" y="277.710291"/>
     <use style="fill:#e377c2;stroke:#e377c2;" x="182.050909" xlink:href="#ma81ee3d731" y="280.604516"/>
     <use style="fill:#e377c2;stroke:#e377c2;" x="218.123636" xlink:href="#ma81ee3d731" y="282.308874"/>
     <use style="fill:#e377c2;stroke:#e377c2;" x="254.196364" xlink:href="#ma81ee3d731" y="283.860012"/>
     <use style="fill:#e377c2;stroke:#e377c2;" x="290.269091" xlink:href="#ma81ee3d731" y="284.381542"/>
     <use style="fill:#e377c2;stroke:#e377c2;" x="326.341818" xlink:href="#ma81ee3d731" y="285.597415"/>
     <use style="fill:#e377c2;stroke:#e377c2;" x="362.414545" xlink:href="#ma81ee3d731" y="286.512278"/>
     <use style="fill:#e377c2;stroke:#e377c2;" x="398.487273" xlink:href="#ma81ee3d731" y="286.782897"/>
    </g>
   </g>
   <g id="line2d_34">
    <path clip-path="url(#pa320464289)" d="M 73.832727 275.066253 
L 109.905455 278.41645 
L 145.978182 277.997933 
L 182.050909 271.440333 
L 218.123636 279.11484 
L 254.196364 277.845271 
L 290.269091 277.191643 
L 326.341818 274.151335 
L 362.414545 278.433959 
L 398.487273 274.888654 
" style="fill:none;stroke:#7f7f7f;stroke-linecap:square;stroke-width:1.5;"/>
    <defs>
     <path d="M -3 3 
L 3 -3 
M -3 -3 
L 3 3 
" id="m04dd963a96" style="stroke:#7f7f7f;"/>
    </defs>
    <g clip-path="url(#pa320464289)">
     <use style="fill:#7f7f7f;stroke:#7f7f7f;" x="73.832727" xlink:href="#m04dd963a96" y="275.066253"/>
     <use style="fill:#7f7f7f;stroke:#7f7f7f;" x="109.905455" xlink:href="#m04dd963a96" y="278.41645"/>
     <use style="fill:#7f7f7f;stroke:#7f7f7f;" x="145.978182" xlink:href="#m04dd963a96" y="277.997933"/>
     <use style="fill:#7f7f7f;stroke:#7f7f7f;" x="182.050909" xlink:href="#m04dd963a96" y="271.440333"/>
     <use style="fill:#7f7f7f;stroke:#7f7f7f;" x="218.123636" xlink:href="#m04dd963a96" y="279.11484"/>
     <use style="fill:#7f7f7f;stroke:#7f7f7f;" x="254.196364" xlink:href="#m04dd963a96" y="277.845271"/>
     <use style="fill:#7f7f7f;stroke:#7f7f7f;" x="290.269091" xlink:href="#m04dd963a96" y="277.191643"/>
     <use style="fill:#7f7f7f;stroke:#7f7f7f;" x="326.341818" xlink:href="#m04dd963a96" y="274.151335"/>
     <use style="fill:#7f7f7f;stroke:#7f7f7f;" x="362.414545" xlink:href="#m04dd963a96" y="278.433959"/>
     <use style="fill:#7f7f7f;stroke:#7f7f7f;" x="398.487273" xlink:href="#m04dd963a96" y="274.888654"/>
    </g>
   </g>
   <g id="line2d_35">
    <path clip-path="url(#pa320464289)" d="M 73.832727 53.568 
L 109.905455 199.959406 
L 145.978182 233.172881 
L 182.050909 243.212311 
L 218.123636 248.231322 
L 254.196364 251.446078 
L 290.269091 253.943695 
L 326.341818 255.86487 
L 362.414545 257.506778 
L 398.487273 258.94825 
" style="fill:none;stroke:#bcbd22;stroke-linecap:square;stroke-width:1.5;"/>
    <defs>
     <path d="M -3 3 
L 3 -3 
M -3 -3 
L 3 3 
" id="mdd4d1b6c8f" style="stroke:#bcbd22;"/>
    </defs>
    <g clip-path="url(#pa320464289)">
     <use style="fill:#bcbd22;stroke:#bcbd22;" x="73.832727" xlink:href="#mdd4d1b6c8f" y="53.568"/>
     <use style="fill:#bcbd22;stroke:#bcbd22;" x="109.905455" xlink:href="#mdd4d1b6c8f" y="199.959406"/>
     <use style="fill:#bcbd22;stroke:#bcbd22;" x="145.978182" xlink:href="#mdd4d1b6c8f" y="233.172881"/>
     <use style="fill:#bcbd22;stroke:#bcbd22;" x="182.050909" xlink:href="#mdd4d1b6c8f" y="243.212311"/>
     <use style="fill:#bcbd22;stroke:#bcbd22;" x="218.123636" xlink:href="#mdd4d1b6c8f" y="248.231322"/>
     <use style="fill:#bcbd22;stroke:#bcbd22;" x="254.196364" xlink:href="#mdd4d1b6c8f" y="251.446078"/>
     <use style="fill:#bcbd22;stroke:#bcbd22;" x="290.269091" xlink:href="#mdd4d1b6c8f" y="253.943695"/>
     <use style="fill:#bcbd22;stroke:#bcbd22;" x="326.341818" xlink:href="#mdd4d1b6c8f" y="255.86487"/>
     <use style="fill:#bcbd22;stroke:#bcbd22;" x="362.414545" xlink:href="#mdd4d1b6c8f" y="257.506778"/>
     <use style="fill:#bcbd22;stroke:#bcbd22;" x="398.487273" xlink:href="#mdd4d1b6c8f" y="258.94825"/>
    </g>
   </g>
   <g id="line2d_36">
    <path clip-path="url(#pa320464289)" d="M 73.832727 160.655656 
L 109.905455 227.969472 
L 145.978182 243.065073 
L 182.050909 249.148548 
L 218.123636 252.657924 
L 254.196364 255.304917 
L 290.269091 256.97807 
L 326.341818 258.731722 
L 362.414545 260.043195 
L 398.487273 261.240653 
" style="fill:none;stroke:#17becf;stroke-linecap:square;stroke-width:1.5;"/>
    <defs>
     <path d="M -3 3 
L 3 -3 
M -3 -3 
L 3 3 
" id="m9be2d17f8f" style="stroke:#17becf;"/>
    </defs>
    <g clip-path="url(#pa320464289)">
     <use style="fill:#17becf;stroke:#17becf;" x="73.832727" xlink:href="#m9be2d17f8f" y="160.655656"/>
     <use style="fill:#17becf;stroke:#17becf;" x="109.905455" xlink:href="#m9be2d17f8f" y="227.969472"/>
     <use style="fill:#17becf;stroke:#17becf;" x="145.978182" xlink:href="#m9be2d17f8f" y="243.065073"/>
     <use style="fill:#17becf;stroke:#17becf;" x="182.050909" xlink:href="#m9be2d17f8f" y="249.148548"/>
     <use style="fill:#17becf;stroke:#17becf;" x="218.123636" xlink:href="#m9be2d17f8f" y="252.657924"/>
     <use style="fill:#17becf;stroke:#17becf;" x="254.196364" xlink:href="#m9be2d17f8f" y="255.304917"/>
     <use style="fill:#17becf;stroke:#17becf;" x="290.269091" xlink:href="#m9be2d17f8f" y="256.97807"/>
     <use style="fill:#17becf;stroke:#17becf;" x="326.341818" xlink:href="#m9be2d17f8f" y="258.731722"/>
     <use style="fill:#17becf;stroke:#17becf;" x="362.414545" xlink:href="#m9be2d17f8f" y="260.043195"/>
     <use style="fill:#17becf;stroke:#17becf;" x="398.487273" xlink:href="#m9be2d17f8f" y="261.240653"/>
    </g>
   </g>
   <g id="patch_3">
    <path d="M 57.6 307.584 
L 57.6 41.472 
" style="fill:none;stroke:#000000;stroke-linecap:square;stroke-linejoin:miter;stroke-width:0.8;"/>
   </g>
   <g id="patch_4">
    <path d="M 414.72 307.584 
L 414.72 41.472 
" style="fill:none;stroke:#000000;stroke-linecap:square;stroke-linejoin:miter;stroke-width:0.8;"/>
   </g>
   <g id="patch_5">
    <path d="M 57.6 307.584 
L 414.72 307.584 
" style="fill:none;stroke:#000000;stroke-linecap:square;stroke-linejoin:miter;stroke-width:0.8;"/>
   </g>
   <g id="patch_6">
    <path d="M 57.6 41.472 
L 414.72 41.472 
" style="fill:none;stroke:#000000;stroke-linecap:square;stroke-linejoin:miter;stroke-width:0.8;"/>
   </g>
   <g id="text_16">
    <!-- CPU: Comparison of loss by optimization method -->
    <defs>
     <path d="M 64.40625 67.28125 
L 64.40625 56.890625 
Q 59.421875 61.53125 53.78125 63.8125 
Q 48.140625 66.109375 41.796875 66.109375 
Q 29.296875 66.109375 22.65625 58.46875 
Q 16.015625 50.828125 16.015625 36.375 
Q 16.015625 21.96875 22.65625 14.328125 
Q 29.296875 6.6875 41.796875 6.6875 
Q 48.140625 6.6875 53.78125 8.984375 
Q 59.421875 11.28125 64.40625 15.921875 
L 64.40625 5.609375 
Q 59.234375 2.09375 53.4375 0.328125 
Q 47.65625 -1.421875 41.21875 -1.421875 
Q 24.65625 -1.421875 15.125 8.703125 
Q 5.609375 18.84375 5.609375 36.375 
Q 5.609375 53.953125 15.125 64.078125 
Q 24.65625 74.21875 41.21875 74.21875 
Q 47.75 74.21875 53.53125 72.484375 
Q 59.328125 70.75 64.40625 67.28125 
z
" id="DejaVuSans-67"/>
     <path d="M 19.671875 64.796875 
L 19.671875 37.40625 
L 32.078125 37.40625 
Q 38.96875 37.40625 42.71875 40.96875 
Q 46.484375 44.53125 46.484375 51.125 
Q 46.484375 57.671875 42.71875 61.234375 
Q 38.96875 64.796875 32.078125 64.796875 
z
M 9.8125 72.90625 
L 32.078125 72.90625 
Q 44.34375 72.90625 50.609375 67.359375 
Q 56.890625 61.8125 56.890625 51.125 
Q 56.890625 40.328125 50.609375 34.8125 
Q 44.34375 29.296875 32.078125 29.296875 
L 19.671875 29.296875 
L 19.671875 0 
L 9.8125 0 
z
" id="DejaVuSans-80"/>
     <path d="M 8.6875 72.90625 
L 18.609375 72.90625 
L 18.609375 28.609375 
Q 18.609375 16.890625 22.84375 11.734375 
Q 27.09375 6.59375 36.625 6.59375 
Q 46.09375 6.59375 50.34375 11.734375 
Q 54.59375 16.890625 54.59375 28.609375 
L 54.59375 72.90625 
L 64.5 72.90625 
L 64.5 27.390625 
Q 64.5 13.140625 57.4375 5.859375 
Q 50.390625 -1.421875 36.625 -1.421875 
Q 22.796875 -1.421875 15.734375 5.859375 
Q 8.6875 13.140625 8.6875 27.390625 
z
" id="DejaVuSans-85"/>
     <path d="M 11.71875 12.40625 
L 22.015625 12.40625 
L 22.015625 0 
L 11.71875 0 
z
M 11.71875 51.703125 
L 22.015625 51.703125 
L 22.015625 39.3125 
L 11.71875 39.3125 
z
" id="DejaVuSans-58"/>
     <path d="M 34.28125 27.484375 
Q 23.390625 27.484375 19.1875 25 
Q 14.984375 22.515625 14.984375 16.5 
Q 14.984375 11.71875 18.140625 8.90625 
Q 21.296875 6.109375 26.703125 6.109375 
Q 34.1875 6.109375 38.703125 11.40625 
Q 43.21875 16.703125 43.21875 25.484375 
L 43.21875 27.484375 
z
M 52.203125 31.203125 
L 52.203125 0 
L 43.21875 0 
L 43.21875 8.296875 
Q 40.140625 3.328125 35.546875 0.953125 
Q 30.953125 -1.421875 24.3125 -1.421875 
Q 15.921875 -1.421875 10.953125 3.296875 
Q 6 8.015625 6 15.921875 
Q 6 25.140625 12.171875 29.828125 
Q 18.359375 34.515625 30.609375 34.515625 
L 43.21875 34.515625 
L 43.21875 35.40625 
Q 43.21875 41.609375 39.140625 45 
Q 35.0625 48.390625 27.6875 48.390625 
Q 23 48.390625 18.546875 47.265625 
Q 14.109375 46.140625 10.015625 43.890625 
L 10.015625 52.203125 
Q 14.9375 54.109375 19.578125 55.046875 
Q 24.21875 56 28.609375 56 
Q 40.484375 56 46.34375 49.84375 
Q 52.203125 43.703125 52.203125 31.203125 
z
" id="DejaVuSans-97"/>
     <path d="M 41.109375 46.296875 
Q 39.59375 47.171875 37.8125 47.578125 
Q 36.03125 48 33.890625 48 
Q 26.265625 48 22.1875 43.046875 
Q 18.109375 38.09375 18.109375 28.8125 
L 18.109375 0 
L 9.078125 0 
L 9.078125 54.6875 
L 18.109375 54.6875 
L 18.109375 46.1875 
Q 20.953125 51.171875 25.484375 53.578125 
Q 30.03125 56 36.53125 56 
Q 37.453125 56 38.578125 55.875 
Q 39.703125 55.765625 41.0625 55.515625 
z
" id="DejaVuSans-114"/>
     <path d="M 9.421875 54.6875 
L 18.40625 54.6875 
L 18.40625 0 
L 9.421875 0 
z
M 9.421875 75.984375 
L 18.40625 75.984375 
L 18.40625 64.59375 
L 9.421875 64.59375 
z
" id="DejaVuSans-105"/>
     <path d="M 54.890625 33.015625 
L 54.890625 0 
L 45.90625 0 
L 45.90625 32.71875 
Q 45.90625 40.484375 42.875 44.328125 
Q 39.84375 48.1875 33.796875 48.1875 
Q 26.515625 48.1875 22.3125 43.546875 
Q 18.109375 38.921875 18.109375 30.90625 
L 18.109375 0 
L 9.078125 0 
L 9.078125 54.6875 
L 18.109375 54.6875 
L 18.109375 46.1875 
Q 21.34375 51.125 25.703125 53.5625 
Q 30.078125 56 35.796875 56 
Q 45.21875 56 50.046875 50.171875 
Q 54.890625 44.34375 54.890625 33.015625 
z
" id="DejaVuSans-110"/>
     <path d="M 37.109375 75.984375 
L 37.109375 68.5 
L 28.515625 68.5 
Q 23.6875 68.5 21.796875 66.546875 
Q 19.921875 64.59375 19.921875 59.515625 
L 19.921875 54.6875 
L 34.71875 54.6875 
L 34.71875 47.703125 
L 19.921875 47.703125 
L 19.921875 0 
L 10.890625 0 
L 10.890625 47.703125 
L 2.296875 47.703125 
L 2.296875 54.6875 
L 10.890625 54.6875 
L 10.890625 58.5 
Q 10.890625 67.625 15.140625 71.796875 
Q 19.390625 75.984375 28.609375 75.984375 
z
" id="DejaVuSans-102"/>
     <path d="M 9.421875 75.984375 
L 18.40625 75.984375 
L 18.40625 0 
L 9.421875 0 
z
" id="DejaVuSans-108"/>
     <path d="M 48.6875 27.296875 
Q 48.6875 37.203125 44.609375 42.84375 
Q 40.53125 48.484375 33.40625 48.484375 
Q 26.265625 48.484375 22.1875 42.84375 
Q 18.109375 37.203125 18.109375 27.296875 
Q 18.109375 17.390625 22.1875 11.75 
Q 26.265625 6.109375 33.40625 6.109375 
Q 40.53125 6.109375 44.609375 11.75 
Q 48.6875 17.390625 48.6875 27.296875 
z
M 18.109375 46.390625 
Q 20.953125 51.265625 25.265625 53.625 
Q 29.59375 56 35.59375 56 
Q 45.5625 56 51.78125 48.09375 
Q 58.015625 40.1875 58.015625 27.296875 
Q 58.015625 14.40625 51.78125 6.484375 
Q 45.5625 -1.421875 35.59375 -1.421875 
Q 29.59375 -1.421875 25.265625 0.953125 
Q 20.953125 3.328125 18.109375 8.203125 
L 18.109375 0 
L 9.078125 0 
L 9.078125 75.984375 
L 18.109375 75.984375 
z
" id="DejaVuSans-98"/>
     <path d="M 32.171875 -5.078125 
Q 28.375 -14.84375 24.75 -17.8125 
Q 21.140625 -20.796875 15.09375 -20.796875 
L 7.90625 -20.796875 
L 7.90625 -13.28125 
L 13.1875 -13.28125 
Q 16.890625 -13.28125 18.9375 -11.515625 
Q 21 -9.765625 23.484375 -3.21875 
L 25.09375 0.875 
L 2.984375 54.6875 
L 12.5 54.6875 
L 29.59375 11.921875 
L 46.6875 54.6875 
L 56.203125 54.6875 
z
" id="DejaVuSans-121"/>
     <path d="M 18.3125 70.21875 
L 18.3125 54.6875 
L 36.8125 54.6875 
L 36.8125 47.703125 
L 18.3125 47.703125 
L 18.3125 18.015625 
Q 18.3125 11.328125 20.140625 9.421875 
Q 21.96875 7.515625 27.59375 7.515625 
L 36.8125 7.515625 
L 36.8125 0 
L 27.59375 0 
Q 17.1875 0 13.234375 3.875 
Q 9.28125 7.765625 9.28125 18.015625 
L 9.28125 47.703125 
L 2.6875 47.703125 
L 2.6875 54.6875 
L 9.28125 54.6875 
L 9.28125 70.21875 
z
" id="DejaVuSans-116"/>
     <path d="M 5.515625 54.6875 
L 48.1875 54.6875 
L 48.1875 46.484375 
L 14.40625 7.171875 
L 48.1875 7.171875 
L 48.1875 0 
L 4.296875 0 
L 4.296875 8.203125 
L 38.09375 47.515625 
L 5.515625 47.515625 
z
" id="DejaVuSans-122"/>
     <path d="M 56.203125 29.59375 
L 56.203125 25.203125 
L 14.890625 25.203125 
Q 15.484375 15.921875 20.484375 11.0625 
Q 25.484375 6.203125 34.421875 6.203125 
Q 39.59375 6.203125 44.453125 7.46875 
Q 49.3125 8.734375 54.109375 11.28125 
L 54.109375 2.78125 
Q 49.265625 0.734375 44.1875 -0.34375 
Q 39.109375 -1.421875 33.890625 -1.421875 
Q 20.796875 -1.421875 13.15625 6.1875 
Q 5.515625 13.8125 5.515625 26.8125 
Q 5.515625 40.234375 12.765625 48.109375 
Q 20.015625 56 32.328125 56 
Q 43.359375 56 49.78125 48.890625 
Q 56.203125 41.796875 56.203125 29.59375 
z
M 47.21875 32.234375 
Q 47.125 39.59375 43.09375 43.984375 
Q 39.0625 48.390625 32.421875 48.390625 
Q 24.90625 48.390625 20.390625 44.140625 
Q 15.875 39.890625 15.1875 32.171875 
z
" id="DejaVuSans-101"/>
     <path d="M 45.40625 46.390625 
L 45.40625 75.984375 
L 54.390625 75.984375 
L 54.390625 0 
L 45.40625 0 
L 45.40625 8.203125 
Q 42.578125 3.328125 38.25 0.953125 
Q 33.9375 -1.421875 27.875 -1.421875 
Q 17.96875 -1.421875 11.734375 6.484375 
Q 5.515625 14.40625 5.515625 27.296875 
Q 5.515625 40.1875 11.734375 48.09375 
Q 17.96875 56 27.875 56 
Q 33.9375 56 38.25 53.625 
Q 42.578125 51.265625 45.40625 46.390625 
z
M 14.796875 27.296875 
Q 14.796875 17.390625 18.875 11.75 
Q 22.953125 6.109375 30.078125 6.109375 
Q 37.203125 6.109375 41.296875 11.75 
Q 45.40625 17.390625 45.40625 27.296875 
Q 45.40625 37.203125 41.296875 42.84375 
Q 37.203125 48.484375 30.078125 48.484375 
Q 22.953125 48.484375 18.875 42.84375 
Q 14.796875 37.203125 14.796875 27.296875 
z
" id="DejaVuSans-100"/>
    </defs>
    <g transform="translate(89.340937 35.472)scale(0.12 -0.12)">
     <use xlink:href="#DejaVuSans-67"/>
     <use x="69.824219" xlink:href="#DejaVuSans-80"/>
     <use x="130.126953" xlink:href="#DejaVuSans-85"/>
     <use x="203.320312" xlink:href="#DejaVuSans-58"/>
     <use x="237.011719" xlink:href="#DejaVuSans-32"/>
     <use x="268.798828" xlink:href="#DejaVuSans-67"/>
     <use x="338.623047" xlink:href="#DejaVuSans-111"/>
     <use x="399.804688" xlink:href="#DejaVuSans-109"/>
     <use x="497.216797" xlink:href="#DejaVuSans-112"/>
     <use x="560.693359" xlink:href="#DejaVuSans-97"/>
     <use x="621.972656" xlink:href="#DejaVuSans-114"/>
     <use x="663.085938" xlink:href="#DejaVuSans-105"/>
     <use x="690.869141" xlink:href="#DejaVuSans-115"/>
     <use x="742.96875" xlink:href="#DejaVuSans-111"/>
     <use x="804.150391" xlink:href="#DejaVuSans-110"/>
     <use x="867.529297" xlink:href="#DejaVuSans-32"/>
     <use x="899.316406" xlink:href="#DejaVuSans-111"/>
     <use x="960.498047" xlink:href="#DejaVuSans-102"/>
     <use x="995.703125" xlink:href="#DejaVuSans-32"/>
     <use x="1027.490234" xlink:href="#DejaVuSans-108"/>
     <use x="1055.273438" xlink:href="#DejaVuSans-111"/>
     <use x="1116.455078" xlink:href="#DejaVuSans-115"/>
     <use x="1168.554688" xlink:href="#DejaVuSans-115"/>
     <use x="1220.654297" xlink:href="#DejaVuSans-32"/>
     <use x="1252.441406" xlink:href="#DejaVuSans-98"/>
     <use x="1315.917969" xlink:href="#DejaVuSans-121"/>
     <use x="1375.097656" xlink:href="#DejaVuSans-32"/>
     <use x="1406.884766" xlink:href="#DejaVuSans-111"/>
     <use x="1468.066406" xlink:href="#DejaVuSans-112"/>
     <use x="1531.542969" xlink:href="#DejaVuSans-116"/>
     <use x="1570.751953" xlink:href="#DejaVuSans-105"/>
     <use x="1598.535156" xlink:href="#DejaVuSans-109"/>
     <use x="1695.947266" xlink:href="#DejaVuSans-105"/>
     <use x="1723.730469" xlink:href="#DejaVuSans-122"/>
     <use x="1776.220703" xlink:href="#DejaVuSans-97"/>
     <use x="1837.5" xlink:href="#DejaVuSans-116"/>
     <use x="1876.708984" xlink:href="#DejaVuSans-105"/>
     <use x="1904.492188" xlink:href="#DejaVuSans-111"/>
     <use x="1965.673828" xlink:href="#DejaVuSans-110"/>
     <use x="2029.052734" xlink:href="#DejaVuSans-32"/>
     <use x="2060.839844" xlink:href="#DejaVuSans-109"/>
     <use x="2158.251953" xlink:href="#DejaVuSans-101"/>
     <use x="2219.775391" xlink:href="#DejaVuSans-116"/>
     <use x="2258.984375" xlink:href="#DejaVuSans-104"/>
     <use x="2322.363281" xlink:href="#DejaVuSans-111"/>
     <use x="2383.544922" xlink:href="#DejaVuSans-100"/>
    </g>
   </g>
   <g id="legend_1">
    <g id="patch_7">
     <path d="M 195.848125 196.25325 
L 407.72 196.25325 
Q 409.72 196.25325 409.72 194.25325 
L 409.72 48.472 
Q 409.72 46.472 407.72 46.472 
L 195.848125 46.472 
Q 193.848125 46.472 193.848125 48.472 
L 193.848125 194.25325 
Q 193.848125 196.25325 195.848125 196.25325 
z
" style="fill:#ffffff;opacity:0.8;stroke:#cccccc;stroke-linejoin:miter;"/>
    </g>
    <g id="line2d_37">
     <path d="M 197.848125 54.570437 
L 217.848125 54.570437 
" style="fill:none;stroke:#1f77b4;stroke-linecap:square;stroke-width:1.5;"/>
    </g>
    <g id="line2d_38">
     <g>
      <use style="fill:#1f77b4;stroke:#1f77b4;" x="207.848125" xlink:href="#m2f79e8053c" y="54.570437"/>
     </g>
    </g>
    <g id="text_17">
     <!-- adam-main/loss -->
     <defs>
      <path d="M 4.890625 31.390625 
L 31.203125 31.390625 
L 31.203125 23.390625 
L 4.890625 23.390625 
z
" id="DejaVuSans-45"/>
      <path d="M 25.390625 72.90625 
L 33.6875 72.90625 
L 8.296875 -9.28125 
L 0 -9.28125 
z
" id="DejaVuSans-47"/>
     </defs>
     <g transform="translate(225.848125 58.070437)scale(0.1 -0.1)">
      <use xlink:href="#DejaVuSans-97"/>
      <use x="61.279297" xlink:href="#DejaVuSans-100"/>
      <use x="124.755859" xlink:href="#DejaVuSans-97"/>
      <use x="186.035156" xlink:href="#DejaVuSans-109"/>
      <use x="283.447266" xlink:href="#DejaVuSans-45"/>
      <use x="319.53125" xlink:href="#DejaVuSans-109"/>
      <use x="416.943359" xlink:href="#DejaVuSans-97"/>
      <use x="478.222656" xlink:href="#DejaVuSans-105"/>
      <use x="506.005859" xlink:href="#DejaVuSans-110"/>
      <use x="569.384766" xlink:href="#DejaVuSans-47"/>
      <use x="603.076172" xlink:href="#DejaVuSans-108"/>
      <use x="630.859375" xlink:href="#DejaVuSans-111"/>
      <use x="692.041016" xlink:href="#DejaVuSans-115"/>
      <use x="744.140625" xlink:href="#DejaVuSans-115"/>
     </g>
    </g>
    <g id="line2d_39">
     <path d="M 197.848125 69.248562 
L 217.848125 69.248562 
" style="fill:none;stroke:#ff7f0e;stroke-linecap:square;stroke-width:1.5;"/>
    </g>
    <g id="line2d_40">
     <g>
      <use style="fill:#ff7f0e;stroke:#ff7f0e;" x="207.848125" xlink:href="#m2ed2a99cc1" y="69.248562"/>
     </g>
    </g>
    <g id="text_18">
     <!-- adam-validation/main/loss -->
     <defs>
      <path d="M 2.984375 54.6875 
L 12.5 54.6875 
L 29.59375 8.796875 
L 46.6875 54.6875 
L 56.203125 54.6875 
L 35.6875 0 
L 23.484375 0 
z
" id="DejaVuSans-118"/>
     </defs>
     <g transform="translate(225.848125 72.748562)scale(0.1 -0.1)">
      <use xlink:href="#DejaVuSans-97"/>
      <use x="61.279297" xlink:href="#DejaVuSans-100"/>
      <use x="124.755859" xlink:href="#DejaVuSans-97"/>
      <use x="186.035156" xlink:href="#DejaVuSans-109"/>
      <use x="283.447266" xlink:href="#DejaVuSans-45"/>
      <use x="319.5" xlink:href="#DejaVuSans-118"/>
      <use x="378.679688" xlink:href="#DejaVuSans-97"/>
      <use x="439.958984" xlink:href="#DejaVuSans-108"/>
      <use x="467.742188" xlink:href="#DejaVuSans-105"/>
      <use x="495.525391" xlink:href="#DejaVuSans-100"/>
      <use x="559.001953" xlink:href="#DejaVuSans-97"/>
      <use x="620.28125" xlink:href="#DejaVuSans-116"/>
      <use x="659.490234" xlink:href="#DejaVuSans-105"/>
      <use x="687.273438" xlink:href="#DejaVuSans-111"/>
      <use x="748.455078" xlink:href="#DejaVuSans-110"/>
      <use x="811.833984" xlink:href="#DejaVuSans-47"/>
      <use x="845.525391" xlink:href="#DejaVuSans-109"/>
      <use x="942.9375" xlink:href="#DejaVuSans-97"/>
      <use x="1004.216797" xlink:href="#DejaVuSans-105"/>
      <use x="1032" xlink:href="#DejaVuSans-110"/>
      <use x="1095.378906" xlink:href="#DejaVuSans-47"/>
      <use x="1129.070312" xlink:href="#DejaVuSans-108"/>
      <use x="1156.853516" xlink:href="#DejaVuSans-111"/>
      <use x="1218.035156" xlink:href="#DejaVuSans-115"/>
      <use x="1270.134766" xlink:href="#DejaVuSans-115"/>
     </g>
    </g>
    <g id="line2d_41">
     <path d="M 197.848125 83.926688 
L 217.848125 83.926688 
" style="fill:none;stroke:#2ca02c;stroke-linecap:square;stroke-width:1.5;"/>
    </g>
    <g id="line2d_42">
     <g>
      <use style="fill:#2ca02c;stroke:#2ca02c;" x="207.848125" xlink:href="#mecfd9f286d" y="83.926688"/>
     </g>
    </g>
    <g id="text_19">
     <!-- adagrad-main/loss -->
     <defs>
      <path d="M 45.40625 27.984375 
Q 45.40625 37.75 41.375 43.109375 
Q 37.359375 48.484375 30.078125 48.484375 
Q 22.859375 48.484375 18.828125 43.109375 
Q 14.796875 37.75 14.796875 27.984375 
Q 14.796875 18.265625 18.828125 12.890625 
Q 22.859375 7.515625 30.078125 7.515625 
Q 37.359375 7.515625 41.375 12.890625 
Q 45.40625 18.265625 45.40625 27.984375 
z
M 54.390625 6.78125 
Q 54.390625 -7.171875 48.1875 -13.984375 
Q 42 -20.796875 29.203125 -20.796875 
Q 24.46875 -20.796875 20.265625 -20.09375 
Q 16.0625 -19.390625 12.109375 -17.921875 
L 12.109375 -9.1875 
Q 16.0625 -11.328125 19.921875 -12.34375 
Q 23.78125 -13.375 27.78125 -13.375 
Q 36.625 -13.375 41.015625 -8.765625 
Q 45.40625 -4.15625 45.40625 5.171875 
L 45.40625 9.625 
Q 42.625 4.78125 38.28125 2.390625 
Q 33.9375 0 27.875 0 
Q 17.828125 0 11.671875 7.65625 
Q 5.515625 15.328125 5.515625 27.984375 
Q 5.515625 40.671875 11.671875 48.328125 
Q 17.828125 56 27.875 56 
Q 33.9375 56 38.28125 53.609375 
Q 42.625 51.21875 45.40625 46.390625 
L 45.40625 54.6875 
L 54.390625 54.6875 
z
" id="DejaVuSans-103"/>
     </defs>
     <g transform="translate(225.848125 87.426688)scale(0.1 -0.1)">
      <use xlink:href="#DejaVuSans-97"/>
      <use x="61.279297" xlink:href="#DejaVuSans-100"/>
      <use x="124.755859" xlink:href="#DejaVuSans-97"/>
      <use x="186.035156" xlink:href="#DejaVuSans-103"/>
      <use x="249.511719" xlink:href="#DejaVuSans-114"/>
      <use x="290.625" xlink:href="#DejaVuSans-97"/>
      <use x="351.904297" xlink:href="#DejaVuSans-100"/>
      <use x="415.380859" xlink:href="#DejaVuSans-45"/>
      <use x="451.464844" xlink:href="#DejaVuSans-109"/>
      <use x="548.876953" xlink:href="#DejaVuSans-97"/>
      <use x="610.15625" xlink:href="#DejaVuSans-105"/>
      <use x="637.939453" xlink:href="#DejaVuSans-110"/>
      <use x="701.318359" xlink:href="#DejaVuSans-47"/>
      <use x="735.009766" xlink:href="#DejaVuSans-108"/>
      <use x="762.792969" xlink:href="#DejaVuSans-111"/>
      <use x="823.974609" xlink:href="#DejaVuSans-115"/>
      <use x="876.074219" xlink:href="#DejaVuSans-115"/>
     </g>
    </g>
    <g id="line2d_43">
     <path d="M 197.848125 98.604812 
L 217.848125 98.604812 
" style="fill:none;stroke:#d62728;stroke-linecap:square;stroke-width:1.5;"/>
    </g>
    <g id="line2d_44">
     <g>
      <use style="fill:#d62728;stroke:#d62728;" x="207.848125" xlink:href="#ma6d491b450" y="98.604812"/>
     </g>
    </g>
    <g id="text_20">
     <!-- adagrad-validation/main/loss -->
     <g transform="translate(225.848125 102.104812)scale(0.1 -0.1)">
      <use xlink:href="#DejaVuSans-97"/>
      <use x="61.279297" xlink:href="#DejaVuSans-100"/>
      <use x="124.755859" xlink:href="#DejaVuSans-97"/>
      <use x="186.035156" xlink:href="#DejaVuSans-103"/>
      <use x="249.511719" xlink:href="#DejaVuSans-114"/>
      <use x="290.625" xlink:href="#DejaVuSans-97"/>
      <use x="351.904297" xlink:href="#DejaVuSans-100"/>
      <use x="415.380859" xlink:href="#DejaVuSans-45"/>
      <use x="451.433594" xlink:href="#DejaVuSans-118"/>
      <use x="510.613281" xlink:href="#DejaVuSans-97"/>
      <use x="571.892578" xlink:href="#DejaVuSans-108"/>
      <use x="599.675781" xlink:href="#DejaVuSans-105"/>
      <use x="627.458984" xlink:href="#DejaVuSans-100"/>
      <use x="690.935547" xlink:href="#DejaVuSans-97"/>
      <use x="752.214844" xlink:href="#DejaVuSans-116"/>
      <use x="791.423828" xlink:href="#DejaVuSans-105"/>
      <use x="819.207031" xlink:href="#DejaVuSans-111"/>
      <use x="880.388672" xlink:href="#DejaVuSans-110"/>
      <use x="943.767578" xlink:href="#DejaVuSans-47"/>
      <use x="977.458984" xlink:href="#DejaVuSans-109"/>
      <use x="1074.871094" xlink:href="#DejaVuSans-97"/>
      <use x="1136.150391" xlink:href="#DejaVuSans-105"/>
      <use x="1163.933594" xlink:href="#DejaVuSans-110"/>
      <use x="1227.3125" xlink:href="#DejaVuSans-47"/>
      <use x="1261.003906" xlink:href="#DejaVuSans-108"/>
      <use x="1288.787109" xlink:href="#DejaVuSans-111"/>
      <use x="1349.96875" xlink:href="#DejaVuSans-115"/>
      <use x="1402.068359" xlink:href="#DejaVuSans-115"/>
     </g>
    </g>
    <g id="line2d_45">
     <path d="M 197.848125 113.282938 
L 217.848125 113.282938 
" style="fill:none;stroke:#9467bd;stroke-linecap:square;stroke-width:1.5;"/>
    </g>
    <g id="line2d_46">
     <g>
      <use style="fill:#9467bd;stroke:#9467bd;" x="207.848125" xlink:href="#m30a97210c7" y="113.282938"/>
     </g>
    </g>
    <g id="text_21">
     <!-- momentumsgd-main/loss -->
     <g transform="translate(225.848125 116.782938)scale(0.1 -0.1)">
      <use xlink:href="#DejaVuSans-109"/>
      <use x="97.412109" xlink:href="#DejaVuSans-111"/>
      <use x="158.59375" xlink:href="#DejaVuSans-109"/>
      <use x="256.005859" xlink:href="#DejaVuSans-101"/>
      <use x="317.529297" xlink:href="#DejaVuSans-110"/>
      <use x="380.908203" xlink:href="#DejaVuSans-116"/>
      <use x="420.117188" xlink:href="#DejaVuSans-117"/>
      <use x="483.496094" xlink:href="#DejaVuSans-109"/>
      <use x="580.908203" xlink:href="#DejaVuSans-115"/>
      <use x="633.007812" xlink:href="#DejaVuSans-103"/>
      <use x="696.484375" xlink:href="#DejaVuSans-100"/>
      <use x="759.960938" xlink:href="#DejaVuSans-45"/>
      <use x="796.044922" xlink:href="#DejaVuSans-109"/>
      <use x="893.457031" xlink:href="#DejaVuSans-97"/>
      <use x="954.736328" xlink:href="#DejaVuSans-105"/>
      <use x="982.519531" xlink:href="#DejaVuSans-110"/>
      <use x="1045.898438" xlink:href="#DejaVuSans-47"/>
      <use x="1079.589844" xlink:href="#DejaVuSans-108"/>
      <use x="1107.373047" xlink:href="#DejaVuSans-111"/>
      <use x="1168.554688" xlink:href="#DejaVuSans-115"/>
      <use x="1220.654297" xlink:href="#DejaVuSans-115"/>
     </g>
    </g>
    <g id="line2d_47">
     <path d="M 197.848125 127.961062 
L 217.848125 127.961062 
" style="fill:none;stroke:#8c564b;stroke-linecap:square;stroke-width:1.5;"/>
    </g>
    <g id="line2d_48">
     <g>
      <use style="fill:#8c564b;stroke:#8c564b;" x="207.848125" xlink:href="#me3ffcb7dea" y="127.961062"/>
     </g>
    </g>
    <g id="text_22">
     <!-- momentumsgd-validation/main/loss -->
     <g transform="translate(225.848125 131.461062)scale(0.1 -0.1)">
      <use xlink:href="#DejaVuSans-109"/>
      <use x="97.412109" xlink:href="#DejaVuSans-111"/>
      <use x="158.59375" xlink:href="#DejaVuSans-109"/>
      <use x="256.005859" xlink:href="#DejaVuSans-101"/>
      <use x="317.529297" xlink:href="#DejaVuSans-110"/>
      <use x="380.908203" xlink:href="#DejaVuSans-116"/>
      <use x="420.117188" xlink:href="#DejaVuSans-117"/>
      <use x="483.496094" xlink:href="#DejaVuSans-109"/>
      <use x="580.908203" xlink:href="#DejaVuSans-115"/>
      <use x="633.007812" xlink:href="#DejaVuSans-103"/>
      <use x="696.484375" xlink:href="#DejaVuSans-100"/>
      <use x="759.960938" xlink:href="#DejaVuSans-45"/>
      <use x="796.013672" xlink:href="#DejaVuSans-118"/>
      <use x="855.193359" xlink:href="#DejaVuSans-97"/>
      <use x="916.472656" xlink:href="#DejaVuSans-108"/>
      <use x="944.255859" xlink:href="#DejaVuSans-105"/>
      <use x="972.039062" xlink:href="#DejaVuSans-100"/>
      <use x="1035.515625" xlink:href="#DejaVuSans-97"/>
      <use x="1096.794922" xlink:href="#DejaVuSans-116"/>
      <use x="1136.003906" xlink:href="#DejaVuSans-105"/>
      <use x="1163.787109" xlink:href="#DejaVuSans-111"/>
      <use x="1224.96875" xlink:href="#DejaVuSans-110"/>
      <use x="1288.347656" xlink:href="#DejaVuSans-47"/>
      <use x="1322.039062" xlink:href="#DejaVuSans-109"/>
      <use x="1419.451172" xlink:href="#DejaVuSans-97"/>
      <use x="1480.730469" xlink:href="#DejaVuSans-105"/>
      <use x="1508.513672" xlink:href="#DejaVuSans-110"/>
      <use x="1571.892578" xlink:href="#DejaVuSans-47"/>
      <use x="1605.583984" xlink:href="#DejaVuSans-108"/>
      <use x="1633.367188" xlink:href="#DejaVuSans-111"/>
      <use x="1694.548828" xlink:href="#DejaVuSans-115"/>
      <use x="1746.648438" xlink:href="#DejaVuSans-115"/>
     </g>
    </g>
    <g id="line2d_49">
     <path d="M 197.848125 142.639187 
L 217.848125 142.639187 
" style="fill:none;stroke:#e377c2;stroke-linecap:square;stroke-width:1.5;"/>
    </g>
    <g id="line2d_50">
     <g>
      <use style="fill:#e377c2;stroke:#e377c2;" x="207.848125" xlink:href="#ma81ee3d731" y="142.639187"/>
     </g>
    </g>
    <g id="text_23">
     <!-- rmsprop-main/loss -->
     <g transform="translate(225.848125 146.139187)scale(0.1 -0.1)">
      <use xlink:href="#DejaVuSans-114"/>
      <use x="41.097656" xlink:href="#DejaVuSans-109"/>
      <use x="138.509766" xlink:href="#DejaVuSans-115"/>
      <use x="190.609375" xlink:href="#DejaVuSans-112"/>
      <use x="254.085938" xlink:href="#DejaVuSans-114"/>
      <use x="295.167969" xlink:href="#DejaVuSans-111"/>
      <use x="356.349609" xlink:href="#DejaVuSans-112"/>
      <use x="419.826172" xlink:href="#DejaVuSans-45"/>
      <use x="455.910156" xlink:href="#DejaVuSans-109"/>
      <use x="553.322266" xlink:href="#DejaVuSans-97"/>
      <use x="614.601562" xlink:href="#DejaVuSans-105"/>
      <use x="642.384766" xlink:href="#DejaVuSans-110"/>
      <use x="705.763672" xlink:href="#DejaVuSans-47"/>
      <use x="739.455078" xlink:href="#DejaVuSans-108"/>
      <use x="767.238281" xlink:href="#DejaVuSans-111"/>
      <use x="828.419922" xlink:href="#DejaVuSans-115"/>
      <use x="880.519531" xlink:href="#DejaVuSans-115"/>
     </g>
    </g>
    <g id="line2d_51">
     <path d="M 197.848125 157.317312 
L 217.848125 157.317312 
" style="fill:none;stroke:#7f7f7f;stroke-linecap:square;stroke-width:1.5;"/>
    </g>
    <g id="line2d_52">
     <g>
      <use style="fill:#7f7f7f;stroke:#7f7f7f;" x="207.848125" xlink:href="#m04dd963a96" y="157.317312"/>
     </g>
    </g>
    <g id="text_24">
     <!-- rmsprop-validation/main/loss -->
     <g transform="translate(225.848125 160.817312)scale(0.1 -0.1)">
      <use xlink:href="#DejaVuSans-114"/>
      <use x="41.097656" xlink:href="#DejaVuSans-109"/>
      <use x="138.509766" xlink:href="#DejaVuSans-115"/>
      <use x="190.609375" xlink:href="#DejaVuSans-112"/>
      <use x="254.085938" xlink:href="#DejaVuSans-114"/>
      <use x="295.167969" xlink:href="#DejaVuSans-111"/>
      <use x="356.349609" xlink:href="#DejaVuSans-112"/>
      <use x="419.826172" xlink:href="#DejaVuSans-45"/>
      <use x="455.878906" xlink:href="#DejaVuSans-118"/>
      <use x="515.058594" xlink:href="#DejaVuSans-97"/>
      <use x="576.337891" xlink:href="#DejaVuSans-108"/>
      <use x="604.121094" xlink:href="#DejaVuSans-105"/>
      <use x="631.904297" xlink:href="#DejaVuSans-100"/>
      <use x="695.380859" xlink:href="#DejaVuSans-97"/>
      <use x="756.660156" xlink:href="#DejaVuSans-116"/>
      <use x="795.869141" xlink:href="#DejaVuSans-105"/>
      <use x="823.652344" xlink:href="#DejaVuSans-111"/>
      <use x="884.833984" xlink:href="#DejaVuSans-110"/>
      <use x="948.212891" xlink:href="#DejaVuSans-47"/>
      <use x="981.904297" xlink:href="#DejaVuSans-109"/>
      <use x="1079.316406" xlink:href="#DejaVuSans-97"/>
      <use x="1140.595703" xlink:href="#DejaVuSans-105"/>
      <use x="1168.378906" xlink:href="#DejaVuSans-110"/>
      <use x="1231.757812" xlink:href="#DejaVuSans-47"/>
      <use x="1265.449219" xlink:href="#DejaVuSans-108"/>
      <use x="1293.232422" xlink:href="#DejaVuSans-111"/>
      <use x="1354.414062" xlink:href="#DejaVuSans-115"/>
      <use x="1406.513672" xlink:href="#DejaVuSans-115"/>
     </g>
    </g>
    <g id="line2d_53">
     <path d="M 197.848125 171.995437 
L 217.848125 171.995437 
" style="fill:none;stroke:#bcbd22;stroke-linecap:square;stroke-width:1.5;"/>
    </g>
    <g id="line2d_54">
     <g>
      <use style="fill:#bcbd22;stroke:#bcbd22;" x="207.848125" xlink:href="#mdd4d1b6c8f" y="171.995437"/>
     </g>
    </g>
    <g id="text_25">
     <!-- sgd-main/loss -->
     <g transform="translate(225.848125 175.495437)scale(0.1 -0.1)">
      <use xlink:href="#DejaVuSans-115"/>
      <use x="52.099609" xlink:href="#DejaVuSans-103"/>
      <use x="115.576172" xlink:href="#DejaVuSans-100"/>
      <use x="179.052734" xlink:href="#DejaVuSans-45"/>
      <use x="215.136719" xlink:href="#DejaVuSans-109"/>
      <use x="312.548828" xlink:href="#DejaVuSans-97"/>
      <use x="373.828125" xlink:href="#DejaVuSans-105"/>
      <use x="401.611328" xlink:href="#DejaVuSans-110"/>
      <use x="464.990234" xlink:href="#DejaVuSans-47"/>
      <use x="498.681641" xlink:href="#DejaVuSans-108"/>
      <use x="526.464844" xlink:href="#DejaVuSans-111"/>
      <use x="587.646484" xlink:href="#DejaVuSans-115"/>
      <use x="639.746094" xlink:href="#DejaVuSans-115"/>
     </g>
    </g>
    <g id="line2d_55">
     <path d="M 197.848125 186.673562 
L 217.848125 186.673562 
" style="fill:none;stroke:#17becf;stroke-linecap:square;stroke-width:1.5;"/>
    </g>
    <g id="line2d_56">
     <g>
      <use style="fill:#17becf;stroke:#17becf;" x="207.848125" xlink:href="#m9be2d17f8f" y="186.673562"/>
     </g>
    </g>
    <g id="text_26">
     <!-- sgd-validation/main/loss -->
     <g transform="translate(225.848125 190.173562)scale(0.1 -0.1)">
      <use xlink:href="#DejaVuSans-115"/>
      <use x="52.099609" xlink:href="#DejaVuSans-103"/>
      <use x="115.576172" xlink:href="#DejaVuSans-100"/>
      <use x="179.052734" xlink:href="#DejaVuSans-45"/>
      <use x="215.105469" xlink:href="#DejaVuSans-118"/>
      <use x="274.285156" xlink:href="#DejaVuSans-97"/>
      <use x="335.564453" xlink:href="#DejaVuSans-108"/>
      <use x="363.347656" xlink:href="#DejaVuSans-105"/>
      <use x="391.130859" xlink:href="#DejaVuSans-100"/>
      <use x="454.607422" xlink:href="#DejaVuSans-97"/>
      <use x="515.886719" xlink:href="#DejaVuSans-116"/>
      <use x="555.095703" xlink:href="#DejaVuSans-105"/>
      <use x="582.878906" xlink:href="#DejaVuSans-111"/>
      <use x="644.060547" xlink:href="#DejaVuSans-110"/>
      <use x="707.439453" xlink:href="#DejaVuSans-47"/>
      <use x="741.130859" xlink:href="#DejaVuSans-109"/>
      <use x="838.542969" xlink:href="#DejaVuSans-97"/>
      <use x="899.822266" xlink:href="#DejaVuSans-105"/>
      <use x="927.605469" xlink:href="#DejaVuSans-110"/>
      <use x="990.984375" xlink:href="#DejaVuSans-47"/>
      <use x="1024.675781" xlink:href="#DejaVuSans-108"/>
      <use x="1052.458984" xlink:href="#DejaVuSans-111"/>
      <use x="1113.640625" xlink:href="#DejaVuSans-115"/>
      <use x="1165.740234" xlink:href="#DejaVuSans-115"/>
     </g>
    </g>
   </g>
  </g>
 </g>
 <defs>
  <clipPath id="pa320464289">
   <rect height="266.112" width="357.12" x="57.6" y="41.472"/>
  </clipPath>
 </defs>
</svg>
